<svg width="31" height="33" viewBox="0 0 31 33" fill="none" xmlns="http://www.w3.org/2000/svg">
<path d="M15.0057 31.1363C23.2931 31.1363 30.0113 24.1664 30.0113 15.5687C30.0113 6.97086 23.2931 0.000976562 15.0057 0.000976562C6.71827 0.000976562 0 6.97086 0 15.5687C0 24.1664 6.71827 31.1363 15.0057 31.1363Z" fill="url(#paint0_linear_393_1347)"/>
<path d="M15.0057 31.1363C23.2931 31.1363 30.0113 24.1664 30.0113 15.5687C30.0113 6.97086 23.2931 0.000976562 15.0057 0.000976562C6.71827 0.000976562 0 6.97086 0 15.5687C0 24.1664 6.71827 31.1363 15.0057 31.1363Z" fill="url(#paint1_linear_393_1347)"/>
<path d="M15.0057 29.5945C23.2931 29.5945 30.0113 22.9695 30.0113 14.7972C30.0113 6.62495 23.2931 0 15.0057 0C6.71827 0 0 6.62495 0 14.7972C0 22.9695 6.71827 29.5945 15.0057 29.5945Z" fill="url(#paint2_linear_393_1347)"/>
<path d="M30.0172 16.8625C30.0172 22.075 27.5522 26.6884 23.7591 29.5137C21.2941 31.3508 18.2756 32.4293 15.0065 32.4293C14.1812 32.4293 13.377 32.3593 12.5922 32.2293C5.44881 31.031 0.00585938 24.61 0.00585938 16.8616C0.00585938 8.26429 6.7163 1.29395 15.0065 1.29395C23.2966 1.29395 30.0172 8.26514 30.0172 16.8625Z" fill="url(#paint3_linear_393_1347)"/>
<path opacity="0.3" d="M27.8551 20.6763C27.8551 20.6763 24.8568 25.6188 23.7607 29.5132C21.2957 31.3503 18.2772 32.4288 15.0081 32.4288C14.1828 32.4288 13.3785 32.3588 12.5938 32.2288C14.8874 32.0187 17.1515 31.3698 16.4975 29.5225C15.2688 25.9985 27.8551 20.6763 27.8551 20.6763Z" fill="#A06A9A"/>
<path d="M30.0122 14.797C30.0122 15.1261 30.0046 15.4502 29.9801 15.7734C29.9075 16.829 29.7312 17.8569 29.4426 18.8391C27.6603 25.0449 21.8731 29.5925 15.0023 29.5925C6.71803 29.5925 0 22.9665 0 14.797C0 6.62666 6.71888 0.00146484 15.0023 0.00146484C19.1524 0.00146484 22.8924 1.65965 25.6063 4.32796C25.6063 4.32796 25.6063 4.33387 25.6148 4.33893C26.9953 5.69587 28.1033 7.31442 28.8578 9.10848C29.6029 10.857 30.0122 12.7818 30.0122 14.797Z" fill="url(#paint4_linear_393_1347)"/>
<path d="M15.0052 23.6132C19.9431 23.6132 23.946 19.6662 23.946 14.7973C23.946 9.92845 19.9431 5.98145 15.0052 5.98145C10.0674 5.98145 6.06445 9.92845 6.06445 14.7973C6.06445 19.6662 10.0674 23.6132 15.0052 23.6132Z" fill="url(#paint5_linear_393_1347)"/>
<path d="M23.9471 15.3654C23.9471 20.2345 19.9447 24.1813 15.0072 24.1813C10.0697 24.1813 6.06641 20.2345 6.06641 15.3654C6.06641 10.4963 9.16931 17.07 14.1076 17.07C19.0443 17.07 23.9471 10.4963 23.9471 15.3654Z" fill="#FFE83E"/>
<path d="M5.08253 26.2076C5.08253 26.2076 1.61339 24.5359 1.50031 21.4482C1.49609 21.4398 1.49609 21.4398 1.49609 21.4398C1.49609 21.4398 4.2893 20.2339 6.34833 22.8305C7.0614 23.7301 7.12722 24.4153 6.91204 24.925C6.90951 24.9292 6.90697 24.9334 6.90697 24.9334C6.48841 25.8768 5.08253 26.2076 5.08253 26.2076Z" fill="url(#paint6_linear_393_1347)"/>
<path d="M5.08222 26.2081C5.08222 26.2081 1.61308 24.5364 1.5 21.4487C1.60548 21.712 4.12105 27.9313 6.90666 24.9339C6.4881 25.8773 5.08222 26.2081 5.08222 26.2081Z" fill="#FFE83E"/>
<path opacity="0.3" d="M1.91797 21.5769C1.91797 21.5769 6.20228 21.3626 6.72042 24.4621C6.54911 25.268 5.0715 25.219 4.66897 24.9667C4.26645 24.7136 2.09687 22.6866 1.91797 21.5769Z" fill="#A06A9A"/>
<path opacity="0.68" d="M24.9622 6.27272C24.9622 6.27272 23.5149 6.50309 23.4154 8.15286C23.3158 9.80262 26.5596 15.3797 24.1892 19.0869C21.8188 22.7931 18.2256 24.8707 15.8796 25.7028C13.5337 26.5348 14.256 29.0234 18.2754 28.3795C22.2947 27.7357 30.1039 21.8049 29.006 14.3215C27.9073 6.83726 26.3098 5.8491 24.9622 6.27272Z" fill="#FFD13B"/>
<path opacity="0.68" d="M29.9815 15.774C29.9089 16.8297 29.7325 17.8575 29.4439 18.8398C27.2769 16.4947 21.7782 19.5098 21.5293 19.6456C21.666 19.4642 24.4347 15.8989 23.1183 14.082C26.5301 17.0229 28.946 16.3419 29.9815 15.774Z" fill="#FFD13B"/>
<path d="M15.0052 23.6131C19.9431 23.6131 23.946 19.855 23.946 15.2191C23.946 10.5833 19.9431 6.8252 15.0052 6.8252C10.0674 6.8252 6.06445 10.5833 6.06445 15.2191C6.06445 19.855 10.0674 23.6131 15.0052 23.6131Z" fill="url(#paint7_linear_393_1347)"/>
<path d="M28.8563 9.10854C28.7997 9.11951 28.7356 9.10855 28.6478 9.06888C27.2428 8.45539 25.7019 4.58372 25.6133 4.33984C26.9938 5.69594 28.1019 7.31448 28.8563 9.10854Z" fill="#FFE83E"/>
<path opacity="0.68" d="M15.0061 0.243164C15.0061 0.243164 4.82566 1.50896 2.41304 8.15358C0.00042522 14.7982 5.49654 17.9078 5.49654 17.9078C5.49654 17.9078 3.08054 5.81775 15.9926 5.92408C13.5985 4.76967 12.9791 1.20011 15.0061 0.243164Z" fill="#FFD13B"/>
<path opacity="0.68" d="M2.58798 7.71284C2.58798 7.71284 1.18969 11.8765 5.72886 12.4444C5.79384 11.3558 7.15837 9.44613 7.15837 9.44613C7.15837 9.44613 2.75675 8.301 4.01496 5.44873C2.95 6.97444 2.58798 7.71284 2.58798 7.71284Z" fill="#FFD13B"/>
<path opacity="0.44" d="M7.42454 12.8774C7.42454 12.8774 11.3443 5.7391 18.3754 8.15256C21.4935 9.22259 22.7618 13.4318 21.1036 14.0816C19.4454 14.7314 17.3594 10.4555 13.4455 12.0225C11.7527 12.701 6.75535 15.8571 7.42454 12.8774Z" fill="url(#paint8_linear_393_1347)"/>
<path opacity="0.44" d="M8.16038 17.493C8.16038 17.493 10.0549 23.4431 15.6379 22.979C21.2209 22.5149 7.73254 14.1251 8.16038 17.493Z" fill="url(#paint9_linear_393_1347)"/>
<path d="M16.5005 8.33884C16.5537 9.41815 19.5215 12.4451 20.5443 11.5759C22.0818 10.2696 16.4397 7.11186 16.5005 8.33884Z" fill="#F3FFEE"/>
<path d="M10.4512 19.4573C10.4461 20.2362 11.1423 21.7552 12.7322 22.1223C14.3229 22.4885 10.4588 18.1763 10.4512 19.4573Z" fill="#F3FFEE"/>
<path opacity="0.44" d="M14.5456 23.3762C14.5456 23.3762 20.4965 23.3433 22.5893 17.5299C24.6821 11.7165 7.19465 12.5941 8.14906 17.9662C9.10347 23.3391 14.5456 23.3762 14.5456 23.3762Z" fill="url(#paint10_linear_393_1347)"/>
<path d="M8.57812 8.67258C8.57812 8.67258 9.69119 5.00767 11.3882 5.25408C13.0852 5.50133 13.5418 6.54097 13.5418 6.54097L8.57812 8.67258Z" fill="url(#paint11_linear_393_1347)"/>
<path opacity="0.3" d="M10.7509 5.44971C10.7509 5.44971 9.394 7.36614 9.53577 7.65474C9.67754 7.94334 12.3712 7.17289 10.7509 5.44971Z" fill="#A06A9A"/>
<defs>
<linearGradient id="paint0_linear_393_1347" x1="10.37" y1="41.4156" x2="19.9505" y2="-12.0026" gradientUnits="userSpaceOnUse">
<stop stop-color="#FF7540"/>
<stop offset="0.0838" stop-color="#FF8237"/>
<stop offset="0.3471" stop-color="#FFA51F"/>
<stop offset="0.5953" stop-color="#FFBE0E"/>
<stop offset="0.8198" stop-color="#FFCE04"/>
<stop offset="1" stop-color="#FFD300"/>
</linearGradient>
<linearGradient id="paint1_linear_393_1347" x1="10.37" y1="41.4156" x2="19.9505" y2="-12.0026" gradientUnits="userSpaceOnUse">
<stop offset="0.1515" stop-color="#B83A36"/>
<stop offset="0.216" stop-color="#B93E2E"/>
<stop offset="0.4568" stop-color="#BB4915"/>
<stop offset="0.6754" stop-color="#BD5105"/>
<stop offset="0.8509" stop-color="#BD5300"/>
</linearGradient>
<linearGradient id="paint2_linear_393_1347" x1="10.5927" y1="39.4033" x2="19.713" y2="-11.4493" gradientUnits="userSpaceOnUse">
<stop stop-color="#FF7540"/>
<stop offset="0.0838" stop-color="#FF8237"/>
<stop offset="0.3471" stop-color="#FFA51F"/>
<stop offset="0.5953" stop-color="#FFBE0E"/>
<stop offset="0.8198" stop-color="#FFCE04"/>
<stop offset="1" stop-color="#FFD300"/>
</linearGradient>
<linearGradient id="paint3_linear_393_1347" x1="10.3756" y1="42.7107" x2="19.956" y2="-10.7074" gradientUnits="userSpaceOnUse">
<stop offset="0.1515" stop-color="#B83A36"/>
<stop offset="0.216" stop-color="#B93E2E"/>
<stop offset="0.4568" stop-color="#BB4915"/>
<stop offset="0.6754" stop-color="#BD5105"/>
<stop offset="0.8509" stop-color="#BD5300"/>
</linearGradient>
<linearGradient id="paint4_linear_393_1347" x1="10.5931" y1="39.4012" x2="19.7126" y2="-11.4467" gradientUnits="userSpaceOnUse">
<stop stop-color="#FF7540"/>
<stop offset="0.0838" stop-color="#FF8237"/>
<stop offset="0.3471" stop-color="#FFA51F"/>
<stop offset="0.5953" stop-color="#FFBE0E"/>
<stop offset="0.8198" stop-color="#FFCE04"/>
<stop offset="1" stop-color="#FFD300"/>
</linearGradient>
<linearGradient id="paint5_linear_393_1347" x1="12.376" y1="29.4574" x2="17.8098" y2="-0.840049" gradientUnits="userSpaceOnUse">
<stop offset="0.1515" stop-color="#B83A36"/>
<stop offset="0.216" stop-color="#B93E2E"/>
<stop offset="0.4568" stop-color="#BB4915"/>
<stop offset="0.6754" stop-color="#BD5105"/>
<stop offset="0.8509" stop-color="#BD5300"/>
</linearGradient>
<linearGradient id="paint6_linear_393_1347" x1="1.37654" y1="21.6301" x2="6.83283" y2="25.0795" gradientUnits="userSpaceOnUse">
<stop offset="0.1515" stop-color="#B83A36"/>
<stop offset="0.216" stop-color="#B93E2E"/>
<stop offset="0.4568" stop-color="#BB4915"/>
<stop offset="0.6754" stop-color="#BD5105"/>
<stop offset="0.8509" stop-color="#BD5300"/>
</linearGradient>
<linearGradient id="paint7_linear_393_1347" x1="14.7895" y1="6.69583" x2="15.2284" y2="24.0345" gradientUnits="userSpaceOnUse">
<stop stop-color="#7C005B"/>
<stop offset="0.4129" stop-color="#970040"/>
<stop offset="1" stop-color="#C40014"/>
</linearGradient>
<linearGradient id="paint8_linear_393_1347" x1="14.7459" y1="6.73368" x2="14.5265" y2="16.1712" gradientUnits="userSpaceOnUse">
<stop offset="0.0056" stop-color="#D65B10"/>
<stop offset="1"/>
</linearGradient>
<linearGradient id="paint9_linear_393_1347" x1="9.40095" y1="24.0769" x2="17.0827" y2="13.5419" gradientUnits="userSpaceOnUse">
<stop offset="0.0056" stop-color="#D65B10"/>
<stop offset="1"/>
</linearGradient>
<linearGradient id="paint10_linear_393_1347" x1="15.2717" y1="23.1362" x2="15.5464" y2="13.0852" gradientUnits="userSpaceOnUse">
<stop offset="0.0056" stop-color="#D65B10"/>
<stop offset="1"/>
</linearGradient>
<linearGradient id="paint11_linear_393_1347" x1="10.1832" y1="10.5576" x2="12.0306" y2="4.34017" gradientUnits="userSpaceOnUse">
<stop offset="0.1515" stop-color="#B83A36"/>
<stop offset="0.216" stop-color="#B93E2E"/>
<stop offset="0.4568" stop-color="#BB4915"/>
<stop offset="0.6754" stop-color="#BD5105"/>
<stop offset="0.8509" stop-color="#BD5300"/>
</linearGradient>
</defs>
</svg>
