<svg width="169" height="117" viewBox="0 0 169 117" fill="none" xmlns="http://www.w3.org/2000/svg">
<path d="M33.1156 89.5834C33.1156 89.5834 3.17892 90.2488 0.185256 104.223C-2.80841 118.196 31.4521 113.838 32.7833 109.695C32.7833 109.695 57.5529 120.633 68.2852 113.758C79.0185 106.883 70.5853 102.805 70.5853 102.805C70.5853 102.805 90.604 113.172 122.731 109.695C154.858 106.219 181.296 102.805 181.296 102.805C181.296 102.805 203.874 114.204 218.533 99.5646C218.533 99.5646 237.184 105.382 264.626 102.805C292.068 100.23 295.56 93.5759 295.56 93.5759C295.56 93.5759 310.529 94.9067 315.019 89.5834C319.51 84.26 299.552 80.7107 299.552 80.7107C299.552 80.7107 299.552 60.6484 289.074 58.4805C278.596 56.3126 273.607 61.6359 273.607 61.6359C273.607 61.6359 261.086 30.0672 237.161 48.5139C213.235 66.9592 237.161 45.6659 237.161 45.6659C237.161 45.6659 241.924 21.0455 222.091 22.3763C222.091 22.3763 217.582 -3.57492 179.984 0.417583C142.385 4.41008 140.597 27.0342 140.597 27.0342C140.597 27.0342 130.914 15.0567 119.187 16.3876C107.459 17.7184 105.683 35.3626 105.683 35.3626C105.683 35.3626 87.6632 26.3688 79.8477 50.3238C79.8477 50.3238 62.0913 47.3401 61.5734 71.7888C61.5734 71.7888 37.164 67.2547 33.1156 89.5834Z" fill="white"/>
<path d="M127.291 51.9875C127.291 51.9875 138.143 49.6692 139.64 58.4806C139.64 58.4806 140.238 51.1038 147.422 51.712C147.422 51.712 146.625 41.0081 155.107 38.3464C155.107 38.3464 147.899 37.5413 144.297 46.3314C140.695 55.1216 142.598 46.3314 142.598 46.3314C142.598 46.3314 134.65 41.3408 127.291 51.9875Z" fill="#E5D8BD"/>
<path d="M90.2285 82.5966C90.2285 82.5966 91.9908 77.606 100.972 77.606C100.972 77.606 92.2083 66.6266 90.2285 82.5966Z" fill="#E5D8BD"/>
<path d="M84.2574 91.9125C84.2574 91.9125 69.788 85.5911 63.3018 94.2415C63.3018 94.2415 65.2975 84.9256 73.7796 84.5929C82.2617 84.2602 84.2574 91.9125 84.2574 91.9125Z" fill="#E5D8BD"/>
</svg>
