<svg width="167" height="103" viewBox="0 0 167 103" fill="none" xmlns="http://www.w3.org/2000/svg">
<path d="M-26.6796 82.9828C-26.6796 82.9828 -21.1913 88.9716 -12.7092 88.9716C-4.22714 88.9716 1.7602 85.9772 1.7602 85.9772C1.7602 85.9772 4.50838 91.6332 10.369 93.6295C16.2296 95.6257 8.93502 100.949 19.3181 102.28C29.7011 103.611 30.5323 95.6257 30.5323 95.6257C30.5323 95.6257 38.6581 102.28 48.1501 99.6182C57.642 96.9566 58.4443 92.7059 58.4443 92.7059C58.4443 92.7059 71.9328 96.4402 94.7236 92.7059C117.514 88.9716 117.44 82.9828 117.44 82.9828C117.44 82.9828 163.928 88.9716 166.167 82.9828C168.408 76.9941 151.526 76.9941 151.526 76.9941C151.526 76.9941 157.597 61.0241 151.526 57.0316C145.456 53.0391 135.518 55.923 133.918 57.0316C133.918 57.0316 136.248 38.6222 125.135 28.4187C114.023 18.2152 100.589 28.4187 100.589 28.4187C100.589 28.4187 101.154 22.2077 97.6095 19.546C94.0649 16.8843 90.8448 19.546 90.8448 19.546C90.8448 19.546 84.4173 -0.859644 61.3002 0.028021C38.1831 0.915686 31.8625 22.209 31.8625 22.209C31.8625 22.209 27.365 11.1179 16.6417 13.3363C5.9184 15.5535 5.25281 23.5385 5.25281 23.5385C5.25281 23.5385 -9.04993 11.561 -22.0225 22.2077C-34.9951 32.8543 -32.9993 43.9442 -32.9993 43.9442C-32.9993 43.9442 -44.3084 40.295 -44.9739 51.2132C-45.6395 62.1327 -33.3326 61.6895 -33.3326 61.6895C-33.3326 61.6895 -42.6459 74.9978 -26.6796 82.9828Z" fill="white"/>
<path d="M66.4613 43.0578C66.4613 43.0578 66.124 31.7457 55.4795 33.2988C55.4795 33.2988 63.4626 21.6939 68.4521 33.1524C68.4521 33.1524 73.9404 29.5285 75.6039 37.2913C75.6039 37.2913 66.7985 34.6296 66.4613 43.0578Z" fill="#E5D8BD"/>
<path d="M107.536 70.1176C107.536 70.1176 114.355 65.9028 119.843 73.4446C119.843 73.4446 119.511 65.2374 114.521 64.572C109.532 63.9066 107.536 70.1176 107.536 70.1176Z" fill="#E5D8BD"/>
<path d="M-5.89062 41.727C-5.89062 41.727 3.75597 39.7307 6.91529 48.6034C6.91529 48.6034 8.07982 39.7906 15.065 41.5353C15.065 41.5353 13.4016 34.5298 20.3868 35.5785C20.3868 35.5785 12.709 30.3097 10.0756 38.4012C10.0756 38.4012 0.928949 31.5235 -5.89062 41.727Z" fill="#E5D8BD"/>
</svg>
