<svg width="25" height="24" viewBox="0 0 25 24" fill="none" xmlns="http://www.w3.org/2000/svg">
<path opacity="0.4" d="M18.5 18.86H17.74C16.94 18.86 16.18 19.17 15.62 19.73L13.91 21.42C13.13 22.19 11.86 22.19 11.08 21.42L9.37 19.73C8.81 19.17 8.04 18.86 7.25 18.86H6.5C4.84 18.86 3.5 17.53 3.5 15.89V4.98001C3.5 3.34001 4.84 2.01001 6.5 2.01001H18.5C20.16 2.01001 21.5 3.34001 21.5 4.98001V15.89C21.5 17.52 20.16 18.86 18.5 18.86Z" fill="#515151"/>
<path d="M12.78 14.96C12.63 15.01 12.38 15.01 12.22 14.96C10.92 14.51 8 12.66 8 9.51001C8 8.12001 9.12 7 10.5 7C11.32 7 12.04 7.39 12.5 8C12.96 7.39 13.68 7 14.5 7C15.88 7 17 8.12001 17 9.51001C16.99 12.66 14.08 14.51 12.78 14.96Z" fill="#515151"/>
</svg>
