<svg width="25" height="24" viewBox="0 0 25 24" fill="none" xmlns="http://www.w3.org/2000/svg">
<path opacity="0.4" d="M18.48 10.79V14.79C18.48 15.05 18.47 15.3 18.44 15.54C18.21 18.24 16.62 19.58 13.69 19.58H13.29C13.04 19.58 12.8 19.7 12.65 19.9L11.45 21.5C10.92 22.21 10.06 22.21 9.53 21.5L8.32999 19.9C8.19999 19.73 7.91 19.58 7.69 19.58H7.29001C4.10001 19.58 2.5 18.79 2.5 14.79V10.79C2.5 7.86001 3.85001 6.27001 6.54001 6.04001C6.78001 6.01001 7.03001 6 7.29001 6H13.69C16.88 6 18.48 7.60001 18.48 10.79Z" fill="#515151"/>
<path d="M10.4902 14C9.93023 14 9.49023 13.55 9.49023 13C9.49023 12.45 9.94023 12 10.4902 12C11.0402 12 11.4902 12.45 11.4902 13C11.4902 13.55 11.0502 14 10.4902 14Z" fill="#515151"/>
<path d="M13.9902 14C13.4302 14 12.9902 13.55 12.9902 13C12.9902 12.45 13.4402 12 13.9902 12C14.5402 12 14.9902 12.45 14.9902 13C14.9902 13.55 14.5402 14 13.9902 14Z" fill="#515151"/>
<path d="M7 14C6.44 14 6 13.55 6 13C6 12.45 6.45 12 7 12C7.55 12 8 12.45 8 13C8 13.55 7.55 14 7 14Z" fill="#515151"/>
<path d="M22.48 6.79001V10.79C22.48 13.73 21.13 15.31 18.44 15.54C18.47 15.3 18.48 15.05 18.48 14.79V10.79C18.48 7.60001 16.88 6 13.69 6H7.29004C7.03004 6 6.78004 6.01001 6.54004 6.04001C6.77004 3.35001 8.36004 2 11.29 2H17.69C20.88 2 22.48 3.60001 22.48 6.79001Z" fill="#515151"/>
</svg>
