<svg width="48" height="48" viewBox="0 0 48 48" fill="none" xmlns="http://www.w3.org/2000/svg">
<path opacity="0.4" d="M34 36.8594H26L17.1 42.7794C15.78 43.6594 14 42.7194 14 41.1194V36.8594C8 36.8594 4 32.8594 4 26.8594V14.8594C4 8.85938 8 4.85938 14 4.85938H34C40 4.85938 44 8.85938 44 14.8594V26.8594C44 32.8594 40 36.8594 34 36.8594Z" fill="#CC6D14"/>
<path d="M24 29.1992C23.16 29.1992 22.5 28.5192 22.5 27.6992C22.5 26.8792 23.18 26.1992 24 26.1992C24.82 26.1992 25.5 26.8792 25.5 27.6992C25.5 28.5192 24.84 29.1992 24 29.1992Z" fill="#CC6D14"/>
<path d="M23.9996 24.2207C23.1796 24.2207 22.4996 23.5407 22.4996 22.7207V22.3008C22.4996 19.9808 24.1996 18.8408 24.8396 18.4008C25.5796 17.9008 25.8196 17.5608 25.8196 17.0408C25.8196 16.0408 24.9996 15.2207 23.9996 15.2207C22.9996 15.2207 22.1797 16.0408 22.1797 17.0408C22.1797 17.8608 21.4997 18.5408 20.6797 18.5408C19.8597 18.5408 19.1797 17.8608 19.1797 17.0408C19.1797 14.3808 21.3396 12.2207 23.9996 12.2207C26.6596 12.2207 28.8196 14.3808 28.8196 17.0408C28.8196 19.3208 27.1397 20.4607 26.5197 20.8807C25.7397 21.4007 25.4996 21.7408 25.4996 22.3008V22.7207C25.4996 23.5607 24.8196 24.2207 23.9996 24.2207Z" fill="#CC6D14"/>
</svg>
