<svg width="90" height="438" viewBox="0 0 90 438" fill="none" xmlns="http://www.w3.org/2000/svg">
<path d="M48.8382 10.6692C52.5881 6.8302 57.5929 2.93304 62.7329 2.51779C62.7329 2.51779 62.7323 2.51874 62.7298 2.52066C62.5277 2.77911 51.2093 17.2642 48.2246 23.5039C46.8761 26.3237 44.6483 34.3658 42.601 43.856C42.0998 46.1773 41.6093 48.5847 41.1453 51.025C39.2704 60.8782 37.8234 71.2435 37.8234 78.488C37.8234 94.8559 37.5501 115.003 39.4654 122.978C40.1598 125.865 45.4444 139.367 51.8798 156.277C53.2604 159.907 54.6947 163.695 56.1486 167.568C57.1359 170.199 58.1327 172.87 59.1276 175.557C60.1509 178.327 61.1736 181.114 62.1831 183.896L62.1831 183.897C66.1097 194.728 69.8293 205.465 72.6511 214.664C73.8178 218.462 74.8304 221.999 75.6409 225.171C77.0676 230.751 77.8713 235.205 77.7867 237.981C77.4471 249.176 65.284 268.14 55.9181 288.43C54.7136 291.038 53.5558 293.666 52.4763 296.304L52.4763 296.305C48.4632 306.102 45.5164 316.012 45.2247 325.332L45.2247 325.334C45.2209 325.457 45.2171 325.579 45.2146 325.703C45.0883 331.009 45.5561 337.423 46.4279 344.436C47.5744 353.674 49.419 363.954 51.525 374.118C51.525 374.118 51.525 374.119 51.525 374.121C52.7459 380.013 54.0546 385.864 55.3645 391.455C60.536 413.517 65.7429 431.472 65.7429 431.472C65.7429 431.472 61.3491 433.557 55.6473 435.203C52.7415 436.043 49.496 436.768 46.32 437.044C44.618 437.192 42.9375 437.213 41.3391 437.051C38.3834 436.755 35.7105 435.843 33.7169 433.99C33.7169 433.99 30.7473 417.076 29.0769 391.197C28.8938 388.357 28.7265 385.41 28.5788 382.365C28.5788 382.365 28.5788 382.365 28.5788 382.363C28.2038 374.551 27.969 366.098 27.969 357.181C27.969 354.357 27.993 351.59 28.0372 348.883C28.0864 345.85 28.1622 342.894 28.2588 340.021C29.1615 313.275 31.9348 293.715 33.1443 286.233C33.453 284.323 33.6594 283.201 33.7068 282.946C33.7137 282.909 33.7175 282.891 33.7175 282.891C33.7175 282.891 33.7365 282.873 33.7743 282.833C34.4271 282.169 40.5765 275.82 46.0334 267.166C49.2517 262.065 52.2301 256.163 53.6998 250.152C53.8197 249.661 53.9252 249.14 54.0142 248.598C54.4479 245.968 54.528 242.767 54.3349 239.161C53.994 232.791 52.7989 225.164 51.191 217.233C48.3881 203.401 44.3327 188.639 41.3618 177.971C40.4105 174.554 39.5702 171.559 38.9181 169.147C34.2648 151.938 26.6003 120.458 26.8743 101.571C26.9596 95.6767 28.0315 86.3104 29.4651 76.2103C29.6337 75.0216 29.8079 73.8232 29.986 72.6181C31.1703 64.5934 32.5326 56.317 33.7718 49.1123C34.2339 46.429 34.6777 43.8938 35.0899 41.5754C36.5148 33.5508 37.5501 28.1213 37.5501 28.1213C37.5501 28.1213 29.8856 8.81457 29.8856 -2.02309e-07C29.8856 -2.02309e-07 36.9983 12.1639 42.4716 18.4626C42.4735 18.4636 42.4754 18.4674 42.4773 18.4684C42.4767 18.4684 44.9993 14.6003 48.8382 10.6692Z" fill="url(#paint0_linear_292_1473)"/>
<path opacity="0.4" d="M51.5243 374.119C52.7452 380.012 54.0539 385.863 55.3638 391.453C53.5551 403.196 51.8715 421.368 55.6472 435.202C52.7414 436.042 49.4959 436.767 46.3199 437.043C45.0043 427.544 44.2177 413.219 47.7902 398.388C49.7794 390.137 50.8968 381.382 51.5243 374.119Z" fill="url(#paint1_linear_292_1473)"/>
<path opacity="0.4" d="M45.2247 325.331C45.2209 325.454 45.2171 325.576 45.2146 325.7C45.0883 331.006 45.5561 337.42 46.4279 344.433C44.1465 348.494 41.4496 353.508 38.8676 358.818C34.8677 367.04 31.2751 381.572 29.0782 391.194C28.8951 388.354 28.7278 385.408 28.5801 382.362C28.5801 382.362 28.5801 382.362 28.5801 382.36C31.371 372.939 35.7383 358.059 38.7256 347.231C40.8315 339.595 43.2235 331.71 45.2247 325.331Z" fill="url(#paint2_linear_292_1473)"/>
<path opacity="0.4" d="M55.9174 288.429C54.7129 291.036 53.5552 293.664 52.4757 296.303L52.4757 296.304C49.328 299.85 45.2846 304.959 40.8927 311.892C35.1953 320.884 30.7731 336.914 28.0371 348.881C28.0864 345.848 28.1621 342.893 28.2587 340.02C31.4196 326.362 36.1233 314.979 39.6617 307.67C43.6546 299.422 51.7945 291.902 55.9174 288.429Z" fill="url(#paint3_linear_292_1473)"/>
<path opacity="0.4" d="M72.651 214.661C73.8176 218.459 74.8302 221.996 75.6408 225.168C73.4913 233.209 70.218 244.822 68.1543 249.147C64.8672 256.036 51.004 274.682 44.9531 278.378C44.9531 278.378 65.0863 255.029 68.3728 240.413C70.2306 232.154 71.7136 221.963 72.651 214.661Z" fill="url(#paint4_linear_292_1473)"/>
<path opacity="0.4" d="M59.1278 175.553C60.1511 178.323 61.1738 181.11 62.1832 183.892L62.1832 183.893C62.7785 193.081 63.2728 207.068 61.9092 218.578C60.218 232.849 56.8336 242.582 54.0137 248.594C54.4474 245.964 54.5275 242.763 54.3344 239.157C56.595 233.521 58.5716 226.498 59.0129 218.578C60.1561 198.079 57.0881 176.912 57.0881 176.912L59.1278 175.553Z" fill="url(#paint5_linear_292_1473)"/>
<path opacity="0.4" d="M51.8793 156.274C53.2599 159.904 54.6942 163.692 56.1481 167.565C54.3123 171.951 52.4948 177.149 51.83 181.783C50.8982 188.28 50.9835 205.13 51.1905 217.229C48.3876 203.398 44.3322 188.636 41.3613 177.968C44.9237 170.593 48.7525 162.704 51.8793 156.274Z" fill="url(#paint6_linear_292_1473)"/>
<path opacity="0.4" d="M40.2162 167.338C40.2162 166.666 38.025 140.46 35.7246 129.876C33.4242 119.293 33.4551 95.1031 33.4551 95.1031L36.8357 87.88C36.8357 87.88 33.8932 110.558 36.8357 124.166C39.7781 137.773 43.7218 161.796 43.7218 161.796L40.2162 167.338Z" fill="url(#paint7_linear_292_1473)"/>
<path opacity="0.4" d="M42.5994 43.8537C42.0982 46.175 41.6077 48.5824 41.1437 51.0227C39.9354 52.8987 38.8773 55.1154 38.2934 57.6409C36.5725 65.0751 34.0385 72.2654 29.4629 76.209C29.6314 75.0203 29.8057 73.8219 29.9837 72.6168C31.8984 70.433 33.9993 67.3925 34.8907 63.8573C36.433 57.7367 39.4992 48.4798 42.5994 43.8537Z" fill="url(#paint8_linear_292_1473)"/>
<path opacity="0.4" d="M48.8379 10.6673C45.6637 17.0174 41.5237 26.3237 40.1071 34.1229C38.9702 40.3887 36.2935 45.4542 33.7715 49.1104C34.2336 46.4271 34.6774 43.8919 35.0896 41.5735C36.8295 38.2136 38.4342 34.148 39.3414 29.5026C39.9158 26.558 41.1292 22.504 42.4707 18.4597C42.4726 18.4607 42.4745 18.4646 42.4764 18.4655C42.4764 18.4655 44.999 14.5984 48.8379 10.6673Z" fill="url(#paint9_linear_292_1473)"/>
<path opacity="0.4" d="M62.7288 2.52072C62.5267 2.77917 51.2083 17.2643 48.2236 23.504C46.8752 26.3237 44.6473 34.3659 42.6001 43.8561C42.0988 46.1774 41.6083 48.5847 41.1443 51.0251C39.2694 60.8783 37.8224 71.2436 37.8224 78.4881C37.8224 94.8559 37.5491 115.003 39.4644 122.978C40.1589 125.865 45.4434 139.367 51.8788 156.277C53.2594 159.907 54.6937 163.695 56.1476 167.568C57.1349 170.199 58.1317 172.87 59.1266 175.557C60.1499 178.327 61.1726 181.114 62.1821 183.896L62.1821 183.897C66.1087 194.728 69.8283 205.465 72.6501 214.664C73.8168 218.462 74.8294 221.999 75.6399 225.171C77.0667 230.751 77.8703 235.205 77.7857 237.981C77.4461 249.176 65.283 268.14 55.9171 288.43C54.7126 291.038 53.5549 293.666 52.4753 296.305L52.4753 296.305C48.4622 306.102 45.5154 316.012 45.2237 325.332L45.2237 325.334C45.2199 325.457 45.2161 325.579 45.2136 325.703C45.0873 331.009 45.5551 337.423 46.4269 344.436C47.5734 353.674 49.418 363.954 51.524 374.118C51.524 374.118 51.524 374.119 51.524 374.121C52.7449 380.013 54.0536 385.864 55.3635 391.455C60.535 413.517 65.7419 431.472 65.7419 431.472C65.7419 431.472 61.3481 433.557 55.6463 435.203C52.7405 436.043 49.495 436.768 46.319 437.044C44.617 437.192 42.9365 437.213 41.3381 437.051C45.8095 428.583 50.656 414.918 47.7893 398.389C42.9934 370.73 36.7467 340.963 38.2934 321.823C39.21 310.48 51.3712 289.603 59.9082 268.869L49.341 276.971L33.1427 286.233C33.4514 284.322 33.6578 283.2 33.7052 282.945L33.7721 282.832C34.4248 282.168 40.5742 275.819 46.0311 267.165C47.7148 267.093 54.3951 264.32 56.5907 262.766C67.4451 255.084 69.2532 237.297 67.5474 229.452C61.6909 202.509 36.6375 135.253 33.4539 120.297C30.2716 105.339 35.6154 58.6693 40.3211 38.777C44.9907 19.0406 62.456 2.77337 62.7288 2.52072Z" fill="url(#paint10_linear_292_1473)"/>
<path d="M45.7025 319.686C45.7025 319.686 66.2397 320.214 72.8777 348.487C78.5309 372.566 65.7435 391.722 56.6365 400.893C55.0494 402.49 53.5754 403.786 52.3292 404.75C51.6891 405.245 51.0212 405.763 50.3356 406.3C42.0177 412.801 30.9726 422.117 33.0332 429.661C33.0332 429.661 23.0752 424.871 22.8365 415.812C22.8214 415.252 22.8441 414.674 22.9085 414.079C23.3959 409.59 29.1949 403.943 36.0476 397.701C36.1069 397.646 36.1675 397.59 36.2281 397.535C44.8699 389.668 55.1189 380.865 58.495 372.236C62.8819 361.022 62.0075 351.866 55.6441 345.193C54.3418 343.827 52.8096 342.566 51.0464 341.412C49.4751 340.385 47.7214 339.443 45.7821 338.589C45.7821 338.589 44.5706 325.852 45.7025 319.686Z" fill="url(#paint11_linear_292_1473)"/>
<path opacity="0.3" d="M55.6438 345.193C55.6438 345.193 55.6444 345.194 55.6457 345.194C58.4991 346.817 68.435 358.749 64.4112 370.539C60.388 382.329 46.4301 397.099 37.8572 400.894C29.2849 404.689 22.9082 414.08 22.9082 414.08C24.0142 403.902 52.4097 387.786 58.4947 372.237C62.8822 361.022 62.0072 351.866 55.6438 345.193Z" fill="url(#paint12_linear_292_1473)"/>
<path opacity="0.4" d="M45.7032 319.685C45.7032 319.685 66.2404 320.213 72.8784 348.486C79.5165 376.759 60.7292 398.248 52.3299 404.749C43.9293 411.252 30.8042 421.493 33.0345 429.661C33.0345 429.661 23.0765 424.871 22.8379 415.812C23.0014 416.112 26.7525 422.91 30.1748 420.988C33.6727 419.02 52.4473 399.937 60.0967 389.011C67.5907 378.308 74.1189 357.012 65.1211 340.59C57.0261 325.816 47.4374 334.431 51.0478 341.412C49.4765 340.385 47.7227 339.443 45.7834 338.589C45.7834 338.589 44.5713 325.851 45.7032 319.685Z" fill="url(#paint13_linear_292_1473)"/>
<path d="M45.2129 329.265C45.2129 329.265 47.4211 337.463 49.524 339.909C51.6274 342.356 53.628 342.516 55.4834 345.025C55.4834 345.025 54.9985 345.521 54.2359 345.999C52.9266 346.823 50.7986 347.591 48.9141 345.694C47.555 344.325 46.8397 343.166 46.4376 342.109C45.9584 340.849 45.9269 339.736 45.7836 338.59C45.3038 334.759 45.2129 329.265 45.2129 329.265Z" fill="url(#paint14_linear_292_1473)"/>
<path opacity="0.4" d="M45.2129 329.261C45.2129 329.261 47.4211 337.459 49.524 339.905C51.6274 342.353 53.628 342.512 55.4834 345.021C55.4834 345.021 54.9985 345.518 54.2359 345.996C54.3893 345.444 54.3704 344.82 53.8584 344.256C52.6249 342.894 49.8598 343.765 48.3788 341.265C47.2034 339.283 46.4168 340.472 46.4382 342.105C45.9591 340.844 45.9275 339.732 45.7842 338.586C45.3038 334.756 45.2129 329.261 45.2129 329.261Z" fill="url(#paint15_linear_292_1473)"/>
<path d="M66.5904 333.169C66.5904 333.169 74.3099 335.787 76.0263 342.842C76.6299 345.322 76.4847 347.611 75.7707 349.757C75.4089 350.843 74.9007 351.892 74.2707 352.911C74.2701 352.913 74.2701 352.913 74.2688 352.913C72.6022 355.607 70.0789 358.085 67.1277 360.461C67.0835 360.498 67.0399 360.533 66.9964 360.567C63.2926 363.582 61.2024 366.559 60.1247 368.459C59.407 369.721 59.1374 370.503 59.1374 370.503C57.0674 365.827 59.0017 360.837 62.9599 357.992C66.9181 355.145 72.1376 351.222 72.2001 345.86C72.2613 340.498 69.8327 339.195 69.8327 339.195C68.9451 337.294 66.5904 333.169 66.5904 333.169Z" fill="url(#paint16_linear_292_1473)"/>
<path opacity="0.3" d="M74.2687 352.911C72.6021 355.605 70.0788 358.083 67.1275 360.458C67.0833 360.495 67.0398 360.53 66.9962 360.565C65.358 361.594 64.6232 361.899 64.0551 362.301C61.7496 363.932 61.4421 365.536 60.237 366.769C59.0224 368.012 58.7977 364.51 61.778 361.685C64.757 358.861 71.6583 355.993 74.2687 352.911Z" fill="url(#paint17_linear_292_1473)"/>
<path opacity="0.4" d="M66.5904 333.169C66.5904 333.169 74.3099 335.787 76.0263 342.842C76.6299 345.322 76.4847 347.611 75.7707 349.757C75.4651 348.046 74.6432 347.082 73.5359 348.882C71.4634 352.25 68.4085 356.452 63.653 359.121C58.8981 361.791 58.2972 366.619 59.032 368.005C59.3375 368.58 59.7485 368.614 60.1247 368.459C59.407 369.721 59.1374 370.503 59.1374 370.503C57.0674 365.827 59.0017 360.837 62.9599 357.992C66.9181 355.145 72.1376 351.222 72.2001 345.86C72.2613 340.498 69.8327 339.195 69.8327 339.195C68.9451 337.294 66.5904 333.169 66.5904 333.169Z" fill="url(#paint18_linear_292_1473)"/>
<path d="M66.8736 386.459C66.8736 386.459 67.9714 392.89 65.0529 397.75C64.4172 398.808 63.5896 399.793 62.5196 400.62C56.5381 405.243 49.5857 402.602 45.2134 401.207C41.8839 400.144 38.6246 399.521 34.7428 400.771C34.4618 400.861 34.1765 400.961 33.888 401.072C32.9316 401.44 31.9367 401.922 30.8919 402.538C30.7442 402.625 29.1647 395.017 37.1082 393.6C45.0524 392.183 50.133 397.523 55.6473 396.658C61.1617 395.794 66.8736 386.459 66.8736 386.459Z" fill="url(#paint19_linear_292_1473)"/>
<path opacity="0.3" d="M48.5546 398.774C54.6801 402.707 60.0959 401.749 62.5188 400.62C56.5373 405.243 49.5849 402.602 45.2126 401.207C41.8832 400.144 40.6799 398.65 34.7862 399.89C33.9093 400.075 33.2414 399.932 33.4567 398.774C34.0053 395.823 42.4292 394.841 48.5546 398.774Z" fill="url(#paint20_linear_292_1473)"/>
<path opacity="0.4" d="M66.8736 386.46C66.8736 386.46 67.9714 392.891 65.0529 397.751C64.7663 395.964 63.6464 394.905 61.5758 396.437C57.1252 399.728 50.2649 397.561 43.091 394.847C35.917 392.132 31.3395 397.608 31.6217 399.487C31.8937 401.293 33.746 401.09 33.888 401.073C32.9316 401.441 31.9367 401.923 30.8919 402.539C30.7442 402.626 29.1647 395.018 37.1082 393.601C45.0524 392.184 50.133 397.524 55.6473 396.659C61.1617 395.795 66.8736 386.46 66.8736 386.46Z" fill="url(#paint21_linear_292_1473)"/>
<path d="M73.1653 253.559C73.1653 253.559 74.5308 261.754 73.1653 269.821C71.8011 277.888 59.7157 282.903 49.4787 289.225C39.2416 295.547 30.7104 310.809 30.7104 310.809C30.7104 310.809 28.9219 324.689 28.6277 331.273C28.6277 331.273 26.042 327.562 24.0553 321.86C23.3659 319.882 22.7485 317.665 22.3357 315.278C21.8811 312.651 21.6753 309.822 21.895 306.885C22.8899 293.586 32.132 280.723 44.5022 273.092C46.7086 271.731 49.0393 270.235 51.3807 268.693L51.382 268.693C54.7171 266.499 58.0718 264.213 61.1152 262.105C67.9161 257.393 73.1653 253.559 73.1653 253.559Z" fill="url(#paint22_linear_292_1473)"/>
<path opacity="0.3" d="M51.3814 268.693L51.3826 268.693C51.3826 268.693 30.3417 285.907 26.8652 299.148C23.3899 312.388 26.6758 315.111 24.9259 318.07C24.2213 319.261 23.2479 317.64 22.3357 315.277C21.8811 312.65 21.6753 309.821 21.895 306.884C22.8899 293.586 32.132 280.722 44.5022 273.091C46.7092 271.731 49.0399 270.235 51.3814 268.693Z" fill="url(#paint23_linear_292_1473)"/>
<path opacity="0.4" d="M73.1667 253.559C73.1667 253.559 74.5321 261.754 73.1667 269.821C71.8024 277.888 59.717 282.903 49.48 289.225C39.243 295.547 30.7117 310.809 30.7117 310.809C30.7117 310.809 28.9233 324.689 28.6291 331.273C28.6291 331.273 26.0433 327.562 24.0566 321.86C25.1968 322.495 26.227 322.41 26.8665 320.91C29.0609 315.756 25.6999 307.321 33.1352 298.573C40.5718 289.826 66.141 278.111 66.3443 270.301C66.5482 262.493 61.1172 262.105 61.1172 262.105C67.9175 257.393 73.1667 253.559 73.1667 253.559Z" fill="url(#paint24_linear_292_1473)"/>
<path d="M52.3277 287.517C52.3277 287.517 52.2178 295.913 46.4257 296.636C46.1101 296.675 45.778 296.691 45.4277 296.682C38.6482 296.514 31.6914 296.247 28.0362 297.468C26.2478 298.066 24.9303 298.666 23.9568 299.942C23.9568 299.942 23.9568 299.942 23.9555 299.943C23.7201 300.251 23.5048 300.6 23.3078 300.995C22.6576 302.308 22.2075 304.157 21.895 306.884C21.895 306.884 19.7808 303.47 19.8825 299.569C19.9121 298.43 20.1318 297.248 20.6469 296.1C20.9348 295.459 21.3155 294.827 21.8073 294.218C26.1947 288.778 42.2523 291.481 46.9529 290.666L52.3277 287.517Z" fill="url(#paint25_linear_292_1473)"/>
<path opacity="0.3" d="M22.3917 299.763C21.2371 300.943 20.0497 298.135 21.4429 296.413C22.8362 294.69 30.9596 294.429 33.1161 295.09C35.2726 295.751 29.8959 296.016 27.5096 296.986C25.1227 297.956 23.4264 298.705 22.3917 299.763Z" fill="url(#paint26_linear_292_1473)"/>
<path opacity="0.4" d="M52.3285 287.514C52.3285 287.514 52.2187 295.91 46.4266 296.633C49.0837 295.494 48.2289 292.074 44.2309 292.938C40.3251 293.783 33.4826 294.01 28.0371 293.887C24.2537 293.8 21.9918 294.787 20.6484 296.097C20.9363 295.455 21.317 294.824 21.8087 294.214C26.1962 288.775 42.2537 291.477 46.9543 290.662L52.3285 287.514Z" fill="url(#paint27_linear_292_1473)"/>
<path opacity="0.4" d="M21.8073 302.09C22.395 302.023 22.9228 301.507 23.3078 300.995C22.6576 302.308 22.2075 304.157 21.895 306.884C21.895 306.884 19.7808 303.47 19.8825 299.569C20.3023 300.978 21.0062 302.181 21.8073 302.09Z" fill="url(#paint28_linear_292_1473)"/>
<path d="M38.1109 216.028C43.8222 220.839 48.7791 235.464 48.7791 235.464C48.608 235.595 45.2565 237.172 41.0654 237.04C39.1374 236.979 37.0302 236.557 34.9734 235.464C29.7697 232.702 25.6038 220.213 24.1285 215.265C23.7535 214.008 23.5527 213.237 23.5527 213.237C23.5527 213.237 32.4009 211.216 38.1109 216.028Z" fill="url(#paint29_linear_292_1473)"/>
<path opacity="0.2" d="M48.2181 235.302C47.9668 235.302 39.9898 237.535 36.1673 234.378C32.3449 231.22 25.6134 219.974 31.5412 218.048C37.4678 216.122 48.2181 235.302 48.2181 235.302Z" fill="url(#paint30_linear_292_1473)"/>
<path opacity="0.4" d="M38.1109 216.028C43.8222 220.839 48.7791 235.464 48.7791 235.464C48.608 235.595 45.2565 237.172 41.0654 237.04C42.1013 236.962 44.2054 236.48 44.3007 233.848C44.4276 230.349 40.7529 221.218 36.5712 218.012C33.4406 215.612 27.1107 215.28 24.1285 215.266C23.7535 214.009 23.5527 213.238 23.5527 213.238C23.5527 213.238 32.4009 211.216 38.1109 216.028Z" fill="url(#paint31_linear_292_1473)"/>
<path d="M43.039 133.097C43.039 133.097 50.9308 135.415 56.1187 144.336C61.3067 153.256 51.4023 166.272 48.7301 181.46C46.0566 196.647 51.8499 220.596 51.8499 220.596C51.8499 220.596 57.6578 246.818 52.3291 254.639C52.3291 254.639 51.1302 250.635 49.3683 244.437C49.0394 243.281 48.6909 242.049 48.3273 240.75C43.5844 223.839 36.2122 195.948 35.3669 183.147C34.6131 171.74 39.2209 160.512 43.0371 153.345C43.0384 153.344 43.039 153.341 43.039 153.341C45.5919 148.546 47.7895 145.568 47.7895 145.568L43.039 133.097Z" fill="url(#paint32_linear_292_1473)"/>
<path opacity="0.3" d="M43.0366 153.345C40.7235 159.256 35.2925 181.394 37.6233 191.183C39.9534 200.972 45.8149 221.207 48.7788 230.918C50.6115 236.921 49.4669 239.587 48.3274 240.749C43.5846 223.838 36.2123 195.947 35.367 183.146C34.6126 171.739 39.2204 160.512 43.0366 153.345Z" fill="url(#paint33_linear_292_1473)"/>
<path opacity="0.4" d="M43.0391 133.097C43.0391 133.097 50.9308 135.415 56.1188 144.336C61.3067 153.256 51.4024 166.272 48.7302 181.46C46.0566 196.647 51.85 220.596 51.85 220.596C51.85 220.596 57.6579 246.818 52.3291 254.639C52.3291 254.639 51.1303 250.635 49.3684 244.437C50.7534 244.849 52.0034 244.432 52.3285 241.757C53.0981 235.417 45.77 207.391 43.7221 190.875C41.6748 174.358 55.0374 159.245 54.0134 152.237C52.9901 145.23 47.7902 145.57 47.7902 145.57L43.0391 133.097Z" fill="url(#paint34_linear_292_1473)"/>
<path d="M41.361 214.436C41.361 214.436 43.1129 221.195 44.6071 224.106C46.4423 227.684 50.6297 232.747 54.0128 233.984C54.0128 233.984 54.7577 239.758 54.5771 242.824C54.5733 242.89 53.9509 242.508 52.9667 241.772C50.6581 240.052 46.3565 236.391 43.3364 232.019C42.1192 230.258 41.1111 228.381 40.5246 226.469C40.0846 225.037 39.8125 223.748 39.6648 222.597C39.5524 221.714 39.5126 220.911 39.5259 220.185C39.6016 216.117 41.361 214.436 41.361 214.436Z" fill="url(#paint35_linear_292_1473)"/>
<path opacity="0.4" d="M41.3612 214.436C41.3612 214.436 43.113 221.195 44.6073 224.106C46.4424 227.684 50.6298 232.747 54.0129 233.984C54.0129 233.984 54.7578 239.758 54.5773 242.824C54.5735 242.89 53.951 242.508 52.9668 241.772C53.2358 241.537 53.4902 241.048 53.6815 240.14C54.3405 237.005 51.9353 234.106 48.7789 232.478C45.3339 230.701 43.2715 227.818 42.3965 223.093C41.6118 218.856 40.461 218.803 39.5254 220.185C39.6018 216.117 41.3612 214.436 41.3612 214.436Z" fill="url(#paint36_linear_292_1473)"/>
<path opacity="0.3" d="M40.5453 220.939C41.8117 220.934 42.1993 226.2 43.5812 229.456C44.9638 232.711 48.5678 234.603 51.1346 236.071C53.7015 237.538 52.9117 240.751 51.1346 239.827C50.11 239.295 46.1499 235.329 43.3357 232.022C42.1185 230.261 41.1103 228.384 40.5239 226.472C40.0839 225.04 39.8118 223.751 39.6641 222.601C39.7726 221.617 40.0624 220.94 40.5453 220.939Z" fill="url(#paint37_linear_292_1473)"/>
<path d="M36.8722 168.871C36.8722 168.871 35.532 174.026 38.4094 178.904C41.2849 183.781 45.4647 186.193 48.0442 192.399C51.2335 200.074 49.1161 205.465 49.1161 205.465C49.0839 205.221 48.0334 199.6 45.7065 195.767C45.7002 195.758 45.6958 195.751 45.6958 195.751C45.3681 195.213 45.0152 194.708 44.6352 194.261C41.5558 190.629 35.431 185.337 34.6526 177.451C34.3856 174.747 34.5623 172.889 34.9114 171.614C35.5774 169.17 36.8722 168.871 36.8722 168.871Z" fill="url(#paint38_linear_292_1473)"/>
<path opacity="0.4" d="M36.8709 168.871C36.8709 168.871 35.5307 174.026 38.4081 178.904C41.2837 183.781 45.4634 186.193 48.0429 192.399C51.2322 200.074 49.1148 205.465 49.1148 205.465C49.0826 205.221 48.0322 199.6 45.7052 195.767C45.8321 195.96 47.1484 197.895 47.9937 196.769C48.8838 195.587 45.4275 187.972 42.5128 186.126C40.0116 184.543 36.6929 181.988 36.0105 178.076C35.5288 175.312 35.4764 172.091 34.9102 171.615C35.5762 169.17 36.8709 168.871 36.8709 168.871Z" fill="url(#paint39_linear_292_1473)"/>
<path d="M54.4875 148.953C56.8081 152.805 57.9356 158.052 56.1478 163.121C54.36 168.192 52.8865 167.336 52.8865 167.336C52.8865 167.336 54.0191 164.691 54.1857 161.699C54.2135 161.197 54.2141 160.686 54.1769 160.175C53.9231 156.621 52.6801 153.329 49.1196 151.205C47.2807 150.11 45.8792 150.42 44.9537 150.979C44.0863 151.5 43.6362 152.238 43.6362 152.238C43.6362 152.238 43.1167 148.675 44.9525 147.22C47.0843 145.53 51.7471 144.403 54.4875 148.953Z" fill="url(#paint40_linear_292_1473)"/>
<path d="M17.7499 76.2885C17.7499 76.2885 26.7117 78.7075 28.064 90.0283C28.134 90.6129 28.1852 91.1898 28.2193 91.759C28.8026 101.261 24.7566 108.545 24.0105 109.801C23.936 109.926 23.8937 109.992 23.8937 109.992C23.8937 109.992 21.0737 107.978 19.2764 102.724C19.2751 102.724 19.2745 102.722 19.2745 102.722C19.2739 102.719 19.2726 102.717 19.2726 102.717C18.6874 101.006 18.2114 98.9503 17.9753 96.51C17.2651 89.1377 17.4848 81.5757 17.6451 78.1626C17.7007 76.9739 17.7499 76.2885 17.7499 76.2885Z" fill="url(#paint41_linear_292_1473)"/>
<path opacity="0.2" d="M23.4166 107.73C23.2247 107.554 19.6983 104.792 19.0083 98.6197C18.3183 92.4478 18.6718 85.7705 19.8132 83.6303C21.7601 79.9809 25.2947 94.3286 25.5251 99.5596C25.7555 104.792 23.4166 107.73 23.4166 107.73Z" fill="url(#paint42_linear_292_1473)"/>
<path opacity="0.4" d="M17.75 76.2885C17.75 76.2885 26.7118 78.7075 28.064 90.0283C28.1341 90.6129 28.1852 91.1898 28.2193 91.759L24.0105 109.801C23.936 109.926 23.8937 109.992 23.8937 109.992C23.8937 109.992 21.0737 107.978 19.2764 102.724C19.3522 102.873 20.5661 105.187 21.6273 103.314C22.7233 101.38 25.3772 88.252 24.2466 84.8756C23.3804 82.2891 19.4418 79.3832 17.6445 78.1626C17.7007 76.9739 17.75 76.2885 17.75 76.2885Z" fill="url(#paint43_linear_292_1473)"/>
<path d="M44.9504 71.2977C45.136 78.7261 37.2354 94.4386 33.4533 105.009C29.6719 115.58 29.8196 129.498 29.8196 129.498L33.3687 146.872C33.3687 146.872 29.6347 144.314 26.3545 135.901C26.1537 135.388 25.9555 134.852 25.7598 134.295C24.6102 131.025 23.5522 126.98 22.7776 122.008C19.7038 102.296 25.8084 85.6705 32.0935 77.4416C32.5815 76.8027 33.0342 76.189 33.4546 75.5995C33.4546 75.5995 33.4559 75.5995 33.4565 75.5976C38.4506 68.598 38.8622 65.088 38.8622 65.088C38.8622 65.088 44.7642 63.8703 44.9504 71.2977Z" fill="url(#paint44_linear_292_1473)"/>
<path opacity="0.3" d="M31.0065 87.8777C26.0496 91.9849 23.7529 104.254 23.6488 113.218C23.5446 122.18 27.7199 130.742 27.6145 134.262C27.5697 135.755 26.7225 135.306 25.7598 134.294C24.6102 131.024 23.5522 126.979 22.7776 122.007C19.7038 102.295 25.8084 85.6697 32.0935 77.4408C37.5119 75.9124 35.9646 83.7705 31.0065 87.8777Z" fill="url(#paint45_linear_292_1473)"/>
<path opacity="0.4" d="M44.9495 71.2977C45.1351 78.7261 37.2344 94.4386 33.4524 105.009C29.671 115.58 29.8187 129.498 29.8187 129.498L33.3678 146.872C33.3678 146.872 29.6337 144.314 26.3535 135.901C27.7531 137.587 29.0479 138.689 29.462 137.655C30.4664 135.152 26.2235 130.148 27.4204 116.968C28.6173 103.788 41.0203 83.1015 40.0412 77.2615C39.0721 71.4865 33.5761 75.5075 33.4549 75.5976C38.4491 68.598 38.8607 65.088 38.8607 65.088C38.8607 65.088 44.7632 63.8703 44.9495 71.2977Z" fill="url(#paint46_linear_292_1473)"/>
<path d="M22.0024 109.03C22.0024 109.03 22.0017 109.044 22.0005 109.072C22.0005 109.08 21.9998 109.088 21.9998 109.098C21.9639 109.821 21.7353 116.201 24.2049 120.093C27.0117 124.516 29.516 127.253 29.8146 127.576C29.8285 127.591 29.8386 127.602 29.8424 127.606C29.8436 127.607 29.8443 127.607 29.8443 127.607C29.8443 127.607 30.3954 132.309 30.8575 134.571C30.8575 134.571 30.0677 134.069 28.9125 133.16C27.5091 132.054 25.5673 130.348 23.8457 128.212C22.5409 126.591 21.3629 124.723 20.6438 122.684C19.7436 120.129 19.6906 117.603 19.9829 115.434C19.9829 115.434 19.9829 115.433 19.9829 115.431C20.0416 114.999 20.1123 114.584 20.1937 114.183C20.8149 111.125 22.0024 109.03 22.0024 109.03Z" fill="url(#paint47_linear_292_1473)"/>
<path opacity="0.4" d="M22.0014 109.03C22.0014 109.03 22.0007 109.044 21.9995 109.072C21.9995 109.08 21.9989 109.088 21.9989 109.098C21.9629 109.821 21.7343 116.201 24.2039 120.093C27.0107 124.516 29.515 127.253 29.8136 127.576C29.8275 127.591 29.8376 127.602 29.8414 127.606C29.8426 127.607 29.8433 127.607 29.8433 127.607C29.8433 127.607 30.3944 132.309 30.8565 134.571C30.8565 134.571 30.0667 134.069 28.9115 133.16C29.3231 133.136 29.729 132.805 29.6785 131.562C29.58 129.109 26.8503 125.037 24.464 122.962C22.0778 120.888 21.045 118.926 20.8726 116.135C20.7874 114.766 20.5084 114.241 20.1934 114.185C20.8139 111.125 22.0014 109.03 22.0014 109.03Z" fill="url(#paint48_linear_292_1473)"/>
<path d="M33.7472 86.12C36.5141 91.7063 38.1296 99.855 36.4592 105.103C34.7882 110.354 31.864 110.527 31.8722 110.487C32.6348 107.11 33.3886 105.223 33.3886 105.223C33.7409 102.16 33.4877 98.7127 32.8602 95.4932C32.3785 93.0199 31.6759 90.6832 30.8571 88.7578C30.7542 88.5168 30.6488 88.2806 30.5427 88.0522C30.3647 87.6698 30.1943 87.3349 30.0314 87.0416C28.2215 83.7824 27.3168 85.6235 27.3168 85.6235C27.3168 85.6235 26.5164 81.4591 27.4759 79.6112C28.4342 77.7624 30.9815 80.5337 33.7472 86.12Z" fill="url(#paint49_linear_292_1473)"/>
<path opacity="0.3" d="M45.1281 194.894C45.1779 194.949 46.8332 196.791 46.9443 195.045C47.0554 193.298 44.9532 189.095 43.0397 187.933C41.161 186.792 38.4736 185.164 37.5854 183.291C36.6965 181.417 35.6694 177.286 35.3361 178.437C35.0028 179.588 36.2332 184.106 39.3568 187.714C41.8416 190.584 43.3188 192.891 45.1281 194.894Z" fill="url(#paint50_linear_292_1473)"/>
<path opacity="0.4" d="M54.4882 148.953C56.8088 152.805 57.9363 158.052 56.1485 163.121C54.3607 168.192 52.8872 167.336 52.8872 167.336C52.8872 167.336 54.0198 164.691 54.1864 161.699C54.7192 161.883 55.3474 161.874 55.7501 161.107C56.567 159.553 56.4547 151.004 52.6814 148.672C48.9076 146.34 43.1982 147.757 44.9544 150.978L44.9557 150.979C44.0883 151.5 43.6382 152.238 43.6382 152.238C43.6382 152.238 43.1186 148.675 44.9544 147.22C47.085 145.53 51.7477 144.403 54.4882 148.953Z" fill="url(#paint51_linear_292_1473)"/>
<path opacity="0.3" d="M54.6501 159.77C55.9739 160.394 55.7845 152.689 53.777 150.443C51.7695 148.197 49.3277 147.334 47.4976 148.197C45.6674 149.061 45.2729 149.882 46.5683 150.054C47.8637 150.226 50.0139 150.25 51.6723 152.21C54.4872 155.539 53.9184 159.424 54.6501 159.77Z" fill="url(#paint52_linear_292_1473)"/>
<path opacity="0.3" d="M19.9833 115.435C20.0199 117.033 20.4599 119.105 20.9984 120.288C21.7155 121.864 24.0286 124.051 26.1472 126.137C28.2658 128.223 29.5183 132.384 28.1579 132.064C27.6364 131.94 25.6447 130.028 23.8468 128.213C22.5419 126.592 21.3639 124.724 20.6449 122.686C19.7434 120.129 19.6904 117.605 19.9833 115.435Z" fill="url(#paint53_linear_292_1473)"/>
<path opacity="0.3" d="M36.2284 100.835C36.2834 104.557 34.8844 106.1 34.1887 105.468C33.4918 104.835 34.344 104.003 33.8794 99.0528C33.7588 97.7693 33.3548 96.5796 32.8605 95.4925C32.3788 93.0193 31.6762 90.6825 30.8574 88.7572C32.9748 86.9441 36.1255 93.8334 36.2284 100.835Z" fill="url(#paint54_linear_292_1473)"/>
<path opacity="0.4" d="M33.7478 86.12C36.5148 91.7063 38.1302 99.855 36.4598 105.103C34.7888 110.354 31.8647 110.527 31.8729 110.487C32.6355 107.11 33.3892 105.223 33.3892 105.223C33.3892 105.223 33.9429 107.382 34.8349 107.171C35.7256 106.961 36.8998 103.806 36.7711 100.361C36.6423 96.9171 34.9889 88.3629 32.2775 86.0678C30.8697 84.8742 30.2757 85.8403 30.0314 87.0425C28.2215 83.7833 27.3168 85.6244 27.3168 85.6244C27.3168 85.6244 26.5164 81.4601 27.4759 79.6122C28.4349 77.7624 30.9821 80.5337 33.7478 86.12Z" fill="url(#paint55_linear_292_1473)"/>
<path d="M58.6931 71.7483C58.9185 71.8345 55.3113 91.7104 49.732 93.6125C46.6677 94.6569 43.5182 94.3355 41.3023 93.8351C39.483 93.4247 38.293 92.8913 38.293 92.8913C38.293 92.8913 41.1956 85.2896 46.0124 79.0073C49.677 74.2274 54.8208 72.4898 57.2803 71.9526C58.1117 71.7696 58.6363 71.7261 58.6931 71.7483Z" fill="url(#paint56_linear_292_1473)"/>
<path opacity="0.2" d="M38.2949 92.8882C38.2949 92.8882 45.0068 93.1564 48.2838 89.8836C51.5609 86.6108 56.5121 76.0596 52.992 75.8147C49.4719 75.5708 39.7747 87.3774 38.2949 92.8882Z" fill="url(#paint57_linear_292_1473)"/>
<path opacity="0.4" d="M57.2803 71.9515C57.6919 74.8206 51.3323 88.6174 48.8362 90.2592C46.34 91.9028 41.3023 93.834 41.3023 93.834C39.483 93.4236 38.293 92.8902 38.293 92.8902C38.293 92.8902 41.1956 85.2885 46.0124 79.0062C49.6777 74.2262 54.8214 72.4887 57.2803 71.9515Z" fill="url(#paint58_linear_292_1473)"/>
<path d="M59.3264 169.756C65.1558 170.788 71.7123 179.853 71.9087 179.952C71.9882 179.993 70.9939 181.397 69.2573 183.066L69.2566 183.066C66.7592 185.465 62.7284 188.412 58.1541 188.649C54.3506 188.845 51.102 186.373 48.7813 183.803L48.7807 183.801C46.3679 181.131 44.9551 178.353 44.9551 178.353C44.9551 178.353 50.8513 168.258 59.3264 169.756Z" fill="url(#paint59_linear_292_1473)"/>
<path opacity="0.2" d="M44.9531 178.353C44.9531 178.353 51.2667 187.614 56.9672 187.208C62.6671 186.801 67.3955 178.874 60.856 175.215C54.3158 171.556 44.9531 178.353 44.9531 178.353Z" fill="url(#paint60_linear_292_1473)"/>
<path opacity="0.4" d="M59.3251 169.757C65.1544 170.789 71.711 179.854 71.9074 179.953C71.9869 179.994 70.9926 181.398 69.2559 183.067C71.5778 180.209 65.441 175.336 60.6199 172.961C55.7981 170.589 47.7018 176.157 47.2851 178.712C46.8741 181.231 48.7264 183.731 48.7787 183.801C46.366 181.131 44.9531 178.353 44.9531 178.353C44.9531 178.353 50.85 168.259 59.3251 169.757Z" fill="url(#paint61_linear_292_1473)"/>
<path d="M67.1208 272.337C73.0789 273.98 83.0275 284.577 83.2055 284.669C83.3841 284.76 80.2277 288.688 74.6868 291.976C70.5178 294.451 66.6682 292.875 63.6418 288.166C62.6468 286.619 61.7403 284.731 60.9411 282.538C60.5421 281.444 60.289 280.375 60.1722 279.363C60.1021 278.762 60.0807 278.182 60.1059 277.627C60.2858 273.711 62.8028 271.144 67.1208 272.337Z" fill="url(#paint62_linear_292_1473)"/>
<path opacity="0.2" d="M70.7928 280.053C76.701 284.83 72.1235 291.899 68.4879 291.101C66.8573 290.744 65.096 289.477 63.6434 288.163C62.6485 286.615 61.742 284.728 60.9427 282.534C60.5438 281.44 60.2906 280.372 60.1738 279.36C61.8878 278.297 66.2134 276.349 70.7928 280.053Z" fill="url(#paint63_linear_292_1473)"/>
<path opacity="0.4" d="M67.1204 272.336C73.0785 273.98 83.027 284.576 83.205 284.668C83.3837 284.759 80.2272 288.687 74.6864 291.976C74.6864 291.976 78.7791 288.739 78.8668 286.173C78.9552 283.608 73.153 278.746 69.179 276.855C65.2044 274.965 61.4539 275.511 60.2949 277.396C60.2368 277.491 60.1736 277.567 60.1055 277.625C60.2854 273.71 62.8023 271.143 67.1204 272.336Z" fill="url(#paint64_linear_292_1473)"/>
<path d="M12.4547 300.557C19.4469 307.37 22.2536 312.923 22.9266 318.076C22.9266 318.076 21.6741 320.251 19.6483 321.822C18.0271 323.08 15.9111 323.951 13.5475 323.007C8.53 321.003 1.24112 312.835 0.130677 300.281C0.0643918 299.533 0.0208323 298.77 -3.57579e-07 297.989C-3.57579e-07 297.989 5.46256 293.745 12.4547 300.557Z" fill="url(#paint65_linear_292_1473)"/>
<path opacity="0.2" d="M16.4395 309.28C18.9609 311.781 21.2512 314.403 22.5182 315.901C22.6887 316.589 22.8174 317.27 22.9102 317.942C22.3124 318.637 21.3402 319.676 20.1704 320.567L20.1692 320.567C18.3567 321.947 16.0715 322.972 13.98 321.821C9.61084 319.417 2.35667 309.729 5.32059 303.987C6.90828 300.911 12.0287 304.907 16.4395 309.28Z" fill="url(#paint66_linear_292_1473)"/>
<path opacity="0.4" d="M12.4541 300.558C18.4747 306.424 21.3919 311.355 22.5163 315.903C22.6867 316.591 22.8155 317.273 22.9083 317.944C22.9146 317.989 22.9209 318.033 22.926 318.076C22.926 318.076 21.6735 320.251 19.6477 321.822C19.8459 321.43 20.0246 321.012 20.1679 320.569L20.1691 320.569C20.5056 319.537 20.6502 318.37 20.3907 317.098C20.01 315.229 18.4432 312.224 16.4382 309.282C13.8076 305.423 10.4226 301.676 7.97384 300.757C5.41521 299.796 2.2676 299.975 0.130677 300.28C0.0643919 299.532 0.0208323 298.768 -2.80611e-07 297.988C-2.80611e-07 297.988 5.46193 293.746 12.4541 300.558Z" fill="url(#paint67_linear_292_1473)"/>
<path d="M84.8983 311.895C85.1016 312 84.8983 321.171 82.3845 327.526C79.8694 333.883 72.2011 345.859 72.2011 345.859C71.5313 345.18 70.9158 343.853 70.4379 342.105C69.0781 337.142 68.8338 328.791 71.6557 322.317C73.2933 318.561 75.9264 316.089 78.4162 314.501L78.42 314.499C81.7292 312.388 84.7821 311.836 84.8983 311.895Z" fill="url(#paint68_linear_292_1473)"/>
<path opacity="0.2" d="M72.2003 345.859C72.0879 345.545 72.9862 338.076 75.1282 333.89C77.2702 329.704 82.0383 319.587 78.9286 318.262C75.8195 316.938 72.3922 322.706 71.0861 327.639C68.2528 338.34 72.2003 345.859 72.2003 345.859Z" fill="url(#paint69_linear_292_1473)"/>
<path opacity="0.4" d="M84.8979 311.895C85.1011 312 84.8978 321.171 82.384 327.526C79.869 333.883 72.2007 345.859 72.2007 345.859C71.5309 345.18 70.9154 343.853 70.4375 342.105C72.9349 339.655 78.0149 333.985 80.1019 326.685C82.92 316.827 84.3107 312.171 78.4195 314.498C81.7288 312.388 84.7817 311.836 84.8979 311.895Z" fill="url(#paint70_linear_292_1473)"/>
<path d="M84.7428 376.849C88.0874 378.496 90.0009 382.026 90.0009 382.026C90.0009 382.026 84.3596 390.468 77.5947 392.864C70.8292 395.262 64.4121 391.038 64.4121 391.038C64.4121 391.038 66.1412 387.787 68.9984 384.274C71.2578 381.493 74.2224 378.551 77.5947 376.921C80.3945 375.568 82.8086 375.893 84.7428 376.849Z" fill="url(#paint71_linear_292_1473)"/>
<path opacity="0.2" d="M78.2661 389.497C77.9328 389.789 77.5786 390.064 77.2055 390.314C72.9336 393.189 66.9452 391.014 64.9219 390.135C65.3669 389.38 66.0904 388.21 67.0462 386.853C67.4969 386.409 67.9899 385.936 68.5177 385.448C71.13 383.031 74.5743 380.256 77.7907 378.946C83.7426 376.525 83.3 385.087 78.2661 389.497Z" fill="url(#paint72_linear_292_1473)"/>
<path opacity="0.4" d="M84.7428 376.849C88.0874 378.496 90.0009 382.026 90.0009 382.026C90.0009 382.026 84.3596 390.468 77.5947 392.864C70.8292 395.262 64.4121 391.038 64.4121 391.038C64.4121 391.038 64.5895 390.705 64.9228 390.137C65.3679 389.382 66.0913 388.212 67.0471 386.855C67.6178 386.045 68.2712 385.168 68.9991 384.275C68.8135 384.676 68.6512 385.069 68.5193 385.451C68.0098 386.918 67.9398 388.202 68.6878 388.981C70.1922 390.546 74.3701 390.686 78.2677 389.498C81.5813 388.488 84.6917 386.518 85.7882 383.645C87.2459 379.826 85.9625 377.827 84.7428 376.849Z" fill="url(#paint73_linear_292_1473)"/>
<defs>
<linearGradient id="paint0_linear_292_1473" x1="52.3299" y1="437.164" x2="52.3299" y2="0.000182348" gradientUnits="userSpaceOnUse">
<stop stop-color="#C7783F"/>
<stop offset="0.2938" stop-color="#BE6F41"/>
<stop offset="0.7805" stop-color="#A45846"/>
<stop offset="0.9944" stop-color="#974C49"/>
</linearGradient>
<linearGradient id="paint1_linear_292_1473" x1="20.2244" y1="403.054" x2="139.398" y2="407.518" gradientUnits="userSpaceOnUse">
<stop stop-color="#C7783F"/>
<stop offset="0.2938" stop-color="#BE6F41"/>
<stop offset="0.7805" stop-color="#A45846"/>
<stop offset="0.9944" stop-color="#974C49"/>
</linearGradient>
<linearGradient id="paint2_linear_292_1473" x1="21.9523" y1="356.925" x2="141.127" y2="361.388" gradientUnits="userSpaceOnUse">
<stop stop-color="#C7783F"/>
<stop offset="0.2938" stop-color="#BE6F41"/>
<stop offset="0.7805" stop-color="#A45846"/>
<stop offset="0.9944" stop-color="#974C49"/>
</linearGradient>
<linearGradient id="paint3_linear_292_1473" x1="23.4462" y1="317.023" x2="142.62" y2="321.487" gradientUnits="userSpaceOnUse">
<stop stop-color="#C7783F"/>
<stop offset="0.2938" stop-color="#BE6F41"/>
<stop offset="0.7805" stop-color="#A45846"/>
<stop offset="0.9944" stop-color="#974C49"/>
</linearGradient>
<linearGradient id="paint4_linear_292_1473" x1="26.1943" y1="243.648" x2="145.369" y2="248.112" gradientUnits="userSpaceOnUse">
<stop stop-color="#C7783F"/>
<stop offset="0.2938" stop-color="#BE6F41"/>
<stop offset="0.7805" stop-color="#A45846"/>
<stop offset="0.9944" stop-color="#974C49"/>
</linearGradient>
<linearGradient id="paint5_linear_292_1473" x1="27.4738" y1="209.511" x2="146.648" y2="213.974" gradientUnits="userSpaceOnUse">
<stop stop-color="#C7783F"/>
<stop offset="0.2938" stop-color="#BE6F41"/>
<stop offset="0.7805" stop-color="#A45846"/>
<stop offset="0.9944" stop-color="#974C49"/>
</linearGradient>
<linearGradient id="paint6_linear_292_1473" x1="28.4019" y1="184.714" x2="147.576" y2="189.178" gradientUnits="userSpaceOnUse">
<stop stop-color="#C7783F"/>
<stop offset="0.2938" stop-color="#BE6F41"/>
<stop offset="0.7805" stop-color="#A45846"/>
<stop offset="0.9944" stop-color="#974C49"/>
</linearGradient>
<linearGradient id="paint7_linear_292_1473" x1="30.5666" y1="126.907" x2="149.741" y2="131.371" gradientUnits="userSpaceOnUse">
<stop stop-color="#C7783F"/>
<stop offset="0.2938" stop-color="#BE6F41"/>
<stop offset="0.7805" stop-color="#A45846"/>
<stop offset="0.9944" stop-color="#974C49"/>
</linearGradient>
<linearGradient id="paint8_linear_292_1473" x1="33.0813" y1="59.7715" x2="152.256" y2="64.2352" gradientUnits="userSpaceOnUse">
<stop stop-color="#C7783F"/>
<stop offset="0.2938" stop-color="#BE6F41"/>
<stop offset="0.7805" stop-color="#A45846"/>
<stop offset="0.9944" stop-color="#974C49"/>
</linearGradient>
<linearGradient id="paint9_linear_292_1473" x1="34.2245" y1="29.2656" x2="153.399" y2="33.7292" gradientUnits="userSpaceOnUse">
<stop stop-color="#C7783F"/>
<stop offset="0.2938" stop-color="#BE6F41"/>
<stop offset="0.7805" stop-color="#A45846"/>
<stop offset="0.9944" stop-color="#974C49"/>
</linearGradient>
<linearGradient id="paint10_linear_292_1473" x1="53.7231" y1="219.86" x2="115.456" y2="217.344" gradientUnits="userSpaceOnUse">
<stop stop-color="#8F32E0"/>
<stop offset="0.0999" stop-color="#943BE1"/>
<stop offset="0.2661" stop-color="#A255E5"/>
<stop offset="0.4782" stop-color="#B97EEC"/>
<stop offset="0.7278" stop-color="#D8B8F4"/>
<stop offset="1" stop-color="white"/>
</linearGradient>
<linearGradient id="paint11_linear_292_1473" x1="48.5515" y1="429.661" x2="48.5515" y2="319.686" gradientUnits="userSpaceOnUse">
<stop stop-color="#9ADB2A"/>
<stop offset="0.1455" stop-color="#91D62B"/>
<stop offset="0.3873" stop-color="#77C82C"/>
<stop offset="0.6936" stop-color="#4EB12F"/>
<stop offset="0.9944" stop-color="#1F9732"/>
</linearGradient>
<linearGradient id="paint12_linear_292_1473" x1="40.0536" y1="380.046" x2="77.0277" y2="388.329" gradientUnits="userSpaceOnUse">
<stop offset="0.0144" stop-color="#FFF6A6"/>
<stop offset="0.198" stop-color="#FFF7AF"/>
<stop offset="0.5031" stop-color="#FFFAC9"/>
<stop offset="0.89" stop-color="#FFFEF2"/>
<stop offset="1" stop-color="white"/>
</linearGradient>
<linearGradient id="paint13_linear_292_1473" x1="42.1618" y1="374.316" x2="125.899" y2="369.765" gradientUnits="userSpaceOnUse">
<stop stop-color="#8F32E0"/>
<stop offset="0.0999" stop-color="#943BE1"/>
<stop offset="0.2661" stop-color="#A255E5"/>
<stop offset="0.4782" stop-color="#B97EEC"/>
<stop offset="0.7278" stop-color="#D8B8F4"/>
<stop offset="1" stop-color="white"/>
</linearGradient>
<linearGradient id="paint14_linear_292_1473" x1="50.3481" y1="346.874" x2="50.3481" y2="329.265" gradientUnits="userSpaceOnUse">
<stop stop-color="#9ADB2A"/>
<stop offset="0.1455" stop-color="#91D62B"/>
<stop offset="0.3873" stop-color="#77C82C"/>
<stop offset="0.6936" stop-color="#4EB12F"/>
<stop offset="0.9944" stop-color="#1F9732"/>
</linearGradient>
<linearGradient id="paint15_linear_292_1473" x1="49.8574" y1="352.966" x2="51.6511" y2="328.362" gradientUnits="userSpaceOnUse">
<stop stop-color="#8F32E0"/>
<stop offset="0.0999" stop-color="#943BE1"/>
<stop offset="0.2661" stop-color="#A255E5"/>
<stop offset="0.4782" stop-color="#B97EEC"/>
<stop offset="0.7278" stop-color="#D8B8F4"/>
<stop offset="1" stop-color="white"/>
</linearGradient>
<linearGradient id="paint16_linear_292_1473" x1="67.3503" y1="370.503" x2="67.3503" y2="333.169" gradientUnits="userSpaceOnUse">
<stop stop-color="#9ADB2A"/>
<stop offset="0.1455" stop-color="#91D62B"/>
<stop offset="0.3873" stop-color="#77C82C"/>
<stop offset="0.6936" stop-color="#4EB12F"/>
<stop offset="0.9944" stop-color="#1F9732"/>
</linearGradient>
<linearGradient id="paint17_linear_292_1473" x1="64.5909" y1="358.703" x2="78.4647" y2="361.811" gradientUnits="userSpaceOnUse">
<stop offset="0.0144" stop-color="#FFF6A6"/>
<stop offset="0.198" stop-color="#FFF7AF"/>
<stop offset="0.5031" stop-color="#FFFAC9"/>
<stop offset="0.89" stop-color="#FFFEF2"/>
<stop offset="1" stop-color="white"/>
</linearGradient>
<linearGradient id="paint18_linear_292_1473" x1="71.9683" y1="372.065" x2="52.547" y2="343.366" gradientUnits="userSpaceOnUse">
<stop stop-color="#8F32E0"/>
<stop offset="0.0999" stop-color="#943BE1"/>
<stop offset="0.2661" stop-color="#A255E5"/>
<stop offset="0.4782" stop-color="#B97EEC"/>
<stop offset="0.7278" stop-color="#D8B8F4"/>
<stop offset="1" stop-color="white"/>
</linearGradient>
<linearGradient id="paint19_linear_292_1473" x1="48.8718" y1="403.232" x2="48.8718" y2="386.459" gradientUnits="userSpaceOnUse">
<stop stop-color="#9ADB2A"/>
<stop offset="0.1455" stop-color="#91D62B"/>
<stop offset="0.3873" stop-color="#77C82C"/>
<stop offset="0.6936" stop-color="#4EB12F"/>
<stop offset="0.9944" stop-color="#1F9732"/>
</linearGradient>
<linearGradient id="paint20_linear_292_1473" x1="47.1899" y1="386.264" x2="51.4573" y2="418.114" gradientUnits="userSpaceOnUse">
<stop offset="0.0144" stop-color="#FFF6A6"/>
<stop offset="0.198" stop-color="#FFF7AF"/>
<stop offset="0.5031" stop-color="#FFFAC9"/>
<stop offset="0.89" stop-color="#FFFEF2"/>
<stop offset="1" stop-color="white"/>
</linearGradient>
<linearGradient id="paint21_linear_292_1473" x1="46.7336" y1="409.828" x2="58.2691" y2="377.177" gradientUnits="userSpaceOnUse">
<stop stop-color="#8F32E0"/>
<stop offset="0.0999" stop-color="#943BE1"/>
<stop offset="0.2661" stop-color="#A255E5"/>
<stop offset="0.4782" stop-color="#B97EEC"/>
<stop offset="0.7278" stop-color="#D8B8F4"/>
<stop offset="1" stop-color="white"/>
</linearGradient>
<linearGradient id="paint22_linear_292_1473" x1="47.7895" y1="331.272" x2="47.7895" y2="253.559" gradientUnits="userSpaceOnUse">
<stop stop-color="#9ADB2A"/>
<stop offset="0.1455" stop-color="#91D62B"/>
<stop offset="0.3873" stop-color="#77C82C"/>
<stop offset="0.6936" stop-color="#4EB12F"/>
<stop offset="0.9944" stop-color="#1F9732"/>
</linearGradient>
<linearGradient id="paint23_linear_292_1473" x1="31.6293" y1="290.316" x2="56.3116" y2="295.845" gradientUnits="userSpaceOnUse">
<stop offset="0.0144" stop-color="#FFF6A6"/>
<stop offset="0.198" stop-color="#FFF7AF"/>
<stop offset="0.5031" stop-color="#FFFAC9"/>
<stop offset="0.89" stop-color="#FFFEF2"/>
<stop offset="1" stop-color="white"/>
</linearGradient>
<linearGradient id="paint24_linear_292_1473" x1="37.8021" y1="294.089" x2="121.539" y2="289.538" gradientUnits="userSpaceOnUse">
<stop stop-color="#8F32E0"/>
<stop offset="0.0999" stop-color="#943BE1"/>
<stop offset="0.2661" stop-color="#A255E5"/>
<stop offset="0.4782" stop-color="#B97EEC"/>
<stop offset="0.7278" stop-color="#D8B8F4"/>
<stop offset="1" stop-color="white"/>
</linearGradient>
<linearGradient id="paint25_linear_292_1473" x1="34.8348" y1="302.263" x2="41.0987" y2="284.107" gradientUnits="userSpaceOnUse">
<stop stop-color="#9ADB2A"/>
<stop offset="0.1455" stop-color="#91D62B"/>
<stop offset="0.3873" stop-color="#77C82C"/>
<stop offset="0.6936" stop-color="#4EB12F"/>
<stop offset="0.9944" stop-color="#1F9732"/>
</linearGradient>
<linearGradient id="paint26_linear_292_1473" x1="24.8623" y1="296.207" x2="39.0517" y2="299.385" gradientUnits="userSpaceOnUse">
<stop offset="0.0144" stop-color="#FFF6A6"/>
<stop offset="0.198" stop-color="#FFF7AF"/>
<stop offset="0.5031" stop-color="#FFFAC9"/>
<stop offset="0.89" stop-color="#FFFEF2"/>
<stop offset="1" stop-color="white"/>
</linearGradient>
<linearGradient id="paint27_linear_292_1473" x1="33.8398" y1="317.378" x2="46.4188" y2="266.055" gradientUnits="userSpaceOnUse">
<stop stop-color="#8F32E0"/>
<stop offset="0.0999" stop-color="#943BE1"/>
<stop offset="0.2661" stop-color="#A255E5"/>
<stop offset="0.4782" stop-color="#B97EEC"/>
<stop offset="0.7278" stop-color="#D8B8F4"/>
<stop offset="1" stop-color="white"/>
</linearGradient>
<linearGradient id="paint28_linear_292_1473" x1="20.1665" y1="313.991" x2="25.4158" y2="292.573" gradientUnits="userSpaceOnUse">
<stop stop-color="#8F32E0"/>
<stop offset="0.0999" stop-color="#943BE1"/>
<stop offset="0.2661" stop-color="#A255E5"/>
<stop offset="0.4782" stop-color="#B97EEC"/>
<stop offset="0.7278" stop-color="#D8B8F4"/>
<stop offset="1" stop-color="white"/>
</linearGradient>
<linearGradient id="paint29_linear_292_1473" x1="36.1662" y1="237.047" x2="36.1662" y2="212.815" gradientUnits="userSpaceOnUse">
<stop stop-color="#9ADB2A"/>
<stop offset="0.1455" stop-color="#91D62B"/>
<stop offset="0.3873" stop-color="#77C82C"/>
<stop offset="0.6936" stop-color="#4EB12F"/>
<stop offset="0.9944" stop-color="#1F9732"/>
</linearGradient>
<linearGradient id="paint30_linear_292_1473" x1="61.1901" y1="234.476" x2="32.8396" y2="230.816" gradientUnits="userSpaceOnUse">
<stop stop-color="#9ADB2A"/>
<stop offset="0.1455" stop-color="#91D62B"/>
<stop offset="0.3873" stop-color="#77C82C"/>
<stop offset="0.6936" stop-color="#4EB12F"/>
<stop offset="0.9944" stop-color="#1F9732"/>
</linearGradient>
<linearGradient id="paint31_linear_292_1473" x1="27.3336" y1="225.851" x2="118.291" y2="220.908" gradientUnits="userSpaceOnUse">
<stop stop-color="#8F32E0"/>
<stop offset="0.0999" stop-color="#943BE1"/>
<stop offset="0.2661" stop-color="#A255E5"/>
<stop offset="0.4782" stop-color="#B97EEC"/>
<stop offset="0.7278" stop-color="#D8B8F4"/>
<stop offset="1" stop-color="white"/>
</linearGradient>
<linearGradient id="paint32_linear_292_1473" x1="46.4426" y1="254.638" x2="46.4426" y2="133.097" gradientUnits="userSpaceOnUse">
<stop stop-color="#9ADB2A"/>
<stop offset="0.1455" stop-color="#91D62B"/>
<stop offset="0.3873" stop-color="#77C82C"/>
<stop offset="0.6936" stop-color="#4EB12F"/>
<stop offset="0.9944" stop-color="#1F9732"/>
</linearGradient>
<linearGradient id="paint33_linear_292_1473" x1="39.7088" y1="193.9" x2="72.4795" y2="201.242" gradientUnits="userSpaceOnUse">
<stop offset="0.0144" stop-color="#FFF6A6"/>
<stop offset="0.198" stop-color="#FFF7AF"/>
<stop offset="0.5031" stop-color="#FFFAC9"/>
<stop offset="0.89" stop-color="#FFFEF2"/>
<stop offset="1" stop-color="white"/>
</linearGradient>
<linearGradient id="paint34_linear_292_1473" x1="32.4599" y1="195.813" x2="116.199" y2="191.262" gradientUnits="userSpaceOnUse">
<stop stop-color="#8F32E0"/>
<stop offset="0.0999" stop-color="#943BE1"/>
<stop offset="0.2661" stop-color="#A255E5"/>
<stop offset="0.4782" stop-color="#B97EEC"/>
<stop offset="0.7278" stop-color="#D8B8F4"/>
<stop offset="1" stop-color="white"/>
</linearGradient>
<linearGradient id="paint35_linear_292_1473" x1="47.0648" y1="242.832" x2="47.0648" y2="214.436" gradientUnits="userSpaceOnUse">
<stop stop-color="#9ADB2A"/>
<stop offset="0.1455" stop-color="#91D62B"/>
<stop offset="0.3873" stop-color="#77C82C"/>
<stop offset="0.6936" stop-color="#4EB12F"/>
<stop offset="0.9944" stop-color="#1F9732"/>
</linearGradient>
<linearGradient id="paint36_linear_292_1473" x1="43.8678" y1="239.133" x2="58.4068" y2="222.427" gradientUnits="userSpaceOnUse">
<stop stop-color="#8F32E0"/>
<stop offset="0.0999" stop-color="#943BE1"/>
<stop offset="0.2661" stop-color="#A255E5"/>
<stop offset="0.4782" stop-color="#B97EEC"/>
<stop offset="0.7278" stop-color="#D8B8F4"/>
<stop offset="1" stop-color="white"/>
</linearGradient>
<linearGradient id="paint37_linear_292_1473" x1="43.2312" y1="228.978" x2="62.6914" y2="233.338" gradientUnits="userSpaceOnUse">
<stop offset="0.0144" stop-color="#FFF6A6"/>
<stop offset="0.198" stop-color="#FFF7AF"/>
<stop offset="0.5031" stop-color="#FFFAC9"/>
<stop offset="0.89" stop-color="#FFFEF2"/>
<stop offset="1" stop-color="white"/>
</linearGradient>
<linearGradient id="paint38_linear_292_1473" x1="42.1642" y1="205.466" x2="42.1642" y2="168.871" gradientUnits="userSpaceOnUse">
<stop stop-color="#9ADB2A"/>
<stop offset="0.1455" stop-color="#91D62B"/>
<stop offset="0.3873" stop-color="#77C82C"/>
<stop offset="0.6936" stop-color="#4EB12F"/>
<stop offset="0.9944" stop-color="#1F9732"/>
</linearGradient>
<linearGradient id="paint39_linear_292_1473" x1="37.6575" y1="199.023" x2="55.3191" y2="180.81" gradientUnits="userSpaceOnUse">
<stop stop-color="#8F32E0"/>
<stop offset="0.0999" stop-color="#943BE1"/>
<stop offset="0.2661" stop-color="#A255E5"/>
<stop offset="0.4782" stop-color="#B97EEC"/>
<stop offset="0.7278" stop-color="#D8B8F4"/>
<stop offset="1" stop-color="white"/>
</linearGradient>
<linearGradient id="paint40_linear_292_1473" x1="48.8158" y1="157.934" x2="59.9942" y2="151.976" gradientUnits="userSpaceOnUse">
<stop stop-color="#9ADB2A"/>
<stop offset="0.1455" stop-color="#91D62B"/>
<stop offset="0.3873" stop-color="#77C82C"/>
<stop offset="0.6936" stop-color="#4EB12F"/>
<stop offset="0.9944" stop-color="#1F9732"/>
</linearGradient>
<linearGradient id="paint41_linear_292_1473" x1="22.8797" y1="109.992" x2="22.8797" y2="76.2882" gradientUnits="userSpaceOnUse">
<stop stop-color="#9ADB2A"/>
<stop offset="0.1455" stop-color="#91D62B"/>
<stop offset="0.3873" stop-color="#77C82C"/>
<stop offset="0.6936" stop-color="#4EB12F"/>
<stop offset="0.9944" stop-color="#1F9732"/>
</linearGradient>
<linearGradient id="paint42_linear_292_1473" x1="31.1471" y1="98.1625" x2="19.6829" y2="96.6826" gradientUnits="userSpaceOnUse">
<stop stop-color="#9ADB2A"/>
<stop offset="0.1455" stop-color="#91D62B"/>
<stop offset="0.3873" stop-color="#77C82C"/>
<stop offset="0.6936" stop-color="#4EB12F"/>
<stop offset="0.9944" stop-color="#1F9732"/>
</linearGradient>
<linearGradient id="paint43_linear_292_1473" x1="19.734" y1="93.2791" x2="56.9812" y2="91.2548" gradientUnits="userSpaceOnUse">
<stop stop-color="#8F32E0"/>
<stop offset="0.0999" stop-color="#943BE1"/>
<stop offset="0.2661" stop-color="#A255E5"/>
<stop offset="0.4782" stop-color="#B97EEC"/>
<stop offset="0.7278" stop-color="#D8B8F4"/>
<stop offset="1" stop-color="white"/>
</linearGradient>
<linearGradient id="paint44_linear_292_1473" x1="33.4562" y1="146.871" x2="33.4562" y2="65.0131" gradientUnits="userSpaceOnUse">
<stop stop-color="#9ADB2A"/>
<stop offset="0.1455" stop-color="#91D62B"/>
<stop offset="0.3873" stop-color="#77C82C"/>
<stop offset="0.6936" stop-color="#4EB12F"/>
<stop offset="0.9944" stop-color="#1F9732"/>
</linearGradient>
<linearGradient id="paint45_linear_292_1473" x1="25.771" y1="103.763" x2="40.222" y2="107" gradientUnits="userSpaceOnUse">
<stop offset="0.0144" stop-color="#FFF6A6"/>
<stop offset="0.198" stop-color="#FFF7AF"/>
<stop offset="0.5031" stop-color="#FFFAC9"/>
<stop offset="0.89" stop-color="#FFFEF2"/>
<stop offset="1" stop-color="white"/>
</linearGradient>
<linearGradient id="paint46_linear_292_1473" x1="27.6367" y1="107.06" x2="111.374" y2="102.509" gradientUnits="userSpaceOnUse">
<stop stop-color="#8F32E0"/>
<stop offset="0.0999" stop-color="#943BE1"/>
<stop offset="0.2661" stop-color="#A255E5"/>
<stop offset="0.4782" stop-color="#B97EEC"/>
<stop offset="0.7278" stop-color="#D8B8F4"/>
<stop offset="1" stop-color="white"/>
</linearGradient>
<linearGradient id="paint47_linear_292_1473" x1="25.3407" y1="134.572" x2="25.3407" y2="109.03" gradientUnits="userSpaceOnUse">
<stop stop-color="#9ADB2A"/>
<stop offset="0.1455" stop-color="#91D62B"/>
<stop offset="0.3873" stop-color="#77C82C"/>
<stop offset="0.6936" stop-color="#4EB12F"/>
<stop offset="0.9944" stop-color="#1F9732"/>
</linearGradient>
<linearGradient id="paint48_linear_292_1473" x1="20.6592" y1="133.424" x2="37.3705" y2="119.095" gradientUnits="userSpaceOnUse">
<stop stop-color="#8F32E0"/>
<stop offset="0.0999" stop-color="#943BE1"/>
<stop offset="0.2661" stop-color="#A255E5"/>
<stop offset="0.4782" stop-color="#B97EEC"/>
<stop offset="0.7278" stop-color="#D8B8F4"/>
<stop offset="1" stop-color="white"/>
</linearGradient>
<linearGradient id="paint49_linear_292_1473" x1="32.0703" y1="110.491" x2="32.0703" y2="79.0405" gradientUnits="userSpaceOnUse">
<stop stop-color="#9ADB2A"/>
<stop offset="0.1455" stop-color="#91D62B"/>
<stop offset="0.3873" stop-color="#77C82C"/>
<stop offset="0.6936" stop-color="#4EB12F"/>
<stop offset="0.9944" stop-color="#1F9732"/>
</linearGradient>
<linearGradient id="paint50_linear_292_1473" x1="38.3202" y1="185.657" x2="56.1232" y2="189.645" gradientUnits="userSpaceOnUse">
<stop offset="0.0144" stop-color="#FFF6A6"/>
<stop offset="0.198" stop-color="#FFF7AF"/>
<stop offset="0.5031" stop-color="#FFFAC9"/>
<stop offset="0.89" stop-color="#FFFEF2"/>
<stop offset="1" stop-color="white"/>
</linearGradient>
<linearGradient id="paint51_linear_292_1473" x1="49.7014" y1="156.788" x2="60.5487" y2="150.117" gradientUnits="userSpaceOnUse">
<stop stop-color="#8F32E0"/>
<stop offset="0.0999" stop-color="#943BE1"/>
<stop offset="0.2661" stop-color="#A255E5"/>
<stop offset="0.4782" stop-color="#B97EEC"/>
<stop offset="0.7278" stop-color="#D8B8F4"/>
<stop offset="1" stop-color="white"/>
</linearGradient>
<linearGradient id="paint52_linear_292_1473" x1="48.7694" y1="151.905" x2="62.2641" y2="154.928" gradientUnits="userSpaceOnUse">
<stop offset="0.0144" stop-color="#FFF6A6"/>
<stop offset="0.198" stop-color="#FFF7AF"/>
<stop offset="0.5031" stop-color="#FFFAC9"/>
<stop offset="0.89" stop-color="#FFFEF2"/>
<stop offset="1" stop-color="white"/>
</linearGradient>
<linearGradient id="paint53_linear_292_1473" x1="22.0592" y1="122.699" x2="36.3801" y2="125.907" gradientUnits="userSpaceOnUse">
<stop offset="0.0144" stop-color="#FFF6A6"/>
<stop offset="0.198" stop-color="#FFF7AF"/>
<stop offset="0.5031" stop-color="#FFFAC9"/>
<stop offset="0.89" stop-color="#FFFEF2"/>
<stop offset="1" stop-color="white"/>
</linearGradient>
<linearGradient id="paint54_linear_292_1473" x1="34.2687" y1="108.622" x2="31.1502" y2="83.0487" gradientUnits="userSpaceOnUse">
<stop offset="0.0144" stop-color="#FFF6A6"/>
<stop offset="0.198" stop-color="#FFF7AF"/>
<stop offset="0.5031" stop-color="#FFFAC9"/>
<stop offset="0.89" stop-color="#FFFEF2"/>
<stop offset="1" stop-color="white"/>
</linearGradient>
<linearGradient id="paint55_linear_292_1473" x1="21.7646" y1="101.155" x2="51.3798" y2="91.7256" gradientUnits="userSpaceOnUse">
<stop stop-color="#8F32E0"/>
<stop offset="0.1201" stop-color="#9237E1"/>
<stop offset="0.26" stop-color="#9945E3"/>
<stop offset="0.4098" stop-color="#A65CE6"/>
<stop offset="0.5668" stop-color="#B87DEB"/>
<stop offset="0.7292" stop-color="#CFA7F2"/>
<stop offset="0.8937" stop-color="#EBDAF9"/>
<stop offset="1" stop-color="white"/>
</linearGradient>
<linearGradient id="paint56_linear_292_1473" x1="48.4985" y1="94.3032" x2="48.4985" y2="71.7429" gradientUnits="userSpaceOnUse">
<stop stop-color="#9ADB2A"/>
<stop offset="0.1455" stop-color="#91D62B"/>
<stop offset="0.3873" stop-color="#77C82C"/>
<stop offset="0.6936" stop-color="#4EB12F"/>
<stop offset="0.9944" stop-color="#1F9732"/>
</linearGradient>
<linearGradient id="paint57_linear_292_1473" x1="61.382" y1="89.1086" x2="42.3759" y2="86.6552" gradientUnits="userSpaceOnUse">
<stop stop-color="#9ADB2A"/>
<stop offset="0.1455" stop-color="#91D62B"/>
<stop offset="0.3873" stop-color="#77C82C"/>
<stop offset="0.6936" stop-color="#4EB12F"/>
<stop offset="0.9944" stop-color="#1F9732"/>
</linearGradient>
<linearGradient id="paint58_linear_292_1473" x1="40.4061" y1="84.0281" x2="116.645" y2="79.8848" gradientUnits="userSpaceOnUse">
<stop stop-color="#8F32E0"/>
<stop offset="0.0999" stop-color="#943BE1"/>
<stop offset="0.2661" stop-color="#A255E5"/>
<stop offset="0.4782" stop-color="#B97EEC"/>
<stop offset="0.7278" stop-color="#D8B8F4"/>
<stop offset="1" stop-color="white"/>
</linearGradient>
<linearGradient id="paint59_linear_292_1473" x1="58.4333" y1="188.66" x2="58.4333" y2="169.604" gradientUnits="userSpaceOnUse">
<stop stop-color="#9ADB2A"/>
<stop offset="0.1455" stop-color="#91D62B"/>
<stop offset="0.3873" stop-color="#77C82C"/>
<stop offset="0.6936" stop-color="#4EB12F"/>
<stop offset="0.9944" stop-color="#1F9732"/>
</linearGradient>
<linearGradient id="paint60_linear_292_1473" x1="75.1969" y1="186.252" x2="48.9042" y2="182.857" gradientUnits="userSpaceOnUse">
<stop stop-color="#9ADB2A"/>
<stop offset="0.1455" stop-color="#91D62B"/>
<stop offset="0.3873" stop-color="#77C82C"/>
<stop offset="0.6936" stop-color="#4EB12F"/>
<stop offset="0.9944" stop-color="#1F9732"/>
</linearGradient>
<linearGradient id="paint61_linear_292_1473" x1="48.4076" y1="178.216" x2="150.17" y2="172.686" gradientUnits="userSpaceOnUse">
<stop stop-color="#8F32E0"/>
<stop offset="0.0999" stop-color="#943BE1"/>
<stop offset="0.2661" stop-color="#A255E5"/>
<stop offset="0.4782" stop-color="#B97EEC"/>
<stop offset="0.7278" stop-color="#D8B8F4"/>
<stop offset="1" stop-color="white"/>
</linearGradient>
<linearGradient id="paint62_linear_292_1473" x1="71.6544" y1="293.137" x2="71.6544" y2="272.043" gradientUnits="userSpaceOnUse">
<stop stop-color="#9ADB2A"/>
<stop offset="0.1455" stop-color="#91D62B"/>
<stop offset="0.3873" stop-color="#77C82C"/>
<stop offset="0.6936" stop-color="#4EB12F"/>
<stop offset="0.9944" stop-color="#1F9732"/>
</linearGradient>
<linearGradient id="paint63_linear_292_1473" x1="82.053" y1="288.951" x2="62.6115" y2="286.441" gradientUnits="userSpaceOnUse">
<stop stop-color="#9ADB2A"/>
<stop offset="0.1455" stop-color="#91D62B"/>
<stop offset="0.3873" stop-color="#77C82C"/>
<stop offset="0.6936" stop-color="#4EB12F"/>
<stop offset="0.9944" stop-color="#1F9732"/>
</linearGradient>
<linearGradient id="paint64_linear_292_1473" x1="63.3165" y1="282.826" x2="149.37" y2="278.149" gradientUnits="userSpaceOnUse">
<stop stop-color="#8F32E0"/>
<stop offset="0.0999" stop-color="#943BE1"/>
<stop offset="0.2661" stop-color="#A255E5"/>
<stop offset="0.4782" stop-color="#B97EEC"/>
<stop offset="0.7278" stop-color="#D8B8F4"/>
<stop offset="1" stop-color="white"/>
</linearGradient>
<linearGradient id="paint65_linear_292_1473" x1="11.4636" y1="323.405" x2="11.4635" y2="296.682" gradientUnits="userSpaceOnUse">
<stop stop-color="#9ADB2A"/>
<stop offset="0.1455" stop-color="#91D62B"/>
<stop offset="0.3873" stop-color="#77C82C"/>
<stop offset="0.6936" stop-color="#4EB12F"/>
<stop offset="0.9944" stop-color="#1F9732"/>
</linearGradient>
<linearGradient id="paint66_linear_292_1473" x1="34.8725" y1="319.724" x2="8.00481" y2="316.256" gradientUnits="userSpaceOnUse">
<stop stop-color="#9ADB2A"/>
<stop offset="0.1455" stop-color="#91D62B"/>
<stop offset="0.3873" stop-color="#77C82C"/>
<stop offset="0.6936" stop-color="#4EB12F"/>
<stop offset="0.9944" stop-color="#1F9732"/>
</linearGradient>
<linearGradient id="paint67_linear_292_1473" x1="3.46983" y1="310.311" x2="86.2171" y2="305.814" gradientUnits="userSpaceOnUse">
<stop stop-color="#8F32E0"/>
<stop offset="0.0999" stop-color="#943BE1"/>
<stop offset="0.2661" stop-color="#A255E5"/>
<stop offset="0.4782" stop-color="#B97EEC"/>
<stop offset="0.7278" stop-color="#D8B8F4"/>
<stop offset="1" stop-color="white"/>
</linearGradient>
<linearGradient id="paint68_linear_292_1473" x1="77.2074" y1="345.859" x2="77.2074" y2="311.891" gradientUnits="userSpaceOnUse">
<stop stop-color="#9ADB2A"/>
<stop offset="0.1455" stop-color="#91D62B"/>
<stop offset="0.3873" stop-color="#77C82C"/>
<stop offset="0.6936" stop-color="#4EB12F"/>
<stop offset="0.9944" stop-color="#1F9732"/>
</linearGradient>
<linearGradient id="paint69_linear_292_1473" x1="83.3099" y1="334.404" x2="72.0695" y2="332.953" gradientUnits="userSpaceOnUse">
<stop stop-color="#9ADB2A"/>
<stop offset="0.1455" stop-color="#91D62B"/>
<stop offset="0.3873" stop-color="#77C82C"/>
<stop offset="0.6936" stop-color="#4EB12F"/>
<stop offset="0.9944" stop-color="#1F9732"/>
</linearGradient>
<linearGradient id="paint70_linear_292_1473" x1="71.8437" y1="329.727" x2="132.942" y2="326.406" gradientUnits="userSpaceOnUse">
<stop stop-color="#8F32E0"/>
<stop offset="0.0999" stop-color="#943BE1"/>
<stop offset="0.2661" stop-color="#A255E5"/>
<stop offset="0.4782" stop-color="#B97EEC"/>
<stop offset="0.7278" stop-color="#D8B8F4"/>
<stop offset="1" stop-color="white"/>
</linearGradient>
<linearGradient id="paint71_linear_292_1473" x1="77.2074" y1="393.6" x2="77.2074" y2="376.016" gradientUnits="userSpaceOnUse">
<stop stop-color="#9ADB2A"/>
<stop offset="0.1455" stop-color="#91D62B"/>
<stop offset="0.3873" stop-color="#77C82C"/>
<stop offset="0.6936" stop-color="#4EB12F"/>
<stop offset="0.9944" stop-color="#1F9732"/>
</linearGradient>
<linearGradient id="paint72_linear_292_1473" x1="91.1157" y1="390.051" x2="69.0959" y2="387.208" gradientUnits="userSpaceOnUse">
<stop stop-color="#9ADB2A"/>
<stop offset="0.1455" stop-color="#91D62B"/>
<stop offset="0.3873" stop-color="#77C82C"/>
<stop offset="0.6936" stop-color="#4EB12F"/>
<stop offset="0.9944" stop-color="#1F9732"/>
</linearGradient>
<linearGradient id="paint73_linear_292_1473" x1="67.5403" y1="386.743" x2="166.297" y2="381.375" gradientUnits="userSpaceOnUse">
<stop stop-color="#8F32E0"/>
<stop offset="0.0999" stop-color="#943BE1"/>
<stop offset="0.2661" stop-color="#A255E5"/>
<stop offset="0.4782" stop-color="#B97EEC"/>
<stop offset="0.7278" stop-color="#D8B8F4"/>
<stop offset="1" stop-color="white"/>
</linearGradient>
</defs>
</svg>
