<svg width="96" height="63" viewBox="0 0 96 63" fill="none" xmlns="http://www.w3.org/2000/svg">
<path d="M95.2057 34.2301C94.7657 35.6601 92.2757 59.2001 52.8557 61.9501C49.1457 62.2101 45.4157 62.0901 41.7257 61.6001C29.3857 59.9601 1.73567 54.0801 0.00567257 34.2301C-0.134327 32.6601 2.31565 31.4501 7.51565 31.3401C8.29565 31.4601 9.59566 31.5001 11.2457 31.4701C20.8357 31.3101 42.5157 28.9501 47.1657 28.4301C47.1657 28.3601 47.1657 28.3301 47.1657 28.3301C47.1657 28.3301 47.3257 28.3501 47.6057 28.3801C47.8857 28.3501 48.0457 28.3301 48.0457 28.3301C48.0457 28.3301 48.0457 28.3601 48.0457 28.4301C52.2556 28.9001 70.4357 30.8801 80.9457 31.3701C84.0457 31.5101 86.4857 31.5301 87.6957 31.3401C92.8957 31.4501 95.6657 32.7301 95.2057 34.2301Z" fill="url(#paint0_linear_480_927)"/>
<path opacity="0.3" d="M95.2057 34.2298C94.7657 35.6598 92.2757 59.1998 52.8557 61.9498C49.1457 62.2098 45.4157 62.0898 41.7257 61.5998C29.3857 59.9598 1.73567 54.0798 0.00567257 34.2298C-0.134327 32.6598 2.31565 31.4498 7.51565 31.3398C8.29565 31.4598 9.59566 31.4998 11.2457 31.4698C12.9457 35.0998 23.2357 54.2698 50.1757 52.2798C68.4557 50.9998 77.0457 39.7798 80.9457 31.3698C84.0457 31.5098 86.4857 31.5298 87.6957 31.3398C92.8957 31.4498 95.6657 32.7298 95.2057 34.2298Z" fill="#A06A9A"/>
<path d="M59.2358 19.08L47.6058 42.95L37.3658 21.94L35.9758 19.08C35.9758 19.08 34.8458 9.14 47.6058 0C60.3758 9.14 59.2358 19.08 59.2358 19.08Z" fill="url(#paint1_linear_480_927)"/>
<path opacity="0.3" d="M47.6058 0V2.49C47.6058 2.49 45.8758 21.6 41.5658 22.36C40.4758 22.55 38.9858 22.35 37.3658 21.94L35.9758 19.08C35.9758 19.08 34.8458 9.14 47.6058 0Z" fill="#A06A9A"/>
<path d="M57.2662 18.5602L47.6063 38.3802L37.9463 18.5602C37.9063 17.1702 38.1862 11.2302 44.8662 4.85023C45.6762 4.06024 46.5863 3.28023 47.6063 2.49023C55.1263 8.30023 56.8262 14.1402 57.1762 17.0302C57.2662 17.7202 57.2762 18.2502 57.2662 18.5602Z" fill="url(#paint2_linear_480_927)"/>
<path d="M95.2076 34.2279C94.7676 35.6579 92.2776 59.1979 52.8576 61.9479C49.1476 62.2079 45.4176 62.0879 41.7276 61.5979C29.3876 59.9579 1.73763 54.0779 0.00762562 34.2279C-0.132374 32.6579 2.31764 31.4479 7.51764 31.3379C7.51764 31.3379 7.96764 55.0679 47.5876 55.5979C80.5876 56.1279 87.6976 31.3379 87.6976 31.3379C92.8976 31.4479 95.6676 32.7279 95.2076 34.2279Z" fill="url(#paint3_linear_480_927)"/>
<path opacity="0.3" d="M6.19072 33.9544C6.19072 33.9544 1.56472 33.2944 1.28172 36.1554C0.997719 39.0154 11.9467 61.8864 50.8817 61.0394C77.7977 60.1934 95.4027 39.3714 93.8797 34.6314C93.4117 32.2004 89.4787 33.4844 88.8017 33.8884C88.1247 34.2924 74.4127 57.3154 50.8827 57.1454C27.3507 56.9774 9.74572 48.0054 6.19072 33.9544Z" fill="#A06A9A"/>
<path opacity="0.68" d="M63.5671 32.6203C63.5671 32.6203 79.2641 31.2063 77.6171 34.1703C75.9701 37.1343 66.8601 51.8813 47.6501 49.6473C35.2191 48.2023 54.3471 47.0973 63.5671 32.6203Z" fill="#FFD13B"/>
<path opacity="0.68" d="M15.9277 33.1879C15.9277 33.1879 28.3317 31.5479 30.3077 33.1879C32.2837 34.8279 41.9426 45.4819 38.1016 47.1249C34.2586 48.7689 11.9757 36.2669 15.9277 33.1879Z" fill="#FFD13B"/>
<path opacity="0.68" d="M60.6572 42.5895C60.6572 42.5895 71.6902 32.8515 74.6532 33.5105C77.6172 34.1695 56.8692 51.2295 60.6572 42.5895Z" fill="#FFD13B"/>
<path d="M21.3057 33.4789C21.3057 33.4789 15.6547 32.5449 17.0247 35.2669C18.3947 37.9889 32.9257 47.3089 35.9517 46.3429C38.9777 45.3779 23.8517 34.0899 21.3057 33.4789Z" fill="#FFD13B"/>
<path d="M21.8953 40.3395C21.8853 40.3495 21.8853 40.3495 21.8753 40.3595C19.5853 41.9695 15.0953 43.1195 14.2853 41.2995C13.8653 40.3695 14.0953 39.5795 14.6753 38.9395C14.6853 38.9295 14.6853 38.9295 14.6853 38.9295C16.0853 37.3995 19.5153 36.7495 20.8653 37.0195C24.0853 37.6795 23.6053 39.1395 21.8953 40.3395Z" fill="url(#paint4_linear_480_927)"/>
<path d="M21.8953 40.3395C21.8853 40.3495 21.8853 40.3495 21.8753 40.3595C19.5853 41.9695 15.0953 43.1195 14.2853 41.2995C13.8653 40.3695 14.0953 39.5795 14.6753 38.9395C14.6053 39.2195 13.3153 44.2395 21.8953 40.3395Z" fill="#FFE83E"/>
<path d="M45.8555 42.8701C45.9155 42.8701 46.1155 42.9401 46.4155 43.0601C46.3255 43.0801 46.2154 43.0601 46.0854 43.0001C45.9554 42.9401 45.8855 42.9001 45.8555 42.8701Z" fill="#FFE83E"/>
<path d="M15.0001 21.9477C15.0001 21.9477 13.4161 24.6917 16.8101 25.6427C20.2041 26.5937 33.941 27.9667 34.68 32.4577C35.42 36.9487 37.922 43.6587 47.607 42.9447C37.85 24.7977 18.0371 18.2527 15.0001 21.9477Z" fill="url(#paint5_linear_480_927)"/>
<path d="M47.6047 42.5396V42.9496C47.3447 42.9496 47.0247 42.9296 46.6647 42.8796C44.1147 42.5296 39.4947 40.6696 37.3647 33.8796C34.7047 23.6996 15.8547 27.7496 14.9347 22.5496C14.8747 22.1896 15.0447 21.6796 15.4047 21.0896C16.9747 18.5696 22.0947 14.5996 27.7447 14.2396C29.3547 14.1296 31.0047 14.3196 32.6247 14.9196C34.2447 15.5096 35.8647 16.3196 37.4047 17.3996C37.4047 17.3996 37.4247 17.4196 37.4647 17.4496C38.1847 17.9496 38.8947 18.5196 39.5747 19.1596C44.0847 23.3896 47.5347 30.5696 47.6047 42.5396Z" fill="url(#paint6_linear_480_927)"/>
<path opacity="0.68" d="M47.6047 42.5396V42.9496C45.4547 42.9496 39.7947 41.6196 37.3647 33.8796C34.7047 23.6996 15.8547 27.7496 14.9347 22.5496C14.8747 22.1896 15.0447 21.6796 15.4047 21.0896C15.3947 21.8996 15.7047 23.4496 17.9847 23.9596C21.1347 24.6696 26.6857 25.1666 28.1347 23.9596C31.1187 21.4736 30.1747 16.0496 27.7447 14.2396C29.3547 14.1296 31.0047 14.3196 32.6247 14.9196C35.0147 15.7996 37.4147 17.1396 39.5747 19.1596C34.6347 18.1636 33.6347 25.2996 34.4247 26.9296C35.5547 29.2596 38.9187 35.4876 40.2897 37.9556C41.2087 39.6096 43.7747 43.3896 47.6047 42.5396Z" fill="#FFD13B"/>
<path opacity="0.68" d="M31.7372 16.5377C31.7372 16.5377 29.5462 25.7267 31.4542 26.4337C33.3632 27.1407 35.2282 18.4587 34.9182 17.5277C34.7062 16.8917 32.7272 16.0437 31.7372 16.5377Z" fill="#FFD13B"/>
<path d="M47.6049 42.5397V42.9497C47.3449 42.9497 47.0249 42.9297 46.6649 42.8797C47.6649 41.5097 45.9449 33.1097 45.4449 30.3897C44.9549 27.6597 40.3448 28.8897 39.2348 29.2197C39.8948 28.9897 41.7048 28.1197 42.3348 25.5897C43.0648 22.6597 38.0548 17.9897 37.4648 17.4497C38.1848 17.9497 38.8948 18.5197 39.5748 19.1597C44.0848 23.3897 47.5349 30.5697 47.6049 42.5397Z" fill="#FFE83E"/>
<path d="M79.7056 21.9477C79.7056 21.9477 81.2896 24.6917 77.8956 25.6427C74.5016 26.5937 60.7646 27.9667 60.0256 32.4577C59.2856 36.9487 56.7836 43.6587 47.0986 42.9447C56.8546 24.7977 76.6686 18.2527 79.7056 21.9477Z" fill="url(#paint7_linear_480_927)"/>
<path d="M79.7657 22.5496C78.8457 27.7496 59.9957 23.6996 57.3357 33.8796C55.2057 40.6696 50.5857 42.5296 48.0357 42.8796C47.6757 42.9296 47.3557 42.9496 47.0957 42.9496V42.5396C47.1557 31.6996 49.9957 24.7896 53.8757 20.4396H53.8857C54.2857 19.9896 54.6957 19.5596 55.1257 19.1596C55.8057 18.5196 56.5157 17.9496 57.2357 17.4496C57.2757 17.4196 57.2957 17.3996 57.2957 17.3996C58.8357 16.3196 60.4557 15.5096 62.0757 14.9196C63.6957 14.3196 65.3457 14.1296 66.9557 14.2396C72.6057 14.5996 77.7257 18.5696 79.2957 21.0896C79.4657 21.3696 79.5857 21.6296 79.6757 21.8596C79.7657 22.1296 79.7957 22.3596 79.7657 22.5496Z" fill="url(#paint8_linear_480_927)"/>
<path opacity="0.68" d="M47.0996 42.5396V42.9496C49.2496 42.9496 54.9096 41.6196 57.3396 33.8796C59.9996 23.6996 78.8496 27.7496 79.7696 22.5496C79.8296 22.1896 79.6596 21.6796 79.2996 21.0896C79.3096 21.8996 78.9996 23.4496 76.7196 23.9596C73.5696 24.6696 68.0186 25.1666 66.5696 23.9596C63.5856 21.4736 64.5296 16.0496 66.9596 14.2396C65.3496 14.1296 63.6996 14.3196 62.0796 14.9196C59.6896 15.7996 57.2896 17.1396 55.1296 19.1596C60.0696 18.1636 61.0696 25.2996 60.2796 26.9296C59.1496 29.2596 55.7856 35.4876 54.4146 37.9556C53.4966 39.6096 50.9296 43.3896 47.0996 42.5396Z" fill="#FFD13B"/>
<path opacity="0.68" d="M62.9679 16.5377C62.9679 16.5377 65.1589 25.7267 63.2509 26.4337C61.3429 27.1407 59.4769 18.4587 59.7869 17.5277C59.9989 16.8917 61.9789 16.0437 62.9679 16.5377Z" fill="#FFD13B"/>
<path opacity="0.68" d="M46.8651 25.3736C46.8651 25.3736 39.3022 17.6686 39.7262 16.8916C40.1502 16.1136 44.2502 5.29961 47.3602 5.58261C50.4702 5.86561 55.0652 16.8916 54.4292 18.5176C53.7922 20.1426 48.7021 25.8686 46.8651 25.3736Z" fill="#FFD13B"/>
<path d="M57.1752 17.0302C57.1752 17.0302 50.0152 4.98023 47.6252 4.24023C46.5352 4.24023 45.5752 4.54024 44.8652 4.85023C45.6752 4.06024 46.5853 3.28023 47.6053 2.49023C55.1253 8.30023 56.8252 14.1402 57.1752 17.0302Z" fill="#FFE83E"/>
<path opacity="0.68" d="M44.8652 19.8613C44.8652 19.8613 45.8032 9.83932 48.2072 9.76132C50.6102 9.68332 54.3723 17.5553 53.0143 19.8613C51.6553 22.1673 47.6022 25.3033 44.8652 19.8613Z" fill="#FFD13B"/>
<path d="M72.1957 17.4496C66.2457 12.6496 53.8857 20.4396 53.8857 20.4396C54.2857 19.9896 54.6957 19.5596 55.1257 19.1596C55.8057 18.5196 56.5157 17.9496 57.2357 17.4496C57.2757 17.4196 57.2957 17.3996 57.2957 17.3996C58.8357 16.3196 60.4557 15.5096 62.0757 14.9196C63.6957 14.3196 65.3457 14.1296 66.9557 14.2396C72.6057 14.5996 77.7257 18.5696 79.2957 21.0896C79.4657 21.3696 79.5857 21.6296 79.6757 21.8596C77.2957 22.1296 74.0957 23.7596 72.3857 24.7096C74.0657 23.5296 76.5057 20.9196 72.1957 17.4496Z" fill="#FFE83E"/>
<path d="M47.6294 19.8906C50.8845 19.8906 53.5234 17.2885 53.5234 14.0786C53.5234 10.8687 50.8845 8.2666 47.6294 8.2666C44.3742 8.2666 41.7354 10.8687 41.7354 14.0786C41.7354 17.2885 44.3742 19.8906 47.6294 19.8906Z" fill="url(#paint9_linear_480_927)"/>
<path d="M53.5234 15.3803C53.5234 18.5903 50.8844 21.1923 47.6294 21.1923C44.3744 21.1923 41.7354 18.5903 41.7354 15.3803C41.7354 12.1703 43.7814 16.5043 47.0364 16.5043C50.2914 16.5043 53.5234 12.1713 53.5234 15.3803Z" fill="#FFE83E"/>
<path d="M53.5234 14.5403C53.5234 17.5963 50.8844 20.0743 47.6294 20.0743C44.3744 20.0743 41.7354 17.5963 41.7354 14.5403C41.7354 11.4843 44.3744 9.00635 47.6294 9.00635C50.8844 9.00635 53.5234 11.4843 53.5234 14.5403Z" fill="url(#paint10_linear_480_927)"/>
<path opacity="0.44" d="M42.6322 12.9962C42.6322 12.9962 45.2162 8.29018 49.8512 9.88118C51.9072 10.5872 52.7432 13.3612 51.6492 13.7902C50.5562 14.2182 49.1812 11.4002 46.6012 12.4332C45.4852 12.8802 42.1912 14.9602 42.6322 12.9962Z" fill="url(#paint11_linear_480_927)"/>
<path opacity="0.44" d="M43.116 16.0393C43.116 16.0393 44.3649 19.9613 48.0449 19.6563C51.7259 19.3503 42.834 13.8193 43.116 16.0393Z" fill="url(#paint12_linear_480_927)"/>
<path d="M48.6156 10.0041C48.6506 10.7151 50.6076 12.7111 51.2816 12.1381C52.2946 11.2771 48.5746 9.19613 48.6156 10.0041Z" fill="#F3FFEE"/>
<path d="M44.627 17.3342C44.624 17.8472 45.083 18.8492 46.131 19.0912C47.179 19.3322 44.632 16.4892 44.627 17.3342Z" fill="#F3FFEE"/>
<path d="M54.4873 39.2525C54.4873 39.2525 53.2642 35.4445 55.0882 34.7975C56.9122 34.1505 56.9473 35.0015 56.9473 35.0015C56.9473 35.0015 57.3563 37.8255 54.4873 39.2525Z" fill="url(#paint13_linear_480_927)"/>
<defs>
<linearGradient id="paint0_linear_480_927" x1="40.8616" y1="73.7631" x2="50.7407" y2="15.6957" gradientUnits="userSpaceOnUse">
<stop offset="0.1617" stop-color="#FF7540"/>
<stop offset="0.2012" stop-color="#FF7F39"/>
<stop offset="0.3353" stop-color="#FF9E24"/>
<stop offset="0.4767" stop-color="#FFB514"/>
<stop offset="0.6269" stop-color="#FFC609"/>
<stop offset="0.7918" stop-color="#FFD002"/>
<stop offset="1" stop-color="#FFD300"/>
</linearGradient>
<linearGradient id="paint1_linear_480_927" x1="39.6765" y1="45.9992" x2="53.3551" y2="-2.7142" gradientUnits="userSpaceOnUse">
<stop offset="0.1515" stop-color="#B83A36"/>
<stop offset="0.216" stop-color="#B93E2E"/>
<stop offset="0.4568" stop-color="#BB4915"/>
<stop offset="0.6754" stop-color="#BD5105"/>
<stop offset="0.8509" stop-color="#BD5300"/>
</linearGradient>
<linearGradient id="paint2_linear_480_927" x1="41.0623" y1="40.9512" x2="52.4925" y2="0.245241" gradientUnits="userSpaceOnUse">
<stop offset="0.1617" stop-color="#FF7540"/>
<stop offset="0.2012" stop-color="#FF7F39"/>
<stop offset="0.3353" stop-color="#FF9E24"/>
<stop offset="0.4767" stop-color="#FFB514"/>
<stop offset="0.6269" stop-color="#FFC609"/>
<stop offset="0.7918" stop-color="#FFD002"/>
<stop offset="1" stop-color="#FFD300"/>
</linearGradient>
<linearGradient id="paint3_linear_480_927" x1="23.9639" y1="-21.9877" x2="79.6979" y2="112.753" gradientUnits="userSpaceOnUse">
<stop offset="0.1515" stop-color="#B83A36"/>
<stop offset="0.216" stop-color="#B93E2E"/>
<stop offset="0.4568" stop-color="#BB4915"/>
<stop offset="0.6754" stop-color="#BD5105"/>
<stop offset="0.8509" stop-color="#BD5300"/>
</linearGradient>
<linearGradient id="paint4_linear_480_927" x1="14.0705" y1="39.5938" x2="23.235" y2="39.5938" gradientUnits="userSpaceOnUse">
<stop offset="0.1515" stop-color="#B83A36"/>
<stop offset="0.216" stop-color="#B93E2E"/>
<stop offset="0.4568" stop-color="#BB4915"/>
<stop offset="0.6754" stop-color="#BD5105"/>
<stop offset="0.8509" stop-color="#BD5300"/>
</linearGradient>
<linearGradient id="paint5_linear_480_927" x1="14.6308" y1="31.9771" x2="47.6074" y2="31.9771" gradientUnits="userSpaceOnUse">
<stop offset="0.1515" stop-color="#B83A36"/>
<stop offset="0.216" stop-color="#B93E2E"/>
<stop offset="0.4568" stop-color="#BB4915"/>
<stop offset="0.6754" stop-color="#BD5105"/>
<stop offset="0.8509" stop-color="#BD5300"/>
</linearGradient>
<linearGradient id="paint6_linear_480_927" x1="21.2898" y1="52.1803" x2="46.4454" y2="2.48706" gradientUnits="userSpaceOnUse">
<stop offset="0.1617" stop-color="#FF7540"/>
<stop offset="0.2012" stop-color="#FF7F39"/>
<stop offset="0.3353" stop-color="#FF9E24"/>
<stop offset="0.4767" stop-color="#FFB514"/>
<stop offset="0.6269" stop-color="#FFC609"/>
<stop offset="0.7918" stop-color="#FFD002"/>
<stop offset="1" stop-color="#FFD300"/>
</linearGradient>
<linearGradient id="paint7_linear_480_927" x1="80.0744" y1="31.9771" x2="47.0976" y2="31.9771" gradientUnits="userSpaceOnUse">
<stop offset="0.1515" stop-color="#B83A36"/>
<stop offset="0.216" stop-color="#B93E2E"/>
<stop offset="0.4568" stop-color="#BB4915"/>
<stop offset="0.6754" stop-color="#BD5105"/>
<stop offset="0.8509" stop-color="#BD5300"/>
</linearGradient>
<linearGradient id="paint8_linear_480_927" x1="37.7164" y1="78.2829" x2="84.4577" y2="-14.0516" gradientUnits="userSpaceOnUse">
<stop offset="0.1617" stop-color="#FF7540"/>
<stop offset="0.2012" stop-color="#FF7F39"/>
<stop offset="0.3353" stop-color="#FF9E24"/>
<stop offset="0.4767" stop-color="#FFB514"/>
<stop offset="0.6269" stop-color="#FFC609"/>
<stop offset="0.7918" stop-color="#FFD002"/>
<stop offset="1" stop-color="#FFD300"/>
</linearGradient>
<linearGradient id="paint9_linear_480_927" x1="45.8966" y1="23.7429" x2="49.4786" y2="3.7704" gradientUnits="userSpaceOnUse">
<stop offset="0.1515" stop-color="#B83A36"/>
<stop offset="0.216" stop-color="#B93E2E"/>
<stop offset="0.4568" stop-color="#BB4915"/>
<stop offset="0.6754" stop-color="#BD5105"/>
<stop offset="0.8509" stop-color="#BD5300"/>
</linearGradient>
<linearGradient id="paint10_linear_480_927" x1="47.6298" y1="20.4312" x2="47.6298" y2="5.76985" gradientUnits="userSpaceOnUse">
<stop stop-color="#7C005B"/>
<stop offset="0.4129" stop-color="#970040"/>
<stop offset="1" stop-color="#C40014"/>
</linearGradient>
<linearGradient id="paint11_linear_480_927" x1="47.4588" y1="8.94638" x2="47.3141" y2="15.1677" gradientUnits="userSpaceOnUse">
<stop offset="0.0056" stop-color="#FF00E3"/>
<stop offset="0.5787"/>
</linearGradient>
<linearGradient id="paint12_linear_480_927" x1="43.9341" y1="20.3795" x2="48.9979" y2="13.4348" gradientUnits="userSpaceOnUse">
<stop offset="0.0056" stop-color="#FF00E3"/>
<stop offset="0.5787"/>
</linearGradient>
<linearGradient id="paint13_linear_480_927" x1="54.0857" y1="36.9034" x2="56.9672" y2="36.9034" gradientUnits="userSpaceOnUse">
<stop offset="0.1515" stop-color="#B83A36"/>
<stop offset="0.216" stop-color="#B93E2E"/>
<stop offset="0.4568" stop-color="#BB4915"/>
<stop offset="0.6754" stop-color="#BD5105"/>
<stop offset="0.8509" stop-color="#BD5300"/>
</linearGradient>
</defs>
</svg>
