<svg width="266" height="381" viewBox="0 0 266 381" fill="none" xmlns="http://www.w3.org/2000/svg">
<path d="M253.003 266.937V113.395C257.588 113.395 261.305 109.678 261.305 105.093V22.8889C261.305 12.815 253.138 4.64844 243.064 4.64844H22.8885C12.8146 4.64844 4.64844 12.815 4.64844 22.8885V105.093C4.64844 109.678 8.36547 113.395 12.9506 113.395L12.9509 266.937C8.36585 266.937 4.64844 270.654 4.64844 275.239V357.444C4.64844 367.518 12.815 375.685 22.8889 375.685H243.065C253.139 375.685 261.305 367.518 261.305 357.445V275.239C261.305 270.654 257.588 266.937 253.003 266.937Z" fill="url(#paint0_linear_451_4175)"/>
<g opacity="0.5">
<path d="M243.064 4.64844H22.8885C12.8146 4.64844 4.64844 12.8146 4.64844 22.8889V26.7872C4.64844 16.7129 12.815 8.54676 22.8885 8.54676H243.064C253.138 8.54676 261.305 16.7137 261.305 26.7872V22.8889C261.305 12.8146 253.138 4.64844 243.064 4.64844Z" fill="white"/>
</g>
<path d="M243.064 4.64824C253.138 4.64824 261.304 12.8148 261.304 22.8887V105.094C261.304 109.679 257.587 113.396 253.003 113.396V266.937C257.588 266.937 261.304 270.654 261.304 275.239V357.444C261.304 367.518 253.138 375.684 243.064 375.684H22.8887C12.8148 375.684 4.64824 367.518 4.64824 357.444V275.239C4.64824 270.654 8.36527 266.937 12.9504 266.937L12.9507 113.395C8.36565 113.395 4.64824 109.678 4.64824 105.093V22.8887C4.64824 12.8148 12.8148 4.64863 22.8883 4.64863H243.064M243.064 0H22.8883C10.2676 0 0 10.2676 0 22.8883V105.093C0 110.596 3.45092 115.309 8.30213 117.181L8.30251 263.151C3.45091 265.022 0.000378274 269.735 0.000378274 275.238V357.443C0.000378274 370.064 10.2683 380.332 22.8891 380.332H243.065C255.686 380.332 265.953 370.064 265.953 357.444V275.239C265.953 269.736 262.503 265.023 257.651 263.151V117.181C262.503 115.309 265.953 110.597 265.953 105.094V22.8887C265.953 10.268 255.685 0 243.064 0Z" fill="#CC6D14"/>
<g opacity="0.5">
<mask id="mask0_451_4175" style="mask-type:luminance" maskUnits="userSpaceOnUse" x="4" y="4" width="258" height="372">
<path d="M253.003 266.937V113.395C257.588 113.395 261.305 109.678 261.305 105.093V22.8889C261.305 12.815 253.138 4.64844 243.064 4.64844H22.8885C12.8146 4.64844 4.64844 12.815 4.64844 22.8885V105.093C4.64844 109.678 8.36547 113.395 12.9506 113.395H12.9509V266.937H12.9506C8.36547 266.937 4.64844 270.654 4.64844 275.239V357.444C4.64844 367.518 12.815 375.685 22.8889 375.685H243.065C253.139 375.685 261.305 367.518 261.305 357.445V275.239C261.305 270.654 257.588 266.937 253.003 266.937Z" fill="white"/>
</mask>
<g mask="url(#mask0_451_4175)">
<path d="M42.2288 400.474H32.9323V304.793H56.5895V237.919H26.5332V122.083H66.5185V49.8751H41.7279V-28.4102H51.0244V40.5786H75.815V131.379H35.8297V228.623H65.8859V314.089H42.2288V400.474Z" fill="white"/>
</g>
<mask id="mask1_451_4175" style="mask-type:luminance" maskUnits="userSpaceOnUse" x="4" y="4" width="258" height="372">
<path d="M253.003 266.937V113.395C257.588 113.395 261.305 109.678 261.305 105.093V22.8889C261.305 12.815 253.138 4.64844 243.064 4.64844H22.8885C12.8146 4.64844 4.64844 12.815 4.64844 22.8885V105.093C4.64844 109.678 8.36547 113.395 12.9506 113.395H12.9509V266.937H12.9506C8.36547 266.937 4.64844 270.654 4.64844 275.239V357.444C4.64844 367.518 12.815 375.685 22.8889 375.685H243.065C253.139 375.685 261.305 367.518 261.305 357.445V275.239C261.305 270.654 257.588 266.937 253.003 266.937Z" fill="white"/>
</mask>
<g mask="url(#mask1_451_4175)">
<path d="M146.76 415.422H137.463V252.434H162.482V190.681H112.444V81.2988H144.785V-25.2109H154.082V90.5952H121.741V181.385H171.779V261.73H146.76V415.422Z" fill="white"/>
</g>
<mask id="mask2_451_4175" style="mask-type:luminance" maskUnits="userSpaceOnUse" x="4" y="4" width="258" height="372">
<path d="M253.003 266.937V113.395C257.588 113.395 261.305 109.678 261.305 105.093V22.8889C261.305 12.815 253.138 4.64844 243.064 4.64844H22.8885C12.8146 4.64844 4.64844 12.815 4.64844 22.8885V105.093C4.64844 109.678 8.36547 113.395 12.9506 113.395H12.9509V266.937H12.9506C8.36547 266.937 4.64844 270.654 4.64844 275.239V357.444C4.64844 367.518 12.815 375.685 22.8889 375.685H243.065C253.139 375.685 261.305 367.518 261.305 357.445V275.239C261.305 270.654 257.588 266.937 253.003 266.937Z" fill="white"/>
</mask>
<g mask="url(#mask2_451_4175)">
<path d="M208.565 400.475H199.269V275.625H215.581V184.959H195.377V90.5267L210.104 75.7999V-25.2109H219.401V79.6506L204.673 94.3777V175.663H224.878V284.922H208.565V400.475Z" fill="white"/>
</g>
</g>
<path d="M224.766 353.845H41.1861C32.9188 353.845 26.2168 347.143 26.2168 338.875V77.7241C26.2168 69.4569 32.9188 62.7549 41.1861 62.7549H224.766C233.033 62.7549 239.735 69.4569 239.735 77.7241V338.875C239.736 347.143 233.034 353.845 224.766 353.845Z" fill="#FFE7C9"/>
<path d="M224.767 356.169H41.1863C31.6509 356.169 23.8926 348.411 23.8926 338.876V77.7244C23.8926 68.1886 31.6505 60.4307 41.1863 60.4307H224.767C234.302 60.4307 242.06 68.1886 242.06 77.7244V338.875C242.06 348.411 234.302 356.169 224.767 356.169ZM41.1863 65.0793C34.2136 65.0793 28.5408 70.7521 28.5408 77.7248V338.876C28.5408 345.848 34.2136 351.521 41.1863 351.521H224.767C231.739 351.521 237.412 345.848 237.412 338.876V77.7244C237.412 70.7517 231.739 65.0789 224.767 65.0789H41.1863V65.0793Z" fill="#CC6D14"/>
<path d="M21.0944 28.9003C25.1443 28.9003 28.4274 25.6172 28.4274 21.5674C28.4274 17.5175 25.1443 14.2344 21.0944 14.2344C17.0445 14.2344 13.7615 17.5175 13.7615 21.5674C13.7615 25.6172 17.0445 28.9003 21.0944 28.9003Z" fill="#CC6D14"/>
<path d="M244.859 28.9003C248.909 28.9003 252.192 25.6172 252.192 21.5674C252.192 17.5175 248.909 14.2344 244.859 14.2344C240.809 14.2344 237.526 17.5175 237.526 21.5674C237.526 25.6172 240.809 28.9003 244.859 28.9003Z" fill="#CC6D14"/>
<path d="M21.0947 368.511C25.1446 368.511 28.4277 365.228 28.4277 361.178C28.4277 357.128 25.1446 353.845 21.0947 353.845C17.0448 353.845 13.7617 357.128 13.7617 361.178C13.7617 365.228 17.0448 368.511 21.0947 368.511Z" fill="#CC6D14"/>
<path d="M244.859 368.511C248.909 368.511 252.192 365.228 252.192 361.178C252.192 357.128 248.909 353.845 244.859 353.845C240.809 353.845 237.526 357.128 237.526 361.178C237.526 365.228 240.809 368.511 244.859 368.511Z" fill="#CC6D14"/>
<defs>
<linearGradient id="paint0_linear_451_4175" x1="132.976" y1="375.684" x2="132.976" y2="4.64853" gradientUnits="userSpaceOnUse">
<stop stop-color="#CC6D14"/>
<stop offset="0.115385" stop-color="#BD5300"/>
<stop offset="1" stop-color="#FF9753"/>
</linearGradient>
</defs>
</svg>
