<svg width="281" height="60" viewBox="0 0 281 60" fill="none" xmlns="http://www.w3.org/2000/svg">
<path d="M281 28L255.211 8L253 28H281Z" fill="#C98F00"/>
<path d="M0 28L25.7895 8L28 28H0Z" fill="#C98F00"/>
<g filter="url(#filter0_d_596_691)">
<path d="M25 4.04883C25 1.83969 26.7909 0.0488281 29 0.0488281H251C253.209 0.0488281 255 1.83969 255 4.04883V47.0488C255 51.4671 251.418 55.0488 247 55.0488H33C28.5817 55.0488 25 51.4671 25 47.0488V4.04883Z" fill="#FFBA11"/>
</g>
<path d="M244.5 11.0489C252.1 14.6489 254.666 6.54886 255 2.04886C253.4 0.048857 250.333 -0.11781 249 0.0488566C178.5 0.215523 36.1997 0.448857 30.9997 0.0488566C25.7997 -0.351143 24.8331 2.88219 24.9997 4.54886V35.0489C24.9997 45.0489 28.9997 50.2155 30.9997 51.5489V2.04886H68.9997L71.4997 6.54886C73.3331 7.54886 78.1997 8.94886 82.9997 6.54886C88.9997 3.54886 90.4997 6.54886 93.4997 9.54886C95.8997 11.9489 98.8331 5.54886 99.9997 2.04886H132.5C153.3 15.6489 168.166 7.71552 173 2.04886H231.5C232.666 3.54886 236.9 7.44886 244.5 11.0489Z" fill="#FFE83E"/>
<defs>
<filter id="filter0_d_596_691" x="25" y="0.0488281" width="232" height="59" filterUnits="userSpaceOnUse" color-interpolation-filters="sRGB">
<feFlood flood-opacity="0" result="BackgroundImageFix"/>
<feColorMatrix in="SourceAlpha" type="matrix" values="0 0 0 0 0 0 0 0 0 0 0 0 0 0 0 0 0 0 127 0" result="hardAlpha"/>
<feOffset dx="2" dy="4"/>
<feComposite in2="hardAlpha" operator="out"/>
<feColorMatrix type="matrix" values="0 0 0 0 0.705882 0 0 0 0 0.329412 0 0 0 0 0.239216 0 0 0 1 0"/>
<feBlend mode="normal" in2="BackgroundImageFix" result="effect1_dropShadow_596_691"/>
<feBlend mode="normal" in="SourceGraphic" in2="effect1_dropShadow_596_691" result="shape"/>
</filter>
</defs>
</svg>
