<svg width="1224" height="84" viewBox="0 0 1224 84" fill="none" xmlns="http://www.w3.org/2000/svg">
<g filter="url(#filter0_d_318_2289)">
<path d="M944.82 1.0596H248.08C246.414 1.0596 244.803 1.65113 243.532 2.72876C241.329 4.59838 238.205 4.92871 235.659 3.56143L233.394 2.34504C231.822 1.50122 230.067 1.0596 228.283 1.0596H5.3286C2.3857 1.0596 0 3.4453 0 6.3882V7.57654C0 9.21325 1.06903 10.658 2.63422 11.1365C5.90797 12.1374 6.20889 16.6543 3.09685 18.0806L2.35302 18.4215C0.919245 19.0787 0 20.5112 0 22.0884V68C0 74.6274 5.37258 80 12 80H332.417C333.4 80 334.313 79.4884 334.826 78.6495C335.797 77.0614 338.012 76.8311 339.289 78.1855L339.947 78.8834C340.619 79.596 341.555 80 342.535 80H1026.07C1027.79 80 1029.46 79.4621 1030.86 78.4618C1033.4 76.6451 1036.74 76.4199 1039.5 77.8803L1041.07 78.7102C1042.66 79.5572 1044.45 80 1046.26 80H1055.16C1056.98 80 1058.78 79.5841 1060.42 78.7839L1061.75 78.1368C1065.13 76.4856 1069.11 76.6192 1072.38 78.4934C1074.1 79.4805 1076.04 80 1078.03 80H1212C1218.63 80 1224 74.6274 1224 68V42L1217.5 38.5L1224 35V26.5L1221 23.5L1224 20V13.0596C1224 6.43219 1218.63 1.0596 1212 1.0596H1022.35C1019.9 1.0596 1017.57 2.1029 1015.93 3.92831C1012.89 7.33448 1007.71 7.76555 1004.14 4.91023L1001.29 2.62957C999.159 0.927369 996.516 0 993.791 0H974.458C971.754 0 969.13 0.917904 967.015 2.60349C963.613 5.31558 959.005 5.96232 954.987 4.29156L949.428 1.97959C947.968 1.37226 946.402 1.0596 944.82 1.0596Z" fill="#FACB85"/>
<path d="M974.458 0.5H993.791C996.402 0.500083 998.936 1.38846 1000.97 3.01953L1003.83 5.30078C1007.6 8.32191 1013.08 7.86568 1016.31 4.26172C1017.84 2.54232 1020.04 1.55957 1022.35 1.55957H1212C1218.35 1.55957 1223.5 6.70831 1223.5 13.0596V19.8145L1220.62 23.1748L1220.32 23.5264L1223.5 26.707V34.7002L1217.26 38.0596L1216.45 38.5L1217.26 38.9404L1223.5 42.2988V68C1223.5 74.3513 1218.35 79.5 1212 79.5H1078.03C1076.13 79.5 1074.27 79.0032 1072.62 78.0596C1069.22 76.1028 1065.06 75.9636 1061.53 77.6875L1060.2 78.335C1058.63 79.1018 1056.91 79.5 1055.16 79.5H1046.25C1044.53 79.5 1042.83 79.0772 1041.3 78.2686L1039.73 77.4385C1036.81 75.8892 1033.26 76.1285 1030.57 78.0557C1029.26 78.995 1027.69 79.5 1026.07 79.5H342.535C341.693 79.5 340.888 79.1525 340.311 78.54L339.652 77.8428C338.149 76.2487 335.542 76.5195 334.399 78.3887C333.977 79.079 333.226 79.5 332.417 79.5H12C5.64873 79.5 0.5 74.3513 0.5 68V22.0889C0.5 20.7072 1.30548 19.4517 2.56152 18.876L3.30566 18.5352C6.83527 16.917 6.49359 11.7935 2.78027 10.6582C1.4254 10.2439 0.5 8.993 0.5 7.57617V6.38867C0.5 3.72207 2.66158 1.55983 5.32812 1.55957H228.283C229.984 1.55961 231.659 1.98049 233.157 2.78516L235.423 4.00195C238.15 5.46616 241.495 5.11255 243.855 3.11035C245.035 2.10939 246.533 1.55959 248.08 1.55957H944.82C946.336 1.55957 947.837 1.85938 949.236 2.44141L954.796 4.75293C958.981 6.49353 963.782 5.81975 967.327 2.99414C969.353 1.37929 971.867 0.500041 974.458 0.5Z" stroke="#CC6D14"/>
</g>
<defs>
<filter id="filter0_d_318_2289" x="0" y="0" width="1224" height="84" filterUnits="userSpaceOnUse" color-interpolation-filters="sRGB">
<feFlood flood-opacity="0" result="BackgroundImageFix"/>
<feColorMatrix in="SourceAlpha" type="matrix" values="0 0 0 0 0 0 0 0 0 0 0 0 0 0 0 0 0 0 127 0" result="hardAlpha"/>
<feOffset dy="4"/>
<feComposite in2="hardAlpha" operator="out"/>
<feColorMatrix type="matrix" values="0 0 0 0 0.8 0 0 0 0 0.427451 0 0 0 0 0.0784314 0 0 0 1 0"/>
<feBlend mode="normal" in2="BackgroundImageFix" result="effect1_dropShadow_318_2289"/>
<feBlend mode="normal" in="SourceGraphic" in2="effect1_dropShadow_318_2289" result="shape"/>
</filter>
</defs>
</svg>
