<svg width="392" height="68" viewBox="0 0 392 68" fill="none" xmlns="http://www.w3.org/2000/svg">
<g filter="url(#filter0_d_467_1584)">
<path d="M301.83 0.847682H79.787C79.0771 0.847682 78.4309 1.25727 78.1279 1.89929C77.5372 3.15125 75.8255 3.32272 74.9981 2.21285L74.6389 1.73094C74.2245 1.17513 73.572 0.847682 72.8787 0.847682H4.96282C2.22193 0.847682 0 3.06961 0 5.8105V6.73434C0 7.69895 0.449778 8.60841 1.21639 9.19389C2.63833 10.2799 2.84586 12.3418 1.66885 13.6893L0.999207 14.456C0.354998 15.1936 0 16.1396 0 17.1189V52C0 58.6274 5.37259 64 12 64H106.242C106.668 64 107.039 63.709 107.14 63.2953C107.356 62.4128 108.582 62.3386 108.903 63.1886L108.969 63.3643C109.114 63.7468 109.48 64 109.889 64H328.314C329.02 64 329.671 63.6183 330.015 63.0023C330.701 61.7747 332.422 61.6562 333.27 62.7782L333.525 63.1165C333.946 63.6729 334.603 64 335.3 64H337.585C338.363 64 339.1 63.6514 339.593 63.05L339.772 62.8318C340.774 61.6101 342.666 61.6839 343.57 62.98C344.015 63.6191 344.745 64 345.525 64H380C386.627 64 392 58.6274 392 52V33.6L389.918 30.8L392 28V21.2L391.039 18.8L392 16V12.8477C392 6.22027 386.627 0.847682 380 0.847682H327.944C326.89 0.847682 325.949 1.50984 325.594 2.50225C324.853 4.57061 321.994 4.74233 321.011 2.77754L320.457 1.67141C319.945 0.647005 318.897 0 317.752 0H312.648C311.481 0 310.413 0.658478 309.889 1.7017C308.933 3.60488 306.383 3.99153 304.906 2.45719L304.415 1.94738C303.739 1.24472 302.806 0.847682 301.83 0.847682Z" fill="#FACB85"/>
<path d="M312.648 0.5H317.752C318.708 0.500011 319.582 1.04043 320.01 1.89551L320.563 3.00098C321.744 5.35929 325.175 5.15351 326.064 2.6709C326.349 1.8774 327.101 1.34785 327.943 1.34766H380C386.351 1.34766 391.5 6.49639 391.5 12.8477V15.917L390.566 18.6377L390.506 18.8135L390.575 18.9854L391.5 21.2949V27.834L389.517 30.502L389.295 30.7998L389.517 31.0986L391.5 33.7656V52C391.5 58.3513 386.351 63.5 380 63.5H345.524C344.909 63.4999 344.332 63.1993 343.979 62.6943C342.886 61.1264 340.598 61.0368 339.386 62.5146L339.207 62.7324C338.809 63.218 338.213 63.5 337.585 63.5H335.3C334.759 63.4999 334.25 63.2467 333.924 62.8154L333.669 62.4766C332.604 61.0666 330.44 61.2162 329.578 62.7588C329.322 63.2164 328.839 63.5 328.314 63.5H109.889C109.688 63.5 109.507 63.3754 109.437 63.1875L109.371 63.0117C108.877 61.7022 106.987 61.817 106.654 63.1768C106.608 63.3664 106.438 63.4998 106.242 63.5H12C5.64873 63.5 0.5 58.3513 0.5 52V17.1191C0.5 16.2608 0.811359 15.4316 1.37598 14.7852L2.0459 14.0186C3.413 12.4533 3.17118 10.0583 1.51953 8.79688C0.87681 8.30599 0.500012 7.54311 0.5 6.73438V5.81055C0.5 3.3458 2.49814 1.34766 4.96289 1.34766H72.8789C73.4141 1.34772 73.9183 1.60023 74.2383 2.0293L74.5977 2.51172C75.6506 3.92386 77.8283 3.70541 78.5801 2.1123C78.8005 1.64543 79.2708 1.34766 79.7871 1.34766H301.83C302.669 1.34766 303.473 1.6894 304.055 2.29395L304.546 2.80371C306.262 4.58656 309.225 4.1372 310.336 1.92578C310.775 1.05166 311.67 0.5 312.648 0.5Z" stroke="#CC6D14"/>
</g>
<defs>
<filter id="filter0_d_467_1584" x="0" y="0" width="392" height="68" filterUnits="userSpaceOnUse" color-interpolation-filters="sRGB">
<feFlood flood-opacity="0" result="BackgroundImageFix"/>
<feColorMatrix in="SourceAlpha" type="matrix" values="0 0 0 0 0 0 0 0 0 0 0 0 0 0 0 0 0 0 127 0" result="hardAlpha"/>
<feOffset dy="4"/>
<feComposite in2="hardAlpha" operator="out"/>
<feColorMatrix type="matrix" values="0 0 0 0 0.8 0 0 0 0 0.427451 0 0 0 0 0.0784314 0 0 0 1 0"/>
<feBlend mode="normal" in2="BackgroundImageFix" result="effect1_dropShadow_467_1584"/>
<feBlend mode="normal" in="SourceGraphic" in2="effect1_dropShadow_467_1584" result="shape"/>
</filter>
</defs>
</svg>
