<svg width="1440" height="600" viewBox="0 0 1440 600" fill="none" xmlns="http://www.w3.org/2000/svg">
<path fill-rule="evenodd" clip-rule="evenodd" d="M-205.236 28.4191L-381.974 259.348C-381.974 259.348 139.524 1150.9 591.344 1235.54C1107.93 1332.3 1799.2 1020.18 1973.97 466.444C1973.97 466.444 1946.67 269.971 1758.77 122.958C1585.84 3.43824 -205.236 28.3473 -205.236 28.3473V28.4191Z" fill="url(#paint0_radial_292_660)"/>
<path fill-rule="evenodd" clip-rule="evenodd" d="M1464.85 84.0876C1464.85 100.579 1066.06 129.353 615.105 124.258C183.598 119.402 289.262 78.8926 288.808 72.2946C288.202 63.5596 70.7577 68.0063 -183.133 53.3928C-183.309 53.3712 -183.484 53.3712 -183.651 53.3568C-183.651 53.3568 -183.5 53.3352 -183.173 53.2561C-177.663 52.2775 -123.874 42.9166 -23.8793 32.282H-23.8554C93.1631 19.8271 273.467 5.64533 513.811 1.11954C921.788 -6.53617 1317.09 40.1392 1477.84 61.6601C1497.31 64.2647 1513.33 66.4953 1525.51 68.2221C1521.77 67.8696 1447.39 60.7607 1437.81 66.6752C1431.08 70.8484 1464.86 72.5896 1464.86 84.0876H1464.85Z" fill="url(#paint1_linear_292_660)"/>
<g style="mix-blend-mode:multiply" opacity="0.5">
<path fill-rule="evenodd" clip-rule="evenodd" d="M1590.46 98.8693C1590.46 113.009 1237.82 137.68 839.062 133.312C457.497 129.148 550.931 94.4151 550.529 88.7579C549.994 81.2684 357.716 85.081 133.211 72.5512L133.175 72.434L128.282 62.847L219.623 42.1367L274.04 54.4444C272.488 54.6974 206.135 65.4627 198.203 69.59C190.201 73.7912 560.513 82.0827 561.571 84.8157C563.7 90.331 544.988 99.8687 550.424 104.656C563.707 116.353 779.858 141.943 1127.07 124.811C1281.25 117.204 1574.25 98.678 1577.51 96.4139C1580.8 94.1436 1551.93 84.606 1551.09 82.3727C1550.4 80.5404 1588.11 79.8371 1601.95 79.6335C1619.17 81.8668 1633.33 83.7793 1644.1 85.2599C1640.8 84.9576 1575.03 78.8624 1566.56 83.9335C1560.61 87.5117 1590.47 89.0047 1590.47 98.8631L1590.46 98.8693Z" fill="#EFDBFF"/>
</g>
<path style="mix-blend-mode:screen" d="M-18.9598 31.1828C-18.9598 31.1828 -47.3803 35.4495 -48.7519 37.169C-50.1155 38.8885 123.517 51.4342 258.331 52.5486C393.145 53.6631 406.271 57.1657 403.592 60.6683C400.912 64.1709 390.498 72.5055 393.648 81.3496C396.789 90.2016 483.478 129.869 1010.14 117.1C1010.14 117.1 846.892 130.004 715.691 131.11C584.489 132.217 573.102 121.001 521.62 114.019C470.137 107.038 374.015 97.8437 363.082 90.536C352.149 83.2283 398.616 71.3353 398.161 62.7062C397.707 54.077 202.655 67.6417 122.513 62.7062C42.3707 57.7707 90.3841 52.8432 88.4783 49.866C86.5724 46.8887 13.9662 49.6749 -30.068 45.4479C-74.1022 41.2289 -66.5585 39.8517 -66.5585 39.8517L-18.9598 31.1748V31.1828Z" fill="url(#paint2_linear_292_660)"/>
<path style="mix-blend-mode:screen" d="M53.5388 156.756C53.5388 156.756 15.2548 162.496 13.4072 164.809C11.5703 167.122 245.464 183.999 427.066 185.498C608.668 186.997 626.349 191.709 622.74 196.421C619.131 201.133 605.102 212.345 609.345 224.242C613.577 236.151 730.352 289.512 1439.8 272.335C1439.8 272.335 1219.89 289.694 1043.16 291.183C866.419 292.671 851.08 277.583 781.73 268.191C712.381 258.8 582.898 246.431 568.171 236.6C553.444 226.77 616.037 210.771 615.425 199.163C614.812 187.554 352.066 205.802 244.11 199.163C136.155 192.523 200.831 185.894 198.264 181.889C195.697 177.884 97.892 181.632 38.5754 175.946C-20.7413 170.27 -10.5794 168.418 -10.5794 168.418L53.5388 156.745V156.756Z" fill="url(#paint3_linear_292_660)"/>
<path fill-rule="evenodd" clip-rule="evenodd" d="M1296.29 64.0645L1301.04 55.9641L1311.13 51.8715L1311.51 49.2778L1320.6 44.1348L1324.67 55.4349L1326.61 56.7115L1330.33 64.4847L1296.29 64.0645Z" fill="url(#paint4_linear_292_660)"/>
<path fill-rule="evenodd" clip-rule="evenodd" d="M1311.51 49.2779L1318 50.599L1320.71 49.0759L1320.6 44.1309C1320.6 44.1309 1313.85 46.9347 1311.51 49.2739V49.2779Z" fill="url(#paint5_linear_292_660)"/>
<path fill-rule="evenodd" clip-rule="evenodd" d="M1301.04 55.9637L1306.89 56.8646H1315.46L1326.61 56.7111L1324.67 55.4344H1318.17L1314.35 54.3113L1311.14 51.8711L1301.04 55.9637Z" fill="url(#paint6_linear_292_660)"/>
<path fill-rule="evenodd" clip-rule="evenodd" d="M1311.51 49.2778L1316.71 50.3363L1320.2 46.874L1320.6 44.1348C1320.6 44.1348 1315.54 45.8397 1311.51 49.2778Z" fill="url(#paint7_linear_292_660)"/>
<path style="mix-blend-mode:multiply" fill-rule="evenodd" clip-rule="evenodd" d="M1318.59 64.4841L1319.53 58.1371L1319.06 57.0342L1326.61 56.7109L1330.33 64.4841H1318.59Z" fill="url(#paint8_linear_292_660)"/>
<path style="mix-blend-mode:multiply" fill-rule="evenodd" clip-rule="evenodd" d="M1320.71 49.0798L1320.6 53.4229L1318.59 55.4349H1324.67L1320.6 44.1348L1320.71 49.0798Z" fill="url(#paint9_linear_292_660)"/>
<defs>
<radialGradient id="paint0_radial_292_660" cx="0" cy="0" r="1" gradientUnits="userSpaceOnUse" gradientTransform="translate(748.332 -1972.17) scale(1804.62 1047.21)">
<stop offset="0.31" stop-color="#CCD89C"/>
<stop offset="0.47" stop-color="#A7DBAE"/>
<stop offset="0.69" stop-color="#7ADEC5"/>
<stop offset="0.86" stop-color="#5EE1D3"/>
<stop offset="0.96" stop-color="#54E2D9"/>
</radialGradient>
<linearGradient id="paint1_linear_292_660" x1="670.92" y1="124.856" x2="670.92" y2="0.277697" gradientUnits="userSpaceOnUse">
<stop stop-color="#FABB52"/>
<stop offset="0.62" stop-color="#FDD56B"/>
<stop offset="1" stop-color="#FFE075"/>
</linearGradient>
<linearGradient id="paint2_linear_292_660" x1="471.541" y1="131.19" x2="471.541" y2="31.1828" gradientUnits="userSpaceOnUse">
<stop stop-color="#72BDB3"/>
<stop offset="1"/>
</linearGradient>
<linearGradient id="paint3_linear_292_660" x1="714.271" y1="291.29" x2="714.271" y2="156.756" gradientUnits="userSpaceOnUse">
<stop stop-color="#72BDB3"/>
<stop offset="1"/>
</linearGradient>
<linearGradient id="paint4_linear_292_660" x1="1313.3" y1="64.4847" x2="1313.3" y2="44.1348" gradientUnits="userSpaceOnUse">
<stop stop-color="#B87251"/>
<stop offset="0.25" stop-color="#A76656"/>
<stop offset="0.72" stop-color="#8B535F"/>
<stop offset="1" stop-color="#814C63"/>
</linearGradient>
<linearGradient id="paint5_linear_292_660" x1="1316.11" y1="50.599" x2="1316.11" y2="44.1349" gradientUnits="userSpaceOnUse">
<stop stop-color="#B87251"/>
<stop offset="0.62" stop-color="#D2875D"/>
<stop offset="1" stop-color="#DD9063"/>
</linearGradient>
<linearGradient id="paint6_linear_292_660" x1="1313.82" y1="56.8646" x2="1313.82" y2="51.8711" gradientUnits="userSpaceOnUse">
<stop stop-color="#B87251"/>
<stop offset="0.62" stop-color="#D2875D"/>
<stop offset="1" stop-color="#DD9063"/>
</linearGradient>
<linearGradient id="paint7_linear_292_660" x1="1316.06" y1="50.3363" x2="1316.06" y2="44.1348" gradientUnits="userSpaceOnUse">
<stop stop-color="#EB9552"/>
<stop offset="0.56" stop-color="#F0A85D"/>
<stop offset="1" stop-color="#F4B363"/>
</linearGradient>
<linearGradient id="paint8_linear_292_660" x1="1324.46" y1="64.4841" x2="1324.46" y2="56.7109" gradientUnits="userSpaceOnUse">
<stop stop-color="#D1E8FF"/>
<stop offset="0.03" stop-color="#D1E8FF"/>
<stop offset="0.99" stop-color="#E3ECFF"/>
</linearGradient>
<linearGradient id="paint9_linear_292_660" x1="1321.63" y1="55.4349" x2="1321.63" y2="44.1348" gradientUnits="userSpaceOnUse">
<stop stop-color="#D1E8FF"/>
<stop offset="0.03" stop-color="#D1E8FF"/>
<stop offset="0.99" stop-color="#E3ECFF"/>
</linearGradient>
</defs>
</svg>
