<svg width="685" height="75" viewBox="0 0 685 75" fill="none" xmlns="http://www.w3.org/2000/svg">
<path d="M682.548 41.0932C683.139 38.9672 683.713 36.8387 684.113 34.7089C684.164 34.4342 684.209 34.1581 684.253 33.8833C675.678 32.9615 666.983 32.1322 657.888 31.7447C656.839 31.7004 657.218 31.2775 658.12 31.2547C666.419 31.0496 674.827 30.885 682.969 30.3582C682.002 28.4728 680.505 25.3896 680.645 24.6818C680.977 23.037 681.923 21.4086 682.285 19.7638C682.453 19.0041 682.336 18.2621 682.183 17.5049C681.964 16.4147 681.763 15.3258 681.585 14.2355C680.946 10.3343 680.611 6.43062 680.543 2.52689C676.45 2.53828 672.353 2.54461 668.271 2.55348C643.549 2.60286 618.953 2.39267 594.286 1.91657C571.526 1.47719 548.785 0.882074 525.99 0.580716C524.562 0.598443 523.131 0.609838 521.703 0.635162C519.728 0.578183 517.75 0.52247 515.772 0.466757C492.317 0.252767 468.825 0.357864 445.402 0.763052C396.122 1.61521 198.959 1.79375 149.041 1.25434C124.234 0.985906 99.3409 1.52784 74.5439 1.73423C56.72 1.88365 38.8893 2.07865 21.1337 2.52689C20.9629 2.99665 12.6027 5.43664 12.3943 5.9064C10.2624 10.7028 16.641 13.5315 14.6218 18.3305C14.4954 18.6293 14.3656 18.9294 14.2358 19.2282C16.8084 19.1839 22.7907 19.5904 22.3226 19.7094C19.7193 20.3716 9.05977 23.9005 5.80042 24.2222C4.11609 28.0955 10.054 28.8919 9.46975 32.7931C8.74887 37.6136 10.4298 42.3822 11.7247 47.1811C12.3806 49.6097 12.9102 52.0358 12.4353 54.4694C12.0184 56.5992 11.2361 58.867 14.0615 60.8967C14.2016 60.9967 14.5262 61.0309 14.8849 61.0107C20.4231 60.6916 26.0432 60.7663 31.6531 60.7903C25.6879 61.4931 19.3059 62.1338 14.5706 63.3722C13.9009 63.5469 5.14445 66.7365 4.63881 66.9251C4.40649 68.9663 13.4261 67.9989 14.2597 70.0362C23.6995 70.0615 33.1427 69.9235 42.5757 69.8412C54.2772 69.7387 65.8352 69.8855 77.5163 70.0666C101.288 70.4351 124.948 70.3553 148.74 70.2705C172.516 70.1856 196.311 70.135 220.043 69.6715C232.161 69.4348 244.262 69.0916 256.278 68.5826C267.949 68.0875 476.735 66.758 500.664 67.3253C524.429 67.8887 548.266 67.4063 572.035 67.933C594.7 68.4345 616.695 70.2186 639.292 70.8934C650.888 71.2391 661.632 74.1628 673.242 73.8779C676.057 73.8095 679.579 70.8251 682.395 70.7694C682.456 69.4019 682.504 68.0343 682.494 66.6668C682.48 64.6865 682.576 62.6897 682.056 60.7144C681.896 60.1015 681.872 59.1645 679.617 58.9404C678.435 58.8239 677.14 58.791 675.91 58.7315C673.942 58.6365 672.005 58.5074 670.102 58.339C669.21 58.2605 675.196 57.464 677.704 57.2298C679.815 57.0322 682.121 56.7106 682.661 56.0446C683.109 55.4925 683.009 54.8974 682.9 54.3365C682.76 53.6046 682.456 52.874 682.125 52.1472C681.581 50.9544 680.816 49.7616 680.553 48.5613C680.43 47.9915 680.71 47.4153 680.874 46.8468C681.445 44.9285 682.015 43.0115 682.548 41.0932Z" fill="#B37052"/>
<path d="M671.66 74.2534C665.695 74.2534 659.907 73.4797 654.297 72.7301C649.408 72.0767 644.355 71.4006 639.248 71.2486C628.738 70.9346 618.199 70.3737 608.007 69.8305C596.265 69.205 584.122 68.5579 572.001 68.2895C560.347 68.0325 548.475 68.016 536.992 68.0008C525.072 67.9843 512.741 67.9692 500.623 67.6805C477.319 67.1309 267.833 68.4503 256.343 68.9365C245.096 69.4126 233.234 69.7697 220.073 70.028C198.122 70.456 175.758 70.5332 154.128 70.6079L148.744 70.6269C125.505 70.7105 101.476 70.7953 77.489 70.4231C66.4025 70.2521 54.5814 70.0939 42.5895 70.1977C40.2116 70.2192 37.8337 70.242 35.4524 70.2673C28.5066 70.3382 21.3286 70.4104 14.2564 70.3939C13.8942 70.3927 13.5867 70.2711 13.515 70.104C13.2178 69.3822 11.53 69.1353 8.98131 68.8428C6.52143 68.5605 3.73014 68.2401 3.88389 66.9055C3.89755 66.803 4.00005 66.708 4.17087 66.6447C4.25628 66.6118 13.4193 63.2652 14.2086 63.0588C17.4952 62.199 21.5335 61.6242 25.6573 61.1227C22.1109 61.1316 18.4928 61.1633 14.9807 61.3659C14.2974 61.4038 13.7268 61.3064 13.433 61.0949C10.7067 59.1348 11.1439 57.0291 11.571 54.993L11.6838 54.4359C12.1621 51.9782 11.5984 49.5255 10.9765 47.2248C10.7955 46.5487 10.6041 45.875 10.4162 45.2001C9.27513 41.1407 8.09301 36.9432 8.71823 32.7672C8.9813 31.0135 7.89144 29.9562 6.73666 28.8369C5.45206 27.5935 4.12645 26.307 5.06599 24.1506C5.12748 24.0101 5.35639 23.9012 5.65363 23.8721C7.78211 23.6619 13.761 21.8449 17.7207 20.6432C18.7423 20.333 19.651 20.057 20.3993 19.8354C18.6466 19.7037 15.8861 19.5518 14.27 19.5859C14.0036 19.5885 13.8156 19.5429 13.6653 19.4593C13.515 19.3758 13.4535 19.2643 13.4979 19.1567L13.884 18.2602C14.8509 15.9557 13.8361 14.1514 12.7565 12.2419C11.6701 10.3173 10.5495 8.32806 11.6564 5.83235C11.7999 5.50947 12.7702 5.13974 16.2858 3.94444C17.8232 3.42022 20.1499 2.62758 20.43 2.40599C20.4915 2.24138 20.7409 2.17807 21.0962 2.16921C39.1422 1.71337 57.441 1.51837 74.5303 1.37656C81.7494 1.31578 88.9787 1.22715 96.2149 1.13851C113.543 0.925788 131.463 0.705465 149.058 0.895397C200.172 1.44873 397.817 1.22714 445.375 0.404106C468.976 -0.00361379 492.669 -0.103646 515.785 0.107811L521.747 0.277487C522.745 0.258494 523.821 0.245831 524.897 0.234435L525.967 0.223036C540.917 0.420565 556.049 0.748515 570.685 1.06507C578.56 1.23601 586.435 1.40694 594.31 1.55762C618.738 2.02992 643.617 2.24771 668.26 2.19453C672.429 2.18693 676.481 2.17934 680.529 2.16794H680.533C680.949 2.16794 681.288 2.32622 681.291 2.52374C681.363 6.49078 681.711 10.4224 682.33 14.2083C682.507 15.296 682.709 16.3837 682.928 17.4701C683.078 18.207 683.208 18.9934 683.03 19.7999C682.849 20.6154 682.528 21.4333 682.217 22.2247C681.896 23.0414 681.561 23.8873 681.394 24.7154C681.295 25.1965 682.159 27.2744 683.7 30.2728C683.751 30.3715 683.71 30.4754 683.587 30.5589C683.467 30.6425 683.276 30.6995 683.064 30.7121C675.866 31.1794 668.387 31.3655 661.137 31.5402C669.562 32.0024 677.557 32.7963 684.41 33.5345C684.776 33.5738 685.025 33.7333 684.998 33.9106C684.954 34.1866 684.909 34.4652 684.858 34.7412C684.455 36.8951 683.864 39.0843 683.29 41.1419C682.9 42.5436 682.49 43.9453 682.077 45.347L681.622 46.8956C681.585 47.0209 681.544 47.1463 681.503 47.2729C681.356 47.7098 681.216 48.1238 681.305 48.5239C681.482 49.3356 681.909 50.17 682.323 50.9766C682.507 51.3425 682.695 51.7059 682.863 52.0706C683.184 52.7784 683.505 53.5369 683.648 54.3029C683.754 54.8487 683.884 55.5286 683.362 56.1719C682.665 57.0266 680.048 57.3735 677.844 57.5799C676.491 57.7065 674.414 57.9635 672.805 58.1889C673.84 58.2598 674.902 58.3219 675.978 58.3751L676.908 58.4156C677.854 58.4561 678.835 58.4979 679.764 58.5891C682.374 58.8474 682.62 59.8933 682.764 60.5188L682.798 60.6694C683.245 62.3687 683.242 64.0983 683.238 65.7697V66.6662C683.249 68.173 683.191 69.6545 683.139 70.7776C683.129 70.9663 682.811 71.1195 682.415 71.1283C681.301 71.1499 679.726 71.9083 678.336 72.5769C676.604 73.4088 674.967 74.1951 673.269 74.2369C672.743 74.247 672.2 74.2534 671.66 74.2534ZM475.098 66.8334C487.661 66.8334 496.797 66.8739 500.705 66.9663C512.786 67.2525 525.095 67.2689 536.999 67.2854C548.498 67.3006 560.388 67.3158 572.076 67.5754C584.245 67.8451 596.415 68.4921 608.178 69.1189C618.356 69.6608 628.875 70.2217 639.343 70.5345C644.612 70.6915 649.747 71.3778 654.711 72.0413C660.71 72.8428 666.904 73.6734 673.208 73.5202C674.318 73.4924 675.886 72.739 677.27 72.0729C678.77 71.3525 680.194 70.6662 681.653 70.4674C681.701 69.3911 681.749 68.0401 681.739 66.6688V65.7685C681.742 64.1186 681.745 62.413 681.308 60.7581L681.271 60.5985C681.107 59.9008 680.895 59.4324 679.467 59.2918C678.626 59.2082 677.69 59.169 676.785 59.131L675.838 59.0892C673.806 58.9917 671.831 58.8575 669.965 58.6929C669.607 58.6612 669.258 58.489 669.258 58.3168C669.251 57.6901 676.173 57.0101 677.56 56.8797C680.157 56.6353 681.64 56.3111 681.961 55.9161C682.357 55.4286 682.251 54.8664 682.152 54.3688C682.012 53.642 681.705 52.9076 681.39 52.2225C681.226 51.8629 681.045 51.5046 680.861 51.1463C680.437 50.3169 679.996 49.4584 679.808 48.5986C679.699 48.1061 679.86 47.6262 680.017 47.1628C680.058 47.0412 680.099 46.9197 680.133 46.7994L680.587 45.2508C680.997 43.8504 681.407 42.4512 681.797 41.0508C682.367 39.002 682.958 36.8216 683.358 34.6817C683.392 34.5108 683.42 34.3398 683.447 34.1689C675.883 33.3598 666.983 32.4962 657.82 32.1062C656.829 32.0632 656.487 31.7732 656.497 31.5377C656.511 31.2022 657.208 30.9223 658.083 30.9008L660.649 30.8388C667.717 30.6678 675.015 30.4918 682.036 30.0588C680.936 27.8936 679.754 25.3434 679.89 24.6508C680.065 23.791 680.403 22.9287 680.734 22.0968C681.042 21.3194 681.359 20.5166 681.534 19.7303C681.698 18.9883 681.571 18.2425 681.428 17.5423C681.206 16.4508 681.008 15.3581 680.83 14.2666C680.225 10.5781 679.877 6.75289 679.791 2.88968C675.992 2.89854 672.193 2.90614 668.407 2.91374C643.617 2.95932 618.708 2.74913 594.256 2.27683C586.377 2.12489 578.502 1.95395 570.624 1.78301C555.994 1.46646 540.869 1.13851 525.973 0.94098L524.935 0.949843C523.869 0.961239 522.799 0.973902 521.734 0.992895L515.731 0.823224C492.669 0.613033 469.01 0.711794 445.436 1.11951C397.861 1.94255 200.155 2.16161 149.027 1.6108C131.466 1.41961 113.567 1.63993 96.2559 1.85265C89.0197 1.94129 81.7836 2.02992 74.5577 2.0907C57.6084 2.23125 39.4668 2.42498 21.5745 2.87195C21.0586 3.17584 19.8219 3.62028 17.1707 4.52309C15.6606 5.03717 13.3783 5.81463 13.0982 6.03115C12.104 8.30653 13.1324 10.1286 14.2188 12.057C15.2916 13.9614 16.4054 15.9317 15.3667 18.3995L15.1583 18.8845C17.3893 18.93 22.7908 19.0959 23.0778 19.5973C23.17 19.7582 22.9924 19.9455 22.6815 20.0241C21.9128 20.219 20.3446 20.6951 18.5338 21.2459C13.3544 22.8186 8.84806 24.1544 6.45992 24.5102C5.79712 26.2956 6.86307 27.3314 8.09301 28.5241C9.28537 29.6789 10.5187 30.873 10.2283 32.8191C9.61336 36.9242 10.7818 41.0837 11.9161 45.1077C12.104 45.7839 12.2953 46.4588 12.4798 47.1362C13.1118 49.4761 13.6858 51.9731 13.1938 54.503L13.0777 55.0652C12.6814 56.9658 12.268 58.9309 14.6561 60.6707C14.6595 60.6593 14.7176 60.6606 14.7996 60.6568C19.7501 60.3706 24.827 60.3985 29.7366 60.4225L31.6669 60.4327C32.0461 60.4339 32.3673 60.5694 32.4117 60.7492C32.4561 60.9277 32.2135 61.0949 31.8446 61.1392L29.6341 61.3963C24.4137 62.0002 19.0156 62.6245 14.9465 63.6881C14.352 63.8502 7.09881 66.4814 5.41106 67.0993C5.5443 67.6488 6.8289 67.8603 9.34344 68.149C11.5608 68.4035 14.0514 68.6896 14.8372 69.6811C21.718 69.6899 28.6774 69.6228 35.425 69.5532C37.8063 69.5291 40.1876 69.5051 42.5655 69.4835C54.5916 69.3797 66.4367 69.538 77.5437 69.7089C101.497 70.0825 125.511 69.9964 148.737 69.9128L154.121 69.8938C175.737 69.8191 198.088 69.7419 220.015 69.3139C233.152 69.0568 244.99 68.701 256.213 68.2249C265.786 67.8185 412.686 66.8334 475.098 66.8334Z" fill="#614229"/>
<path d="M3.90741 57.7784C3.49059 59.9082 2.70821 62.176 5.53366 64.2057C5.67373 64.3057 5.99831 64.3399 6.35704 64.3197C11.8952 64.0006 17.5153 64.0753 23.1252 64.0993C17.16 64.8021 10.778 65.4428 6.04272 66.6824C5.37309 66.8571 4.79911 67.0407 4.29006 67.2307C4.05773 69.2705 4.89477 71.3091 5.72839 73.3465C15.1682 73.3718 24.6114 73.2338 34.0444 73.1515C45.7459 73.0489 57.3039 73.1958 68.985 73.3769C92.757 73.7453 116.42 73.6656 140.209 73.5807C163.984 73.4959 187.78 73.4452 211.511 72.9818C223.63 72.745 235.731 72.4019 247.747 71.8929C259.417 71.3978 468.203 70.0683 492.133 70.6355C515.898 71.199 539.735 70.7178 563.503 71.2433C586.168 71.7447 608.164 73.5288 630.761 74.2037C642.356 74.5494 653.805 74.5582 665.414 74.2746C668.229 74.205 671.045 74.1366 673.863 74.0796C673.925 72.7121 673.973 71.3446 673.962 69.9784C673.949 67.998 674.044 66.0012 673.525 64.0259C673.364 63.413 673.341 62.4748 671.086 62.2519C669.904 62.1354 668.609 62.1025 667.379 62.043C665.411 61.948 663.474 61.8189 661.571 61.6505C660.679 61.5707 666.668 60.7755 669.172 60.5413C671.28 60.3438 673.59 60.0221 674.13 59.3561C674.577 58.804 674.478 58.2089 674.372 57.648C674.232 56.9161 673.928 56.1868 673.597 55.4587C673.054 54.2672 672.288 53.0732 672.025 51.8728C671.902 51.303 672.182 50.7269 672.346 50.1596C672.903 48.2426 673.477 46.3255 674.01 44.4072C674.601 42.28 675.179 40.1527 675.575 38.023C675.715 37.2734 675.848 36.5225 675.855 35.7717C675.855 35.7311 675.845 35.6906 675.841 35.6501C675.657 35.4855 675.452 35.3247 675.22 35.1677C675.206 35.1588 675.189 35.1512 675.175 35.1423C667.027 34.4447 659.176 33.4178 651.092 32.6859C650.351 32.6188 665.424 31.2867 672.671 31.1576C671.892 30.1256 671.895 29.0316 672.104 27.9946C672.435 26.3498 673.382 24.7202 673.744 23.0766C673.911 22.3182 673.792 21.5749 673.641 20.8177C673.419 19.7275 673.221 18.6385 673.043 17.5471C672.404 13.6471 672.07 9.74214 672.001 5.83841C667.908 5.8498 663.812 5.85613 659.729 5.865C635.007 5.91438 610.412 5.70419 585.745 5.22809C562.984 4.78872 540.244 4.1936 517.449 3.89224C516.021 3.90997 514.589 3.92136 513.161 3.94669C511.186 3.88971 509.208 3.83399 507.23 3.77828C483.776 3.56429 460.284 3.66939 436.86 4.07458C387.581 4.92674 190.418 5.10527 140.499 4.56586C115.692 4.29742 90.7993 4.83937 66.0023 5.04576C48.1784 5.19517 30.3477 5.39017 12.5956 5.83841C12.4247 6.30817 12.2403 6.77793 12.0318 7.2477C9.89995 12.0428 8.10287 16.843 6.08371 21.642C5.9573 21.9408 5.82748 22.2409 5.70107 22.5397C8.27369 22.4954 14.256 22.9019 13.7879 23.0209C11.1846 23.6831 8.13361 24.1326 4.87427 24.4542C3.18993 28.3276 1.51926 32.2035 0.935041 36.1047C0.214158 40.9251 1.89508 45.6937 3.18993 50.4926C3.85273 52.9187 4.3823 55.3447 3.90741 57.7784Z" fill="#FEECD8"/>
<path d="M649.169 74.8326C642.965 74.8326 636.849 74.7414 630.716 74.5591C620.207 74.245 609.667 73.6841 599.476 73.1396C587.733 72.5141 575.591 71.8671 563.473 71.5987C551.819 71.3416 539.947 71.3252 528.464 71.31C516.54 71.2935 504.213 71.2783 492.095 70.9909C468.791 70.4388 259.305 71.7607 247.812 72.2482C236.554 72.7256 224.689 73.0827 211.542 73.3384C189.591 73.7664 167.227 73.8437 145.597 73.9184L140.212 73.9374C117.007 74.0197 93.0168 74.1058 68.9578 73.7335C57.8986 73.5613 46.0979 73.4005 34.0548 73.5081C31.6461 73.5284 29.2375 73.5537 26.8289 73.5778C19.9139 73.6487 12.7631 73.7221 5.72171 73.7018L5.09991 73.7006L4.98033 73.4119C4.15012 71.3847 3.29258 69.2929 3.52832 67.2087L3.5454 67.0466L3.81531 66.9466C4.39611 66.7301 5.00425 66.5414 5.67047 66.3667C8.95714 65.5069 12.992 64.9321 17.1157 64.4306C13.566 64.4294 9.95134 64.4712 6.43917 64.6738C5.74904 64.7168 5.18532 64.6142 4.88809 64.4015C2.16172 62.4427 2.60245 60.337 3.02951 58.2996L3.14225 57.7438C3.62056 55.2886 3.05685 52.8359 2.43504 50.534C2.25397 49.8603 2.06264 49.188 1.87473 48.5144C0.730202 44.4536 -0.451912 40.2549 0.173309 36.0751C0.771197 32.0941 2.47604 28.1714 4.12621 24.3778L4.22528 24.1474L4.71385 24.0993C7.35481 23.8384 9.61652 23.5168 11.5639 23.123C9.80785 22.9977 7.24206 22.8622 5.72171 22.8938L4.75825 22.9103L5.33224 21.5681C6.13853 19.6549 6.90723 17.7416 7.67595 15.8284C8.81706 12.9908 9.99575 10.0557 11.2804 7.17002C11.4888 6.70532 11.6698 6.23935 11.8373 5.77465L11.9397 5.49356L12.5445 5.47836C30.5597 5.02252 48.8722 4.82879 65.9786 4.68445C73.2147 4.62367 80.4611 4.53503 87.711 4.4464C105.022 4.23368 122.925 4.01462 140.51 4.20455C191.583 4.75788 389.224 4.53757 436.826 3.71453C460.397 3.30554 484.08 3.20551 507.237 3.41823L513.199 3.58791C514.132 3.57018 515.143 3.55879 516.154 3.54739L517.422 3.53219C532.362 3.72972 547.48 4.05767 562.103 4.37423C569.991 4.54516 577.877 4.7161 585.765 4.86805C610.19 5.33908 635.079 5.54927 659.716 5.50495L672.743 5.47583L672.75 5.8329C672.818 9.79614 673.17 13.7277 673.788 17.5175C673.966 18.6052 674.167 19.6929 674.386 20.7805C674.533 21.5187 674.666 22.3063 674.489 23.1104C674.311 23.9258 673.986 24.7438 673.675 25.5352C673.351 26.3519 673.016 27.1977 672.852 28.0245C672.681 28.8754 672.589 29.9859 673.378 31.033L673.727 31.4927L672.695 31.5117C667.799 31.599 659.319 32.2435 654.659 32.6576C657.328 32.9248 659.979 33.2135 662.572 33.4971C666.719 33.9504 671.011 34.4176 675.302 34.7861L675.596 34.8114L675.773 34.9241C676.081 35.1267 676.306 35.3014 676.504 35.4787L676.59 35.5547L676.593 35.6395C676.603 35.7079 676.607 35.7396 676.603 35.7737C676.597 36.517 676.474 37.2438 676.323 38.0491C675.924 40.1802 675.353 42.2922 674.755 44.4498C674.369 45.8325 673.966 47.2152 673.559 48.5967L673.088 50.2048C673.05 50.3314 673.009 50.4593 672.965 50.5872C672.818 51.0227 672.681 51.4342 672.767 51.8318C672.944 52.646 673.371 53.4804 673.785 54.287C673.973 54.6504 674.157 55.0151 674.321 55.3785C674.642 56.0863 674.963 56.846 675.11 57.6108C675.216 58.1566 675.346 58.8353 674.82 59.4798C674.126 60.3344 671.506 60.6814 669.302 60.8878C667.949 61.0144 665.872 61.2714 664.263 61.4968C665.291 61.5677 666.354 61.6298 667.437 61.683L668.37 61.7247C669.316 61.764 670.293 61.8058 671.222 61.8969C673.833 62.1553 674.079 63.1999 674.222 63.8254L674.26 63.9773C674.704 65.6715 674.7 67.3961 674.7 69.0637V69.9728C674.711 71.467 674.653 72.9548 674.601 74.0842L674.588 74.4198L673.877 74.4337C671.318 74.4844 668.759 74.5464 666.2 74.6097L665.435 74.6274C659.921 74.7642 654.516 74.8326 649.169 74.8326ZM466.584 70.1425C479.136 70.1425 488.269 70.1818 492.174 70.2755C504.254 70.5616 516.564 70.5781 528.467 70.5933C539.967 70.6072 551.857 70.6237 563.544 70.8833C575.714 71.153 587.88 71.8 599.647 72.428C609.824 72.97 620.344 73.5309 630.815 73.8437C642.175 74.183 653.481 74.2045 665.384 73.9146L666.149 73.8956C668.476 73.8386 670.802 73.7816 673.129 73.7335C673.177 72.6585 673.221 71.3188 673.214 69.9767L673.211 69.065C673.214 67.4189 673.214 65.7171 672.78 64.066L672.739 63.9052C672.575 63.2075 672.36 62.7402 670.935 62.5984C670.095 62.5149 669.162 62.4756 668.26 62.4389L667.307 62.3958C665.25 62.2958 663.276 62.1616 661.434 61.9982L660.819 61.9438L660.727 61.6222C660.72 60.9954 667.642 60.3155 669.029 60.185C671.626 59.9407 673.105 59.6178 673.426 59.2227C673.826 58.7327 673.716 58.1718 673.621 57.6754C673.481 56.9499 673.173 56.2155 672.859 55.5292C672.695 55.1708 672.51 54.8138 672.329 54.4542C671.906 53.6248 671.465 52.7663 671.277 51.904C671.171 51.414 671.328 50.9366 671.482 50.4745C671.523 50.3516 671.564 50.2276 671.602 50.106L672.073 48.4979C672.476 47.1165 672.883 45.7363 673.265 44.3549C673.863 42.2061 674.43 40.1029 674.827 37.9858C674.974 37.197 675.093 36.4853 675.104 35.7649V35.7434C674.991 35.6484 674.875 35.556 674.745 35.4635C670.519 35.0976 666.313 34.638 662.244 34.1935C658.557 33.7909 654.748 33.3755 650.959 33.0324L650.293 32.9729L650.317 32.6462C650.365 32.3372 650.382 32.2347 659.111 31.5598C662.152 31.3243 667.615 30.9343 671.67 30.8165C671.103 29.7858 671.198 28.7615 671.359 27.9561C671.533 27.0964 671.872 26.2341 672.2 25.4022C672.507 24.6247 672.825 23.822 672.999 23.0357C673.163 22.2974 673.037 21.5504 672.897 20.8476C672.674 19.7562 672.473 18.6634 672.295 17.5707C671.69 13.8784 671.342 10.0532 671.26 6.19377L659.743 6.21909C635.083 6.26468 610.173 6.05449 585.724 5.58219C577.832 5.43024 569.944 5.25804 562.055 5.08837C547.439 4.77182 532.324 4.44387 517.439 4.24634L516.209 4.26153C515.204 4.27293 514.203 4.28305 513.202 4.30205L507.2 4.13238C484.111 3.92345 460.445 4.02222 436.905 4.42994C389.282 5.25297 191.586 5.4733 140.496 4.91996C122.945 4.72876 105.067 4.95035 87.7725 5.16181C80.5192 5.25044 73.2694 5.33908 66.0298 5.39985C49.1284 5.54167 31.0483 5.73414 13.2517 6.17731C13.1082 6.55717 12.9545 6.93704 12.787 7.3169C11.5059 10.1963 10.3272 13.1288 9.18605 15.9626C8.41733 17.8771 7.6452 19.7929 6.83891 21.7074L6.6305 22.1924C8.86147 22.2379 14.263 22.4038 14.55 22.9052L14.7105 23.18L14.1537 23.3319C11.8031 23.9296 8.97764 24.3943 5.52697 24.7514C3.9178 28.45 2.27788 32.2714 1.70049 36.1258C1.08552 40.2321 2.25397 44.3954 3.38824 48.4207C3.57957 49.0943 3.76747 49.7692 3.94854 50.4428C4.5806 52.7853 5.15457 55.281 4.65918 57.8096L4.54301 58.3693C4.1467 60.2711 3.73331 62.2363 6.12144 63.9773C6.12486 63.9659 6.18294 63.9672 6.26152 63.9621C11.2291 63.6747 16.3231 63.7038 21.2429 63.7292L29.0803 63.7646L21.1096 64.7003C15.8824 65.3031 10.4809 65.9286 6.40843 66.9935C5.91645 67.1213 5.46206 67.2594 5.03158 67.4113C4.87442 69.2587 5.60555 71.1492 6.35718 72.9864C13.1629 73.0054 20.0984 72.9295 26.8015 72.8611C29.2136 72.8358 31.6222 72.8117 34.0343 72.7914C46.1048 72.6876 57.9361 72.8446 69.0124 73.0168C93.0407 73.3891 117.018 73.3043 140.206 73.2207L145.59 73.2017C167.206 73.127 189.557 73.0497 211.484 72.6218C224.607 72.366 236.448 72.0102 247.682 71.5341C257.255 71.1276 404.182 70.1425 466.584 70.1425Z" fill="#B37052"/>
<path d="M3.90741 57.7784C3.49059 59.9082 2.70821 62.176 5.53366 64.2057C5.67373 64.3057 5.99831 64.3399 6.35704 64.3197C11.8952 64.0006 17.5153 64.0753 23.1252 64.0993C17.16 64.8021 10.778 65.4428 6.04272 66.6824C5.37309 66.8571 4.79911 67.0407 4.29006 67.2307C4.05773 69.2705 4.89477 71.3091 5.72839 73.3465C15.1682 73.3718 24.6114 73.2338 34.0444 73.1515C45.7459 73.0489 57.3039 73.1958 68.985 73.3769C92.757 73.7453 116.42 73.6656 140.209 73.5807C163.984 73.4959 187.78 73.4452 211.511 72.9818C223.63 72.745 235.731 72.4019 247.747 71.8929C259.417 71.3978 468.203 70.0683 492.133 70.6355C515.898 71.199 539.735 70.7178 563.503 71.2433C586.168 71.7447 608.164 73.5288 630.761 74.2037C642.356 74.5494 653.805 74.5582 665.414 74.2746C668.229 74.205 671.045 74.1366 673.863 74.0796C673.925 72.7121 673.973 71.3446 673.962 69.9784C673.949 67.998 674.044 66.0012 673.525 64.0259C673.364 63.413 673.341 62.4748 671.086 62.2519C669.904 62.1354 668.609 62.1025 667.379 62.043C665.411 61.948 663.474 61.8189 661.571 61.6505C660.679 61.5707 666.668 60.7755 669.172 60.5413C671.28 60.3438 673.59 60.0221 674.13 59.3561C674.577 58.804 674.478 58.2089 674.372 57.648C674.232 56.9161 673.928 56.1868 673.597 55.4587C673.054 54.2672 672.288 53.0732 672.025 51.8728C671.902 51.303 672.182 50.7269 672.346 50.1596C672.903 48.2426 673.477 46.3255 674.01 44.4072C674.601 42.28 675.179 40.1527 675.575 38.023C675.715 37.2734 675.848 36.5225 675.855 35.7717C675.855 35.7311 675.845 35.6906 675.841 35.6501C675.657 35.4855 675.452 35.3247 675.22 35.1677C675.206 35.1588 675.189 35.1512 675.175 35.1423C667.027 34.4447 659.176 33.4178 651.092 32.6859C650.351 32.6188 665.424 31.2867 672.671 31.1576C671.892 30.1256 671.895 29.0316 672.104 27.9946C672.435 26.3498 673.382 24.7202 673.744 23.0766C673.911 22.3182 673.792 21.5749 673.641 20.8177C673.419 19.7275 673.221 18.6385 673.043 17.5471C672.404 13.6471 672.07 9.74214 672.001 5.83841C667.908 5.8498 663.812 5.85613 659.729 5.865C635.007 5.91438 610.412 5.70419 585.745 5.22809C562.984 4.78872 540.244 4.1936 517.449 3.89224C516.021 3.90997 514.589 3.92136 513.161 3.94669C511.186 3.88971 509.208 3.83399 507.23 3.77828C483.776 3.56429 460.284 3.66939 436.86 4.07458C387.581 4.92674 190.418 5.10527 140.499 4.56586C115.692 4.29742 90.7993 4.83937 66.0023 5.04576C48.1784 5.19517 30.3477 5.39017 12.5956 5.83841C12.4247 6.30817 12.2403 6.77793 12.0318 7.2477C9.89995 12.0428 8.10287 16.843 6.08371 21.642C5.9573 21.9408 5.82748 22.2409 5.70107 22.5397C8.27369 22.4954 14.256 22.9019 13.7879 23.0209C11.1846 23.6831 8.13361 24.1326 4.87427 24.4542C3.18993 28.3276 1.51926 32.2035 0.935041 36.1047C0.214158 40.9251 1.89508 45.6937 3.18993 50.4926C3.85273 52.9187 4.3823 55.3447 3.90741 57.7784Z" fill="#FEECD8"/>
<path d="M649.169 74.8326C642.965 74.8326 636.849 74.7414 630.716 74.5591C620.207 74.245 609.667 73.6841 599.476 73.1396C587.733 72.5141 575.591 71.8671 563.473 71.5987C551.819 71.3416 539.947 71.3252 528.464 71.31C516.54 71.2935 504.213 71.2783 492.095 70.9909C468.791 70.4388 259.305 71.7607 247.812 72.2482C236.554 72.7256 224.689 73.0827 211.542 73.3384C189.591 73.7664 167.227 73.8437 145.597 73.9184L140.212 73.9374C117.007 74.0197 93.0168 74.1058 68.9578 73.7335C57.8986 73.5613 46.0979 73.4005 34.0548 73.5081C31.6461 73.5284 29.2375 73.5537 26.8289 73.5778C19.9139 73.6487 12.7631 73.7221 5.72171 73.7018L5.09991 73.7006L4.98033 73.4119C4.15012 71.3847 3.29258 69.2929 3.52832 67.2087L3.5454 67.0466L3.81531 66.9466C4.39611 66.7301 5.00425 66.5414 5.67047 66.3667C8.95714 65.5069 12.992 64.9321 17.1157 64.4306C13.566 64.4294 9.95134 64.4712 6.43917 64.6738C5.74904 64.7168 5.18532 64.6142 4.88809 64.4015C2.16172 62.4427 2.60245 60.337 3.02951 58.2996L3.14225 57.7438C3.62056 55.2886 3.05685 52.8359 2.43504 50.534C2.25397 49.8603 2.06264 49.188 1.87473 48.5144C0.730202 44.4536 -0.451912 40.2549 0.173309 36.0751C0.771197 32.0941 2.47604 28.1714 4.12621 24.3778L4.22528 24.1474L4.71385 24.0993C7.35481 23.8384 9.61652 23.5168 11.5639 23.123C9.80785 22.9977 7.24206 22.8622 5.72171 22.8938L4.75825 22.9103L5.33224 21.5681C6.13853 19.6549 6.90723 17.7416 7.67595 15.8284C8.81706 12.9908 9.99575 10.0557 11.2804 7.17002C11.4888 6.70532 11.6698 6.23935 11.8373 5.77465L11.9397 5.49356L12.5445 5.47836C30.5597 5.02252 48.8722 4.82879 65.9786 4.68445C73.2147 4.62367 80.4611 4.53503 87.711 4.4464C105.022 4.23368 122.925 4.01462 140.51 4.20455C191.583 4.75788 389.224 4.53757 436.826 3.71453C460.397 3.30554 484.08 3.20551 507.237 3.41823L513.199 3.58791C514.132 3.57018 515.143 3.55879 516.154 3.54739L517.422 3.53219C532.362 3.72972 547.48 4.05767 562.103 4.37423C569.991 4.54516 577.877 4.7161 585.765 4.86805C610.19 5.33908 635.079 5.54927 659.716 5.50495L672.743 5.47583L672.75 5.8329C672.818 9.79614 673.17 13.7277 673.788 17.5175C673.966 18.6052 674.167 19.6929 674.386 20.7805C674.533 21.5187 674.666 22.3063 674.489 23.1104C674.311 23.9258 673.986 24.7438 673.675 25.5352C673.351 26.3519 673.016 27.1977 672.852 28.0245C672.681 28.8754 672.589 29.9859 673.378 31.033L673.727 31.4927L672.695 31.5117C667.799 31.599 659.319 32.2435 654.659 32.6576C657.328 32.9248 659.979 33.2135 662.572 33.4971C666.719 33.9504 671.011 34.4176 675.302 34.7861L675.596 34.8114L675.773 34.9241C676.081 35.1267 676.306 35.3014 676.504 35.4787L676.59 35.5547L676.593 35.6395C676.603 35.7079 676.607 35.7396 676.603 35.7737C676.597 36.517 676.474 37.2438 676.323 38.0491C675.924 40.1802 675.353 42.2922 674.755 44.4498C674.369 45.8325 673.966 47.2152 673.559 48.5967L673.088 50.2048C673.05 50.3314 673.009 50.4593 672.965 50.5872C672.818 51.0227 672.681 51.4342 672.767 51.8318C672.944 52.646 673.371 53.4804 673.785 54.287C673.973 54.6504 674.157 55.0151 674.321 55.3785C674.642 56.0863 674.963 56.846 675.11 57.6108C675.216 58.1566 675.346 58.8353 674.82 59.4798C674.126 60.3344 671.506 60.6814 669.302 60.8878C667.949 61.0144 665.872 61.2714 664.263 61.4968C665.291 61.5677 666.354 61.6298 667.437 61.683L668.37 61.7247C669.316 61.764 670.293 61.8058 671.222 61.8969C673.833 62.1553 674.079 63.1999 674.222 63.8254L674.26 63.9773C674.704 65.6715 674.7 67.3961 674.7 69.0637V69.9728C674.711 71.467 674.653 72.9548 674.601 74.0842L674.588 74.4198L673.877 74.4337C671.318 74.4844 668.759 74.5464 666.2 74.6097L665.435 74.6274C659.921 74.7642 654.516 74.8326 649.169 74.8326ZM466.584 70.1425C479.136 70.1425 488.269 70.1818 492.174 70.2755C504.254 70.5616 516.564 70.5781 528.467 70.5933C539.967 70.6072 551.857 70.6237 563.544 70.8833C575.714 71.153 587.88 71.8 599.647 72.428C609.824 72.97 620.344 73.5309 630.815 73.8437C642.175 74.183 653.481 74.2045 665.384 73.9146L666.149 73.8956C668.476 73.8386 670.802 73.7816 673.129 73.7335C673.177 72.6585 673.221 71.3188 673.214 69.9767L673.211 69.065C673.214 67.4189 673.214 65.7171 672.78 64.066L672.739 63.9052C672.575 63.2075 672.36 62.7402 670.935 62.5984C670.095 62.5149 669.162 62.4756 668.26 62.4389L667.307 62.3958C665.25 62.2958 663.276 62.1616 661.434 61.9982L660.819 61.9438L660.727 61.6222C660.72 60.9954 667.642 60.3155 669.029 60.185C671.626 59.9407 673.105 59.6178 673.426 59.2227C673.826 58.7327 673.716 58.1718 673.621 57.6754C673.481 56.9499 673.173 56.2155 672.859 55.5292C672.695 55.1708 672.51 54.8138 672.329 54.4542C671.906 53.6248 671.465 52.7663 671.277 51.904C671.171 51.414 671.328 50.9366 671.482 50.4745C671.523 50.3516 671.564 50.2276 671.602 50.106L672.073 48.4979C672.476 47.1165 672.883 45.7363 673.265 44.3549C673.863 42.2061 674.43 40.1029 674.827 37.9858C674.974 37.197 675.093 36.4853 675.104 35.7649V35.7434C674.991 35.6484 674.875 35.556 674.745 35.4635C670.519 35.0976 666.313 34.638 662.244 34.1935C658.557 33.7909 654.748 33.3755 650.959 33.0324L650.293 32.9729L650.317 32.6462C650.365 32.3372 650.382 32.2347 659.111 31.5598C662.152 31.3243 667.615 30.9343 671.67 30.8165C671.103 29.7858 671.198 28.7615 671.359 27.9561C671.533 27.0964 671.872 26.2341 672.2 25.4022C672.507 24.6247 672.825 23.822 672.999 23.0357C673.163 22.2974 673.037 21.5504 672.897 20.8476C672.674 19.7562 672.473 18.6634 672.295 17.5707C671.69 13.8784 671.342 10.0532 671.26 6.19377L659.743 6.21909C635.083 6.26468 610.173 6.05449 585.724 5.58219C577.832 5.43024 569.944 5.25804 562.055 5.08837C547.439 4.77182 532.324 4.44387 517.439 4.24634L516.209 4.26153C515.204 4.27293 514.203 4.28305 513.202 4.30205L507.2 4.13238C484.111 3.92345 460.445 4.02222 436.905 4.42994C389.282 5.25297 191.586 5.4733 140.496 4.91996C122.945 4.72876 105.067 4.95035 87.7725 5.16181C80.5192 5.25044 73.2694 5.33908 66.0298 5.39985C49.1284 5.54167 31.0483 5.73414 13.2517 6.17731C13.1082 6.55717 12.9545 6.93704 12.787 7.3169C11.5059 10.1963 10.3272 13.1288 9.18605 15.9626C8.41733 17.8771 7.6452 19.7929 6.83891 21.7074L6.6305 22.1924C8.86147 22.2379 14.263 22.4038 14.55 22.9052L14.7105 23.18L14.1537 23.3319C11.8031 23.9296 8.97764 24.3943 5.52697 24.7514C3.9178 28.45 2.27788 32.2714 1.70049 36.1258C1.08552 40.2321 2.25397 44.3954 3.38824 48.4207C3.57957 49.0943 3.76747 49.7692 3.94854 50.4428C4.5806 52.7853 5.15457 55.281 4.65918 57.8096L4.54301 58.3693C4.1467 60.2711 3.73331 62.2363 6.12144 63.9773C6.12486 63.9659 6.18294 63.9672 6.26152 63.9621C11.2291 63.6747 16.3231 63.7038 21.2429 63.7292L29.0803 63.7646L21.1096 64.7003C15.8824 65.3031 10.4809 65.9286 6.40843 66.9935C5.91645 67.1213 5.46206 67.2594 5.03158 67.4113C4.87442 69.2587 5.60555 71.1492 6.35718 72.9864C13.1629 73.0054 20.0984 72.9295 26.8015 72.8611C29.2136 72.8358 31.6222 72.8117 34.0343 72.7914C46.1048 72.6876 57.9361 72.8446 69.0124 73.0168C93.0407 73.3891 117.018 73.3043 140.206 73.2207L145.59 73.2017C167.206 73.127 189.557 73.0497 211.484 72.6218C224.607 72.366 236.448 72.0102 247.682 71.5341C257.255 71.1276 404.182 70.1425 466.584 70.1425Z" fill="#B37052"/>
<path opacity="0.53" d="M66.4362 38.1087C74.9023 38.11 83.3547 37.934 91.7798 37.7111C109.166 37.2502 126.444 36.5146 143.752 35.8675C144.947 35.8232 146.147 35.7802 147.342 35.7358C146.991 35.7346 146.639 35.7358 146.29 35.7346C131.534 35.7042 116.782 35.575 102.022 35.6244C87.0275 35.6751 72.0359 35.9169 57.0545 36.1005C38.3355 36.3297 19.613 36.5551 0.883762 36.6931C0.859846 36.897 0.842768 37.1008 0.829102 37.3034C14.9222 37.4148 28.9879 37.6997 43.0673 37.9049C50.8535 38.0201 58.6432 38.1075 66.4362 38.1087Z" fill="#FFB262"/>
<path opacity="0.53" d="M458.986 18.0927C451.032 18.213 443.065 18.2295 435.104 18.2041C418.579 18.151 402.067 17.9155 385.541 17.9281C370.659 17.9395 355.694 18.151 341.055 18.9512C341.588 18.9841 342.121 19.0196 342.66 19.0487C357.987 19.8806 373.768 19.3678 389.241 19.3387C393.645 19.3311 398.059 19.402 402.463 19.4298C406.874 19.4577 411.284 19.4805 415.695 19.4969C424.691 19.5324 433.686 19.5463 442.682 19.5527C451.394 19.559 460.12 19.6109 468.822 19.478C477.083 19.3513 485.323 19.1487 493.554 18.9158C502.327 18.6676 511.091 18.3877 519.857 18.1206C508.344 17.9155 496.816 17.7964 485.279 17.8167C476.499 17.8331 467.752 17.9598 458.986 18.0927Z" fill="#FFB262"/>
<path opacity="0.53" d="M217.436 56.141C203.298 56.2347 189.167 56.4411 175.085 56.8134C162.621 57.1426 150.206 57.6136 137.889 58.2505C150.65 59.1584 163.735 59.6421 176.882 59.7865C202.803 60.0701 228.662 59.1141 254.197 57.9428C264.891 57.4516 275.567 56.9197 286.258 56.412C277.624 56.3094 268.991 56.2195 260.354 56.1626C246.052 56.0689 231.741 56.0461 217.436 56.141Z" fill="#FFB262"/>
<path opacity="0.53" d="M34.099 8.9073C43.1869 8.47679 51.653 8.23875 60.8707 8.47173C85.7462 9.09977 110.075 10.8383 134.903 11.5689C184.698 13.0326 234.644 10.932 284.211 9.73414C309.083 9.13396 334.078 8.74903 359.032 9.11496C384.567 9.4885 410.071 9.90002 435.63 10.1254C487.243 10.5812 538.901 10.6015 590.528 10.3546C617.75 10.2242 644.966 10.0152 672.179 9.7582C672.093 8.4502 672.029 7.14347 672.008 5.83548C667.915 5.84687 663.819 5.8532 659.736 5.86207C635.014 5.91145 610.419 5.70126 585.752 5.22516C562.991 4.78578 540.251 4.19066 517.456 3.88931C516.028 3.90703 514.596 3.91843 513.168 3.94376C511.193 3.88678 509.215 3.83107 507.237 3.77535C483.783 3.56136 460.291 3.66645 436.867 4.07164C387.588 4.9238 190.424 5.10234 140.506 4.56293C115.699 4.2945 90.8061 4.83644 66.0091 5.04283C48.1852 5.19224 30.3545 5.38724 12.6023 5.83548C12.4315 6.30524 12.247 6.775 12.0386 7.24477C11.6628 8.08933 11.3075 8.93516 10.9487 9.78099C18.7213 9.69236 26.4631 9.26944 34.099 8.9073Z" fill="#FFB262"/>
<path d="M235.167 10.8224C216.961 10.9376 198.761 11.1035 180.551 11.1668C171.48 11.1984 162.399 11.22 153.328 11.1655C144.777 11.1136 136.246 10.9224 127.739 10.6666C112.463 10.2095 97.2566 9.55364 81.9336 9.22949C99.5901 10.0082 117.117 11.0452 134.903 11.5669C171.849 12.6521 208.874 11.7758 245.769 10.7629C242.236 10.7819 238.7 10.7996 235.167 10.8224Z" fill="#FEECD8"/>
<path d="M554.057 9.50063C534.054 9.23346 514.064 8.77509 494.043 8.63201C484.104 8.5611 474.159 8.5687 464.227 8.69152C454.285 8.81435 444.391 9.1157 434.442 9.20307C417.646 9.35249 400.81 9.21194 384.031 9.48417C401.223 9.73615 418.415 9.9742 435.631 10.1261C487.244 10.582 538.902 10.6022 590.528 10.3553C594.457 10.3363 598.386 10.3123 602.315 10.2907C586.251 9.94127 570.149 9.71462 554.057 9.50063Z" fill="#FEECD8"/>
<path opacity="0.53" d="M11.7451 26.5692C19.0975 26.1906 26.3541 25.6715 33.7167 25.3093C45.8999 24.7091 58.2574 24.4914 70.6115 24.4331C66.0334 24.1773 61.404 24.0039 56.7507 23.8912C50.5122 23.7392 44.2566 23.6721 38.0078 23.5759C32.0631 23.4835 26.1491 23.2644 20.1976 23.4189C16.6888 23.51 13.1835 23.6772 9.67473 23.8481C8.15097 24.09 6.54523 24.2888 4.88139 24.4534C4.52607 25.2739 4.17075 26.0944 3.82568 26.9149C6.48372 26.825 9.13152 26.7034 11.7451 26.5692Z" fill="#FFB262"/>
<path opacity="0.53" d="M631.058 32.8207C626.849 32.7954 622.64 32.7903 618.434 32.7992C603.928 32.8283 589.431 33.0056 574.928 33.0562C581.758 33.507 588.676 33.8451 595.629 34.0958C612.705 34.7112 629.965 34.8454 647.16 34.7998C654.758 34.7796 662.357 34.72 669.952 34.6453C663.898 34.035 657.939 33.3183 651.868 32.7549C648.752 32.8093 645.636 32.8574 642.514 32.8752C638.691 32.8954 634.878 32.8435 631.058 32.8207Z" fill="#FFB262"/>
<path opacity="0.53" d="M669.176 60.5379C671.284 60.3404 673.594 60.0188 674.133 59.3527C674.287 59.1628 674.362 58.9665 674.41 58.769C646.794 58.9513 619.117 57.9181 591.526 58.5563C615.643 60.5252 640.348 61.837 664.56 63.7047C664.926 63.7326 665.213 63.8364 665.203 63.9453C665.141 64.5733 665.168 66.0978 663.395 66.5486C662.145 66.8677 658.24 66.8424 656.593 66.912C654.365 67.0057 652.134 67.0893 649.9 67.1653C638.14 67.5603 626.292 67.6971 614.457 67.6844C590.76 67.6616 567.142 67.0437 543.52 66.5853C499.878 65.7382 456.335 66.1447 412.651 66.3802C390.54 66.4992 368.407 66.522 346.316 66.1801C324.321 65.8395 302.319 65.7864 280.299 65.9573C236.158 66.2992 192.157 67.4134 148.053 67.9845C103.724 68.5581 59.4257 67.5059 15.1171 67.2843C14.1092 67.2792 13.9487 66.8778 14.8848 66.7943C28.2911 65.5901 41.7214 64.4036 55.4489 63.535C38.5475 62.8259 21.4342 63.1311 4.37903 63.0944C4.67627 63.4704 5.03159 63.844 5.53723 64.2074C5.67731 64.3074 6.00188 64.3416 6.36061 64.3213C11.8988 64.0023 17.5189 64.077 23.1288 64.101C17.1636 64.8038 10.7816 65.4445 6.0463 66.6841C5.37666 66.8588 4.80269 67.0424 4.29363 67.2324C4.06131 69.2722 4.89834 71.3108 5.73197 73.3482C15.1718 73.3735 24.615 73.2355 34.048 73.1532C45.7495 73.0506 57.3075 73.1975 68.9885 73.3786C92.7606 73.747 116.423 73.6673 140.212 73.5824C163.988 73.4976 187.784 73.4469 211.515 72.9835C223.633 72.7467 235.734 72.4036 247.75 71.8946C259.421 71.3995 468.207 70.0699 492.136 70.6372C515.901 71.2007 539.738 70.7195 563.507 71.245C586.172 71.7464 608.167 73.5305 630.764 74.2054C642.36 74.5511 653.808 74.5599 665.418 74.2763C668.233 74.2067 671.048 74.1383 673.867 74.0813C673.928 72.7138 673.976 71.3463 673.966 69.98C673.952 67.9997 674.048 66.0029 673.529 64.0276C673.368 63.4147 673.344 62.4765 671.089 62.2536C669.907 62.1371 668.612 62.1042 667.382 62.0447C665.414 61.9497 663.477 61.8206 661.574 61.6522C660.683 61.5686 666.668 60.7734 669.176 60.5379Z" fill="#FFB262"/>
<path d="M415.152 66.7463C423.953 66.9678 432.784 67.1489 441.623 67.2084C450.39 67.2679 459.156 67.192 467.92 67.1084C485.6 66.94 503.263 66.9565 520.947 66.9413C532.96 66.9311 544.972 66.9071 556.981 66.8577C552.492 66.764 548.006 66.6716 543.517 66.5842C499.874 65.7371 456.331 66.1435 412.648 66.3791C409.426 66.3968 406.201 66.4107 402.979 66.4234C407.038 66.5335 411.097 66.6437 415.152 66.7463Z" fill="#FEECD8"/>
<path d="M80.2287 67.9732C94.4072 68.3062 108.62 68.505 122.822 68.7215C136.953 68.9381 151.06 68.7507 165.129 68.348C176.099 68.034 187.022 67.6035 197.944 67.1768C181.32 67.4768 164.692 67.7693 148.05 67.9846C124.281 68.2923 100.523 68.1315 76.7678 67.8833C77.9226 67.9112 79.074 67.9454 80.2287 67.9732Z" fill="#FEECD8"/>
<path opacity="0.53" d="M564.539 41.83C549.165 40.3903 533.029 39.7838 516.978 39.3216C500.538 38.8481 484.043 38.3846 467.51 38.3011C459.167 38.2593 450.827 38.3226 442.522 38.5531C434.319 38.781 426.27 39.2431 418.149 39.6268C401.356 40.4195 384.544 41.1868 367.776 42.0199C358.818 42.4656 349.89 42.9392 340.987 43.4647C331.885 44.0016 322.784 44.5106 313.46 44.5739C312.08 44.5828 310.057 45.2045 312.005 45.4362C318.838 46.2491 326.378 46.6999 333.652 47.0569C340.895 47.4127 348.213 47.6318 355.538 47.7863C371.37 48.1218 387.011 48.6688 402.73 49.2994C417.916 49.9072 433.468 50.6897 448.849 50.4086C463.106 50.1478 476.902 49.0981 490.64 48.0484C498.843 47.4216 507.073 46.8315 515.372 46.3111C524.023 45.7692 532.724 45.3146 541.307 44.6853C542.164 44.622 543.565 44.2333 542.458 44.0066C535.403 42.5568 525.533 42.4289 517.159 42.3378C512.629 42.2884 508.091 42.2947 503.561 42.2466C497.487 42.182 491.422 42.0225 485.365 41.8769C471.921 41.5527 458.515 41.245 445.009 41.3425C431.692 41.4387 418.412 41.7705 405.166 42.1693C392.081 42.5644 378.623 42.9557 366.17 44.2244C365.07 44.3371 364.588 44.8157 366.026 44.874C375.121 45.2412 383.625 46.32 392.566 46.8835C401.148 47.4241 409.922 47.6976 418.685 47.8534C435.696 48.1547 452.566 48.1256 469.492 47.5368C475.594 47.3254 483.182 47.1152 487.859 45.8439C488.211 45.7489 488.556 45.478 487.941 45.3957C482.041 44.6005 475.525 44.3688 469.095 44.1826C462.232 43.9838 455.358 44.0421 448.47 44.1067C442.372 44.1636 436.359 43.9484 430.27 43.9066C424.189 43.8661 417.605 44.0307 412.73 45.1741C411.722 45.4109 411.121 45.9667 413.003 45.9984C419.573 46.1098 426.013 46.4314 432.409 46.8657C433.8 46.9594 435.699 46.2681 433.974 46.1516C429.054 45.8186 424.093 45.5134 419.102 45.2665C423.065 44.9614 427.527 45.0057 431.418 45.0563C436.991 45.1285 442.46 45.2538 448.04 45.1918C454.476 45.1196 460.923 45.0323 467.367 45.0386C473.229 45.0437 479.246 45.2247 484.76 45.8186C482.946 46.1541 480.701 46.3251 478.648 46.4618C475.686 46.6593 472.662 46.7733 469.642 46.8695C461.9 47.1164 454.196 47.3355 446.396 47.3659C429.413 47.433 411.828 47.2874 395.156 46.3073C387.113 45.835 379.436 44.9398 371.438 44.4295C381.015 43.7205 391.203 43.6141 400.974 43.3798C413.779 43.0722 426.526 42.6695 439.375 42.5138C463.417 42.2213 487.282 43.1038 511.296 43.1481C519.725 43.1633 529.991 43.0722 537.812 44.2219C531.706 44.6334 525.488 44.9322 519.304 45.2045C511.792 45.5349 504.415 45.9553 497.056 46.4985C483.318 47.5115 469.639 48.6878 455.501 49.1601C440.441 49.6628 425.361 49.0385 410.438 48.465C394.944 47.8698 379.467 47.1962 363.854 46.9063C355.377 46.7492 346.911 46.6036 338.5 46.2491C332.551 45.9996 326.805 45.6084 321.069 45.1652C333.986 44.6448 346.723 43.723 359.549 43.0772C375.999 42.2491 392.494 41.4907 409.013 40.7778C425.668 40.0586 442.235 39.3432 459.119 39.2951C475.556 39.2482 491.948 39.6686 508.307 40.0776C526.882 40.541 545.365 41.1374 563.613 42.2529C564.399 42.301 565.581 41.9275 564.539 41.83Z" fill="#FFB262"/>
<path opacity="0.53" d="M576.349 43.9399C569.229 44.5819 562.243 45.3365 555.099 45.9659C547.859 46.6028 540.596 47.2181 533.404 47.8981C518.611 49.296 504.118 50.8914 488.89 51.8892C473.212 52.9174 457.277 53.2415 441.22 53.1377C425.043 53.0326 408.917 52.6464 392.729 52.5907C383.843 52.5603 374.885 52.597 366.036 52.3336C357.112 52.0677 348.24 51.5562 339.234 51.7347C338.346 51.7524 337.365 52.2108 338.66 52.2121C346.637 52.2222 354.499 52.578 362.381 52.8806C370.42 53.1896 378.472 53.3137 386.57 53.4175C402.794 53.6252 418.958 54.1038 435.183 54.2861C451.21 54.4659 467.243 54.2937 483.011 53.3985C498.508 52.5185 513.493 51.0586 528.296 49.5087C536.356 48.6642 544.576 47.9601 552.711 47.1801C560.883 46.3964 569.298 45.6341 576.759 44.3831C577.518 44.2539 577.436 43.8412 576.349 43.9399Z" fill="#FFB262"/>
<path opacity="0.53" d="M517.343 34.4172C501.989 33.3967 486.304 32.6344 470.561 32.3394C454.38 32.0367 438.152 32.1178 421.999 32.5192C405.862 32.9193 389.815 33.4891 373.819 34.2134C357.461 34.9541 341.308 35.9329 325.062 36.842C293.029 38.6362 260.319 39.1934 227.798 39.7847C194.664 40.3861 161.507 40.7432 128.347 41.1915C111.883 41.4143 95.4492 41.7752 78.9919 42.0373C64.6187 42.2665 49.9584 43.0047 35.5545 42.6197C31.728 42.5172 28.0245 42.3146 24.3722 41.974C24.1126 41.9499 23.747 42.0803 24.075 42.1107C37.5634 43.3896 51.7008 43.1857 65.6675 42.9249C81.5338 42.6286 97.4478 42.4754 113.331 42.2335C146.41 41.7296 179.529 41.5207 212.608 40.9787C244.897 40.4495 277.398 39.9898 309.397 38.5881C325.517 37.8816 341.39 36.8028 357.434 35.9747C373.74 35.1326 390.136 34.4653 406.559 33.8449C422.846 33.2295 439.085 32.799 455.532 32.8762C471.859 32.9535 488.32 33.346 504.425 34.1171C508.487 34.3121 512.536 34.5312 516.571 34.7705C517.247 34.811 518.207 34.4742 517.343 34.4172Z" fill="#FFB262"/>
<path opacity="0.53" d="M619.766 49.9788C593.982 52.8797 567.282 55.112 540.049 56.5821C533.049 56.9607 526.041 57.3241 519.082 57.7609C512.164 58.1953 505.283 58.6397 498.275 58.9512C484.551 59.5615 470.667 59.8198 456.792 59.9679C440.882 60.1376 424.93 60.0731 409.036 60.3402C408.152 60.3554 407.157 60.7948 408.462 60.8176C422.549 61.0658 436.731 61.1341 450.841 61.0848C464.804 61.0354 478.743 60.8189 492.59 60.2896C506.803 59.7464 520.712 58.7334 534.764 57.9395C548.7 57.1506 562.461 56.2744 576.049 55.0816C591.109 53.7597 605.66 52.1276 620.074 50.3245C620.931 50.2181 620.791 49.8636 619.766 49.9788Z" fill="#FFB262"/>
<path opacity="0.53" d="M359.296 56.5117C353.638 56.1546 347.683 56.1217 341.964 55.8343C336.104 55.5392 330.317 55.1125 324.645 54.5997C313.094 53.5551 301.478 52.3142 290.491 50.8581C290.002 50.7935 289.117 51.0214 289.674 51.1024C300.569 52.6839 311.044 54.3756 322.688 55.4949C328.438 56.0482 334.304 56.4927 340.283 56.794C346.21 57.0929 352.685 57.3411 358.663 57.0372C359.34 57.0017 360.461 56.5851 359.296 56.5117Z" fill="#FFB262"/>
<path opacity="0.53" d="M185.061 50.5858C169.328 50.1768 154.169 51.8837 138.47 51.8343C130.274 51.809 122.102 51.5367 113.888 51.5177C105.371 51.4988 96.8604 51.5633 88.3533 51.6672C78.6539 51.7849 68.9544 51.9875 59.2481 52.0382C58.8621 52.0407 58.476 52.2357 59.009 52.2382C75.7806 52.3218 92.5727 52.2838 109.341 52.4244C117.851 52.4953 126.28 52.7434 134.767 52.8966C142.519 53.0359 150.318 52.6953 157.934 52.3193C166.851 51.8786 175.724 51.3088 184.736 51.0366C185.539 51.0138 186.168 50.6149 185.061 50.5858Z" fill="#FFB262"/>
<path opacity="0.53" d="M633.491 29.3057C596.22 29.131 559.171 27.6761 522.639 25.6324C504.664 24.6271 486.574 23.8483 468.227 23.7356C449.625 23.6204 431.131 24.289 412.757 25.0512C391.66 25.9275 370.642 27.0329 349.442 27.6964C349.032 27.709 348.725 27.9395 349.278 27.9255C367.755 27.4292 386.129 26.7505 404.537 26.087C423.177 25.4146 441.965 24.7284 460.783 24.7448C479.102 24.7613 497.339 25.4324 515.3 26.4188C533.548 27.4203 551.764 28.3307 570.272 28.86C591.16 29.4577 612.127 29.7134 633.115 29.6235C633.723 29.6185 634.331 29.3095 633.491 29.3057Z" fill="#FFB262"/>
<path opacity="0.53" d="M255.817 20.4366C238.229 21.0444 220.657 21.057 202.994 21.2837C184.422 21.523 165.853 21.5382 147.268 21.5762C136.731 21.5977 126.212 21.7015 115.682 21.7496C115.293 21.7509 114.91 21.9472 115.439 21.9497C124.763 21.994 134.087 22.1637 143.407 22.2409C152.795 22.3194 162.181 22.379 171.576 22.3878C189.762 22.4055 207.969 22.2169 226.141 22.0421C236.08 21.9459 246.117 21.7509 255.697 20.9443C256.722 20.8582 257.31 20.3847 255.817 20.4366Z" fill="#FFB262"/>
<path d="M253.736 21.1252C251.529 21.2202 249.353 21.3886 247.152 21.5026C245.024 21.6127 242.882 21.7102 240.733 21.7837C236.254 21.9356 231.648 21.9192 227.142 21.8964C222.625 21.8736 218.109 21.8141 213.589 21.8331C209.137 21.852 204.706 21.985 200.257 21.9989C195.461 22.0141 190.684 21.9711 185.949 22.237C185.83 22.2446 185.775 22.3003 185.935 22.2939C190.271 22.0901 194.733 22.2243 199.089 22.2889C203.431 22.3535 207.781 22.3104 212.13 22.3345C221.132 22.3839 230.251 22.6308 239.185 22.2129C244.057 21.985 249.093 21.7102 253.767 21.2455C254.009 21.2215 254.054 21.1113 253.736 21.1252Z" fill="#FEECD8"/>
<path d="M414.967 19.4421C410.314 19.3927 405.657 19.4168 401.004 19.3623C396.378 19.3092 391.769 19.2117 387.137 19.2142C382.483 19.2167 377.837 19.3028 373.187 19.3459C368.773 19.3864 364.342 19.3839 359.931 19.3446C355.045 19.3003 350.238 19.1319 345.38 19.004C345.281 19.0015 345.165 19.0458 345.284 19.061C349.005 19.5409 353.375 19.6726 357.41 19.7561C361.738 19.8448 366.088 19.8638 370.426 19.8612C375.158 19.8587 379.897 19.7891 384.622 19.7144C389.398 19.6384 394.137 19.6738 398.917 19.6776C404.188 19.6802 409.491 19.6738 414.759 19.6194C415.09 19.6169 415.446 19.4485 414.967 19.4421Z" fill="#FEECD8"/>
<path d="M550.289 28.2258C544.569 27.8093 538.642 27.7118 532.888 27.3433C527.214 26.9799 521.563 26.6557 515.809 26.4101C504.231 25.9163 492.751 25.2097 481.094 24.8843C474.483 24.6995 467.78 24.5868 461.142 24.721C461.046 24.7222 460.937 24.7691 461.08 24.7729C466.841 24.8944 472.594 25.0021 478.327 25.2085C484.142 25.4174 489.909 25.7099 495.669 26.0226C507.207 26.6481 518.829 27.0875 530.428 27.6092C536.947 27.9017 543.476 28.1448 550.019 28.3892C550.282 28.3968 550.651 28.2524 550.289 28.2258Z" fill="#FEECD8"/>
<path d="M113.031 36.7534C108.35 36.8775 103.69 37.1396 99.0369 37.3283C94.3084 37.5208 89.5834 37.6436 84.8105 37.7006C80.1402 37.755 75.4664 37.731 70.7926 37.7322C65.9036 37.7335 61.0283 37.8006 56.1427 37.8462C53.5017 37.8715 50.8471 37.8601 48.2061 37.8221C45.3123 37.7803 42.2648 37.7791 39.4155 37.6271C39.3027 37.6208 39.1421 37.6778 39.2856 37.6866C41.5234 37.8171 43.6758 37.9867 45.9547 38.0627C48.4145 38.1463 50.8915 38.1779 53.365 38.1969C58.2575 38.2349 63.1397 38.2374 68.0321 38.24C72.7981 38.2438 77.5641 38.2704 82.3267 38.2311C87.0893 38.1919 91.7324 38.0285 96.4232 37.7943C101.924 37.5208 107.469 37.2422 112.922 36.9003C113.157 36.8851 113.4 36.7433 113.031 36.7534Z" fill="#FEECD8"/>
<path d="M288.734 39.3017C284.683 39.151 280.535 39.3713 276.51 39.5043C272.168 39.6474 267.798 39.7107 263.456 39.8525C258.884 40.0019 254.334 40.1615 249.745 40.2665C247.443 40.3185 245.143 40.3704 242.841 40.4236C240.64 40.4742 238.433 40.5692 236.23 40.5907C231.939 40.6325 227.576 40.4172 223.435 40.8452C223.278 40.8617 223.244 40.9389 223.459 40.9263C227.231 40.7021 231.16 41.0149 234.952 41.0478C237.084 41.0655 239.233 41.001 241.358 40.9592C243.579 40.9149 245.803 40.8731 248.023 40.8262C256.807 40.6451 265.598 40.3286 274.3 39.9462C279.042 39.7373 283.681 39.4296 288.512 39.4866C288.875 39.4904 289.22 39.3194 288.734 39.3017Z" fill="#FEECD8"/>
<path d="M451.815 42.3899C449.498 42.5785 447.103 42.3962 444.753 42.3835C443.577 42.3772 442.409 42.3987 441.234 42.3886C439.785 42.3759 438.343 42.3329 436.891 42.3253C434.127 42.3114 431.343 42.438 428.582 42.4798C425.74 42.5228 422.894 42.5418 420.055 42.5874C414.547 42.6748 409.033 42.7723 403.563 42.9749C398.374 43.1673 393.163 43.2458 387.957 43.3775C382.371 43.5206 376.474 43.6877 371.462 44.4601C371.243 44.4943 371.12 44.6184 371.503 44.5943C376.508 44.2828 381.486 44.0017 386.597 43.8739C391.674 43.7472 396.775 43.6903 401.834 43.5041C407.417 43.299 413 43.1711 418.616 43.0799C421.493 43.0331 424.359 42.9774 427.229 42.9039C430.01 42.833 432.819 42.7279 435.607 42.6963C438.572 42.6634 441.589 42.6722 444.558 42.6836C446.984 42.6925 449.539 42.7685 451.852 42.514C452.098 42.4912 452.153 42.362 451.815 42.3899Z" fill="#FEECD8"/>
<path d="M530.356 44.6809C528.307 44.7797 526.26 44.8607 524.217 44.9861C522.116 45.1152 520.021 45.2482 517.924 45.3773C513.694 45.6382 509.464 45.8977 505.242 46.1674C501.005 46.4384 496.789 46.7334 492.556 47.0069C488.477 47.2703 484.504 47.6286 480.482 47.9541C475.86 48.3289 471.295 48.5732 466.488 48.6264C466.037 48.6315 465.552 48.8429 466.201 48.8657C470.209 49.0012 474.398 48.7404 478.262 48.4605C482.337 48.1668 486.321 47.7705 490.424 47.5084C494.685 47.2361 499.027 47.0994 503.294 46.8297C507.582 46.5587 511.883 46.2966 516.164 46.0155C518.617 45.8547 521.07 45.6951 523.503 45.5103C525.877 45.3292 528.122 45.1013 530.414 44.8556C530.753 44.8202 530.828 44.6581 530.356 44.6809Z" fill="#FEECD8"/>
<path d="M569.612 54.6641C559.021 55.1896 548.45 55.8113 537.992 56.5203C527.35 57.2421 516.697 57.9423 505.829 58.3323C499.734 58.5514 493.564 58.835 487.599 59.2579C487.35 59.2756 487.059 59.4276 487.483 59.42C492.826 59.3237 498.118 58.9882 503.431 58.8071C508.928 58.6185 514.419 58.483 519.871 58.1956C525.297 57.9094 530.674 57.5435 536.038 57.1737C541.306 56.8103 546.605 56.4849 551.874 56.1215C557.842 55.71 563.821 55.301 569.64 54.7388C569.783 54.7236 569.807 54.654 569.612 54.6641Z" fill="#FEECD8"/>
<path d="M335.578 62.959C329.091 62.8475 322.545 62.8703 316.05 62.883C309.719 62.8956 303.337 62.8564 297.016 62.9767C290.751 63.097 284.608 63.5123 278.321 63.5883C272.086 63.6642 265.844 63.5325 259.609 63.6275C256.312 63.6782 253.019 63.7567 249.722 63.82C246.473 63.882 243.083 63.9808 239.834 63.9073C239.585 63.9023 239.353 64.0226 239.684 64.0327C242.619 64.1289 245.475 64.2188 248.437 64.2315C251.31 64.2442 254.187 64.2112 257.06 64.1834C263.142 64.1239 269.209 64.2163 275.291 64.2011C281.557 64.1859 287.648 63.8656 293.846 63.6465C300.293 63.4186 306.863 63.3654 313.358 63.3173C320.676 63.2641 328.025 63.2844 335.332 63.1628C335.712 63.159 336.142 62.9691 335.578 62.959Z" fill="#FEECD8"/>
<path d="M69.9964 57.9159C66.4876 57.731 62.7363 57.8589 59.2104 57.9475C55.4591 58.0412 51.718 58.1666 47.9667 58.2692C41.1884 58.4553 34.3315 58.6174 27.519 58.6275C23.7198 58.6326 19.5585 58.6098 15.8994 58.2957C15.7115 58.2793 15.445 58.3705 15.6808 58.3945C18.7317 58.7123 21.7006 58.9415 24.9497 59.0263C28.356 59.115 31.793 59.1049 35.2061 59.0555C42.4559 58.9516 49.6477 58.7402 56.8701 58.549C61.0827 58.4376 65.367 58.4401 69.559 58.2793C70.0408 58.2603 70.7924 57.9577 69.9964 57.9159Z" fill="#FEECD8"/>
</svg>
