<svg
        viewBox="0 0 440 106"
        xmlns="http://www.w3.org/2000/svg"
        width="100%"
        height="auto"
        preserveAspectRatio="none"
>
    <g filter="url(#filter0_d_1319_2470)">
        <path d="M220 8C223.744 8 227.356 8.56373 230.756 9.61094C249.039 15.2419 265.885 30 285.016 30H436C438.209 30 440 31.7909 440 34V102C440 104.209 438.209 106 436 106H4C1.79086 106 1.61066e-08 104.209 0 102V34C0 31.7909 1.79086 30 4 30H154.984C174.115 30 190.961 15.2419 209.244 9.61094C212.644 8.56374 216.256 8 220 8Z" fill="#FEF2E4"/>
    </g>
    <defs>
        <filter id="filter0_d_1319_2470" x="-4" y="0" width="448" height="106" filterUnits="userSpaceOnUse" color-interpolation-filters="sRGB">
            <feFlood flood-opacity="0" result="BackgroundImageFix"/>
            <feColorMatrix in="SourceAlpha" type="matrix" values="0 0 0 0 0 0 0 0 0 0 0 0 0 0 0 0 0 0 127 0" result="hardAlpha"/>
            <feOffset dy="-4"/>
            <feGaussianBlur stdDeviation="2"/>
            <feComposite in2="hardAlpha" operator="out"/>
            <feColorMatrix type="matrix" values="0 0 0 0 0 0 0 0 0 0 0 0 0 0 0 0 0 0 0.15 0"/>
            <feBlend mode="normal" in2="BackgroundImageFix" result="effect1_dropShadow_1319_2470"/>
            <feBlend mode="normal" in="SourceGraphic" in2="effect1_dropShadow_1319_2470" result="shape"/>
        </filter>
    </defs>
</svg>
