<svg width="111" height="764" viewBox="0 0 111 764" fill="none" xmlns="http://www.w3.org/2000/svg">
<path d="M64.7992 753.153L78.5413 24.4666L30.9869 11.4537L32.2168 754.942C32.2168 754.942 45.9577 773.758 64.7992 753.153Z" fill="#996519"/>
<path d="M66.1784 753.145C66.1784 753.145 37.4675 756.847 44.5582 706.177C51.6336 655.477 33.8647 651.61 41.5965 599.01C49.3375 546.405 41.4554 569.521 46.2454 519.876C51.0446 470.225 35.6688 443.625 42.7662 375.169C49.8777 306.712 42.1446 293.502 46.7032 238.471C51.2574 183.447 36.2903 107.33 40.5786 73.0442C44.8622 38.7587 47.7706 15.5011 47.7706 15.5011L31.6249 11.1728L32.9174 754.941C32.9174 754.941 46.9453 773.758 66.1784 753.145Z" fill="#704711"/>
<path d="M54.5008 24.1808C54.5008 24.1808 68.4983 42.995 56.5692 71.5786C44.6453 100.172 41.3777 105.505 52.2496 155.443C63.1119 205.377 66.595 259.237 59.0021 310.179C51.4093 361.12 53.677 337.468 55.3704 400.837C57.0642 464.217 60.4577 529.696 54.6957 576.129C48.938 622.557 50.3014 646.218 51.5343 678.314C52.7705 710.38 49.153 725.958 53.724 728.492C58.3004 731.04 68.8724 659.183 64.8256 617.504C60.7775 575.795 62.8197 464.412 64.4066 434.022C65.9888 403.632 72.8657 298.691 70.2364 250.509C67.6071 202.327 60.3943 171.087 64.9379 128.667C69.4769 86.2478 72.6362 25.9908 69.0502 23.3888C65.474 20.7965 54.5008 24.1808 54.5008 24.1808Z" fill="#C68334"/>
<path d="M69.8526 32.0834C61.5955 34.5831 56.9978 34.3537 47.4636 32.0313C35.9626 29.2285 19.1109 5.38973 37.1692 3.21816C48.1686 1.89877 58.8615 2.88982 68.202 10.4673C77.5376 18.0349 75.126 30.4875 69.8526 32.0834Z" fill="#FFD797"/>
<path d="M42.5241 26.0499C35.0472 21.839 31.3998 13.5333 32.8108 8.71736C33.3651 6.80364 33.8103 5.64106 36.0008 5.4981C37.0064 5.43247 38.4301 5.53932 40.5876 5.70311C43.1228 5.88719 46.5857 6.15555 51.5564 6.31051C66.6008 6.79673 70.6389 16.2305 71.6719 20.2677C71.6919 20.3363 71.7117 20.3999 71.7221 20.4442C72.1659 21.9582 72.069 23.4276 71.4436 24.6968C70.4786 26.6473 68.3285 27.9261 65.2334 28.3878C63.9908 28.5688 62.8487 28.863 61.6456 29.1662C60.0346 29.586 58.3715 30.0191 56.4696 30.1432C52.3291 30.4134 48.0377 29.1505 42.5241 26.0499ZM34.2496 9.37249C33.0817 13.3836 36.6431 20.6213 43.1672 24.2902C48.435 27.257 52.5186 28.4686 56.4011 28.2152C58.185 28.0988 59.7225 27.7088 61.3464 27.2832C62.5321 26.9812 63.7523 26.6668 65.0645 26.4713C67.6412 26.0984 69.4422 25.1071 70.1502 23.6926C70.5135 22.9399 70.5572 22.0732 70.2826 21.1273C70.2628 21.0637 70.2467 20.9799 70.2122 20.8723C69.0478 16.3443 65.0683 8.68441 51.5068 8.24622C46.5007 8.08358 43.0293 7.82074 40.4852 7.63224C38.3803 7.47001 36.983 7.36646 36.0736 7.42582C34.7969 7.50914 34.7227 7.76368 34.2496 9.37249Z" fill="#E0B270"/>
<path d="M44.6996 22.1186C41.096 20.564 38.2574 17.7672 37.2725 14.8103C36.8177 13.4685 36.7986 12.1977 37.2021 11.1231C37.7373 9.69219 38.2185 9.07958 39.8029 8.97664C40.5668 8.92702 41.6581 8.98033 43.3143 9.0516C45.2557 9.1441 47.9156 9.26447 51.7276 9.30501C62.9411 9.44108 66.2558 14.6664 67.2415 17.7674L67.271 17.8599C67.6011 18.7726 67.5738 19.7233 67.2004 20.5376C66.5223 22.0077 64.7715 22.9661 62.1193 23.3073C61.161 23.4242 60.2927 23.6098 59.3681 23.814C58.1268 24.0934 56.8416 24.3657 55.3837 24.4604C52.2108 24.6764 48.9121 23.9417 44.6996 22.1186ZM38.5961 11.9369C38.3241 12.6502 38.494 13.4888 38.6895 14.0624C39.3155 15.9098 41.3863 18.6471 45.2126 20.3115C49.2253 22.0532 52.3433 22.7499 55.3157 22.5568C56.6863 22.4678 57.8624 22.2026 59.1126 21.9276C60.0244 21.7342 60.9752 21.5283 61.977 21.4036C64.9947 21.0088 65.7259 19.9229 65.8719 19.6004C65.9572 19.416 66.0477 19.1318 65.8738 18.6711C65.8591 18.6274 65.8395 18.569 65.8192 18.4908C65.1394 16.3587 62.4106 11.3686 51.7046 11.2343C47.8704 11.1853 45.2017 11.0606 43.2517 10.9736C41.6349 10.9047 40.5741 10.8494 39.8758 10.8948C38.9548 10.9546 38.9351 11.0155 38.5961 11.9369Z" fill="#E0B270"/>
<path d="M46.581 19.4499C43.6147 18.4667 41.4841 16.7929 41.028 15.0457C40.8322 14.3378 40.9334 13.6305 41.2847 13.0749C41.7185 12.3856 42.0911 12.0605 43.0019 12.0018C43.5771 11.9647 44.405 12.0298 45.9106 12.1153C47.3295 12.2162 49.2646 12.3431 52.0475 12.4795C59.8875 12.8326 62.4945 15.2405 63.312 17.2013C63.5668 17.7277 63.5883 18.3235 63.3616 18.8218C62.9432 19.816 61.7131 20.3494 59.5255 20.4905L58.9022 20.5257C58.327 20.5628 57.7782 20.608 57.2302 20.673C56.6555 20.7249 56.0901 20.791 55.4974 20.8292C53.5453 20.96 50.9527 20.8903 46.581 19.4499ZM59.4569 18.585C61.0475 18.4824 61.6871 18.1698 61.9172 18.0118C61.524 17.1587 59.7291 14.7428 51.985 14.3835C49.1851 14.2581 47.241 14.1269 45.8222 14.0259C44.4168 13.9339 43.5629 13.8755 43.0749 13.9069C42.6958 13.9314 42.6957 13.9314 42.4888 14.2507C42.4723 14.2765 42.4561 14.312 42.4823 14.4337C42.6651 15.1424 44.0646 16.6462 46.9818 17.603C51.1328 18.9787 53.4941 19.0534 55.4246 18.9289C55.9999 18.8918 56.5568 18.8313 57.105 18.7712C57.6709 18.7199 58.2364 18.6539 58.829 18.6156L59.4569 18.585Z" fill="#E0B270"/>
<path opacity="0.54" d="M69.8738 497.398L69.5234 516.722C60.1706 517.734 50.7793 511.782 41.3322 512.41C38.7648 512.581 36.3057 513.05 33.9109 513.702L33.885 494.986C45.7916 493.793 58.0185 496.237 69.8738 497.398Z" fill="#3F2406"/>
</svg>
