<svg width="40" height="40" viewBox="0 0 40 40" fill="none" xmlns="http://www.w3.org/2000/svg">
<path opacity="0.4" d="M29.9163 12.8498L29.683 12.7165L27.3663 11.3832L22.583 8.6165C21.1163 7.7665 18.883 7.7665 17.4163 8.6165L12.633 11.3832L10.3163 12.7332L10.0163 12.8998C7.03301 14.8998 6.83301 15.2665 6.83301 18.4832V26.1665C6.83301 29.3832 7.03301 29.7498 10.083 31.7998L17.4163 36.0332C18.1497 36.4665 19.0663 36.6665 19.9997 36.6665C20.9163 36.6665 21.8497 36.4665 22.583 36.0332L29.983 31.7498C32.9663 29.7498 33.1663 29.3832 33.1663 26.1665V18.4832C33.1663 15.2665 32.9663 14.8998 29.9163 12.8498Z" fill="#FFBA00"/>
<path d="M10.3164 12.7335L12.6331 11.3835L17.1997 8.75016L17.4164 8.61683C18.8831 7.76683 21.1164 7.76683 22.5831 8.61683L22.7997 8.75016L27.3664 11.3835L29.6831 12.7168V9.15016C29.6831 5.40016 27.6164 3.3335 23.8664 3.3335H16.1164C12.3664 3.3335 10.3164 5.40016 10.3164 9.15016V12.7335Z" fill="#FFBA00"/>
<path d="M24.7336 22.2333L23.7002 23.5C23.5336 23.6833 23.4169 24.05 23.4336 24.3L23.5336 25.9333C23.6002 26.9333 22.8836 27.45 21.9502 27.0833L20.4336 26.4833C20.2002 26.4 19.8002 26.4 19.5669 26.4833L18.0502 27.0833C17.1169 27.45 16.4002 26.9333 16.4669 25.9333L16.5669 24.3C16.5836 24.05 16.4669 23.6833 16.3002 23.5L15.2669 22.2333C14.6169 21.4666 14.9002 20.6166 15.8669 20.3666L17.4502 19.9666C17.7002 19.9 18.0002 19.6666 18.1336 19.45L19.0169 18.0833C19.5669 17.2333 20.4336 17.2333 20.9836 18.0833L21.8669 19.45C22.0002 19.6666 22.3002 19.9 22.5502 19.9666L24.1336 20.3666C25.1002 20.6166 25.3836 21.4666 24.7336 22.2333Z" fill="#FFBA00"/>
</svg>
