<svg width="40" height="40" viewBox="0 0 40 40" fill="none" xmlns="http://www.w3.org/2000/svg">
<path opacity="0.4" d="M27.9504 31.6332H12.0504C11.3504 31.6332 10.7171 31.1832 10.4837 30.5332L3.5504 11.1166C3.0004 9.56657 4.76707 8.2499 6.08373 9.1999L12.7504 13.9666C13.6337 14.5999 14.9004 14.2166 15.2837 13.1999L18.4337 4.7999C18.9671 3.3499 21.0171 3.3499 21.5504 4.7999L24.7004 13.1999C25.0837 14.2332 26.3337 14.5999 27.2337 13.9666L33.9004 9.1999C35.2337 8.2499 36.9837 9.58324 36.4337 11.1166L29.5004 30.5332C29.2837 31.1832 28.6504 31.6332 27.9504 31.6332Z" fill="#8700FF"/>
<path d="M28.3337 36.6665H11.667C10.9837 36.6665 10.417 36.0998 10.417 35.4165C10.417 34.7332 10.9837 34.1665 11.667 34.1665H28.3337C29.017 34.1665 29.5837 34.7332 29.5837 35.4165C29.5837 36.0998 29.017 36.6665 28.3337 36.6665Z" fill="#8700FF"/>
<path d="M24.1663 24.5835H15.833C15.1497 24.5835 14.583 24.0168 14.583 23.3335C14.583 22.6502 15.1497 22.0835 15.833 22.0835H24.1663C24.8497 22.0835 25.4163 22.6502 25.4163 23.3335C25.4163 24.0168 24.8497 24.5835 24.1663 24.5835Z" fill="#8700FF"/>
</svg>
