<svg width="40" height="40" viewBox="0 0 40 40" fill="none" xmlns="http://www.w3.org/2000/svg">
<path opacity="0.4" d="M26.983 3.3335H13.0163C6.94967 3.3335 3.33301 6.95016 3.33301 13.0168V26.9668C3.33301 33.0502 6.94967 36.6668 13.0163 36.6668H26.9663C33.033 36.6668 36.6497 33.0502 36.6497 26.9835V13.0168C36.6663 6.95016 33.0497 3.3335 26.983 3.3335Z" fill="#00A6DE"/>
<path d="M14.7001 16.2502C13.2834 16.2502 11.8667 15.7169 10.7834 14.6336C10.3001 14.1502 10.3001 13.3502 10.7834 12.8669C11.2667 12.3836 12.0667 12.3836 12.5501 12.8669C13.7334 14.0502 15.6667 14.0502 16.8501 12.8669C17.3334 12.3836 18.1334 12.3836 18.6167 12.8669C19.1001 13.3502 19.1001 14.1502 18.6167 14.6336C17.5334 15.7002 16.1167 16.2502 14.7001 16.2502Z" fill="#00A6DE"/>
<path d="M25.2997 16.2502C23.883 16.2502 22.4663 15.7169 21.383 14.6336C20.8997 14.1502 20.8997 13.3502 21.383 12.8669C21.8663 12.3836 22.6663 12.3836 23.1497 12.8669C24.333 14.0502 26.2663 14.0502 27.4497 12.8669C27.933 12.3836 28.733 12.3836 29.2163 12.8669C29.6997 13.3502 29.6997 14.1502 29.2163 14.6336C28.133 15.7002 26.7163 16.2502 25.2997 16.2502Z" fill="#00A6DE"/>
<path d="M26.0005 21.0332H14.0005C12.8338 21.0332 11.8838 21.9832 11.8838 23.1665C11.8838 27.6499 15.5338 31.2999 20.0171 31.2999C24.5005 31.2999 28.1505 27.6499 28.1505 23.1665C28.1338 21.9999 27.1671 21.0332 26.0005 21.0332Z" fill="#00A6DE"/>
</svg>
