<svg width="41" height="40" viewBox="0 0 41 40" fill="none" xmlns="http://www.w3.org/2000/svg">
<path opacity="0.4" d="M29.7158 12.9502C29.5991 12.9335 29.4824 12.9335 29.3658 12.9502C26.7824 12.8668 24.7324 10.7502 24.7324 8.15016C24.7324 5.50016 26.8824 3.3335 29.5491 3.3335C32.1991 3.3335 34.3658 5.48349 34.3658 8.15016C34.3491 10.7502 32.2991 12.8668 29.7158 12.9502Z" fill="#CC6D14"/>
<path opacity="0.4" d="M35.1494 24.5002C33.2827 25.7502 30.666 26.2168 28.2494 25.9002C28.8827 24.5335 29.216 23.0169 29.2327 21.4169C29.2327 19.7502 28.866 18.1669 28.166 16.7835C30.6327 16.4502 33.2493 16.9168 35.1327 18.1668C37.766 19.9002 37.766 22.7502 35.1494 24.5002Z" fill="#CC6D14"/>
<path opacity="0.4" d="M11.234 12.9502C11.3506 12.9335 11.4673 12.9335 11.584 12.9502C14.1673 12.8668 16.2173 10.7502 16.2173 8.15016C16.2173 5.50016 14.0673 3.3335 11.4007 3.3335C8.75065 3.3335 6.58398 5.48349 6.58398 8.15016C6.60065 10.7502 8.65065 12.8668 11.234 12.9502Z" fill="#CC6D14"/>
<path opacity="0.4" d="M11.4159 21.4167C11.4159 23.0333 11.7659 24.5667 12.3992 25.95C10.0492 26.2 7.59922 25.7 5.79922 24.5167C3.16589 22.7667 3.16589 19.9167 5.79922 18.1667C7.58255 16.9667 10.0992 16.4833 12.4659 16.75C11.7826 18.15 11.4159 19.7334 11.4159 21.4167Z" fill="#CC6D14"/>
<path d="M20.7 26.45C20.5667 26.4333 20.4167 26.4333 20.2667 26.45C17.2 26.35 14.75 23.8333 14.75 20.7333C14.75 17.5667 17.3 15 20.4833 15C23.65 15 26.2167 17.5667 26.2167 20.7333C26.2167 23.8333 23.7833 26.35 20.7 26.45Z" fill="#CC6D14"/>
<path d="M15.284 29.8999C12.7673 31.5832 12.7673 34.3499 15.284 36.0166C18.1507 37.9332 22.8507 37.9332 25.7173 36.0166C28.234 34.3332 28.234 31.5666 25.7173 29.8999C22.8673 27.9832 18.1673 27.9832 15.284 29.8999Z" fill="#CC6D14"/>
</svg>
