<svg width="41" height="40" viewBox="0 0 41 40" fill="none" xmlns="http://www.w3.org/2000/svg">
<path opacity="0.4" d="M30.4997 5H10.4997C6.81634 5 3.83301 7.96667 3.83301 11.6167V28.3833C3.83301 32.0333 6.81634 35 10.4997 35H30.4997C34.183 35 37.1663 32.0333 37.1663 28.3833V11.6167C37.1663 7.96667 34.183 5 30.4997 5Z" fill="#CF1D00"/>
<path d="M32.1663 14.5835H23.833C23.1497 14.5835 22.583 14.0168 22.583 13.3335C22.583 12.6502 23.1497 12.0835 23.833 12.0835H32.1663C32.8497 12.0835 33.4163 12.6502 33.4163 13.3335C33.4163 14.0168 32.8497 14.5835 32.1663 14.5835Z" fill="#CF1D00"/>
<path d="M32.1667 21.25H25.5C24.8167 21.25 24.25 20.6833 24.25 20C24.25 19.3167 24.8167 18.75 25.5 18.75H32.1667C32.85 18.75 33.4167 19.3167 33.4167 20C33.4167 20.6833 32.85 21.25 32.1667 21.25Z" fill="#CF1D00"/>
<path d="M32.1663 27.9165H28.833C28.1497 27.9165 27.583 27.3498 27.583 26.6665C27.583 25.9832 28.1497 25.4165 28.833 25.4165H32.1663C32.8497 25.4165 33.4163 25.9832 33.4163 26.6665C33.4163 27.3498 32.8497 27.9165 32.1663 27.9165Z" fill="#CF1D00"/>
<path d="M14.6664 19.6502C16.7927 19.6502 18.5164 17.9265 18.5164 15.8002C18.5164 13.6739 16.7927 11.9502 14.6664 11.9502C12.5401 11.9502 10.8164 13.6739 10.8164 15.8002C10.8164 17.9265 12.5401 19.6502 14.6664 19.6502Z" fill="#CF1D00"/>
<path d="M15.9996 21.8501C15.1162 21.7668 14.1996 21.7668 13.3162 21.8501C10.5162 22.1168 8.26622 24.3334 7.99955 27.1334C7.98289 27.3668 8.04955 27.6001 8.21622 27.7668C8.38289 27.9334 8.59955 28.0501 8.83289 28.0501H20.4996C20.7329 28.0501 20.9662 27.9501 21.1162 27.7834C21.2662 27.6168 21.3496 27.3834 21.3329 27.1501C21.0496 24.3334 18.8162 22.1168 15.9996 21.8501Z" fill="#CF1D00"/>
</svg>
