<svg width="40" height="40" viewBox="0 0 40 40" fill="none" xmlns="http://www.w3.org/2000/svg">
<path opacity="0.4" d="M14.4506 23.3335H6.66732C4.83398 23.3335 3.33398 24.8335 3.33398 26.6668V36.6668H14.4506V23.3335Z" fill="#A6BD00"/>
<path d="M22.2169 16.6665H17.7669C15.9336 16.6665 14.4336 18.1665 14.4336 19.9998V36.6665H25.5503V19.9998C25.5503 18.1665 24.0669 16.6665 22.2169 16.6665Z" fill="#A6BD00"/>
<path opacity="0.4" d="M33.3341 28.3335H25.5508V36.6668H36.6674V31.6668C36.6674 29.8335 35.1674 28.3335 33.3341 28.3335Z" fill="#A6BD00"/>
<path d="M25.0168 8.08348C25.5335 7.56682 25.7335 6.95015 25.5668 6.41682C25.4001 5.88348 24.8835 5.50016 24.1501 5.38349L22.5501 5.11682C22.4835 5.10015 22.3335 5.00013 22.3001 4.93346L21.4168 3.1668C20.7501 1.8168 19.2335 1.8168 18.5668 3.1668L17.6835 4.93346C17.6501 5.00013 17.5001 5.10015 17.4335 5.11682L15.8335 5.38349C15.1001 5.50016 14.6001 5.88348 14.4168 6.41682C14.2501 6.95015 14.4501 7.56682 14.9668 8.08348L16.2001 9.33348C16.2501 9.38348 16.3168 9.58349 16.3001 9.65016L15.9501 11.1835C15.6835 12.3168 16.1168 12.8335 16.4001 13.0501C16.6835 13.2501 17.3001 13.5168 18.3168 12.9168L19.8168 12.0335C19.8835 11.9835 20.1001 11.9835 20.1668 12.0335L21.6668 12.9168C22.1335 13.2001 22.5168 13.2835 22.8168 13.2835C23.1668 13.2835 23.4168 13.1501 23.5668 13.0501C23.8501 12.8501 24.2835 12.3335 24.0168 11.1835L23.6668 9.65016C23.6501 9.56682 23.7001 9.38348 23.7668 9.33348L25.0168 8.08348Z" fill="#A6BD00"/>
</svg>
