<svg width="40" height="40" viewBox="0 0 40 40" fill="none" xmlns="http://www.w3.org/2000/svg">
<path opacity="0.4" d="M15.6996 3.5999L6.53295 7.03323C4.78295 7.68323 3.34961 9.76656 3.34961 11.6332V25.1332C3.34961 26.4832 4.23296 28.2666 5.31629 29.0666L14.483 35.9166C16.0996 37.1332 18.7496 37.1332 20.3663 35.9166L29.533 29.0666C30.6163 28.2499 31.4996 26.4832 31.4996 25.1332V11.6332C31.4996 9.76656 30.0663 7.68323 28.3163 7.03323L19.1496 3.5999C18.1996 3.2499 16.6496 3.2499 15.6996 3.5999Z" fill="#019F6F"/>
<path d="M32.0996 11.2666H20.6829C20.3496 11.2666 20.0329 11.2833 19.7329 11.2833C16.8663 11.45 16.0996 12.5 16.0996 15.7666V16.9166C16.0996 17.3308 16.4354 17.6666 16.8496 17.6666H35.9163C36.3305 17.6666 36.6663 17.3308 36.6663 16.9166V15.7666C36.6663 12.1666 35.7496 11.2666 32.0996 11.2666Z" fill="#019F6F"/>
<path d="M16.8662 19.5C16.452 19.5 16.1162 19.8358 16.1162 20.25V24.2333C16.1162 27.8333 17.0329 28.75 20.6829 28.75H32.0995C35.6829 28.75 36.6329 27.8833 36.6662 24.4333V20.25C36.6662 19.8358 36.3304 19.5 35.9162 19.5H16.8662ZM22.1162 25.7833H20.0329C19.5329 25.7833 19.1329 25.3833 19.1329 24.8833C19.1329 24.3833 19.5329 23.9833 20.0329 23.9833H22.1162C22.6162 23.9833 23.0162 24.3833 23.0162 24.8833C23.0162 25.3833 22.6162 25.7833 22.1162 25.7833ZM28.8662 25.7833H24.7162C24.2162 25.7833 23.8162 25.3833 23.8162 24.8833C23.8162 24.3833 24.2162 23.9833 24.7162 23.9833H28.8662C29.3662 23.9833 29.7662 24.3833 29.7662 24.8833C29.7829 25.3833 29.3662 25.7833 28.8662 25.7833Z" fill="#019F6F"/>
</svg>
