<svg width="98" height="211" viewBox="0 0 98 211" fill="none" xmlns="http://www.w3.org/2000/svg">
<path d="M84.7748 102.559C84.8936 103.923 87.5999 106.888 88.5158 106.743C89.8696 106.499 91.3235 104.701 91.0253 103.67C90.1309 100.481 84.4775 99.4745 84.7748 102.559Z" fill="#FEDC19" fill-opacity="0.16"/>
<path d="M17.7861 115.303C18.4251 116.676 20.8228 119.436 22.2614 121.073C22.7209 121.562 23.6805 121.279 24.5204 120.469C26.9401 118.099 25.2224 114.796 20.1264 111.802C18.8674 111.049 17.0872 113.667 17.7861 115.303Z" fill="#FEDC19" fill-opacity="0.16"/>
<path d="M24.7834 103.189C28.1148 99.6204 29.7227 97.3111 29.2583 96.7247C28.6585 95.9673 25.7146 98.7594 21.8599 103.656C17.7534 108.958 19.7088 108.625 24.7834 103.189Z" fill="#FEDC19" fill-opacity="0.16"/>
<path d="M6.80751 101.553C6.04776 102.838 12.5178 110.388 13.7369 109.685C17.0742 107.732 17.4549 105.497 14.9784 103.106C9.72594 98.2254 8.90685 98.03 6.80751 101.553Z" fill="#FEDC19" fill-opacity="0.16"/>
<path d="M7.00322 119.454C4.5628 122.429 4.0397 123.305 4.44599 123.818C5.08445 124.624 12.9861 116.522 14.2068 113.814C15.6601 110.587 11.8066 113.586 7.00322 119.454Z" fill="#FEDC19" fill-opacity="0.16"/>
<path d="M82.5087 98.5529C83.1865 97.7305 83.4658 96.7767 83.1074 96.3222C80.9571 93.1282 79.5635 90.9872 77.2308 94.85C76.7921 95.6018 78.146 97.599 80.1377 99.0968C81.3127 99.9328 81.3725 99.9152 82.5087 98.5529Z" fill="#FEDC19" fill-opacity="0.16"/>
<path d="M86.4513 96.5576C85.5017 98.1621 86.0822 98.6239 87.5352 97.3837C88.8331 96.3095 93.0767 90.9961 93.6969 89.6993C94.8018 87.2959 88.2924 93.456 86.4513 96.5576Z" fill="#FEDC19" fill-opacity="0.16"/>
<path d="M81.2256 102.085C79.75 103.123 79.4781 103.415 77.7882 105.905C75.2437 109.674 77.088 109.102 80.3119 105.103C82.5648 102.326 82.9925 100.871 81.2256 102.085Z" fill="#FEDC19" fill-opacity="0.16"/>
<path d="M67.6685 93.9452C67.8286 91.8169 66.457 90.8237 64.4085 91.49C59.3172 93.1469 53.1925 93.2139 48.3612 91.657C45.6373 90.8142 36.234 85.7915 35.4192 84.7583C34.3857 83.448 31.601 85.2321 30.884 87.6799C30.7247 88.2239 31.0224 89.5339 31.5987 90.5442C34.3404 95.7924 38.1318 110.297 38.1691 115.846C38.1878 118.574 36.9332 122.578 34.9829 125.98C33.3113 128.896 33.3908 128.996 37.2093 127.591C44.8067 124.822 53.2571 126.399 63.1173 132.467C71.9637 137.902 74.2339 130.617 72.4647 129.493C68.9658 127.387 66.4083 110.437 67.4886 96.1414L67.6685 93.9452ZM61.7607 98.3899C60.3654 105.666 60.043 115.048 61.0147 120.942L61.4907 123.691L59.6817 122.609C47.2966 115.391 39.4983 122.754 38.3249 123.131C38.7432 121.61 44.1771 109.943 42.1141 98.7488C41.4992 95.3582 41.3002 95.5721 44.0042 96.483C49.1139 98.2062 54.443 98.3428 59.3751 96.9503L62.1992 96.1484L61.7607 98.3899Z" fill="#FEDC19" fill-opacity="0.16"/>
</svg>
