<svg width="50" height="56" viewBox="0 0 50 56" fill="none" xmlns="http://www.w3.org/2000/svg">
<path d="M34.1912 15.7846L48.8186 1.15716C49.1537 0.821501 49.7275 1.0591 49.7275 1.53374V9.55099C49.7275 9.94549 49.5706 10.3237 49.2921 10.6028L38.2729 21.622C38.2729 21.622 33.9278 16.048 34.1912 15.7846Z" fill="url(#paint0_linear_496_1183)" stroke="#8B9FBE" stroke-width="0.45351" stroke-miterlimit="10"/>
<path d="M34.1912 27.6051L48.8186 12.9777C49.1537 12.6426 49.7275 12.8797 49.7275 13.3543V21.3715C49.7275 21.766 49.5706 22.1443 49.2921 22.4234L38.2729 33.4425C38.2729 33.4425 33.9278 27.8685 34.1912 27.6051Z" fill="url(#paint1_linear_496_1183)" stroke="#8B9FBE" stroke-width="0.45351" stroke-miterlimit="10"/>
<path d="M16.5363 15.7846L1.90892 1.15716C1.57326 0.821501 1 1.0591 1 1.53374V9.55099C1 9.94549 1.1569 10.3237 1.43541 10.6028L12.4546 21.622C12.4546 21.622 16.7997 16.048 16.5363 15.7846Z" fill="url(#paint2_linear_496_1183)" stroke="#8B9FBE" stroke-width="0.45351" stroke-miterlimit="10"/>
<path d="M16.5363 27.6051L1.90892 12.9777C1.57326 12.6426 1 12.8797 1 13.3543V21.3715C1 21.766 1.1569 22.1443 1.43541 22.4234L12.4546 33.4425C12.4546 33.4425 16.7997 27.8685 16.5363 27.6051Z" fill="url(#paint3_linear_496_1183)" stroke="#8B9FBE" stroke-width="0.45351" stroke-miterlimit="10"/>
<path d="M25.3643 55.2181C24.1421 55.2181 22.9362 54.8953 21.8782 54.2839L8.96948 46.831C6.81933 45.5892 5.4834 43.2754 5.4834 40.7924V25.887C5.4834 23.404 6.81933 21.0897 8.96948 19.8485L21.8782 12.3955C22.9368 11.7847 24.1421 11.4619 25.3643 11.4619C26.587 11.4619 27.7924 11.7847 28.8504 12.3955L41.7591 19.8485C43.9093 21.0902 45.2452 23.404 45.2452 25.887V40.7924C45.2452 43.2754 43.9093 45.5886 41.7591 46.831L28.8504 54.2839C27.7924 54.8948 26.5865 55.2181 25.3643 55.2181Z" fill="url(#paint4_linear_496_1183)"/>
<path d="M25.3647 54.765C24.2221 54.765 23.0946 54.463 22.105 53.8914L9.19621 46.439C7.18559 45.2785 5.93652 43.1149 5.93652 40.7932V25.8873C5.93652 23.5651 7.18559 21.4021 9.19621 20.2415L22.105 12.7886C23.0946 12.217 24.2215 11.9155 25.3647 11.9155C26.5073 11.9155 27.6347 12.2176 28.6243 12.7886L41.5325 20.2415C43.5432 21.4021 44.7922 23.5657 44.7922 25.8873V40.7927C44.7922 43.1143 43.5432 45.2773 41.5325 46.4384L28.6243 53.8908C27.6347 54.4624 26.5073 54.765 25.3647 54.765Z" fill="#B7493D"/>
<path d="M6.52148 25.5893V41.0898C6.52148 43.0259 7.55425 44.8146 9.23089 45.7829L22.6546 53.5329C24.3313 54.5006 26.3968 54.5006 28.0734 53.5329L41.4972 45.7829C43.1738 44.8152 44.2066 43.0259 44.2066 41.0898V25.5893C44.2066 23.6532 43.1738 21.8645 41.4972 20.8962L28.0734 13.1462C26.3968 12.1785 24.3313 12.1785 22.6546 13.1462L9.23089 20.8962C7.55425 21.8645 6.52148 23.6532 6.52148 25.5893Z" fill="url(#paint5_linear_496_1183)"/>
<path d="M12.7246 28.141V38.5387C12.7246 39.8371 13.4172 41.0374 14.5419 41.6869L23.5465 46.886C24.6712 47.5355 26.057 47.5355 27.1817 46.886L36.1863 41.6869C37.311 41.0374 38.0036 39.8377 38.0036 38.5387V28.141C38.0036 26.842 37.311 25.6423 36.1863 24.9928L27.1817 19.7942C26.057 19.1448 24.6712 19.1448 23.5465 19.7942L14.5419 24.9928C13.4172 25.6423 12.7246 26.8426 12.7246 28.141Z" fill="#B7493D"/>
<path d="M13.5439 28.7123V38.4364C13.5439 39.6507 14.1917 40.7732 15.2436 41.3806L23.6648 46.2424C24.7167 46.8499 26.0122 46.8499 27.0641 46.2424L35.4854 41.3806C36.5372 40.7732 37.185 39.6513 37.185 38.4364V28.7123C37.185 27.4979 36.5372 26.3755 35.4854 25.7681L27.0641 20.9063C26.0122 20.2988 24.7167 20.2988 23.6648 20.9063L15.2436 25.7681C14.1917 26.3755 13.5439 27.4979 13.5439 28.7123Z" fill="url(#paint6_linear_496_1183)"/>
<path opacity="0.29" d="M6.52148 28.2459C11.0773 33.5476 17.8259 36.9098 25.364 36.9098C32.9022 36.9098 39.6507 33.5476 44.2066 28.2459V25.5897C44.2066 23.6536 43.1738 21.8649 41.4972 20.8966L28.0734 13.1467C26.3968 12.1783 24.3313 12.1783 22.6546 13.1467L9.23089 20.8966C7.55425 21.8644 6.52148 23.6536 6.52148 25.5897V28.2459Z" fill="url(#paint7_linear_496_1183)"/>
<path d="M29.9317 40.5605H21.1883V37.7627H24.301V33.1287L21.1883 33.3385V30.5406L25.2103 29.6313H27.9732V37.7627H29.9317V40.5605Z" fill="#282844"/>
<path d="M29.9317 40.5605V40.7351C30.0281 40.7351 30.1062 40.6569 30.1062 40.5605H29.9317ZM21.1883 40.5605H21.0138C21.0138 40.6569 21.0919 40.7351 21.1883 40.7351V40.5605ZM21.1883 37.7627V37.5881C21.0919 37.5881 21.0138 37.6663 21.0138 37.7627H21.1883ZM24.301 37.7627V37.9372C24.3973 37.9372 24.4755 37.8591 24.4755 37.7627H24.301ZM24.301 33.1287H24.4755C24.4755 33.0803 24.4554 33.0342 24.4201 33.0012C24.3848 32.9682 24.3374 32.9513 24.2892 32.9545L24.301 33.1287ZM21.1883 33.3385H21.0138C21.0138 33.3868 21.0338 33.433 21.0691 33.466C21.1044 33.499 21.1518 33.5159 21.2 33.5126L21.1883 33.3385ZM21.1883 30.5406L21.1498 30.3704C21.0703 30.3884 21.0138 30.4591 21.0138 30.5406H21.1883ZM25.2103 29.6313V29.4568C25.1973 29.4568 25.1844 29.4582 25.1718 29.4611L25.2103 29.6313ZM27.9732 29.6313H28.1477C28.1477 29.5349 28.0696 29.4568 27.9732 29.4568V29.6313ZM27.9732 37.7627H27.7986C27.7986 37.8591 27.8768 37.9372 27.9732 37.9372V37.7627ZM29.9317 37.7627H30.1062C30.1062 37.6663 30.0281 37.5881 29.9317 37.5881V37.7627ZM29.9317 40.5605V40.386H21.1883V40.5605V40.7351H29.9317V40.5605ZM21.1883 40.5605H21.3628V37.7627H21.1883H21.0138V40.5605H21.1883ZM21.1883 37.7627V37.9372H24.301V37.7627V37.5881H21.1883V37.7627ZM24.301 37.7627H24.4755V33.1287H24.301H24.1264V37.7627H24.301ZM24.301 33.1287L24.2892 32.9545L21.1766 33.1644L21.1883 33.3385L21.2 33.5126L24.3127 33.3028L24.301 33.1287ZM21.1883 33.3385H21.3628V30.5406H21.1883H21.0138V33.3385H21.1883ZM21.1883 30.5406L21.2268 30.7109L25.2488 29.8015L25.2103 29.6313L25.1718 29.4611L21.1498 30.3704L21.1883 30.5406ZM25.2103 29.6313V29.8058H27.9732V29.6313V29.4568H25.2103V29.6313ZM27.9732 29.6313H27.7986V37.7627H27.9732H28.1477V29.6313H27.9732ZM27.9732 37.7627V37.9372H29.9317V37.7627V37.5881H27.9732V37.7627ZM29.9317 37.7627H29.7572V40.5605H29.9317H30.1062V37.7627H29.9317Z" fill="#282844"/>
<path d="M29.9317 39.9751H21.1883V37.1772H24.301V32.5432L21.1883 32.7531V29.9552L25.2103 29.0459H27.9732V37.1772H29.9317V39.9751Z" fill="#F7FFEC"/>
<path d="M29.9317 39.9751V40.1496C30.0281 40.1496 30.1062 40.0715 30.1062 39.9751H29.9317ZM21.1883 39.9751H21.0138C21.0138 40.0715 21.0919 40.1496 21.1883 40.1496V39.9751ZM21.1883 37.1772V37.0027C21.0919 37.0027 21.0138 37.0808 21.0138 37.1772H21.1883ZM24.301 37.1772V37.3517C24.3973 37.3517 24.4755 37.2736 24.4755 37.1772H24.301ZM24.301 32.5432H24.4755C24.4755 32.4949 24.4554 32.4487 24.4201 32.4157C24.3848 32.3827 24.3374 32.3658 24.2892 32.3691L24.301 32.5432ZM21.1883 32.7531H21.0138C21.0138 32.8014 21.0338 32.8475 21.0691 32.8806C21.1044 32.9136 21.1518 32.9304 21.2 32.9272L21.1883 32.7531ZM21.1883 29.9552L21.1498 29.7849C21.0703 29.8029 21.0138 29.8736 21.0138 29.9552H21.1883ZM25.2103 29.0459V28.8713C25.1973 28.8713 25.1844 28.8728 25.1718 28.8756L25.2103 29.0459ZM27.9732 29.0459H28.1477C28.1477 28.9495 28.0696 28.8713 27.9732 28.8713V29.0459ZM27.9732 37.1772H27.7986C27.7986 37.2736 27.8768 37.3517 27.9732 37.3517V37.1772ZM29.9317 37.1772H30.1062C30.1062 37.0808 30.0281 37.0027 29.9317 37.0027V37.1772ZM29.9317 39.9751V39.8006H21.1883V39.9751V40.1496H29.9317V39.9751ZM21.1883 39.9751H21.3628V37.1772H21.1883H21.0138V39.9751H21.1883ZM21.1883 37.1772V37.3517H24.301V37.1772V37.0027H21.1883V37.1772ZM24.301 37.1772H24.4755V32.5432H24.301H24.1264V37.1772H24.301ZM24.301 32.5432L24.2892 32.3691L21.1766 32.5789L21.1883 32.7531L21.2 32.9272L24.3127 32.7174L24.301 32.5432ZM21.1883 32.7531H21.3628V29.9552H21.1883H21.0138V32.7531H21.1883ZM21.1883 29.9552L21.2268 30.1254L25.2488 29.2161L25.2103 29.0459L25.1718 28.8756L21.1498 29.7849L21.1883 29.9552ZM25.2103 29.0459V29.2204H27.9732V29.0459V28.8713H25.2103V29.0459ZM27.9732 29.0459H27.7986V37.1772H27.9732H28.1477V29.0459H27.9732ZM27.9732 37.1772V37.3517H29.9317V37.1772V37.0027H27.9732V37.1772ZM29.9317 37.1772H29.7572V39.9751H29.9317H30.1062V37.1772H29.9317Z" fill="#282844"/>
<defs>
<linearGradient id="paint0_linear_496_1183" x1="41.7964" y1="22.2889" x2="42.1643" y2="-0.156349" gradientUnits="userSpaceOnUse">
<stop stop-color="#B2F1E8"/>
<stop offset="1" stop-color="#F7FFEC"/>
</linearGradient>
<linearGradient id="paint1_linear_496_1183" x1="41.7964" y1="34.1095" x2="42.1643" y2="11.6642" gradientUnits="userSpaceOnUse">
<stop stop-color="#B2F1E8"/>
<stop offset="1" stop-color="#F7FFEC"/>
</linearGradient>
<linearGradient id="paint2_linear_496_1183" x1="8.93147" y1="22.2889" x2="8.56352" y2="-0.156349" gradientUnits="userSpaceOnUse">
<stop stop-color="#B2F1E8"/>
<stop offset="1" stop-color="#F7FFEC"/>
</linearGradient>
<linearGradient id="paint3_linear_496_1183" x1="8.93147" y1="34.1095" x2="8.56352" y2="11.6642" gradientUnits="userSpaceOnUse">
<stop stop-color="#B2F1E8"/>
<stop offset="1" stop-color="#F7FFEC"/>
</linearGradient>
<linearGradient id="paint4_linear_496_1183" x1="5.48301" y1="33.3399" x2="45.2454" y2="33.3399" gradientUnits="userSpaceOnUse">
<stop stop-color="#FA6B49"/>
<stop offset="1" stop-color="#FEB749"/>
</linearGradient>
<linearGradient id="paint5_linear_496_1183" x1="25.3639" y1="54.2589" x2="25.3639" y2="12.4205" gradientUnits="userSpaceOnUse">
<stop stop-color="#FA6B49"/>
<stop offset="1" stop-color="#FEB749"/>
</linearGradient>
<linearGradient id="paint6_linear_496_1183" x1="25.0774" y1="14.8531" x2="25.5804" y2="47.6739" gradientUnits="userSpaceOnUse">
<stop stop-color="#FDC249"/>
<stop offset="1" stop-color="#FEEA49"/>
</linearGradient>
<linearGradient id="paint7_linear_496_1183" x1="6.52132" y1="24.6653" x2="44.2065" y2="24.6653" gradientUnits="userSpaceOnUse">
<stop stop-color="#BDF8C7"/>
<stop offset="1" stop-color="#D9FFDE"/>
</linearGradient>
</defs>
</svg>
