<svg width="32" height="32" viewBox="0 0 32 32" fill="none" xmlns="http://www.w3.org/2000/svg">
<path d="M29 19.0253C28.9987 16.372 25.6227 14.328 21 14.0693V7.98665C20.9987 4.54265 16.48 3 12 3C7.52 3 3.00133 4.54132 3 7.98665V22.68C3 26.124 7.52 27.6667 12 27.6667C12.4627 27.6667 12.9373 27.624 13.4093 27.5773C15.1347 28.5413 17.5707 29 20 29C24.4787 29 29 27.4573 29 24.0133V19.0253C29 19.0266 29 19.0266 29 19.0253ZM27 19.028C27 20.4387 24.0067 22.016 20 22.016C15.9933 22.016 13 20.4387 13 19.028C13 18.5107 13.4094 17.972 14.1174 17.496C14.1414 17.4827 14.16 17.464 14.1827 17.4493C15.4147 16.6493 17.5107 16.04 20 16.04C24.0067 16.04 27 17.6173 27 19.028ZM19 12.7067C19 13.308 18.472 13.8106 17.9693 14.1613C16.1147 14.3813 14.5133 14.9 13.312 15.6307C12.8853 15.6667 12.456 15.6934 12.0013 15.6934C8.23064 15.6934 5.0013 14.0507 5.0013 12.7067V11.304C6.73597 12.44 9.37197 12.976 12.0013 12.976C14.6306 12.976 17.2666 12.44 19.0013 11.304V12.7067H19ZM5 15.7987C6.604 16.884 8.96535 17.5626 11.3187 17.6746C11.116 18.1026 11 18.5534 11 19.0267C11 19.0267 11 19.0267 11 19.028V20.6387C7.67733 20.384 5 18.9187 5 17.6947V15.7987ZM12 5C15.4413 5 19 6.11737 19 7.98804C19 9.92937 15.3933 10.976 12 10.976C8.60667 10.976 5 9.92937 5 7.98804C5 6.11737 8.55867 5 12 5ZM5 22.68V20.7853C6.532 21.8213 8.752 22.4867 11 22.6414V24.0133C11 24.62 11.1467 25.164 11.4027 25.6547C8.15867 25.5334 5 24.4413 5 22.68ZM20 27C17.8413 27 15.6373 26.56 14.2947 25.7707C13.496 25.3013 13.0013 24.7093 13.0013 24.0133V22.2347C14.6253 23.336 17.1133 24.016 20.0013 24.016C22.8893 24.016 25.3773 23.336 27.0013 22.2347V24.0133C27 25.8827 23.4413 27 20 27Z" fill="#4D4D4D"/>
</svg>
