<svg width="32" height="32" viewBox="0 0 32 32" fill="none" xmlns="http://www.w3.org/2000/svg">
<path d="M22.2672 26.3073H9.7339C8.74723 26.3073 7.74723 25.6006 7.4139 24.6806L1.8939 9.22729C1.2139 7.28063 1.70723 6.38729 2.24056 5.98729C2.7739 5.58729 3.7739 5.34729 5.4539 6.54729L10.6539 10.2673C10.8139 10.3606 10.9606 10.4006 11.0672 10.374C11.1872 10.334 11.2806 10.2273 11.3472 10.0406L13.6939 3.78729C14.4006 1.92062 15.4406 1.64062 16.0006 1.64062C16.5606 1.64062 17.6006 1.92062 18.3072 3.78729L20.6539 10.0406C20.7206 10.214 20.8139 10.334 20.9339 10.374C21.0539 10.414 21.2006 10.374 21.3472 10.254L26.2272 6.77396C28.0139 5.49396 29.0539 5.74729 29.6272 6.16062C30.1872 6.58729 30.7072 7.53396 29.9739 9.60063L24.5872 24.6806C24.2539 25.6006 23.2539 26.3073 22.2672 26.3073ZM3.5739 7.74729C3.60056 7.93396 3.6539 8.20062 3.78723 8.54729L9.30723 24.0006C9.36056 24.134 9.60056 24.3073 9.7339 24.3073H22.2672C22.4139 24.3073 22.6539 24.134 22.6939 24.0006L28.0806 8.93396C28.2672 8.42729 28.3206 8.08063 28.3339 7.88062C28.1339 7.94729 27.8272 8.09396 27.3872 8.41396L22.5072 11.894C21.8406 12.3606 21.0539 12.5073 20.3472 12.294C19.6406 12.0806 19.0672 11.5206 18.7739 10.7606L16.4272 4.50729C16.2539 4.04063 16.0939 3.81396 16.0006 3.70729C15.9072 3.81396 15.7472 4.04062 15.5739 4.49396L13.2272 10.7473C12.9472 11.5073 12.3739 12.0673 11.6539 12.2806C10.9472 12.494 10.1472 12.3473 9.4939 11.8806L4.2939 8.16062C3.98723 7.94729 3.74723 7.81396 3.5739 7.74729Z" fill="#4D4D4D"/>
<path d="M23.3327 30.334H8.66602C8.11935 30.334 7.66602 29.8807 7.66602 29.334C7.66602 28.7873 8.11935 28.334 8.66602 28.334H23.3327C23.8794 28.334 24.3327 28.7873 24.3327 29.334C24.3327 29.8807 23.8794 30.334 23.3327 30.334Z" fill="#4D4D4D"/>
<path d="M19.3327 19.666H12.666C12.1193 19.666 11.666 19.2127 11.666 18.666C11.666 18.1193 12.1193 17.666 12.666 17.666H19.3327C19.8793 17.666 20.3327 18.1193 20.3327 18.666C20.3327 19.2127 19.8793 19.666 19.3327 19.666Z" fill="#4D4D4D"/>
</svg>
