<svg width="41" height="40" viewBox="0 0 41 40" fill="none" xmlns="http://www.w3.org/2000/svg">
<path opacity="0.4" d="M27.483 3.33398H13.5163C7.44967 3.33398 3.83301 6.95065 3.83301 13.0173V26.9673C3.83301 33.0507 7.44967 36.6673 13.5163 36.6673H27.4663C33.533 36.6673 37.1497 33.0507 37.1497 26.984V13.0173C37.1663 6.95065 33.5497 3.33398 27.483 3.33398Z" fill="#BD5300"/>
<path d="M15.2001 16.2497C13.7834 16.2497 12.3667 15.7164 11.2834 14.6331C10.8001 14.1497 10.8001 13.3497 11.2834 12.8664C11.7667 12.3831 12.5667 12.3831 13.0501 12.8664C14.2334 14.0497 16.1667 14.0497 17.3501 12.8664C17.8334 12.3831 18.6334 12.3831 19.1167 12.8664C19.6001 13.3497 19.6001 14.1497 19.1167 14.6331C18.0334 15.6997 16.6167 16.2497 15.2001 16.2497Z" fill="#BD5300"/>
<path d="M25.7997 16.2497C24.383 16.2497 22.9663 15.7164 21.883 14.6331C21.3997 14.1497 21.3997 13.3497 21.883 12.8664C22.3663 12.3831 23.1663 12.3831 23.6497 12.8664C24.833 14.0497 26.7663 14.0497 27.9497 12.8664C28.433 12.3831 29.233 12.3831 29.7163 12.8664C30.1997 13.3497 30.1997 14.1497 29.7163 14.6331C28.633 15.6997 27.2163 16.2497 25.7997 16.2497Z" fill="#BD5300"/>
<path d="M26.5005 21.0332H14.5005C13.3338 21.0332 12.3838 21.9832 12.3838 23.1665C12.3838 27.6499 16.0338 31.2999 20.5171 31.2999C25.0005 31.2999 28.6505 27.6499 28.6505 23.1665C28.6338 21.9999 27.6671 21.0332 26.5005 21.0332Z" fill="#BD5300"/>
</svg>
