<svg width="65" height="64" viewBox="0 0 65 64" fill="none" xmlns="http://www.w3.org/2000/svg">
<circle cx="32.5" cy="32" r="32" fill="white" fill-opacity="0.5"/>
<path opacity="0.4" d="M39.483 15.334H25.5163C19.4497 15.334 15.833 18.9507 15.833 25.0173V38.9673C15.833 45.0507 19.4497 48.6673 25.5163 48.6673H39.4663C45.533 48.6673 49.1497 45.0507 49.1497 38.984V25.0173C49.1663 18.9507 45.5497 15.334 39.483 15.334Z" fill="#BD5300"/>
<path d="M27.2001 28.2497C25.7834 28.2497 24.3667 27.7164 23.2834 26.6331C22.8001 26.1497 22.8001 25.3497 23.2834 24.8664C23.7667 24.3831 24.5667 24.3831 25.0501 24.8664C26.2334 26.0497 28.1667 26.0497 29.3501 24.8664C29.8334 24.3831 30.6334 24.3831 31.1167 24.8664C31.6001 25.3497 31.6001 26.1497 31.1167 26.6331C30.0334 27.6997 28.6167 28.2497 27.2001 28.2497Z" fill="#BD5300"/>
<path d="M37.7997 28.2497C36.383 28.2497 34.9663 27.7164 33.883 26.6331C33.3997 26.1497 33.3997 25.3497 33.883 24.8664C34.3663 24.3831 35.1663 24.3831 35.6497 24.8664C36.833 26.0497 38.7663 26.0497 39.9497 24.8664C40.433 24.3831 41.233 24.3831 41.7163 24.8664C42.1997 25.3497 42.1997 26.1497 41.7163 26.6331C40.633 27.6997 39.2163 28.2497 37.7997 28.2497Z" fill="#BD5300"/>
<path d="M38.5005 33.0332H26.5005C25.3338 33.0332 24.3838 33.9832 24.3838 35.1665C24.3838 39.6499 28.0338 43.2999 32.5171 43.2999C37.0005 43.2999 40.6505 39.6499 40.6505 35.1665C40.6338 33.9999 39.6671 33.0332 38.5005 33.0332Z" fill="#BD5300"/>
</svg>
