<svg width="32" height="32" viewBox="0 0 32 32" fill="none" xmlns="http://www.w3.org/2000/svg">
<rect width="32" height="32" rx="16" fill="#B70101"/>
<path d="M7.9889 18.6604L6.46891 17.1404C5.84891 16.5204 5.84891 15.5004 6.46891 14.8804L7.9889 13.3604C8.2489 13.1004 8.4589 12.5904 8.4589 12.2304V10.0804C8.4589 9.20036 9.1789 8.48038 10.0589 8.48038H12.2089C12.5689 8.48038 13.0789 8.27041 13.3389 8.01041L14.8589 6.49039C15.4789 5.87039 16.4989 5.87039 17.1189 6.49039L18.6389 8.01041C18.8989 8.27041 19.4089 8.48038 19.7689 8.48038H21.9189C22.7989 8.48038 23.5189 9.20036 23.5189 10.0804V12.2304C23.5189 12.5904 23.7289 13.1004 23.9889 13.3604L25.5089 14.8804C26.1289 15.5004 26.1289 16.5204 25.5089 17.1404L23.9889 18.6604C23.7289 18.9204 23.5189 19.4304 23.5189 19.7904V21.9403C23.5189 22.8203 22.7989 23.5404 21.9189 23.5404H19.7689C19.4089 23.5404 18.8989 23.7504 18.6389 24.0104L17.1189 25.5304C16.4989 26.1504 15.4789 26.1504 14.8589 25.5304L13.3389 24.0104C13.0789 23.7504 12.5689 23.5404 12.2089 23.5404H10.0589C9.1789 23.5404 8.4589 22.8203 8.4589 21.9403V19.7904C8.4589 19.4204 8.2489 18.9104 7.9889 18.6604Z" stroke="white" stroke-width="1.5" stroke-linecap="round" stroke-linejoin="round"/>
<path d="M13 19L19 13" stroke="white" stroke-width="1.5" stroke-linecap="round" stroke-linejoin="round"/>
<path d="M18.4945 18.5H18.5035" stroke="white" stroke-width="2" stroke-linecap="round" stroke-linejoin="round"/>
<path d="M13.4945 13.5H13.5035" stroke="white" stroke-width="2" stroke-linecap="round" stroke-linejoin="round"/>
</svg>
