<svg width="32" height="32" viewBox="0 0 32 32" fill="none" xmlns="http://www.w3.org/2000/svg">
<path opacity="0.4" d="M25.3327 11.9993C25.3327 13.9327 24.7593 15.706 23.7727 17.186C22.3327 19.3194 20.0527 20.826 17.3993 21.2127C16.946 21.2927 16.4793 21.3327 15.9993 21.3327C15.5193 21.3327 15.0527 21.2927 14.5993 21.2127C11.946 20.826 9.66602 19.3194 8.22602 17.186C7.23935 15.706 6.66602 13.9327 6.66602 11.9993C6.66602 6.83935 10.8393 2.66602 15.9993 2.66602C21.1593 2.66602 25.3327 6.83935 25.3327 11.9993Z" fill="#BD5300"/>
<path d="M28.3328 24.6259L26.1328 25.1459C25.6395 25.2659 25.2528 25.6392 25.1461 26.1326L24.6795 28.0926C24.4261 29.1592 23.0661 29.4792 22.3595 28.6392L15.9995 21.3326L9.63945 28.6525C8.93279 29.4925 7.57279 29.1725 7.31945 28.1059L6.85279 26.1459C6.73279 25.6525 6.34612 25.2659 5.86612 25.1592L3.66612 24.6392C2.65279 24.3992 2.29279 23.1325 3.02612 22.3992L8.22612 17.1992C9.66612 19.3326 11.9461 20.8392 14.5995 21.2259C15.0528 21.3059 15.5195 21.3459 15.9995 21.3459C16.4795 21.3459 16.9461 21.3059 17.3995 21.2259C20.0528 20.8392 22.3328 19.3326 23.7728 17.1992L28.9728 22.3992C29.7061 23.1192 29.3461 24.3859 28.3328 24.6259Z" fill="#BD5300"/>
<path d="M16.7726 7.97398L17.5593 9.54731C17.666 9.76064 17.946 9.97398 18.1993 10.014L19.626 10.254C20.5326 10.4006 20.746 11.0673 20.0926 11.7206L18.986 12.8273C18.7993 13.014 18.6926 13.374 18.7593 13.6407L19.0793 15.014C19.3326 16.094 18.7593 16.5206 17.7993 15.9473L16.466 15.1606C16.226 15.014 15.826 15.014 15.586 15.1606L14.2526 15.9473C13.2926 16.5073 12.7193 16.094 12.9726 15.014L13.2926 13.6407C13.346 13.3873 13.2526 13.014 13.066 12.8273L11.9593 11.7206C11.306 11.0673 11.5193 10.414 12.426 10.254L13.8526 10.014C14.0926 9.97398 14.3726 9.76064 14.4793 9.54731L15.266 7.97398C15.6526 7.12065 16.346 7.12065 16.7726 7.97398Z" fill="#BD5300"/>
</svg>
