<svg width="32" height="32" viewBox="0 0 32 32" fill="none" xmlns="http://www.w3.org/2000/svg">
<path d="M24 3H8C4.776 3 3 4.776 3 8V28C3 28.404 3.24385 28.7693 3.61719 28.924C3.74119 28.976 3.87067 29 4 29C4.26 29 4.51604 28.8987 4.70671 28.7067L8.41341 25H24C27.224 25 29 23.224 29 20V8C29 4.776 27.224 3 24 3ZM27 20C27 22.1027 26.1027 23 24 23H8C7.73467 23 7.47996 23.1053 7.29329 23.2933L5 25.5866V8C5 5.89733 5.89733 5 8 5H24C26.1027 5 27 5.89733 27 8V20ZM20.972 9.79606C20.6947 9.33073 20.1 9.17073 19.624 9.43473L19.4466 9.53337C19.1839 9.68137 18.8532 9.6827 18.5892 9.53337C18.3385 9.39337 18.1839 9.13737 18.1839 8.8667C18.1839 8.20537 17.6438 7.66797 16.9785 7.66797H14.9466C14.2813 7.66797 13.7412 8.20537 13.7412 8.8667C13.7412 9.13737 13.5866 9.39337 13.3372 9.53337C13.0719 9.68137 12.7425 9.6827 12.4785 9.53337C11.9105 9.21737 11.1852 9.41067 10.8532 9.96533L9.83464 11.6746C9.67064 11.9493 9.62407 12.2839 9.7054 12.5933C9.78674 12.9026 9.99601 13.1706 10.2773 13.328C10.528 13.468 10.6839 13.7241 10.6839 13.9974C10.6853 14.2707 10.5307 14.5266 10.2773 14.6693C9.99734 14.8266 9.7894 15.0946 9.7054 15.4053C9.62274 15.7146 9.67067 16.0479 9.83333 16.3226L10.8548 18.0347C11.1908 18.5973 11.9015 18.788 12.4801 18.4653C12.7428 18.3173 13.0706 18.3173 13.3372 18.4666C13.5866 18.6066 13.7399 18.8613 13.7399 19.1333C13.7399 19.7946 14.28 20.332 14.944 20.332H16.9801C17.6441 20.332 18.1839 19.7946 18.1839 19.1333C18.1839 18.8613 18.3386 18.6066 18.5879 18.4666C18.8532 18.3173 19.1826 18.3173 19.4466 18.4666C20.0146 18.7826 20.7399 18.5893 21.0719 18.0347L22.0973 16.3146C22.26 16.0373 22.3027 15.7133 22.2201 15.4027C22.1361 15.092 21.9348 14.8321 21.6481 14.6707C21.3974 14.5307 21.2425 14.2746 21.2425 14.0013C21.2425 13.728 21.3972 13.4707 21.6452 13.332L21.8226 13.2334C22.0586 13.1014 22.2308 12.88 22.3001 12.62C22.3708 12.3586 22.3307 12.0813 22.1934 11.8493L20.972 9.79606ZM20.012 15.9053L19.696 16.436C18.996 16.268 18.2441 16.364 17.6081 16.724C16.9734 17.0813 16.5133 17.6627 16.3066 18.3333H15.6201C15.4148 17.664 14.9547 17.0826 14.3187 16.724C13.6814 16.364 12.9308 16.2667 12.2308 16.436L11.9147 15.9053C12.4054 15.3946 12.6879 14.7107 12.6852 13.992C12.6839 13.28 12.4014 12.6027 11.9147 12.0947L12.2308 11.564C12.9295 11.7306 13.6813 11.6347 14.32 11.276C14.9533 10.9174 15.4135 10.336 15.6201 9.66667H16.3066C16.512 10.336 16.9734 10.9174 17.6081 11.276C18.2467 11.636 18.9986 11.7306 19.696 11.564L20.012 12.0947C19.524 12.6054 19.2412 13.2866 19.2425 14.0026C19.2425 14.7173 19.5254 15.3973 20.012 15.9053ZM17.36 14C17.36 14.736 16.764 15.3333 16.0267 15.3333C15.2907 15.3333 14.6865 14.736 14.6865 14C14.6865 13.264 15.2773 12.6667 16.0133 12.6667H16.0267C16.7627 12.6667 17.36 13.264 17.36 14Z" fill="#4D4D4D"/>
</svg>
