<svg width="49" height="48" viewBox="0 0 49 48" fill="none" xmlns="http://www.w3.org/2000/svg">
<path opacity="0.4" d="M34.5 36.8594H26.5L17.6 42.7794C16.28 43.6594 14.5 42.7194 14.5 41.1194V36.8594C8.5 36.8594 4.5 32.8594 4.5 26.8594V14.8594C4.5 8.85938 8.5 4.85938 14.5 4.85938H34.5C40.5 4.85938 44.5 8.85938 44.5 14.8594V26.8594C44.5 32.8594 40.5 36.8594 34.5 36.8594Z" fill="#CC6D14"/>
<path d="M24.5 29.1992C23.66 29.1992 23 28.5192 23 27.6992C23 26.8792 23.68 26.1992 24.5 26.1992C25.32 26.1992 26 26.8792 26 27.6992C26 28.5192 25.34 29.1992 24.5 29.1992Z" fill="#CC6D14"/>
<path d="M24.4996 24.2207C23.6796 24.2207 22.9996 23.5407 22.9996 22.7207V22.3008C22.9996 19.9808 24.6996 18.8408 25.3396 18.4008C26.0796 17.9008 26.3196 17.5608 26.3196 17.0408C26.3196 16.0408 25.4996 15.2207 24.4996 15.2207C23.4996 15.2207 22.6797 16.0408 22.6797 17.0408C22.6797 17.8608 21.9997 18.5408 21.1797 18.5408C20.3597 18.5408 19.6797 17.8608 19.6797 17.0408C19.6797 14.3808 21.8396 12.2207 24.4996 12.2207C27.1596 12.2207 29.3196 14.3808 29.3196 17.0408C29.3196 19.3208 27.6397 20.4607 27.0197 20.8807C26.2397 21.4007 25.9996 21.7408 25.9996 22.3008V22.7207C25.9996 23.5607 25.3196 24.2207 24.4996 24.2207Z" fill="#CC6D14"/>
</svg>
