<svg width="24" height="24" viewBox="0 0 24 24" fill="none" xmlns="http://www.w3.org/2000/svg">
<path d="M20.9271 3.07245C20.2251 2.37045 19.231 2.09445 18.265 2.33545L5.15221 5.61346C3.40421 6.05046 2.23808 7.55444 2.25108 9.35644C2.26408 11.1584 3.45021 12.6454 5.20421 13.0584L9.85021 14.1515L10.9432 18.7964C11.3562 20.5504 12.8431 21.7364 14.6451 21.7494C14.6541 21.7494 14.6642 21.7494 14.6732 21.7494C16.4622 21.7494 17.9521 20.5864 18.3871 18.8484L21.6651 5.73544C21.9051 4.77044 21.6301 3.77545 20.9271 3.07245ZM20.2091 5.37146L16.931 18.4844C16.602 19.7974 15.5412 20.2574 14.6542 20.2494C13.8092 20.2434 12.7132 19.7695 12.4032 18.4535L11.2992 13.7624L15.5301 9.53045C15.8231 9.23745 15.8231 8.76245 15.5301 8.46945C15.2371 8.17645 14.7621 8.17645 14.4691 8.46945L10.2372 12.7014L5.54601 11.5974C4.22901 11.2874 3.75513 10.1905 3.74913 9.34546C3.74313 8.50046 4.20202 7.39645 5.51402 7.06845L18.6271 3.79043C18.7341 3.76343 18.8421 3.75045 18.9481 3.75045C19.2881 3.75045 19.6161 3.88445 19.8651 4.13345C20.1921 4.45945 20.3211 4.92246 20.2091 5.37146Z" fill="#BD5300"/>
</svg>
