<svg width="64" height="64" viewBox="0 0 64 64" fill="none" xmlns="http://www.w3.org/2000/svg">
<circle cx="32" cy="32" r="32" fill="white" fill-opacity="0.5"/>
<path opacity="0.4" d="M38.983 15.334H25.0163C18.9497 15.334 15.333 18.9507 15.333 25.0173V38.9673C15.333 45.0507 18.9497 48.6673 25.0163 48.6673H38.9663C45.033 48.6673 48.6497 45.0507 48.6497 38.984V25.0173C48.6663 18.9507 45.0497 15.334 38.983 15.334Z" fill="#BD5300"/>
<path d="M23.4668 43.5008C22.7835 43.5008 22.2168 42.9341 22.2168 42.2508V38.8008C22.2168 38.1174 22.7835 37.5508 23.4668 37.5508C24.1501 37.5508 24.7168 38.1174 24.7168 38.8008V42.2508C24.7168 42.9508 24.1501 43.5008 23.4668 43.5008Z" fill="#BD5300"/>
<path d="M32 43.5007C31.3167 43.5007 30.75 42.934 30.75 42.2507V35.334C30.75 34.6507 31.3167 34.084 32 34.084C32.6833 34.084 33.25 34.6507 33.25 35.334V42.2507C33.25 42.9507 32.6833 43.5007 32 43.5007Z" fill="#BD5300"/>
<path d="M40.5332 43.4995C39.8499 43.4995 39.2832 42.9328 39.2832 42.2495V31.8828C39.2832 31.1995 39.8499 30.6328 40.5332 30.6328C41.2165 30.6328 41.7832 31.1995 41.7832 31.8828V42.2495C41.7832 42.9495 41.2332 43.4995 40.5332 43.4995Z" fill="#BD5300"/>
<path d="M41.783 21.7C41.783 21.6167 41.7496 21.5167 41.733 21.4333C41.7163 21.3667 41.6996 21.2833 41.683 21.2167C41.6496 21.15 41.5996 21.1 41.5663 21.0333C41.5163 20.9667 41.4663 20.8833 41.3996 20.8333C41.383 20.8167 41.383 20.8 41.3663 20.8C41.3163 20.7667 41.2663 20.75 41.2163 20.7167C41.1496 20.6667 41.0663 20.6167 40.983 20.5833C40.8996 20.55 40.8163 20.55 40.733 20.5333C40.6663 20.5167 40.6163 20.5 40.5496 20.5H35.6663C34.983 20.5 34.4163 21.0667 34.4163 21.75C34.4163 22.4333 34.983 23 35.6663 23H37.7496C33.783 27.1667 28.783 30.1 23.1663 31.5167C22.4996 31.6833 22.083 32.3667 22.2496 33.0333C22.383 33.6 22.8996 33.9833 23.4663 33.9833C23.5663 33.9833 23.6663 33.9667 23.7663 33.95C29.7163 32.4667 35.033 29.3833 39.283 25.0167V26.6333C39.283 27.3167 39.8496 27.8833 40.533 27.8833C41.2163 27.8833 41.783 27.3167 41.783 26.6333V21.75C41.783 21.7333 41.783 21.7167 41.783 21.7Z" fill="#BD5300"/>
</svg>
