<svg width="40" height="40" viewBox="0 0 40 40" fill="none" xmlns="http://www.w3.org/2000/svg">
<path opacity="0.4" d="M26.983 3.33398H13.0163C6.94967 3.33398 3.33301 6.95065 3.33301 13.0173V26.9673C3.33301 33.0507 6.94967 36.6673 13.0163 36.6673H26.9663C33.033 36.6673 36.6497 33.0507 36.6497 26.984V13.0173C36.6663 6.95065 33.0497 3.33398 26.983 3.33398Z" fill="#BD5300"/>
<path d="M11.4668 31.5008C10.7835 31.5008 10.2168 30.9341 10.2168 30.2508V26.8008C10.2168 26.1174 10.7835 25.5508 11.4668 25.5508C12.1501 25.5508 12.7168 26.1174 12.7168 26.8008V30.2508C12.7168 30.9508 12.1501 31.5008 11.4668 31.5008Z" fill="#BD5300"/>
<path d="M20 31.5007C19.3167 31.5007 18.75 30.934 18.75 30.2507V23.334C18.75 22.6507 19.3167 22.084 20 22.084C20.6833 22.084 21.25 22.6507 21.25 23.334V30.2507C21.25 30.9507 20.6833 31.5007 20 31.5007Z" fill="#BD5300"/>
<path d="M28.5332 31.4995C27.8499 31.4995 27.2832 30.9328 27.2832 30.2495V19.8828C27.2832 19.1995 27.8499 18.6328 28.5332 18.6328C29.2165 18.6328 29.7832 19.1995 29.7832 19.8828V30.2495C29.7832 30.9495 29.2332 31.4995 28.5332 31.4995Z" fill="#BD5300"/>
<path d="M29.783 9.7C29.783 9.61667 29.7496 9.51667 29.733 9.43333C29.7163 9.36667 29.6996 9.28333 29.683 9.21667C29.6496 9.15 29.5996 9.1 29.5663 9.03333C29.5163 8.96667 29.4663 8.88333 29.3996 8.83333C29.383 8.81667 29.383 8.8 29.3663 8.8C29.3163 8.76667 29.2663 8.75 29.2163 8.71667C29.1496 8.66667 29.0663 8.61667 28.983 8.58333C28.8996 8.55 28.8163 8.55 28.733 8.53333C28.6663 8.51667 28.6163 8.5 28.5496 8.5H23.6663C22.983 8.5 22.4163 9.06667 22.4163 9.75C22.4163 10.4333 22.983 11 23.6663 11H25.7496C21.783 15.1667 16.783 18.1 11.1663 19.5167C10.4996 19.6833 10.083 20.3667 10.2496 21.0333C10.383 21.6 10.8996 21.9833 11.4663 21.9833C11.5663 21.9833 11.6663 21.9667 11.7663 21.95C17.7163 20.4667 23.033 17.3833 27.283 13.0167V14.6333C27.283 15.3167 27.8496 15.8833 28.533 15.8833C29.2163 15.8833 29.783 15.3167 29.783 14.6333V9.75C29.783 9.73333 29.783 9.71667 29.783 9.7Z" fill="#BD5300"/>
</svg>
