<svg width="32" height="32" viewBox="0 0 32 32" fill="none" xmlns="http://www.w3.org/2000/svg">
<path d="M16.0124 22.6657C14.8791 22.6657 13.7324 22.3724 12.8391 21.7991L4.81245 16.5591C3.31911 15.5857 2.42578 13.9457 2.42578 12.1591C2.42578 10.3724 3.31911 8.7324 4.81245 7.75907L12.8524 2.5324C14.6391 1.3724 17.4258 1.3724 19.1991 2.54574L27.1858 7.78574C28.6658 8.75907 29.5591 10.3991 29.5591 12.1724C29.5591 13.9457 28.6658 15.5857 27.1858 16.5591L19.1991 21.7991C18.3058 22.3857 17.1591 22.6657 16.0124 22.6657ZM16.0124 3.66574C15.2524 3.66574 14.4924 3.83907 13.9458 4.2124L5.91911 9.43907C4.98578 10.0524 4.43911 11.0391 4.43911 12.1591C4.43911 13.2791 4.97245 14.2657 5.91911 14.8791L13.9458 20.1191C15.0524 20.8391 16.9991 20.8391 18.1058 20.1191L26.0924 14.8791C27.0258 14.2657 27.5591 13.2791 27.5591 12.1591C27.5591 11.0391 27.0258 10.0524 26.0924 9.43907L18.1058 4.19907C17.5458 3.8524 16.7858 3.66574 16.0124 3.66574Z" fill="#4D4D4D"/>
<path d="M16.0009 30.3328C15.4142 30.3328 14.8142 30.2528 14.3342 30.0928L10.0809 28.6795C8.06756 28.0128 6.48089 25.8128 6.49422 23.6928L6.50756 17.4395C6.50756 16.8928 6.96089 16.4395 7.50756 16.4395C8.05422 16.4395 8.50756 16.8928 8.50756 17.4395L8.49422 23.6928C8.49422 24.9461 9.53422 26.3861 10.7209 26.7861L14.9742 28.1995C15.5076 28.3728 16.4942 28.3728 17.0276 28.1995L21.2809 26.7861C22.4676 26.3861 23.5076 24.9461 23.5076 23.7061V17.5195C23.5076 16.9728 23.9609 16.5195 24.5076 16.5195C25.0542 16.5195 25.5076 16.9728 25.5076 17.5195V23.7061C25.5076 25.8261 23.9342 28.0128 21.9209 28.6928L17.6676 30.1061C17.1876 30.2528 16.5876 30.3328 16.0009 30.3328Z" fill="#4D4D4D"/>
<path d="M28.5332 21C27.9865 21 27.5332 20.5467 27.5332 20V12C27.5332 11.4533 27.9865 11 28.5332 11C29.0799 11 29.5332 11.4533 29.5332 12V20C29.5332 20.5467 29.0799 21 28.5332 21Z" fill="#4D4D4D"/>
</svg>
