<svg width="55" height="44" viewBox="0 0 55 44" fill="none" xmlns="http://www.w3.org/2000/svg">
<path d="M54.7963 12.863L53.8128 10.2734C53.8128 10.2734 38.3532 37.1777 32.0986 37.3213C33.785 37.6093 33.785 37.6093 33.785 37.6093L34.8394 39.0476C34.8394 39.0476 49.4558 37.8254 54.7963 12.863Z" fill="url(#paint0_linear_482_1241)"/>
<path d="M32.8715 19.1213C32.8715 19.1213 42.569 17.6104 53.8126 10.2734C51.283 25.9557 40.8125 38.4006 32.0283 37.7529C32.0276 20.2007 32.8715 19.1213 32.8715 19.1213Z" fill="url(#paint1_linear_482_1241)"/>
<path d="M30.3506 6.15238C30.3506 6.15238 33.0591 0.24498 35.0025 0.00390625C39.8691 4.33663 41.0573 6.12966 41.0573 6.12966C41.0573 6.12966 42.0394 8.90897 39.6544 10.2733C35.7712 12.495 32.0978 11.9389 32.0978 11.9389L30.3506 6.15238Z" fill="url(#paint2_linear_482_1241)"/>
<path d="M31.7051 6.21222C31.7051 6.21222 34.3549 -0.11724 35.0027 0.00366341C35.6505 0.123834 41.6567 4.94677 41.0089 7.17724C40.3611 9.40772 34.0607 11.2762 34.0607 11.2762L31.7051 6.21222Z" fill="url(#paint3_linear_482_1241)"/>
<path d="M53.2627 13.1045C53.2627 13.1045 46.792 19.1123 39.1738 21.671C42.6697 20.8481 50.8734 17.3009 52.5483 15.8538C53.1761 15.3101 53.6735 13.9068 53.2627 13.1045Z" fill="url(#paint4_linear_482_1241)"/>
<path d="M41.0576 21.1227C43.2694 20.4698 51.3786 16.6837 52.5474 15.8535C52.1359 16.173 46.4625 20.3636 41.0576 21.1227Z" fill="#FFE83E"/>
<path d="M50.4815 21.6709C50.4815 21.6709 45.398 25.0496 39.3496 26.7437C42.4368 26.4081 48.1216 24.6554 49.6734 23.6962C50.2546 23.3372 50.7822 22.3135 50.4815 21.6709Z" fill="url(#paint5_linear_482_1241)"/>
<path d="M39.3496 26.7457C41.3123 26.4329 48.6026 24.2317 49.6734 23.6982C49.2941 23.9063 44.0874 26.616 39.3496 26.7457Z" fill="#FFE83E"/>
<path d="M42.9201 32.7227C42.9201 32.7227 39.5781 33.4107 39.7878 35.3056C41.8621 34.8 42.9201 32.7227 42.9201 32.7227Z" fill="url(#paint6_linear_482_1241)"/>
<path opacity="0.68" d="M47.5025 14.4837C47.7122 16.8739 42.497 20.5802 39.1729 20.2827C35.8488 19.9845 47.4488 13.8697 47.5025 14.4837Z" fill="#FFD13B"/>
<path opacity="0.68" d="M45.1652 27.0579C45.1652 27.0579 40.28 34.0945 38.9894 34.1304C37.6981 34.1663 39.3731 28.0222 40.1411 27.7364C40.9084 27.4507 45.2697 25.8789 45.1652 27.0579Z" fill="#FFD13B"/>
<path d="M32.7321 5.0754C33.5274 4.36904 33.6576 2.68665 33.2589 2.70424C32.8603 2.72109 32.0829 4.47748 32.0156 5.2813C32.0156 5.2813 32.5489 5.23807 32.7321 5.0754Z" fill="url(#paint7_linear_482_1241)"/>
<path d="M0.203125 12.863L1.18662 10.2734C1.18662 10.2734 16.6462 37.1777 22.9008 37.3213C21.2144 37.6093 21.2144 37.6093 21.2144 37.6093L20.16 39.0476C20.16 39.0476 5.54362 37.8254 0.203125 12.863Z" fill="url(#paint8_linear_482_1241)"/>
<path d="M22.1276 19.1213C22.1276 19.1213 12.4301 17.6104 1.18652 10.2734C3.71612 25.9557 14.1867 38.4006 22.9708 37.7529C22.9708 20.2007 22.1276 19.1213 22.1276 19.1213Z" fill="url(#paint9_linear_482_1241)"/>
<path d="M27.1927 44.0003C32.9865 44.0003 37.6833 36.9476 37.6833 28.2477C37.6833 19.5478 32.9865 12.4951 27.1927 12.4951C21.3989 12.4951 16.7021 19.5478 16.7021 28.2477C16.7021 36.9476 21.3989 44.0003 27.1927 44.0003Z" fill="url(#paint10_linear_482_1241)"/>
<path d="M27.1927 44.0003C32.9865 44.0003 37.6833 36.9476 37.6833 28.2477C37.6833 19.5478 32.9865 12.4951 27.1927 12.4951C21.3989 12.4951 16.7021 19.5478 16.7021 28.2477C16.7021 36.9476 21.3989 44.0003 27.1927 44.0003Z" fill="url(#paint11_linear_482_1241)"/>
<path d="M27.1927 42.4395C32.9865 42.4395 37.6833 35.7362 37.6833 27.4673C37.6833 19.1984 32.9865 12.4951 27.1927 12.4951C21.3989 12.4951 16.7021 19.1984 16.7021 27.4673C16.7021 35.7362 21.3989 42.4395 27.1927 42.4395Z" fill="url(#paint12_linear_482_1241)"/>
<path d="M24.6483 6.15238C24.6483 6.15238 21.9397 0.24498 19.9964 0.00390625C15.1297 4.33663 13.9415 6.12966 13.9415 6.12966C13.9415 6.12966 12.9594 8.90897 15.3445 10.2733C19.2276 12.495 22.901 11.9389 22.901 11.9389L24.6483 6.15238Z" fill="url(#paint13_linear_482_1241)"/>
<path d="M23.2961 6.21177L20.939 11.2787C20.939 11.2787 14.6372 9.40581 13.9916 7.1768C13.6995 6.17733 14.7489 4.64882 16.0566 3.26467C16.0566 3.26467 16.0566 3.26467 16.0623 3.25881C17.6614 1.5581 19.6427 0.0706271 19.9963 0.00174905C20.4229 -0.078853 21.7192 2.64403 22.5495 4.51107C22.5717 4.56309 22.5889 4.59167 22.5889 4.59167C23.0048 5.5164 23.2961 6.21177 23.2961 6.21177Z" fill="url(#paint14_linear_482_1241)"/>
<path d="M27.1927 44.0003C32.9865 44.0003 37.6833 36.9476 37.6833 28.2477C37.6833 19.5478 32.9865 12.4951 27.1927 12.4951C21.3989 12.4951 16.7021 19.5478 16.7021 28.2477C16.7021 36.9476 21.3989 44.0003 27.1927 44.0003Z" fill="url(#paint15_linear_482_1241)"/>
<path d="M27.1932 18.2377C30.8649 18.2377 33.8414 15.3052 33.8414 11.6877C33.8414 8.07024 30.8649 5.1377 27.1932 5.1377C23.5214 5.1377 20.5449 8.07024 20.5449 11.6877C20.5449 15.3052 23.5214 18.2377 27.1932 18.2377Z" fill="url(#paint16_linear_482_1241)"/>
<path d="M33.8409 10.8194C33.8409 14.2604 30.8668 17.047 27.1906 17.047C23.5207 17.047 20.5459 14.2611 20.5459 10.8194C20.5459 9.71076 20.8544 8.66513 21.4048 7.76898C21.5451 7.52791 21.7076 7.29196 21.8873 7.0736C21.8873 7.0736 21.8873 7.07361 21.893 7.06774C23.1048 5.56268 25.0246 4.5918 27.1906 4.5918C30.0022 4.5918 32.4044 6.22362 33.375 8.5325C33.6441 9.15827 33.8016 9.83679 33.8352 10.5432C33.841 10.6355 33.8409 10.7271 33.8409 10.8194Z" fill="url(#paint17_linear_482_1241)"/>
<path opacity="0.3" d="M33.8409 10.819C33.8409 14.2599 30.8668 17.0466 27.1906 17.0466C23.5207 17.0466 20.5459 14.2607 20.5459 10.819C20.5459 9.71033 20.8544 8.6647 21.4048 7.76855C21.7191 10.2328 23.9473 13.1799 33.8352 10.5435C33.841 10.6351 33.8409 10.7266 33.8409 10.819Z" fill="#A06A9A"/>
<path d="M37.685 27.4671C37.685 27.8005 37.6793 28.128 37.6628 28.4555C37.612 29.5239 37.4889 30.5637 37.287 31.558C36.0416 37.8369 31.9952 42.4385 27.1916 42.4385C21.4001 42.4385 16.7031 35.7346 16.7031 27.4678C16.7031 19.201 21.4001 12.4971 27.1916 12.4971C30.0927 12.4971 32.7081 14.1743 34.605 16.8745C34.605 16.8745 34.605 16.8804 34.6107 16.8862C35.5756 18.2594 36.3501 19.8963 36.8776 21.7121C37.3987 23.4802 37.685 25.4278 37.685 27.4671Z" fill="url(#paint18_linear_482_1241)"/>
<path d="M27.1926 36.3878C30.6446 36.3878 33.4429 32.394 33.4429 27.4673C33.4429 22.5407 30.6446 18.5469 27.1926 18.5469C23.7407 18.5469 20.9424 22.5407 20.9424 27.4673C20.9424 32.394 23.7407 36.3878 27.1926 36.3878Z" fill="url(#paint19_linear_482_1241)"/>
<path d="M33.4429 28.043C33.4429 32.9692 30.6449 36.9634 27.1926 36.9634C23.7404 36.9634 20.9424 32.9692 20.9424 28.043C20.9424 23.1167 23.1119 29.7679 26.5642 29.7679C30.0164 29.7679 33.4429 23.116 33.4429 28.043Z" fill="#FFE83E"/>
<path d="M1.73802 13.1045C1.73802 13.1045 8.20945 19.1123 15.8269 21.671C12.331 20.8481 4.12731 17.3009 2.45237 15.8538C1.82391 15.3101 1.32715 13.9068 1.73802 13.1045Z" fill="url(#paint20_linear_482_1241)"/>
<path d="M13.941 21.1227C11.7292 20.4698 3.62005 16.6837 2.45117 15.8535C2.86275 16.173 8.53537 20.3636 13.941 21.1227Z" fill="#FFE83E"/>
<path d="M4.51723 21.6709C4.51723 21.6709 9.60075 25.0496 15.6492 26.7437C12.562 26.4081 6.87718 24.6554 5.32535 23.6962C4.74341 23.3372 4.21588 22.3135 4.51723 21.6709Z" fill="url(#paint21_linear_482_1241)"/>
<path d="M15.649 26.7457C13.687 26.4329 6.39601 24.2317 5.3252 23.6982C5.70456 23.9063 10.9105 26.616 15.649 26.7457Z" fill="#FFE83E"/>
<path d="M33.3755 8.5325C28.4201 3.4194 22.124 6.93512 21.8936 7.06774C23.1054 5.56268 25.0251 4.5918 27.1911 4.5918C30.0027 4.5918 32.4049 6.22362 33.3755 8.5325Z" fill="#FFE83E"/>
<path d="M29.2539 5.13672C29.2539 5.13672 31.3769 6.7832 31.0577 9.00928C31.2982 7.65517 31.9116 7.07263 31.9116 7.07263L29.2539 5.13672Z" fill="#FFE83E"/>
<path d="M8.05664 23.6958C8.05664 23.6958 11.2168 23.1909 11.0064 25.0858C8.93277 24.5802 8.05664 23.6958 8.05664 23.6958Z" fill="url(#paint22_linear_482_1241)"/>
<path d="M25.4678 42.4386C25.4678 42.4386 22.6784 42.9383 21.3993 39.9509C21.3936 39.945 21.3936 39.945 21.3936 39.945C21.3936 39.945 22.6397 37.0148 24.9231 38.3081C25.714 38.7565 26.0233 39.394 26.0906 40.0315C26.0906 40.0374 26.0906 40.0432 26.0906 40.0432C26.2029 41.2376 25.4678 42.4386 25.4678 42.4386Z" fill="url(#paint23_linear_482_1241)"/>
<path d="M25.468 42.4388C25.468 42.4388 22.6785 42.9386 21.3994 39.9512C21.5676 40.1468 25.5524 44.7426 26.0907 40.0428C26.2031 41.2379 25.468 42.4388 25.468 42.4388Z" fill="#FFE83E"/>
<path opacity="0.3" d="M21.707 39.8176C21.707 39.8176 24.2588 36.9438 25.792 39.6909C26.0025 40.5951 25.0741 41.4648 24.7277 41.4648C24.3812 41.4656 22.2517 40.8061 21.707 39.8176Z" fill="#A06A9A"/>
<path d="M30.126 19.5895C30.126 19.5895 30.6642 16.342 31.8503 16.5918C33.0364 16.8417 31.3006 20.745 31.3006 20.745L30.126 19.5895Z" fill="url(#paint24_linear_482_1241)"/>
<path opacity="0.3" d="M30.3506 19.4018C30.3506 19.4018 30.6999 16.7712 31.886 16.8782C32.4092 16.8423 31.3978 20.5214 31.0134 20.2715C30.6297 20.0209 30.3506 19.4018 30.3506 19.4018Z" fill="#A06A9A"/>
<path opacity="0.68" d="M7.49637 14.4837C7.28664 16.8739 12.5019 20.5802 15.826 20.2827C19.1508 19.9845 7.55005 13.8697 7.49637 14.4837Z" fill="#FFD13B"/>
<path opacity="0.68" d="M9.83388 27.0579C9.83388 27.0579 14.7191 34.0945 16.0097 34.1304C17.301 34.1663 15.626 28.0222 14.858 27.7364C14.0907 27.4507 9.72937 25.8789 9.83388 27.0579Z" fill="#FFD13B"/>
<path opacity="0.68" d="M34.1535 18.8416C34.1535 18.8416 33.1414 19.0753 33.0719 20.7445C33.0025 22.4137 35.2701 28.0573 33.6131 31.8075C31.956 35.5577 29.4436 37.6592 27.8037 38.5019C26.1639 39.3438 26.6685 41.8615 29.4787 41.2101C32.2889 40.5587 37.7482 34.5582 36.9809 26.9853C36.2121 19.4131 35.0955 18.4129 34.1535 18.8416Z" fill="#FFD13B"/>
<path opacity="0.68" d="M37.6627 28.4549C37.6119 29.5232 37.4888 30.563 37.2869 31.5573C35.7716 29.1847 31.9278 32.2351 31.7539 32.3729C31.8491 32.1889 33.7853 28.5816 32.8648 26.7432C35.2498 29.7188 36.9391 29.0293 37.6627 28.4549Z" fill="#FFD13B"/>
<path d="M27.1926 36.3889C30.6446 36.3889 33.4429 32.5863 33.4429 27.8956C33.4429 23.2049 30.6446 19.4023 27.1926 19.4023C23.7407 19.4023 20.9424 23.2049 20.9424 27.8956C20.9424 32.5863 23.7407 36.3889 27.1926 36.3889Z" fill="url(#paint25_linear_482_1241)"/>
<path d="M36.876 21.7116C36.8366 21.7233 36.7916 21.7116 36.73 21.6713C35.7479 21.0507 34.6707 17.1327 34.6084 16.8857C35.574 18.2589 36.3485 19.8959 36.876 21.7116Z" fill="#FFE83E"/>
<path opacity="0.68" d="M27.193 12.7412C27.193 12.7412 20.076 14.0221 18.3888 20.745C16.7025 27.4679 20.5448 30.6143 20.5448 30.6143C20.5448 30.6143 18.8555 18.3804 27.8823 18.4889C26.2095 17.3216 25.7765 13.7099 27.193 12.7412Z" fill="#FFD13B"/>
<path opacity="0.68" d="M18.5122 20.2996C18.5122 20.2996 17.5345 24.5129 20.7083 25.0874C20.7534 23.986 21.7075 22.0538 21.7075 22.0538C21.7075 22.0538 18.6303 20.8946 19.51 18.0098C18.7649 19.5522 18.5122 20.2996 18.5122 20.2996Z" fill="#FFD13B"/>
<path d="M17.3923 8.43493C16.8032 9.06142 16.3766 8.61884 16.0566 8.27372C16.0566 8.27372 16.0566 8.0495 16.0681 7.73369C16.096 7.00973 16.2027 5.79777 16.6014 5.81463C17.0001 5.83148 17.5219 6.81995 17.5891 7.62451V7.65309C17.6113 7.96963 17.5612 8.25687 17.3923 8.43493Z" fill="url(#paint26_linear_482_1241)"/>
<path d="M17.3923 8.43516C16.8032 9.06166 16.3766 8.61908 16.0566 8.27396C16.0566 8.27396 16.0566 8.04974 16.0681 7.73392C16.169 7.95814 16.2871 8.1362 16.4217 8.22193C16.8984 8.52089 17.4939 8.54947 17.5891 7.65332C17.6113 7.96987 17.5612 8.2571 17.3923 8.43516Z" fill="#FFE83E"/>
<path opacity="0.3" d="M16.4248 7.52982C16.4248 7.52982 16.5579 5.87528 16.8872 6.00205C17.2165 6.12881 17.8957 7.78482 17.1714 8.03908C16.447 8.29407 16.4248 7.52982 16.4248 7.52982Z" fill="#A06A9A"/>
<path d="M21.8924 25.5249C21.8924 25.5249 24.6331 18.3022 29.5484 20.7445C31.7287 21.8275 32.6149 26.0862 31.456 26.7435C30.2964 27.4007 28.8384 23.0746 26.1019 24.6603C24.9187 25.3469 21.425 28.5402 21.8924 25.5249Z" fill="url(#paint27_linear_482_1241)"/>
<path d="M22.4064 30.1941C22.4064 30.1941 23.7306 36.2143 27.6345 35.7454C31.5377 35.2764 22.1072 26.7868 22.4064 30.1941Z" fill="url(#paint28_linear_482_1241)"/>
<path d="M28.2376 20.9324C28.2749 22.0242 30.3499 25.0871 31.065 24.2078C32.1401 22.8859 28.1954 19.6911 28.2376 20.9324Z" fill="#F3FFEE"/>
<path d="M24.0088 32.1816C24.0052 32.9701 24.492 34.5074 25.6036 34.8781C26.7152 35.2489 24.0145 30.8861 24.0088 32.1816Z" fill="#F3FFEE"/>
<path opacity="0.26" d="M26.8717 36.1481C26.8717 36.1481 31.0318 36.1151 32.4949 30.2326C33.958 24.3501 21.7323 25.2382 22.3994 30.6737C23.0665 36.1107 26.8717 36.1481 26.8717 36.1481Z" fill="url(#paint29_linear_482_1241)"/>
<path d="M37.6848 2.03223C37.6848 2.03223 41.3489 6.35396 40.3497 7.76889C39.4879 8.98965 35.8037 10.6764 35.8037 10.6764C35.8037 10.6764 41.1728 9.43149 41.2573 7.65458C41.3418 5.87694 40.4177 4.59537 37.6848 2.03223Z" fill="#FFE83E"/>
<path d="M22.5497 4.51107C22.2526 3.96517 20.4732 0.759409 19.3229 1.54711C18.1054 2.38024 16.1799 3.21338 16.0625 3.25881C17.6616 1.5581 19.6429 0.0706272 19.9965 0.00174905C20.4231 -0.078853 21.7194 2.64403 22.5497 4.51107Z" fill="#FFE83E"/>
<path opacity="0.68" d="M23.2564 8.71321C23.4181 8.1446 23.8583 7.70568 24.3938 7.48146C25.7659 6.90552 29.0034 5.82912 30.1995 7.88301C31.7349 10.5187 25.6922 11.0917 24.0094 10.2732C23.1676 9.86362 23.1068 9.23712 23.2564 8.71321Z" fill="#FFD13B"/>
<defs>
<linearGradient id="paint0_linear_482_1241" x1="32.6244" y1="48.437" x2="56.9872" y2="2.8223" gradientUnits="userSpaceOnUse">
<stop offset="0.1515" stop-color="#B83A36"/>
<stop offset="0.216" stop-color="#B93E2E"/>
<stop offset="0.4568" stop-color="#BB4915"/>
<stop offset="0.6754" stop-color="#BD5105"/>
<stop offset="0.8509" stop-color="#BD5300"/>
</linearGradient>
<linearGradient id="paint1_linear_482_1241" x1="28.3904" y1="46.4383" x2="52.8826" y2="0.581476" gradientUnits="userSpaceOnUse">
<stop offset="0.1617" stop-color="#FF7540"/>
<stop offset="0.232" stop-color="#FF8237"/>
<stop offset="0.4527" stop-color="#FFA51F"/>
<stop offset="0.6608" stop-color="#FFBE0E"/>
<stop offset="0.849" stop-color="#FFCE04"/>
<stop offset="1" stop-color="#FFD300"/>
</linearGradient>
<linearGradient id="paint2_linear_482_1241" x1="37.3681" y1="15.5323" x2="33.6878" y2="-4.5132" gradientUnits="userSpaceOnUse">
<stop offset="0.1515" stop-color="#B83A36"/>
<stop offset="0.216" stop-color="#B93E2E"/>
<stop offset="0.4568" stop-color="#BB4915"/>
<stop offset="0.6754" stop-color="#BD5105"/>
<stop offset="0.8509" stop-color="#BD5300"/>
</linearGradient>
<linearGradient id="paint3_linear_482_1241" x1="37.7788" y1="14.416" x2="34.3373" y2="-4.32949" gradientUnits="userSpaceOnUse">
<stop stop-color="#FF7540"/>
<stop offset="0.0838" stop-color="#FF8237"/>
<stop offset="0.3471" stop-color="#FFA51F"/>
<stop offset="0.5953" stop-color="#FFBE0E"/>
<stop offset="0.8198" stop-color="#FFCE04"/>
<stop offset="1" stop-color="#FFD300"/>
</linearGradient>
<linearGradient id="paint4_linear_482_1241" x1="53.4126" y1="17.3874" x2="39.1738" y2="17.3874" gradientUnits="userSpaceOnUse">
<stop offset="0.1515" stop-color="#B83A36"/>
<stop offset="0.216" stop-color="#B93E2E"/>
<stop offset="0.4568" stop-color="#BB4915"/>
<stop offset="0.6754" stop-color="#BD5105"/>
<stop offset="0.8509" stop-color="#BD5300"/>
</linearGradient>
<linearGradient id="paint5_linear_482_1241" x1="50.3353" y1="24.7237" x2="39.6213" y2="23.7504" gradientUnits="userSpaceOnUse">
<stop offset="0.1515" stop-color="#B83A36"/>
<stop offset="0.216" stop-color="#B93E2E"/>
<stop offset="0.4568" stop-color="#BB4915"/>
<stop offset="0.6754" stop-color="#BD5105"/>
<stop offset="0.8509" stop-color="#BD5300"/>
</linearGradient>
<linearGradient id="paint6_linear_482_1241" x1="42.9204" y1="34.0142" x2="39.7788" y2="34.0142" gradientUnits="userSpaceOnUse">
<stop offset="0.1515" stop-color="#B83A36"/>
<stop offset="0.216" stop-color="#B93E2E"/>
<stop offset="0.4568" stop-color="#BB4915"/>
<stop offset="0.6754" stop-color="#BD5105"/>
<stop offset="0.8509" stop-color="#BD5300"/>
</linearGradient>
<linearGradient id="paint7_linear_482_1241" x1="32.4167" y1="2.53952" x2="33.0638" y2="5.60747" gradientUnits="userSpaceOnUse">
<stop offset="0.1515" stop-color="#B83A36"/>
<stop offset="0.216" stop-color="#B93E2E"/>
<stop offset="0.4568" stop-color="#BB4915"/>
<stop offset="0.6754" stop-color="#BD5105"/>
<stop offset="0.8509" stop-color="#BD5300"/>
</linearGradient>
<linearGradient id="paint8_linear_482_1241" x1="22.3747" y1="48.437" x2="-1.98818" y2="2.8223" gradientUnits="userSpaceOnUse">
<stop offset="0.1515" stop-color="#B83A36"/>
<stop offset="0.216" stop-color="#B93E2E"/>
<stop offset="0.4568" stop-color="#BB4915"/>
<stop offset="0.6754" stop-color="#BD5105"/>
<stop offset="0.8509" stop-color="#BD5300"/>
</linearGradient>
<linearGradient id="paint9_linear_482_1241" x1="26.6084" y1="46.4383" x2="2.11627" y2="0.581552" gradientUnits="userSpaceOnUse">
<stop offset="0.1617" stop-color="#FF7540"/>
<stop offset="0.232" stop-color="#FF8237"/>
<stop offset="0.4527" stop-color="#FFA51F"/>
<stop offset="0.6608" stop-color="#FFBE0E"/>
<stop offset="0.849" stop-color="#FFCE04"/>
<stop offset="1" stop-color="#FFD300"/>
</linearGradient>
<linearGradient id="paint10_linear_482_1241" x1="22.6445" y1="54.2092" x2="32.4806" y2="0.634923" gradientUnits="userSpaceOnUse">
<stop stop-color="#FF7540"/>
<stop offset="0.0838" stop-color="#FF8237"/>
<stop offset="0.3471" stop-color="#FFA51F"/>
<stop offset="0.5953" stop-color="#FFBE0E"/>
<stop offset="0.8198" stop-color="#FFCE04"/>
<stop offset="1" stop-color="#FFD300"/>
</linearGradient>
<linearGradient id="paint11_linear_482_1241" x1="22.6445" y1="54.2092" x2="32.4806" y2="0.634923" gradientUnits="userSpaceOnUse">
<stop offset="0.1515" stop-color="#B83A36"/>
<stop offset="0.216" stop-color="#B93E2E"/>
<stop offset="0.4568" stop-color="#BB4915"/>
<stop offset="0.6754" stop-color="#BD5105"/>
<stop offset="0.8509" stop-color="#BD5300"/>
</linearGradient>
<linearGradient id="paint12_linear_482_1241" x1="22.8663" y1="52.1636" x2="32.2228" y2="1.20124" gradientUnits="userSpaceOnUse">
<stop stop-color="#FF7540"/>
<stop offset="0.0838" stop-color="#FF8237"/>
<stop offset="0.3471" stop-color="#FFA51F"/>
<stop offset="0.5953" stop-color="#FFBE0E"/>
<stop offset="0.8198" stop-color="#FFCE04"/>
<stop offset="1" stop-color="#FFD300"/>
</linearGradient>
<linearGradient id="paint13_linear_482_1241" x1="17.631" y1="15.5323" x2="21.3113" y2="-4.5132" gradientUnits="userSpaceOnUse">
<stop offset="0.1515" stop-color="#B83A36"/>
<stop offset="0.216" stop-color="#B93E2E"/>
<stop offset="0.4568" stop-color="#BB4915"/>
<stop offset="0.6754" stop-color="#BD5105"/>
<stop offset="0.8509" stop-color="#BD5300"/>
</linearGradient>
<linearGradient id="paint14_linear_482_1241" x1="17.2214" y1="14.4204" x2="20.6644" y2="-4.33278" gradientUnits="userSpaceOnUse">
<stop stop-color="#FF7540"/>
<stop offset="0.0838" stop-color="#FF8237"/>
<stop offset="0.3471" stop-color="#FFA51F"/>
<stop offset="0.5953" stop-color="#FFBE0E"/>
<stop offset="0.8198" stop-color="#FFCE04"/>
<stop offset="1" stop-color="#FFD300"/>
</linearGradient>
<linearGradient id="paint15_linear_482_1241" x1="22.6445" y1="54.2092" x2="32.4806" y2="0.634923" gradientUnits="userSpaceOnUse">
<stop offset="0.1515" stop-color="#B83A36"/>
<stop offset="0.216" stop-color="#B93E2E"/>
<stop offset="0.4568" stop-color="#BB4915"/>
<stop offset="0.6754" stop-color="#BD5105"/>
<stop offset="0.8509" stop-color="#BD5300"/>
</linearGradient>
<linearGradient id="paint16_linear_482_1241" x1="25.2836" y1="22.5883" x2="29.4136" y2="0.0932298" gradientUnits="userSpaceOnUse">
<stop offset="0.1515" stop-color="#B83A36"/>
<stop offset="0.216" stop-color="#B93E2E"/>
<stop offset="0.4568" stop-color="#BB4915"/>
<stop offset="0.6754" stop-color="#BD5105"/>
<stop offset="0.8509" stop-color="#BD5300"/>
</linearGradient>
<linearGradient id="paint17_linear_482_1241" x1="25.3745" y1="21.202" x2="29.3081" y2="-0.223158" gradientUnits="userSpaceOnUse">
<stop stop-color="#FF7540"/>
<stop offset="0.0838" stop-color="#FF8237"/>
<stop offset="0.3471" stop-color="#FFA51F"/>
<stop offset="0.5953" stop-color="#FFBE0E"/>
<stop offset="0.8198" stop-color="#FFCE04"/>
<stop offset="1" stop-color="#FFD300"/>
</linearGradient>
<linearGradient id="paint18_linear_482_1241" x1="22.8673" y1="52.1613" x2="32.223" y2="1.2037" gradientUnits="userSpaceOnUse">
<stop stop-color="#FF7540"/>
<stop offset="0.0838" stop-color="#FF8237"/>
<stop offset="0.3471" stop-color="#FFA51F"/>
<stop offset="0.5953" stop-color="#FFBE0E"/>
<stop offset="0.8198" stop-color="#FFCE04"/>
<stop offset="1" stop-color="#FFD300"/>
</linearGradient>
<linearGradient id="paint19_linear_482_1241" x1="24.6151" y1="42.1812" x2="30.1896" y2="11.8184" gradientUnits="userSpaceOnUse">
<stop offset="0.1515" stop-color="#B83A36"/>
<stop offset="0.216" stop-color="#B93E2E"/>
<stop offset="0.4568" stop-color="#BB4915"/>
<stop offset="0.6754" stop-color="#BD5105"/>
<stop offset="0.8509" stop-color="#BD5300"/>
</linearGradient>
<linearGradient id="paint20_linear_482_1241" x1="1.58777" y1="17.3874" x2="15.8265" y2="17.3874" gradientUnits="userSpaceOnUse">
<stop offset="0.1515" stop-color="#B83A36"/>
<stop offset="0.216" stop-color="#B93E2E"/>
<stop offset="0.4568" stop-color="#BB4915"/>
<stop offset="0.6754" stop-color="#BD5105"/>
<stop offset="0.8509" stop-color="#BD5300"/>
</linearGradient>
<linearGradient id="paint21_linear_482_1241" x1="4.6631" y1="24.7237" x2="15.3771" y2="23.7504" gradientUnits="userSpaceOnUse">
<stop offset="0.1515" stop-color="#B83A36"/>
<stop offset="0.216" stop-color="#B93E2E"/>
<stop offset="0.4568" stop-color="#BB4915"/>
<stop offset="0.6754" stop-color="#BD5105"/>
<stop offset="0.8509" stop-color="#BD5300"/>
</linearGradient>
<linearGradient id="paint22_linear_482_1241" x1="8.05635" y1="24.3602" x2="11.0164" y2="24.3602" gradientUnits="userSpaceOnUse">
<stop offset="0.1515" stop-color="#B83A36"/>
<stop offset="0.216" stop-color="#B93E2E"/>
<stop offset="0.4568" stop-color="#BB4915"/>
<stop offset="0.6754" stop-color="#BD5105"/>
<stop offset="0.8509" stop-color="#BD5300"/>
</linearGradient>
<linearGradient id="paint23_linear_482_1241" x1="21.3939" y1="40.2242" x2="26.1026" y2="40.2242" gradientUnits="userSpaceOnUse">
<stop offset="0.1515" stop-color="#B83A36"/>
<stop offset="0.216" stop-color="#B93E2E"/>
<stop offset="0.4568" stop-color="#BB4915"/>
<stop offset="0.6754" stop-color="#BD5105"/>
<stop offset="0.8509" stop-color="#BD5300"/>
</linearGradient>
<linearGradient id="paint24_linear_482_1241" x1="30.2675" y1="21.8456" x2="32.1616" y2="15.6189" gradientUnits="userSpaceOnUse">
<stop offset="0.1515" stop-color="#B83A36"/>
<stop offset="0.216" stop-color="#B93E2E"/>
<stop offset="0.4568" stop-color="#BB4915"/>
<stop offset="0.6754" stop-color="#BD5105"/>
<stop offset="0.8509" stop-color="#BD5300"/>
</linearGradient>
<linearGradient id="paint25_linear_482_1241" x1="24.7363" y1="41.917" x2="30.0486" y2="12.9825" gradientUnits="userSpaceOnUse">
<stop stop-color="#47FF2A"/>
<stop offset="0.1549" stop-color="#39DC37"/>
<stop offset="0.4473" stop-color="#219F4E"/>
<stop offset="0.6958" stop-color="#0F725F"/>
<stop offset="0.8878" stop-color="#045769"/>
<stop offset="1" stop-color="#004D6D"/>
</linearGradient>
<linearGradient id="paint26_linear_482_1241" x1="17.2365" y1="5.52241" x2="16.4312" y2="9.33967" gradientUnits="userSpaceOnUse">
<stop offset="0.1515" stop-color="#B83A36"/>
<stop offset="0.216" stop-color="#B93E2E"/>
<stop offset="0.4568" stop-color="#BB4915"/>
<stop offset="0.6754" stop-color="#BD5105"/>
<stop offset="0.8509" stop-color="#BD5300"/>
</linearGradient>
<linearGradient id="paint27_linear_482_1241" x1="27.881" y1="16.3531" x2="26.8109" y2="26.1862" gradientUnits="userSpaceOnUse">
<stop offset="0.0056" stop-color="#40AC29"/>
<stop offset="1"/>
</linearGradient>
<linearGradient id="paint28_linear_482_1241" x1="22.1929" y1="37.3286" x2="26.5536" y2="31.184" gradientUnits="userSpaceOnUse">
<stop offset="0.0056" stop-color="#40AC29"/>
<stop offset="1"/>
</linearGradient>
<linearGradient id="paint29_linear_482_1241" x1="27.3317" y1="35.8982" x2="27.6156" y2="25.7478" gradientUnits="userSpaceOnUse">
<stop offset="0.0056" stop-color="#40AC29"/>
<stop offset="1"/>
</linearGradient>
</defs>
</svg>
