<svg width="202" height="83" viewBox="0 0 202 83" fill="none" xmlns="http://www.w3.org/2000/svg">
<path d="M83.111 23.0364L85.2956 23.6652L95.4236 26.5805L97.0246 25.2347L98.7676 23.7689C98.7676 23.7689 96.7264 22.6076 94.2728 20.4632C92.7435 19.1266 91.0535 17.4083 89.5981 15.3492C86.9459 11.5974 83.4229 8.35069 80.7365 6.15377C78.4336 4.27056 76.7454 3.15771 76.7454 3.15771C76.7454 3.15771 86.8952 15.8899 87.0149 19.133C87.135 22.3761 83.111 23.0364 83.111 23.0364Z" fill="url(#paint0_linear_482_1646)"/>
<path opacity="0.4" d="M83.111 23.0364L85.2956 23.6652C87.1893 23.7633 89.4543 23.8853 89.5178 23.9104L89.5205 23.9108L97.0246 25.2342L98.7676 23.7684C98.7676 23.7684 96.7264 22.6071 94.2728 20.4627C94.1577 21.0536 93.865 21.6203 93.2097 21.5902C90.4872 21.4646 83.2393 10.8133 81.4146 7.83919C80.9675 7.10946 80.773 6.56286 80.7365 6.15279C78.4336 4.26959 76.7454 3.15674 76.7454 3.15674C76.7454 3.15674 86.8952 15.8889 87.0149 19.132C87.135 22.3761 83.111 23.0364 83.111 23.0364Z" fill="url(#paint1_linear_482_1646)"/>
<path d="M0.000366211 40.1178C0.000366211 40.1178 5.42807 41.342 10.901 42.3686C11.8992 42.5558 12.8983 42.7366 13.866 42.9024C15.6935 43.2138 17.4109 43.4723 18.7968 43.6189C19.7361 43.7171 20.5239 43.765 21.0915 43.7431C21.4705 43.7285 21.8924 43.786 22.3514 43.9061C22.3514 43.9061 22.3532 43.9061 22.3573 43.907C27.0886 45.145 35.6717 52.9623 39.8756 56.2666C40.1373 56.4721 40.3962 56.6707 40.6524 56.8612C40.6524 56.8612 40.6528 56.8616 40.6537 56.8616C41.5921 57.5639 42.4885 58.1726 43.3141 58.711L43.3155 58.7115C46.2321 60.613 48.2797 61.6459 48.2797 62.8569C48.2797 63.1661 48.1181 63.63 47.8368 64.1949L47.8359 64.1953C46.6148 66.6448 43.1411 70.972 40.8652 72.5789C40.8652 72.5789 42.5392 72.8365 45.4051 71.62C46.3545 71.2172 47.434 70.6528 48.6272 69.8637H48.6277C49.5935 69.2248 50.6346 68.4385 51.7402 67.4709C52.0443 67.2046 52.3703 66.9033 52.7147 66.5695C53.4394 65.869 54.2481 65.0283 55.1212 64.0789C55.918 63.2113 56.7679 62.2523 57.6565 61.2267C60.0155 58.5042 62.638 55.3131 65.2327 52.1098C65.9496 51.2257 66.6643 50.3398 67.3712 49.4626C68.7297 47.7748 70.0576 46.119 71.312 44.5637L71.3125 44.5632C72.2587 43.3896 73.161 42.2741 74.0035 41.2429L74.004 41.2425C76.194 38.5643 77.9708 36.4673 79.0051 35.4682C79.812 34.6883 80.597 33.9709 81.4135 33.3854L81.414 33.385C82.4547 32.6397 83.5479 32.1077 84.8087 31.9301C87.3636 31.5721 89.9541 32.1603 92.5077 33.4905C93.0913 33.7946 93.6731 34.138 94.2516 34.5166C94.853 34.9102 95.5978 35.3901 96.4613 35.9417C101.186 38.9634 109.469 44.1614 117.275 49.3954C117.287 49.4032 117.299 49.411 117.31 49.4187C117.855 49.7845 118.399 50.1503 118.937 50.5151V50.5161C119 50.5576 119.063 50.6001 119.125 50.6425C119.737 51.0581 120.344 51.4718 120.944 51.8842L120.945 51.8846C127.669 56.5063 133.506 60.8874 135.61 63.5159C138.093 66.6201 140.32 67.7873 142.465 67.8777H142.466C144.118 67.9476 145.72 67.3777 147.351 66.5626H147.352C148.098 66.19 148.85 65.7662 149.616 65.3283C150.924 64.5812 153.514 63.4373 156.759 62.2003C157.639 61.8646 158.568 61.5217 159.533 61.1783C167.553 58.3211 178.032 55.4095 183.725 55.936C192.622 56.7602 197.236 62.0331 200.037 67.8006C201.495 70.8007 202.28 66.1735 202.259 60.5572C202.252 58.4749 202.133 56.2561 201.897 54.2405L201.896 54.24C201.597 51.6791 201.107 49.4448 200.412 48.2292C200.294 48.0209 200.168 47.8429 200.038 47.6976C200.038 47.6976 198.474 45.6555 196.216 43.5796C195.031 42.4905 193.655 41.3918 192.214 40.574C191.053 39.9146 189.849 39.4378 188.669 39.2944C185.713 38.9364 174.048 42.2768 163.457 45.3487C162.881 45.5153 162.308 45.6815 161.74 45.8469C159.187 46.588 156.729 47.2994 154.511 47.9241H154.51C152.515 48.4858 150.714 48.9781 149.208 49.358H149.207C147.008 49.9128 145.443 50.227 144.838 50.1695C144.385 50.1261 143.705 49.8087 142.829 49.274C142.077 48.8141 141.179 48.1954 140.158 47.452C136.385 44.7103 130.922 40.2927 124.796 36.0883C123.086 34.9152 121.325 33.7581 119.535 32.6594C117.278 31.2744 114.976 29.9807 112.67 28.8614C112.668 28.8596 112.666 28.8587 112.665 28.8578L112.665 28.8573C111.469 28.2765 110.273 27.7422 109.082 27.2664C109.081 27.2655 109.081 27.2655 109.081 27.2655C106.292 26.1503 103.635 25.2129 101.13 24.4498C101.13 24.4498 101.13 24.4498 101.127 24.4493C97.9326 23.4753 94.985 22.7849 92.3305 22.3698C85.3772 21.2825 80.4244 22.0821 78.269 24.6292C77.8453 25.1297 77.2731 25.8325 76.5854 26.6855C75.4305 28.1185 73.9482 29.9752 72.2934 32.0077C71.5344 32.9402 70.7385 33.9097 69.922 34.8924C68.5667 36.5226 67.152 38.1884 65.7473 39.7808C65.3583 40.2219 64.9697 40.6575 64.5843 41.0849L64.5838 41.0859C62.9522 42.8914 61.359 44.5555 59.9137 45.903H59.9132C58.9118 46.8359 57.9807 47.6168 57.1578 48.1881C56.8012 48.4356 56.4637 48.6429 56.15 48.8073C55.8039 48.9881 55.4865 49.1146 55.2006 49.1813C52.2366 49.8726 49.1542 50.09 46.5212 49.727C46.2303 49.6868 45.944 49.6393 45.6645 49.5845C44.7489 49.4064 43.9009 49.1502 43.1475 48.8109C42.8698 48.6854 42.6059 48.5493 42.3557 48.4023C42.2406 48.3347 42.1282 48.2643 42.0196 48.1917C41.135 47.6017 39.7975 46.2948 38.2568 44.6628V44.6619C37.4992 43.8586 36.6923 42.9764 35.8676 42.0626C32.7483 38.6067 29.3659 34.6965 27.3544 32.8676C25.5214 31.2018 22.2568 29.4094 19.4768 28.0436C16.8004 26.7298 14.5733 25.812 14.503 25.7832C14.5843 25.864 18.7731 30.0081 21.7052 33.1503C22.8299 34.3544 23.7697 35.4111 24.2232 36.0358C24.4108 36.2947 24.5419 36.5454 24.6195 36.7865C25.2273 38.6579 22.7126 39.9347 19.9389 39.789C18.943 39.736 17.0986 39.5844 15.0016 39.4113H15.0012C14.308 39.3538 13.5874 39.294 12.8604 39.236C11.9174 39.1593 10.9635 39.0839 10.0479 39.0154C7.09619 38.7967 4.53624 38.6542 3.95538 38.7994C2.63705 39.1287 0.000366211 40.1178 0.000366211 40.1178Z" fill="url(#paint2_linear_482_1646)"/>
<path opacity="0.4" d="M10.9012 42.3697C11.8994 42.557 12.8986 42.7378 13.8662 42.9036L12.8602 39.2371C11.9172 39.1604 10.9633 39.0851 10.0477 39.0166C9.90526 39.8322 10.0217 40.9587 10.9012 42.3697Z" fill="url(#paint3_linear_482_1646)"/>
<path opacity="0.4" d="M156.759 62.1997C157.64 61.8641 158.569 61.5212 159.533 61.1778C161.917 57.2862 165.167 52.349 166.675 51.6855C169.209 50.5708 186.671 47.1149 191.304 49.3543C195.105 51.1909 199.498 56.7794 202.26 60.5563C202.252 58.474 202.134 56.2551 201.897 54.2395L201.897 54.239C198.881 51.3101 194.714 47.9254 191 47.2482C184.209 46.0098 168.195 48.7465 166.269 49.7602C164.92 50.4703 159.74 57.8461 156.759 62.1997Z" fill="url(#paint4_linear_482_1646)"/>
<path opacity="0.4" d="M142.467 67.878C144.119 67.9479 145.721 67.378 147.352 66.5628H147.353C149.84 63.127 154.385 56.9623 157.147 53.9165C161.101 49.5583 169.807 44.6868 180.358 42.8689C186.658 41.783 192.517 42.6803 196.216 43.5799C195.031 42.4908 193.655 41.3921 192.214 40.5742C187.919 40.7555 181.19 41.3126 174.685 42.9702C163.945 45.7065 157.553 50.7748 153.194 56.4627C149.915 60.7424 144.798 65.6907 142.467 67.878Z" fill="url(#paint5_linear_482_1646)"/>
<path opacity="0.4" d="M117.276 49.3947C118.516 50.2262 119.745 51.0592 120.945 51.8839L120.946 51.8843C125.35 53.8817 133.97 57.6408 136.313 57.5577C142.713 57.3326 150.2 51.6912 154.51 47.9238C152.515 48.4855 150.713 48.9778 149.208 49.3577H149.207C145.46 51.8044 140.41 54.3694 136.203 53.9159C130.561 53.3077 121.703 50.75 117.276 49.3947Z" fill="url(#paint6_linear_482_1646)"/>
<path opacity="0.4" d="M92.5076 33.4893C93.0912 33.7934 93.673 34.1368 94.2516 34.5153C94.853 34.909 95.5978 35.3889 96.4613 35.9405C100.649 36.8301 107.808 38.4461 111.536 39.8266C117.009 41.8541 121.774 45.7055 131.504 48.949C136.448 50.597 140.268 50.1313 142.829 49.2737C142.077 48.8138 141.179 48.1951 140.158 47.4517C138.294 47.9517 136.205 48.2599 134.544 47.8339C130.591 46.8206 117.01 40.9417 111.84 38.6306C107.95 36.8913 97.4627 34.5446 92.5076 33.4893Z" fill="url(#paint7_linear_482_1646)"/>
<path opacity="0.4" d="M81.4141 33.3837C82.4548 32.6385 83.548 32.1065 84.8088 31.9289C88.3871 31.1261 99.8799 31.1105 111.536 34.6578C118.168 36.6761 122.34 36.562 124.796 36.088C123.086 34.9149 121.325 33.7577 119.535 32.659C116.362 33.3285 112.228 33.7221 108.597 32.5289C101.502 30.1982 90.2036 28.8191 85.5892 29.7922C82.8799 30.3644 81.4424 33.3248 81.4141 33.3837Z" fill="url(#paint8_linear_482_1646)"/>
<path opacity="0.4" d="M71.3116 44.563C72.2578 43.3895 73.1601 42.2739 74.0026 41.2428L74.0031 41.2423C76.648 35.5584 80.809 27.6283 84.1785 25.7949C89.519 22.8893 100.923 24.4213 101.127 24.4487C97.9323 23.4747 94.9846 22.7842 92.3301 22.3691C87.4011 23.2523 81.6971 24.9355 79.8993 28.0932C77.7458 31.8761 73.846 39.5303 71.3116 44.563Z" fill="url(#paint9_linear_482_1646)"/>
<path opacity="0.4" d="M65.2323 52.1103C65.9493 51.2262 66.6639 50.3403 67.3708 49.4631C67.4448 47.1995 67.6598 44.6268 68.1708 42.3586C68.7521 39.7781 70.534 35.6843 72.293 32.0078C71.534 32.9403 70.7381 33.9097 69.9216 34.8924C68.9243 37.4547 67.9653 39.8576 67.379 41.1695C66.4283 43.2966 65.6908 48.2512 65.2323 52.1103Z" fill="url(#paint10_linear_482_1646)"/>
<path opacity="0.4" d="M48.6274 69.8627C49.5932 69.2238 50.6344 68.4375 51.7399 67.4699C53.2711 66.1301 55.336 63.9048 57.6562 61.2257C59.7828 57.1428 61.977 52.6485 62.7825 50.0511C63.6981 47.0984 64.8552 43.0023 65.7471 39.7793C65.358 40.2204 64.9694 40.6561 64.584 41.0835L64.5835 41.0844C63.173 44.6316 61.3984 49.109 59.8504 53.0554C56.6932 61.1074 48.69 69.7951 48.6274 69.8627Z" fill="url(#paint11_linear_482_1646)"/>
<path opacity="0.4" d="M62.9707 41.1659C63.0559 41.0637 63.0996 41.0107 63.0996 41.0107C63.0789 41.0176 63.0351 41.0706 62.9707 41.1659Z" fill="url(#paint12_linear_482_1646)"/>
<path opacity="0.4" d="M40.6535 56.8614C41.5919 57.5637 42.4883 58.1724 43.3139 58.7108L43.3153 58.7113C47.1772 58.7944 50.813 56.4002 54.2776 52.8187C56.585 50.4336 58.4782 47.9636 59.9121 45.9023C58.4764 47.2403 57.1864 48.2646 56.1489 48.8066C54.836 50.1985 53.3866 51.6931 51.8459 53.2146C48.2357 56.7806 43.8236 57.1874 40.6535 56.8614Z" fill="url(#paint13_linear_482_1646)"/>
<path opacity="0.4" d="M18.7971 43.6188C19.7364 43.7169 20.5241 43.7649 21.0917 43.743C21.4707 43.7284 21.8927 43.7859 22.3516 43.906C22.3516 43.906 22.3534 43.906 22.3575 43.9069C22.6215 43.9329 31.0895 44.785 36.472 47.9058C41.9403 51.0753 46.378 49.862 46.378 49.862C46.378 49.862 46.431 49.8118 46.5205 49.7269C44.9241 49.5067 43.493 49.0734 42.3545 48.4021C37.4648 47.0993 30.5068 43.2365 25.0604 42.6749C21.263 42.2831 19.5546 42.8973 18.7971 43.6188Z" fill="url(#paint14_linear_482_1646)"/>
<path opacity="0.4" d="M21.7037 33.1494C22.8285 34.3536 23.7682 35.4103 24.2217 36.035C24.4094 36.2939 24.5404 36.5446 24.6181 36.7857C26.762 37.7597 29.5119 39.2146 31.5582 41.0097C33.7569 42.9394 36.3872 44.0559 38.2549 44.661C37.4973 43.8578 36.6904 42.9755 35.8657 42.0618C33.6902 41.2453 31.1819 39.9288 29.2599 37.8396C26.119 34.4267 21.7037 33.1494 21.7037 33.1494Z" fill="url(#paint15_linear_482_1646)"/>
<path opacity="0.4" d="M52.0603 61.4569C52.6261 62.1077 52.8918 62.8789 52.9932 63.6223C50.8684 66.5321 48.2683 69.3382 45.4051 71.621C46.3545 71.2182 47.434 70.6538 48.6272 69.8647H48.6277C49.5935 69.2258 50.6346 68.4395 51.7402 67.4719C52.0443 67.2057 52.3703 66.9043 52.7146 66.5705C53.4393 65.87 54.2481 65.0293 55.1212 64.0799V64.079C55.9185 63.2114 56.7688 62.2529 57.6565 61.2277C60.0155 58.5052 62.638 55.3141 65.2327 52.1108C65.9496 51.2267 66.6643 50.3408 67.3712 49.4636C68.7297 47.7758 70.0576 46.12 71.312 44.5647L71.3125 44.5642C72.2586 43.3906 73.161 42.2751 74.0035 41.244L74.0039 41.2435C76.194 38.5653 77.9708 36.4684 79.0051 35.4692C79.812 34.6893 80.597 33.9719 81.4135 33.3864L81.4139 33.386C82.4546 32.6407 83.5478 32.1087 84.8086 31.9311C87.3636 31.5731 89.9541 32.1613 92.5077 33.4915C93.0913 33.7956 93.673 34.139 94.2516 34.5176C94.853 34.9112 95.5978 35.3911 96.4613 35.9427C101.186 38.9644 109.469 44.1624 117.275 49.3965C117.287 49.4042 117.299 49.412 117.31 49.4197C117.855 49.7855 118.399 50.1513 118.937 50.5161C119 50.5586 119.063 50.6011 119.125 50.6436C119.737 51.0591 120.344 51.4728 120.944 51.8852L120.945 51.8856C127.669 56.5073 133.506 60.8884 135.61 63.5169C138.093 66.6211 140.32 67.7883 142.465 67.8787H142.466C144.118 67.9486 145.72 67.3787 147.351 66.5636H147.352C148.098 66.191 148.85 65.7672 149.616 65.3293C150.924 64.5822 153.514 63.4383 156.759 62.2013C157.639 61.8656 158.568 61.5227 159.533 61.1793C167.553 58.3221 178.032 55.4105 183.725 55.937C192.622 56.7612 197.236 62.0341 200.037 67.8016C201.495 70.8017 202.28 66.1745 202.259 60.5583C202.252 58.4759 202.133 56.2571 201.897 54.2415L201.896 54.241C201.597 51.6801 201.107 49.4458 200.412 48.2302C200.614 52.8519 200.43 60.0441 197.187 58.7152C192.474 56.7827 184.379 47.1434 173.315 50.7956C171.744 51.3144 170.086 51.9792 168.383 52.7291C167.231 50.2522 165.471 47.0397 163.457 45.3501C162.881 45.5168 162.308 45.683 161.74 45.8483C162.949 46.5525 164.117 47.5964 164.931 49.1426C165.83 50.8504 166.472 52.2679 166.927 53.3848C156.988 57.9499 145.875 64.7612 141.03 62.2022C137.681 60.4336 127.927 53.7277 118.921 47.2507C118.572 43.097 117.794 37.5342 117.276 35.2203C116.447 31.5165 112.84 28.9803 112.671 28.8629C112.668 28.8611 112.666 28.8602 112.665 28.8593L112.665 28.8588C111.469 28.2779 110.273 27.7437 109.083 27.2678C109.158 27.34 114.035 31.9475 115.861 34.8477C116.978 36.6204 117.26 42.2837 117.31 46.4657C110.932 41.8266 105.258 37.32 103.106 34.697C97.8011 28.2332 86.0699 24.2289 81.4313 28.3181C78.7805 30.6552 77.3365 28.7497 76.5858 26.687C75.431 28.12 73.9487 29.9767 72.2938 32.0092C71.5349 32.9417 70.7389 33.9111 69.9224 34.8938C68.5671 36.5241 67.1524 38.1899 65.7478 39.7822C65.3587 40.2233 64.9701 40.659 64.5847 41.0864L64.5842 41.0873C62.9527 42.8929 61.3594 44.5569 59.9141 45.9045H59.9137C58.9122 46.8374 57.9811 47.6183 57.1583 48.1895C58.183 49.0033 58.8556 50.2869 58.4775 52.3103C57.983 54.9548 56.5788 58.1517 54.5431 61.3556C53.7554 60.103 50.547 57.4531 48.2838 53.4309C47.4874 52.0144 46.5536 50.7029 45.6654 49.5864C44.7498 49.4083 43.9018 49.1521 43.1484 48.8129C45.5101 50.9641 50.33 59.4637 52.0603 61.4569Z" fill="url(#paint16_linear_482_1646)"/>
<path opacity="0.4" d="M19.9388 39.789C18.9428 39.736 17.0985 39.5844 15.0015 39.4114C15.1321 39.4497 27.2935 43.0399 28.0196 39.7803C28.7498 36.5034 23.0855 33.6576 20.3397 30.1821C19.6443 29.3026 19.421 28.6012 19.4758 28.0436C16.7994 26.7298 14.5723 25.812 14.502 25.7832C14.5833 25.864 18.7721 30.0081 21.7042 33.1503C22.8289 34.3545 23.7687 35.4111 24.2221 36.0358C24.4098 36.2947 24.5409 36.5454 24.6185 36.7865C25.2268 38.6579 22.7125 39.9347 19.9388 39.789Z" fill="url(#paint17_linear_482_1646)"/>
<path opacity="0.4" d="M22.3524 43.9053C22.3524 43.9053 22.3543 43.9053 22.3584 43.9062C27.0897 45.1442 35.6728 52.9615 39.8767 56.2658C40.1383 56.4713 40.3973 56.6699 40.6534 56.8603C40.6534 56.8603 40.6539 56.8608 40.6548 56.8608C41.5932 57.5631 42.4896 58.1718 43.3152 58.7102L43.3166 58.7106C46.2332 60.6121 48.2808 61.6451 48.2808 62.8561C48.2808 63.1652 48.1191 63.6292 47.8378 64.1941C55.3839 57.3868 41.4599 54.2227 35.9509 49.1398C30.4406 44.0569 22.3524 43.9053 22.3524 43.9053Z" fill="url(#paint18_linear_482_1646)"/>
<path d="M152.563 48.4667C152.563 48.4667 152.238 45.0295 154.625 42.0184C156.142 40.1037 158.454 38.8009 159.986 39.1073C161.519 39.4141 168.413 43.5505 171.171 49.3722C171.68 50.4476 172.189 51.6568 172.709 52.9185C172.139 52.5834 171.465 52.3875 170.68 52.4624C168.025 52.7153 166.199 56.822 166.157 61.0884C166.148 61.8131 166.193 62.5419 166.293 63.2575L167.229 64.6868C167.229 64.6868 167.102 56.2 169.792 54.2862C172.18 52.5879 174.194 56.5945 174.617 57.5183C174.623 57.532 174.63 57.5453 174.635 57.5581C174.646 57.5827 174.656 57.6046 174.664 57.6234C174.673 57.6425 174.68 57.6581 174.685 57.6704C174.687 57.6763 174.69 57.6823 174.691 57.6864C174.696 57.6973 174.699 57.7037 174.699 57.7037C176.461 61.7263 178.431 65.2717 180.9 65.7658C185.113 66.6088 192.058 58.5316 192.058 58.5316C192.058 58.5316 191.321 58.0572 190.433 57.6741C190.433 57.6741 189.761 58.5234 188.743 59.5847C186.981 61.4204 184.185 63.8918 182.048 63.6981C178.677 63.3917 175.46 55.8845 172.549 48.9896C169.639 42.0951 160.676 37.5761 160.676 37.5761C160.676 37.5761 157.688 34.8176 158.148 33.286C158.347 32.6225 159.454 31.3671 160.644 30.1588C160.644 30.1588 160.644 30.1589 160.645 30.1584C162.198 28.5798 163.894 27.0811 163.894 27.0811H161.672C161.672 27.0811 156.846 31.6005 156.693 33.5924C156.54 35.5843 158.454 37.346 158.454 37.346C158.454 37.346 153.629 40.3338 152.02 43.0148C150.857 44.9533 150.475 47.2584 150.353 48.3859C150.306 48.8183 150.297 49.0777 150.297 49.0777L152.563 48.4667Z" fill="url(#paint19_linear_482_1646)"/>
<path opacity="0.4" d="M152.563 48.4663C152.563 48.4663 152.238 45.0291 154.624 42.018C156.142 40.1033 158.454 38.8005 159.986 39.1069C161.518 39.4137 168.413 43.55 171.171 49.3718C171.68 50.4472 172.189 51.6564 172.709 52.9181C172.709 52.9181 173.506 53.3296 173.922 53.8912C173.89 53.8332 172.867 51.9542 171.672 49.1403C170.457 46.2812 168.325 43.9418 165.038 41.2764C161.751 38.6114 160.183 38.0073 157.871 38.7C155.559 39.3932 152.007 44.1492 151.681 46.9329C151.553 48.0274 150.99 48.3713 150.354 48.385C150.307 48.8174 150.298 49.0768 150.298 49.0768L152.563 48.4663Z" fill="url(#paint20_linear_482_1646)"/>
<path opacity="0.4" d="M158.454 37.3455C159.012 37.4538 159.439 37.3994 159.439 37.3994C159.439 37.3994 157.612 36.1373 157.41 34.1924C157.188 32.0553 159.564 29.7168 160.123 29.5332C161.037 29.2323 160.643 30.1588 160.643 30.1588C160.643 30.1588 160.644 30.1589 160.645 30.1584C162.198 28.5798 163.894 27.0811 163.894 27.0811H161.672C161.672 27.0811 156.846 31.6005 156.692 33.5924C156.54 35.5838 158.454 37.3455 158.454 37.3455Z" fill="url(#paint21_linear_482_1646)"/>
<path opacity="0.4" d="M166.293 63.2569L167.229 64.6862C167.229 64.6862 167.102 56.1994 169.792 54.2856C172.18 52.5874 174.194 56.594 174.617 57.5178C174.623 57.5315 174.63 57.5447 174.635 57.5575C174.646 57.5822 174.656 57.6041 174.664 57.6228C174.673 57.642 174.68 57.6575 174.685 57.6698C174.687 57.6758 174.69 57.6817 174.691 57.6858C174.696 57.6968 174.699 57.7032 174.699 57.7032C176.461 61.7258 178.431 65.2712 180.9 65.7652C185.113 66.6082 192.058 58.5311 192.058 58.5311C192.058 58.5311 191.321 58.0566 190.433 57.6735C190.433 57.6735 189.761 58.5229 188.743 59.5841C188.793 59.5667 189.59 59.3065 189.369 60.3892C189.143 61.507 183.391 66.1319 180.285 64.8355C177.179 63.5396 175.264 56.5917 173.529 54.5669C171.793 52.5412 168.846 52.8161 167.863 55.9373C167.022 58.6096 167.232 61.0997 166.156 61.0878C166.148 61.8121 166.193 62.5409 166.293 63.2569Z" fill="url(#paint22_linear_482_1646)"/>
<path d="M174.685 57.6705C174.68 57.658 174.673 57.6419 174.664 57.623C174.671 57.6387 174.678 57.6544 174.685 57.6705Z" fill="url(#paint23_linear_482_1646)"/>
<path d="M174.635 57.5586C174.645 57.5807 174.654 57.6028 174.664 57.6244C174.656 57.6056 174.646 57.5835 174.635 57.5586Z" fill="url(#paint24_linear_482_1646)"/>
<path d="M157.457 26.6076C159.849 29.6462 162.886 27.4049 162.886 27.4049C163.389 30.0599 164.9 31.0476 166.676 31.1266C169.131 31.2362 172.092 29.6101 173.595 28.2515C176.185 25.9103 177.937 19.8721 177.58 19.6346C176.983 19.236 171.177 19.5346 171.177 19.5346C171.648 16.8454 169.511 11.9644 169.511 11.9644C169.203 12.1087 168.868 12.3027 168.518 12.5329C167.995 12.8758 167.438 13.2968 166.886 13.7476C166.878 13.753 166.871 13.759 166.863 13.7654C166.807 13.811 166.75 13.8585 166.693 13.9051C166.688 13.9092 166.683 13.9124 166.68 13.9161C166.675 13.9202 166.671 13.9234 166.667 13.9261C166.665 13.9288 166.663 13.9311 166.662 13.9316C166.661 13.9325 166.661 13.9325 166.661 13.9325C164.758 15.5107 162.979 17.3496 162.937 17.393L162.937 17.3939C162.239 15.5504 159.002 12.6621 159.002 12.6621C159.002 12.6621 158.881 12.9968 158.694 13.5654C157.817 16.2413 155.485 24.1011 157.457 26.6076Z" fill="url(#paint25_linear_482_1646)"/>
<path opacity="0.2" d="M162.886 27.4044C162.886 27.4044 163.264 29.0858 165.887 29.5041C168.509 29.9223 172.272 23.4225 172.272 23.4225L167.901 23.1183C167.901 23.1183 167.863 17.645 167.407 16.9604C167.407 16.9604 163.763 19.7355 162.886 20.4195C162.886 20.4195 161.304 17.8728 160.288 17.1888C160.288 17.1888 158.779 21.0278 158.627 23.7645C158.474 26.5012 160.684 27.8515 162.886 27.4044Z" fill="url(#paint26_linear_482_1646)"/>
<path opacity="0.4" d="M157.457 26.607C159.848 29.6455 162.886 27.4043 162.886 27.4043C163.388 30.0592 164.899 31.0469 166.675 31.1259C171.1 29.6574 173.044 24.8576 173.921 22.1679C174.799 19.4751 169.86 20.2587 169.86 20.2587C170.546 18.3499 169.371 14.4826 168.979 13.3565C168.671 12.4678 167.406 13.3396 166.885 13.7469C166.877 13.7524 166.87 13.7583 166.863 13.7647C166.785 13.8254 166.726 13.8757 166.693 13.9044C166.688 13.9086 166.683 13.9118 166.679 13.9154C166.675 13.9195 166.671 13.9227 166.667 13.9255C166.664 13.9282 166.662 13.9305 166.661 13.9309C166.66 13.9318 166.66 13.9318 166.66 13.9318C164.758 15.51 162.979 17.3489 162.937 17.3923L162.936 17.3932L162.109 18.3503C161.798 17.0284 158.693 13.5652 158.693 13.5652C157.816 16.2406 155.485 24.1004 157.457 26.607Z" fill="url(#paint27_linear_482_1646)"/>
<path d="M155.295 69.9717C156.598 70.1525 162.754 69.2114 162.754 69.2114C162.971 71.8901 165.325 77.1776 165.325 77.1776C169.344 74.7879 170.684 69.537 170.684 69.537C171.48 69.7548 174.92 73.086 174.92 73.086C175.092 72.243 175.129 71.2722 175.046 70.2544C174.767 66.7706 173.094 62.7361 170.684 61.3904C169.392 60.6689 168.467 60.7771 167.828 61.1507V61.1511C166.927 61.6767 166.592 62.7302 166.592 62.7302C166.592 62.7302 163.949 61.2461 161.378 62.2959C158.807 63.3453 155.295 69.9717 155.295 69.9717Z" fill="url(#paint28_linear_482_1646)"/>
<path opacity="0.2" d="M166.592 62.7288C166.592 62.7288 168.285 61.5904 170.316 63.5389C172.347 65.4874 173.061 68.451 173.061 68.451L169.027 67.1889C169.027 67.1889 168.341 71.4151 166.776 73.0892C166.776 73.0892 164.526 68.4515 164.471 67.0793C164.471 67.0793 160.821 67.6556 159.312 67.5734C159.312 67.5734 161.113 64.6545 162.687 63.3197C164.261 61.9845 165.393 62.358 166.592 62.7288Z" fill="url(#paint29_linear_482_1646)"/>
<path opacity="0.4" d="M155.295 69.9719C156.598 70.1528 162.754 69.2116 162.754 69.2116C162.971 71.8903 165.325 77.1778 165.325 77.1778C169.344 74.7882 170.684 69.5372 170.684 69.5372C171.48 69.755 174.92 73.0863 174.92 73.0863C175.092 72.2433 175.129 71.2725 175.046 70.2546C173.819 74.2525 167.31 62.0939 167.828 61.1514C166.927 61.677 166.592 62.7305 166.592 62.7305C166.592 62.7305 163.949 61.2463 161.378 62.2962C158.807 63.3455 155.295 69.9719 155.295 69.9719Z" fill="url(#paint30_linear_482_1646)"/>
<path d="M121.704 38.7867C122.184 41.1873 122.37 44.6048 122.599 48.1872C122.582 48.1722 122.558 48.1502 122.528 48.1219C122.518 48.1133 122.507 48.1028 122.495 48.0927C122.492 48.0891 122.488 48.0859 122.484 48.0827C121.575 47.2703 120.077 46.2867 118.126 46.2447C115.963 46.1981 114.192 46.9187 112.918 48.0356C112.222 48.6466 111.675 49.3763 111.294 50.1641V52.7176C111.294 52.7176 113.308 48.2585 116.652 47.5749C119.211 47.0525 121.728 49.5188 122.768 50.6582C123.19 56.374 123.914 62.0186 126.278 64.2246C130.476 68.1449 136.3 64.3333 136.201 64.2246C135.756 63.7328 134.639 62.4382 134.639 62.4382C134.639 62.4382 132.968 63.9105 130.876 64.015C129.75 64.0721 128.502 63.7319 127.327 62.5533C125.066 60.2842 124.186 53.9748 123.803 47.784C123.41 41.4229 122.979 36.2382 122.979 36.2382C125.978 31.1402 132.95 31.9649 132.95 31.9649L132.65 29.1908C131.173 29.0063 129.439 29.5871 127.811 30.4191C124.811 31.9507 122.172 34.3317 122.172 34.3317C119.491 23.953 113.007 23.0429 113.007 23.0429C111.997 21.1552 111.811 19.3633 112.05 17.7732C112.394 15.5042 113.609 13.6456 114.544 12.5049C115.192 11.7172 115.705 11.272 115.705 11.272L113.455 11.9154L112.557 12.1725C108.283 16.6709 111.807 23.2685 111.807 23.2685C109.932 22.8941 101.13 24.4508 101.13 24.4508C102.231 24.7782 104.768 25.6454 104.768 25.6454C104.768 25.6454 110.683 24.8426 113.682 25.2928C116.68 25.7417 120.355 32.0393 121.704 38.7867Z" fill="url(#paint31_linear_482_1646)"/>
<path opacity="0.4" d="M101.13 24.45C102.232 24.7774 104.768 25.6446 104.768 25.6446C104.768 25.6446 110.683 24.8418 113.682 25.292C116.681 25.7418 120.355 32.0394 121.704 38.7873C122.184 41.1879 122.371 44.6054 122.599 48.1878C122.963 48.5056 123.159 48.6344 123.159 48.6344C123.159 48.6344 123.119 44.9616 122.448 40.1052C121.777 35.2483 121.004 33.6295 119.447 29.9567C118.142 26.8784 116.049 25.4057 114.218 24.4417C112.008 23.2782 111.668 21.5854 111.155 20.0456C110.641 18.5049 111.036 15.7015 111.707 15.7015C112.196 15.7015 112.125 17.0427 112.05 17.7729C112.394 15.5038 113.609 13.6453 114.545 12.5046L113.455 11.915L112.557 12.1721C108.283 16.6705 111.807 23.2682 111.807 23.2682C109.933 22.8928 101.13 24.45 101.13 24.45Z" fill="url(#paint32_linear_482_1646)"/>
<path opacity="0.4" d="M111.294 50.1642V52.7178C111.294 52.7178 113.308 48.2586 116.652 47.575C119.211 47.0526 121.728 49.519 122.768 50.6583C123.19 56.3741 123.914 62.0187 126.278 64.2248C130.476 68.1451 136.3 64.3335 136.201 64.2248C135.756 63.733 134.639 62.4384 134.639 62.4384C134.639 62.4384 132.968 63.9106 130.876 64.0152C130.876 64.0152 132.186 64.9084 131.235 65.1851C130.283 65.4623 126.915 65.0664 125.608 62.3717C124.3 59.6775 123.389 53.1561 123.35 51.2656C123.31 49.3751 121.168 47.7444 119.585 47.249C114.726 45.7274 113.998 49.613 113.087 48.5034C112.988 48.3833 112.936 48.2244 112.918 48.0362C112.222 48.6472 111.675 49.3765 111.294 50.1642Z" fill="url(#paint33_linear_482_1646)"/>
<path opacity="0.4" d="M122.047 35.0955C122.047 35.0955 122.711 35.253 122.979 36.238C125.978 31.14 132.95 31.9647 132.95 31.9647L132.65 29.1906C131.173 29.0061 129.44 29.5869 127.812 30.4189C127.812 30.4189 128.971 30.4162 128.855 31.0738C128.739 31.7313 124.868 33.0739 123.948 34.1995C123.262 35.0379 122.047 35.0955 122.047 35.0955Z" fill="url(#paint34_linear_482_1646)"/>
<path d="M99.9294 55.6554C100.583 55.8371 105.27 57.218 105.27 57.218C105.306 58.4167 106.033 63.3951 106.033 63.3951C109.885 63.0676 113.737 60.2702 113.737 60.2702C114.209 60.6333 115.953 64.1581 116.062 64.1947C116.159 64.2266 119.269 57.6893 118.024 53.6402C117.861 53.1128 117.624 52.6269 117.298 52.2036C114.463 48.5344 111.847 50.0966 111.847 50.0966C111.302 47.9888 110.248 46.39 106.578 46.8627C102.909 47.3344 99.9294 55.6554 99.9294 55.6554Z" fill="url(#paint35_linear_482_1646)"/>
<path opacity="0.2" d="M111.847 50.0965C111.847 50.0965 115.256 49.9051 115.902 53.4062C116.548 56.9073 115.902 59.2248 115.902 59.2248L113.225 56.7229C113.225 56.7229 109.302 59.6764 108.195 60.0459C108.195 60.0459 107.272 55.689 107.41 54.3597C107.41 54.3597 104.549 53.0058 103.811 52.7414C103.811 52.7414 107.567 45.1391 111.847 50.0965Z" fill="url(#paint36_linear_482_1646)"/>
<path opacity="0.4" d="M99.9294 55.6565C100.583 55.8383 105.27 57.2192 105.27 57.2192C105.306 58.4179 106.033 63.3962 106.033 63.3962C109.885 63.0688 113.737 60.2714 113.737 60.2714C114.209 60.6344 115.953 64.1593 116.062 64.1958C116.159 64.2278 119.269 57.6904 118.024 53.6413L118.022 53.6377C118.022 53.6377 118.49 57.1639 116.693 57.5607C114.897 57.9571 110.925 52.7427 110.925 52.7427C110.925 52.7427 102.043 49.4356 106.578 46.8643C102.909 47.3355 99.9294 55.6565 99.9294 55.6565Z" fill="url(#paint37_linear_482_1646)"/>
<path d="M130.724 30.8075C130.724 30.8075 129.125 33.472 131.015 36.9115C132.904 40.3514 138.572 40.4966 138.572 40.4966C138.579 40.2331 138.557 39.9262 138.515 39.5915V39.5906C138.256 37.5371 137.216 34.4889 137.216 34.4889C141.479 33.6168 144.87 30.4198 144.87 30.4198C142.399 26.1565 136.973 26.2054 136.973 26.2054C138.233 24.9935 140.122 20.9731 140.122 20.9731C140.122 20.9731 130.676 21.2636 129.464 24.7035C128.253 28.1429 130.579 30.7586 130.724 30.8075Z" fill="url(#paint38_linear_482_1646)"/>
<path opacity="0.2" d="M130.724 30.8078C130.724 30.8078 130.379 32.39 131.435 34.6792C132.491 36.9684 135.697 38.1661 135.697 38.1661C135.697 38.1661 135.339 34.3271 134.619 33.2001C134.619 33.2001 138.62 31.4745 139.817 30.4881C139.817 30.4881 137.07 28.3396 135.485 27.6354C135.485 27.6354 137.105 23.7261 136.788 22.8101C136.788 22.8101 132.069 23.8667 130.942 26.3673C129.815 28.8679 130.724 30.8078 130.724 30.8078Z" fill="url(#paint39_linear_482_1646)"/>
<path opacity="0.4" d="M130.723 30.807C130.723 30.807 129.125 33.4715 131.014 36.9109C132.903 40.3509 138.571 40.4961 138.571 40.4961C138.578 40.2326 138.556 39.9257 138.515 39.591C138.058 41.0144 132.609 37.901 132.077 34.525C131.687 32.0536 133.085 30.9152 133.085 30.9152C133.085 30.9152 130.744 28.3137 131.785 24.8331C132.825 21.3535 140.122 20.9722 140.122 20.9722C140.122 20.9722 130.676 21.2626 129.464 24.7025C128.252 28.1424 130.578 30.7581 130.723 30.807Z" fill="url(#paint40_linear_482_1646)"/>
<path d="M106.739 12.5304C108.459 16.5265 112.734 13.6921 112.734 13.6921C112.734 13.6921 111.945 16.9448 114.733 17.9211C115.337 18.1321 116.138 18.022 117.038 17.6809C120.299 16.448 124.86 12.2002 126.025 9.32383C126.025 9.32383 123.377 8.39411 119.799 8.58042C119.799 8.58042 118.451 2.77142 116.964 0.726562C116.964 0.726562 113.897 2.35268 112.038 5.09484C112.038 5.09484 109.529 1.70196 108.134 1.37728C108.134 1.37728 105.391 9.39644 106.739 12.5304Z" fill="url(#paint41_linear_482_1646)"/>
<path opacity="0.2" d="M112.734 13.6928C112.734 13.6928 112.252 14.7924 114.473 15.9605C116.692 17.1291 122.262 11.5598 122.262 11.5598C122.262 11.5598 119.155 9.9241 117.476 10.0798C117.476 10.0798 116.654 5.99055 116.03 5.44531C116.03 5.44531 112.776 7.08102 112.144 7.82078C112.144 7.82078 110.189 5.79556 109.332 5.44531C109.332 5.44531 107.813 10.0104 108.475 11.9142C109.137 13.8184 112.734 13.6928 112.734 13.6928Z" fill="url(#paint42_linear_482_1646)"/>
<path opacity="0.4" d="M106.74 12.5305C108.46 16.5266 112.735 13.6922 112.735 13.6922C112.735 13.6922 111.945 16.9449 114.734 17.9212C115.337 18.1322 116.139 18.0222 117.039 17.681C117.041 17.6801 117.042 17.6797 117.044 17.6783C119.802 16.1307 120.343 11.8154 120.117 11.2711C119.892 10.7268 116.844 10.7998 116.694 10.7998C116.544 10.7998 116.995 5.23242 116.506 4.7808C116.017 4.32963 112.039 5.09451 112.039 5.09451C112.039 5.09451 109.529 1.70163 108.135 1.37695C108.135 1.37695 105.392 9.39657 106.74 12.5305Z" fill="url(#paint43_linear_482_1646)"/>
<path d="M55.2403 23.2701C55.2403 23.2701 55.5417 23.7788 56.0294 24.54C57.2294 26.4136 59.5556 29.8179 61.2808 30.9294C63.7083 32.4939 66.945 30.9294 66.945 30.9294C64.6796 33.4113 64.4549 41.2245 64.4549 41.2245L66.0783 39.4025C66.0783 39.4025 66.4592 34.436 67.4843 32.0623C68.509 29.6887 74.1189 26.5607 78.4877 33.5725C82.8569 40.5852 89.1143 43.821 89.1143 43.821C83.287 44.7936 82.2098 50.9953 82.2098 50.9953L83.2884 51.2652C84.4213 47.6513 87.4964 45.2238 90.8404 44.7923C94.1844 44.3607 100.356 38.422 100.356 38.422L98.9573 37.5316C98.9573 37.5316 95.4767 41.3304 92.351 42.2031C90.0317 42.8506 84.314 40.3838 80.8079 34.6511C77.3018 28.9183 73.5253 26.9374 70.721 28.0708C69.6374 28.5083 68.441 29.043 67.2496 29.4768C65.3577 30.1677 63.4805 30.6079 62.0904 30.0125C61.2082 29.6344 60.1634 28.3822 59.2154 26.9936C58.6455 26.1588 58.1112 25.2752 57.6696 24.5021C56.9559 23.2568 56.4805 22.2983 56.4805 22.2983L55.2403 23.2701Z" fill="url(#paint44_linear_482_1646)"/>
<path opacity="0.4" d="M56.0294 24.5409C57.2294 26.4145 59.5556 29.8188 61.2808 30.9303C63.7083 32.4947 66.945 30.9303 66.945 30.9303C64.6796 33.4121 64.4549 41.2253 64.4549 41.2253L66.0783 39.4033C66.0783 39.4033 66.4592 34.4368 67.4843 32.0632C68.509 29.6895 74.1189 26.5615 78.4877 33.5733C82.8569 40.586 89.1143 43.8218 89.1143 43.8218C83.287 44.7945 82.2098 50.9962 82.2098 50.9962L83.2884 51.2661C84.4213 47.6522 87.4964 45.2246 90.8404 44.7931C94.1844 44.3616 100.356 38.4229 100.356 38.4229L98.9573 37.5324C98.9573 37.5324 95.4767 41.3313 92.351 42.2039C90.0317 42.8514 84.314 40.3847 80.8079 34.6519C77.3018 28.9192 73.5253 26.9383 70.721 28.0716C69.6374 28.5091 68.441 29.0439 67.2496 29.4777C67.2496 29.4777 66.1153 31.1727 64.1983 31.012C62.2809 30.8512 60.9584 30.727 59.1588 28.2118C58.508 27.3027 58.7026 27.004 59.2158 26.9949C58.646 26.1601 58.1117 25.2765 57.6701 24.5034L56.0294 24.5409Z" fill="url(#paint45_linear_482_1646)"/>
<path d="M71.3785 54.5072C72.4393 55.5123 76.7446 56.7973 76.7446 56.7973C77.3638 58.9193 78.3026 62.4373 78.3026 62.4373C80.5365 62.6606 83.9988 61.488 83.9988 61.488C85.0916 62.125 89.3749 62.5771 90.9211 62.7223C91.2718 62.7552 91.4814 62.7721 91.4814 62.7721C91.4814 62.7721 91.4262 55.5685 89.3042 50.5983C89.1261 50.1819 88.9361 49.8216 88.737 49.5124C86.5629 46.1301 83.3289 48.7553 83.3289 48.7553C81.2069 42.7239 76.7391 48.1973 75.7902 50.0399C74.8408 51.8824 71.3785 54.5072 71.3785 54.5072Z" fill="url(#paint46_linear_482_1646)"/>
<path opacity="0.2" d="M83.3286 48.7553C83.3286 48.7553 86.1301 48.1005 87.2763 51.8181C88.4225 55.5361 89.3828 58.3554 89.3828 58.3554L84.457 57.4261C84.457 57.4261 80.8632 59.0993 79.8718 59.223C78.8804 59.3468 78.5397 54.5757 78.5397 54.5757C78.5397 54.5757 75.5656 53.6465 74.8838 53.3054C74.8838 53.3054 76.9954 52.345 77.7986 50.8267C78.6019 49.3088 80.9919 45.7547 83.3286 48.7553Z" fill="url(#paint47_linear_482_1646)"/>
<path opacity="0.4" d="M71.3783 54.5068C72.4391 55.5118 76.7443 56.7968 76.7443 56.7968C77.3635 58.9189 78.3024 62.4369 78.3024 62.4369C80.5363 62.6602 83.9986 61.4875 83.9986 61.4875C85.0914 62.1245 89.3747 62.5766 90.9209 62.7218C89.5683 62.0414 86.175 60.1459 85.3932 57.8736C84.4105 55.0191 83.3808 49.6385 85.3932 48.6334C87.4047 47.6288 88.7368 49.5124 88.7368 49.5124C86.5627 46.13 83.3287 48.7553 83.3287 48.7553C81.2067 42.7239 76.7389 48.1973 75.7899 50.0398C74.8406 51.882 71.3783 54.5068 71.3783 54.5068Z" fill="url(#paint48_linear_482_1646)"/>
<path d="M42.9119 25.2457C42.9119 25.2457 47.4656 27.8326 49.2767 30.6789C51.0877 33.5247 56.5204 35.2632 57.7109 31.9205C58.8872 28.6162 57.2826 25.5243 57.2456 25.454C57.2881 25.4855 61.0878 28.3382 63.4542 26.1773C64.0277 25.654 64.2254 24.6809 64.1953 23.5041C64.1953 23.5032 64.1953 23.5027 64.1953 23.5027C64.1021 19.7943 61.7463 14.0693 61.7463 14.0693C61.7463 14.0693 57.7105 17.5367 56.7273 17.7435C55.7437 17.9504 48.0857 14.0693 48.0857 14.0693C48.0857 14.0693 49.2242 22.3483 49.0173 22.9178C48.8648 23.3383 45.5993 24.4105 43.9083 24.9398C43.3129 25.1266 42.9119 25.2457 42.9119 25.2457Z" fill="url(#paint49_linear_482_1646)"/>
<path opacity="0.2" d="M57.2449 25.4541C57.2449 25.4541 60.415 28.1041 61.7548 25.2336C63.0946 22.3631 60.7396 18.4656 60.7396 18.4656C60.7396 18.4656 58.3039 20.6174 56.8828 20.1708C55.4617 19.7242 51.3209 18.019 51.3209 18.019C51.3209 18.019 53.31 22.4092 52.62 23.5029C51.93 24.5961 48.1947 25.2336 48.1947 25.2336C48.1947 25.2336 51.8497 28.737 53.5543 29.8329C55.259 30.9293 58.7436 28.5452 57.2449 25.4541Z" fill="url(#paint50_linear_482_1646)"/>
<path opacity="0.4" d="M42.9119 25.2459C42.9119 25.2459 47.4656 27.8328 49.2767 30.6791C51.0877 33.5249 56.5204 35.2634 57.7109 31.9207C58.8872 28.6164 57.2826 25.5245 57.2456 25.4542C57.2881 25.4857 61.0878 28.3384 63.4542 26.1775C64.0277 25.6542 64.2254 24.6811 64.1953 23.5043C64.1953 23.7513 63.1993 26.3816 61.2805 25.783C59.3585 25.1834 56.5958 23.5029 56.5958 23.5029C56.5958 23.5029 58.1055 30.5892 56.0295 31.7901C53.9532 32.9911 50.4297 30.2284 48.9086 28.1064C47.8798 26.6707 45.4029 25.5286 43.9083 24.9395C43.3129 25.1268 42.9119 25.2459 42.9119 25.2459Z" fill="url(#paint51_linear_482_1646)"/>
<path d="M34.5218 40.5654L36.5959 42.8683C45.5 43.8547 50.8962 56.3992 54.6471 61.9049C58.3039 67.2733 61.8612 64.1284 61.9214 64.0745C60.4533 67.4322 64.9015 74.007 64.9015 74.007L66.814 73.4476C66.814 73.4476 60.383 66.6618 64.1983 62.9904C68.0136 59.3181 66.4998 50.5418 66.6025 50.4144L64.9056 52.5127C65.6518 56.7599 63.5311 63.0945 59.5437 63.3046C58.4614 63.3612 57.339 62.4141 56.1846 60.9127C53.0881 56.8796 49.7747 48.8499 46.4622 45.5374C43.2565 42.3317 38.6357 41.1755 36.189 40.7723C35.1652 40.6024 34.5218 40.5654 34.5218 40.5654Z" fill="url(#paint52_linear_482_1646)"/>
<path opacity="0.4" d="M34.5218 40.5654L36.5959 42.8683C45.5 43.8547 50.8962 56.3992 54.6471 61.9049C58.3039 67.2733 61.8612 64.1284 61.9214 64.0745C60.4533 67.4322 64.9015 74.007 64.9015 74.007L66.814 73.4476C66.814 73.4476 60.383 66.6618 64.1983 62.9904C68.0136 59.3181 66.4998 50.5418 66.6025 50.4144L64.9056 52.5127C65.6518 56.7599 63.5311 63.0945 59.5437 63.3046C58.4614 63.3612 57.339 62.4141 56.1846 60.9127C56.1978 60.9894 56.5367 63.0548 54.2772 59.9838C51.9757 56.8563 48.2655 49.4865 45.826 46.7302C43.3876 43.9729 37.3667 42.3418 36.189 40.7718C35.1652 40.6024 34.5218 40.5654 34.5218 40.5654Z" fill="url(#paint53_linear_482_1646)"/>
<path d="M54.2768 76.8362C55.6714 77.5796 58.2268 77.5331 58.2268 77.5331C58.4592 79.0204 59.9461 82.5525 60.0858 82.9238C62.1307 82.2274 65.1975 79.2062 65.1975 79.2062C65.4765 80.1355 67.2885 82.9238 67.2885 82.9238C67.2885 82.9238 71.2855 77.4404 69.8914 72.6022C68.4968 67.764 64.0824 70.6089 64.0824 70.6089C63.2458 68.007 60.4109 66.9375 58.4131 69.1216C57.8861 69.6975 57.3496 70.5066 56.8445 71.3848C55.4358 73.8379 54.2768 76.8362 54.2768 76.8362Z" fill="url(#paint54_linear_482_1646)"/>
<path opacity="0.4" d="M54.2777 76.8361C55.6723 77.5795 58.2277 77.5329 58.2277 77.5329C58.4601 79.0202 59.9469 82.5524 60.0867 82.9236C62.1315 82.2272 65.1984 79.2061 65.1984 79.2061C65.4774 80.1353 67.2893 82.9236 67.2893 82.9236C67.2893 82.9236 69.5114 75.4502 67.4921 73.4669C65.4728 71.4846 62.8297 72.9902 62.8297 72.9902C62.8297 72.9902 61.7283 70.1261 60.1492 70.1996C59.4734 70.2302 58.1436 70.7736 56.8449 71.3846C55.4366 73.8377 54.2777 76.8361 54.2777 76.8361Z" fill="url(#paint55_linear_482_1646)"/>
<path d="M12.2791 58.4178L14.0847 60.1686L14.1934 60.2741C14.1934 60.2741 14.2076 60.2275 14.2372 60.1408C14.4194 59.606 15.1793 57.5525 16.6963 55.6574C17.9758 54.0601 19.7928 52.5764 22.2569 52.2102C22.2569 52.2102 22.2569 52.2102 22.2573 52.2111C22.2582 52.2111 22.2587 52.2116 22.2601 52.2125C22.2614 52.2129 22.2628 52.2139 22.2642 52.2152C22.4916 52.3559 27.4329 55.3875 29.9262 55.3437C31.1847 55.3213 32.0286 54.7962 32.5451 54.0518C32.5456 54.05 32.5456 54.0482 32.5456 54.0482C33.199 53.1029 33.325 51.8029 33.1004 50.722L31.3606 49.3493C31.3606 49.3493 32.873 54.8218 25.5054 52.0947C24.8474 51.8517 24.2022 51.58 23.5734 51.2841C17.158 48.2712 12.4454 42.7357 13.555 38.4035C14.1496 36.0815 16.1045 34.7745 17.9502 34.0457C17.9516 34.0457 17.9539 34.0444 17.9571 34.043C19.891 33.2799 21.7025 33.1507 21.7025 33.1507L20.265 31.6328C20.265 31.6328 18.4799 31.831 16.5734 32.4091C16.5702 32.41 16.5689 32.4105 16.5689 32.4105C16.1332 32.5425 15.6907 32.6945 15.2624 32.8685C15.2624 32.8685 15.2624 32.8685 15.262 32.8694C15.2606 32.8694 15.2579 32.8708 15.2542 32.8722C15.2528 32.8726 15.251 32.8735 15.2483 32.8749C15.2437 32.8763 15.2382 32.879 15.2309 32.8817C15.2236 32.8845 15.2158 32.8881 15.2062 32.8923C15.1925 32.8977 15.177 32.9046 15.1583 32.9119C15.1514 32.9146 15.1446 32.9174 15.1373 32.921C14.9309 33.0073 14.7277 33.1 14.5309 33.1968C13.5235 33.695 12.6714 34.3366 12.2787 35.1549C10.9444 37.94 10.1905 44.1472 19.8202 50.8188C19.8202 50.8188 13.6135 54.5309 12.2791 58.4178Z" fill="url(#paint56_linear_482_1646)"/>
<path opacity="0.4" d="M12.2797 58.4182L14.0852 60.169L14.2382 60.1407C14.4204 59.606 15.1803 57.5524 16.6973 55.6573C14.6332 55.0075 18.5101 52.2074 20.1632 51.6306C21.9647 51.0028 22.2578 52.2101 22.2578 52.2101C22.2578 52.2101 22.2578 52.2101 22.2583 52.211C22.2592 52.211 22.2597 52.2115 22.261 52.2124C22.2624 52.2129 22.2638 52.2138 22.2651 52.2151C22.4926 52.3558 27.4339 55.3875 29.9272 55.3436C31.1857 55.3212 32.0296 54.7961 32.5461 54.0518C32.5465 54.05 32.5465 54.0481 32.5465 54.0481C33.2 53.1029 33.326 51.8028 33.1014 50.7219L31.3615 49.3492C31.3615 49.3492 32.8739 54.8217 25.5064 52.0946C24.8484 51.8517 24.2031 51.58 23.5743 51.284C22.414 51.5032 20.9756 51.1635 19.2001 49.8716C12.1217 44.7198 12.4897 40.4949 12.5728 36.8517C12.6235 34.6516 13.919 33.6255 14.5318 33.1963C13.5245 33.6945 12.6724 34.3361 12.2797 35.1544C10.9453 37.9395 10.1914 44.1467 19.8212 50.8183C19.8212 50.8183 13.614 54.5312 12.2797 58.4182Z" fill="url(#paint57_linear_482_1646)"/>
<path opacity="0.4" d="M17.9577 34.043C19.8916 33.2799 21.7031 33.1507 21.7031 33.1507L20.2656 31.6328C20.2656 31.6328 18.4806 31.831 16.5741 32.4091C16.6572 32.3881 17.8687 32.0913 18.7961 32.616C19.7217 33.1402 18.0806 33.9813 17.9577 34.043Z" fill="url(#paint58_linear_482_1646)"/>
<path d="M5.26252 60.7202C4.53508 63.2131 4.17205 68.4572 4.17205 68.4572C6.45665 68.6645 12.5835 66.4324 12.5835 66.4324C12.8949 67.3667 13.726 71.0012 13.726 71.0012C13.726 71.0012 20.2163 66.2763 19.8012 60.2736C19.3852 54.2715 14.453 56.8785 14.453 56.8785C14.9311 53.4856 13.1218 50.3128 9.14766 50.2343C8.80335 50.2265 8.44306 50.243 8.06633 50.2841C3.34141 50.8033 0.433481 57.9685 0.433481 57.9685C1.67967 59.2147 5.26252 60.7202 5.26252 60.7202Z" fill="url(#paint59_linear_482_1646)"/>
<path opacity="0.4" d="M5.26283 60.7202C4.5354 63.2131 4.17236 68.4572 4.17236 68.4572C6.45696 68.6645 12.5838 66.4324 12.5838 66.4324C12.8952 67.3667 13.7263 71.0012 13.7263 71.0012C13.7263 71.0012 19.0156 61.9226 16.1876 59.7033C13.3592 57.484 11.2275 57.2867 11.2275 57.2867C11.2275 57.2867 14.6181 51.775 9.14798 50.2343C8.80366 50.2265 8.44338 50.243 8.06665 50.2841C3.34173 50.8033 0.433798 57.9685 0.433798 57.9685C1.67999 59.2147 5.26283 60.7202 5.26283 60.7202Z" fill="url(#paint60_linear_482_1646)"/>
<path d="M17.2321 14.0695C17.2321 14.0695 17.95 14.6349 18.9468 15.5071C20.9652 17.2734 24.1284 20.3005 24.7937 22.4453C26.5139 27.9886 22.4968 29.6151 22.4968 29.6151L24.1818 30.5919C24.1818 30.5919 24.3161 30.5134 24.5284 30.3531C25.4965 29.6247 28.0848 27.2123 26.8815 22.9536C26.5313 21.7156 25.8929 20.5201 25.123 19.4164C25.123 19.4164 25.1225 19.415 25.1202 19.4128C25.1198 19.4114 25.1179 19.41 25.1166 19.4086C23.4137 16.9665 21.0684 14.976 19.7902 13.9855C19.2249 13.5471 18.8683 13.3042 18.8683 13.3042L17.2321 14.0695Z" fill="url(#paint61_linear_482_1646)"/>
<path opacity="0.4" d="M24.7935 22.4457C26.5137 27.9889 22.4966 29.6155 22.4966 29.6155L24.1816 30.5922C24.1816 30.5922 24.3159 30.5137 24.5282 30.3534C24.1264 29.5009 26.0402 28.4159 26.0351 24.1901C26.0319 21.3269 22.8756 18.6226 23.4268 18.271C23.9547 17.9349 25.0291 19.2948 25.1168 19.409C23.414 16.9668 21.0687 14.9763 19.7905 13.9858L18.9466 15.5078C20.9655 17.2742 24.1287 20.3008 24.7935 22.4457Z" fill="url(#paint62_linear_482_1646)"/>
<path d="M4.00429 12.8071C4.00429 12.8071 10.058 20.8792 13.2021 22.9748C16.3452 25.0708 21.9724 20.5692 20.5367 15.7958C20.5367 15.7958 26.3055 18.1635 27.1042 13.766C27.1553 13.487 27.1855 13.182 27.1942 12.8459C27.3284 7.21911 21.0801 0 21.0801 0L17.4712 4.77332C17.4712 4.77332 11.8052 1.90102 7.92415 1.35806C7.92415 1.35806 9.01096 7.37347 9.51509 9.39139C9.51509 9.39139 6.90537 11.0093 5.23953 12.0413C4.67055 12.3947 4.21161 12.6792 4.00429 12.8071Z" fill="url(#paint63_linear_482_1646)"/>
<path opacity="0.2" d="M20.5369 15.7959C20.5369 15.7959 26.6025 16.3909 25.2988 12.5341C23.9951 8.67768 21.062 5.36426 21.062 5.36426L19.1386 9.22063C19.1386 9.22063 13.6205 6.72186 12.5342 6.34193L14.5009 11.5564L9.65546 12.6971C9.65546 12.6971 11.8748 18.1421 14.5009 19.7039C19.4322 22.6369 20.5369 15.7959 20.5369 15.7959Z" fill="url(#paint64_linear_482_1646)"/>
<path opacity="0.4" d="M4.0046 12.8068C4.0046 12.8068 10.0584 20.8789 13.2024 22.9745C16.3455 25.0705 21.9727 20.5689 20.537 15.7956C20.537 15.7956 26.3058 18.1633 27.1045 13.7658C27.1045 13.7658 24.9482 16.0011 22.491 15.1019C20.0717 14.2169 19.1251 13.331 19.0963 13.3046C19.1525 13.3845 21.5581 16.8819 19.7991 19.635C18.0191 22.4197 14.4846 22.0968 12.7649 20.3383C11.3963 18.9382 6.9833 13.9996 5.23937 12.041C4.67085 12.3945 4.21192 12.679 4.0046 12.8068Z" fill="url(#paint65_linear_482_1646)"/>
<defs>
<linearGradient id="paint0_linear_482_1646" x1="98.7671" y1="14.8688" x2="76.7447" y2="14.8688" gradientUnits="userSpaceOnUse">
<stop stop-color="#C7783F"/>
<stop offset="0.2938" stop-color="#BE6F41"/>
<stop offset="0.7805" stop-color="#A45846"/>
<stop offset="0.9944" stop-color="#974C49"/>
</linearGradient>
<linearGradient id="paint1_linear_482_1646" x1="93.5857" y1="13.358" x2="67.7735" y2="16.5846" gradientUnits="userSpaceOnUse">
<stop stop-color="#8F32E0"/>
<stop offset="0.0999" stop-color="#943BE1"/>
<stop offset="0.2661" stop-color="#A255E5"/>
<stop offset="0.4782" stop-color="#B97EEC"/>
<stop offset="0.7278" stop-color="#D8B8F4"/>
<stop offset="1" stop-color="white"/>
</linearGradient>
<linearGradient id="paint2_linear_482_1646" x1="202.26" y1="47.2486" x2="0.000364332" y2="47.2486" gradientUnits="userSpaceOnUse">
<stop stop-color="#C7783F"/>
<stop offset="0.2938" stop-color="#BE6F41"/>
<stop offset="0.7805" stop-color="#A45846"/>
<stop offset="0.9944" stop-color="#974C49"/>
</linearGradient>
<linearGradient id="paint3_linear_482_1646" x1="11.6509" y1="40.9739" x2="4.7553" y2="41.2902" gradientUnits="userSpaceOnUse">
<stop stop-color="#8F32E0"/>
<stop offset="0.0999" stop-color="#943BE1"/>
<stop offset="0.2661" stop-color="#A255E5"/>
<stop offset="0.4782" stop-color="#B97EEC"/>
<stop offset="0.7278" stop-color="#D8B8F4"/>
<stop offset="1" stop-color="white"/>
</linearGradient>
<linearGradient id="paint4_linear_482_1646" x1="178.727" y1="46.9886" x2="186.05" y2="174.509" gradientUnits="userSpaceOnUse">
<stop stop-color="#C7783F"/>
<stop offset="0.2938" stop-color="#BE6F41"/>
<stop offset="0.7805" stop-color="#A45846"/>
<stop offset="0.9944" stop-color="#974C49"/>
</linearGradient>
<linearGradient id="paint5_linear_482_1646" x1="168.518" y1="41.4018" x2="180.797" y2="255.189" gradientUnits="userSpaceOnUse">
<stop stop-color="#C7783F"/>
<stop offset="0.2938" stop-color="#BE6F41"/>
<stop offset="0.7805" stop-color="#A45846"/>
<stop offset="0.9944" stop-color="#974C49"/>
</linearGradient>
<linearGradient id="paint6_linear_482_1646" x1="135.862" y1="48.1301" x2="140.504" y2="128.958" gradientUnits="userSpaceOnUse">
<stop stop-color="#C7783F"/>
<stop offset="0.2938" stop-color="#BE6F41"/>
<stop offset="0.7805" stop-color="#A45846"/>
<stop offset="0.9944" stop-color="#974C49"/>
</linearGradient>
<linearGradient id="paint7_linear_482_1646" x1="117.11" y1="31.6678" x2="126.735" y2="199.242" gradientUnits="userSpaceOnUse">
<stop stop-color="#C7783F"/>
<stop offset="0.2938" stop-color="#BE6F41"/>
<stop offset="0.7805" stop-color="#A45846"/>
<stop offset="0.9944" stop-color="#974C49"/>
</linearGradient>
<linearGradient id="paint8_linear_482_1646" x1="102.746" y1="28.477" x2="107.17" y2="105.511" gradientUnits="userSpaceOnUse">
<stop stop-color="#C7783F"/>
<stop offset="0.2938" stop-color="#BE6F41"/>
<stop offset="0.7805" stop-color="#A45846"/>
<stop offset="0.9944" stop-color="#974C49"/>
</linearGradient>
<linearGradient id="paint9_linear_482_1646" x1="85.5191" y1="22.314" x2="96.0402" y2="205.507" gradientUnits="userSpaceOnUse">
<stop stop-color="#C7783F"/>
<stop offset="0.2938" stop-color="#BE6F41"/>
<stop offset="0.7805" stop-color="#A45846"/>
<stop offset="0.9944" stop-color="#974C49"/>
</linearGradient>
<linearGradient id="paint10_linear_482_1646" x1="68.1749" y1="31.8252" x2="78.0495" y2="203.761" gradientUnits="userSpaceOnUse">
<stop stop-color="#C7783F"/>
<stop offset="0.2938" stop-color="#BE6F41"/>
<stop offset="0.7805" stop-color="#A45846"/>
<stop offset="0.9944" stop-color="#974C49"/>
</linearGradient>
<linearGradient id="paint11_linear_482_1646" x1="56.3188" y1="39.7021" x2="70.9074" y2="293.717" gradientUnits="userSpaceOnUse">
<stop stop-color="#C7783F"/>
<stop offset="0.2938" stop-color="#BE6F41"/>
<stop offset="0.7805" stop-color="#A45846"/>
<stop offset="0.9944" stop-color="#974C49"/>
</linearGradient>
<linearGradient id="paint12_linear_482_1646" x1="63.0306" y1="41.0114" x2="63.1048" y2="42.3033" gradientUnits="userSpaceOnUse">
<stop stop-color="#C7783F"/>
<stop offset="0.2938" stop-color="#BE6F41"/>
<stop offset="0.7805" stop-color="#A45846"/>
<stop offset="0.9944" stop-color="#974C49"/>
</linearGradient>
<linearGradient id="paint13_linear_482_1646" x1="49.9861" y1="46.22" x2="55.9439" y2="149.956" gradientUnits="userSpaceOnUse">
<stop stop-color="#C7783F"/>
<stop offset="0.2938" stop-color="#BE6F41"/>
<stop offset="0.7805" stop-color="#A45846"/>
<stop offset="0.9944" stop-color="#974C49"/>
</linearGradient>
<linearGradient id="paint14_linear_482_1646" x1="32.3787" y1="41.7959" x2="36.7919" y2="118.638" gradientUnits="userSpaceOnUse">
<stop stop-color="#C7783F"/>
<stop offset="0.2938" stop-color="#BE6F41"/>
<stop offset="0.7805" stop-color="#A45846"/>
<stop offset="0.9944" stop-color="#974C49"/>
</linearGradient>
<linearGradient id="paint15_linear_482_1646" x1="29.6076" y1="32.4303" x2="35.8556" y2="141.219" gradientUnits="userSpaceOnUse">
<stop stop-color="#C7783F"/>
<stop offset="0.2938" stop-color="#BE6F41"/>
<stop offset="0.7805" stop-color="#A45846"/>
<stop offset="0.9944" stop-color="#974C49"/>
</linearGradient>
<linearGradient id="paint16_linear_482_1646" x1="122.636" y1="56.6592" x2="118.089" y2="118.18" gradientUnits="userSpaceOnUse">
<stop stop-color="#8F32E0"/>
<stop offset="0.0999" stop-color="#943BE1"/>
<stop offset="0.2661" stop-color="#A255E5"/>
<stop offset="0.4782" stop-color="#B97EEC"/>
<stop offset="0.7278" stop-color="#D8B8F4"/>
<stop offset="1" stop-color="white"/>
</linearGradient>
<linearGradient id="paint17_linear_482_1646" x1="21.2282" y1="33.5686" x2="20.0106" y2="53.0509" gradientUnits="userSpaceOnUse">
<stop stop-color="#8F32E0"/>
<stop offset="0.0999" stop-color="#943BE1"/>
<stop offset="0.2661" stop-color="#A255E5"/>
<stop offset="0.4782" stop-color="#B97EEC"/>
<stop offset="0.7278" stop-color="#D8B8F4"/>
<stop offset="1" stop-color="white"/>
</linearGradient>
<linearGradient id="paint18_linear_482_1646" x1="36.0728" y1="54.0928" x2="34.5293" y2="78.7888" gradientUnits="userSpaceOnUse">
<stop stop-color="#8F32E0"/>
<stop offset="0.0999" stop-color="#943BE1"/>
<stop offset="0.2661" stop-color="#A255E5"/>
<stop offset="0.4782" stop-color="#B97EEC"/>
<stop offset="0.7278" stop-color="#D8B8F4"/>
<stop offset="1" stop-color="white"/>
</linearGradient>
<linearGradient id="paint19_linear_482_1646" x1="192.057" y1="46.4541" x2="150.297" y2="46.4541" gradientUnits="userSpaceOnUse">
<stop stop-color="#9ADB2A"/>
<stop offset="0.1455" stop-color="#91D62B"/>
<stop offset="0.3873" stop-color="#77C82C"/>
<stop offset="0.6936" stop-color="#4EB12F"/>
<stop offset="0.9944" stop-color="#1F9732"/>
</linearGradient>
<linearGradient id="paint20_linear_482_1646" x1="162.441" y1="46.9752" x2="161.106" y2="65.0347" gradientUnits="userSpaceOnUse">
<stop stop-color="#8F32E0"/>
<stop offset="0.0999" stop-color="#943BE1"/>
<stop offset="0.2661" stop-color="#A255E5"/>
<stop offset="0.4782" stop-color="#B97EEC"/>
<stop offset="0.7278" stop-color="#D8B8F4"/>
<stop offset="1" stop-color="white"/>
</linearGradient>
<linearGradient id="paint21_linear_482_1646" x1="160.097" y1="32.9878" x2="159.106" y2="46.3961" gradientUnits="userSpaceOnUse">
<stop stop-color="#8F32E0"/>
<stop offset="0.0999" stop-color="#943BE1"/>
<stop offset="0.2661" stop-color="#A255E5"/>
<stop offset="0.4782" stop-color="#B97EEC"/>
<stop offset="0.7278" stop-color="#D8B8F4"/>
<stop offset="1" stop-color="white"/>
</linearGradient>
<linearGradient id="paint22_linear_482_1646" x1="179.042" y1="60.685" x2="177.95" y2="75.4674" gradientUnits="userSpaceOnUse">
<stop stop-color="#8F32E0"/>
<stop offset="0.0999" stop-color="#943BE1"/>
<stop offset="0.2661" stop-color="#A255E5"/>
<stop offset="0.4782" stop-color="#B97EEC"/>
<stop offset="0.7278" stop-color="#D8B8F4"/>
<stop offset="1" stop-color="white"/>
</linearGradient>
<linearGradient id="paint23_linear_482_1646" x1="174.685" y1="57.6466" x2="174.664" y2="57.6466" gradientUnits="userSpaceOnUse">
<stop stop-color="#9ADB2A"/>
<stop offset="0.1455" stop-color="#91D62B"/>
<stop offset="0.3873" stop-color="#77C82C"/>
<stop offset="0.6936" stop-color="#4EB12F"/>
<stop offset="0.9944" stop-color="#1F9732"/>
</linearGradient>
<linearGradient id="paint24_linear_482_1646" x1="174.664" y1="57.5913" x2="174.635" y2="57.5913" gradientUnits="userSpaceOnUse">
<stop stop-color="#9ADB2A"/>
<stop offset="0.1455" stop-color="#91D62B"/>
<stop offset="0.3873" stop-color="#77C82C"/>
<stop offset="0.6936" stop-color="#4EB12F"/>
<stop offset="0.9944" stop-color="#1F9732"/>
</linearGradient>
<linearGradient id="paint25_linear_482_1646" x1="177.626" y1="21.5479" x2="156.687" y2="21.5479" gradientUnits="userSpaceOnUse">
<stop stop-color="#9ADB2A"/>
<stop offset="0.1455" stop-color="#91D62B"/>
<stop offset="0.3873" stop-color="#77C82C"/>
<stop offset="0.6936" stop-color="#4EB12F"/>
<stop offset="0.9944" stop-color="#1F9732"/>
</linearGradient>
<linearGradient id="paint26_linear_482_1646" x1="168.133" y1="37.5114" x2="164.57" y2="19.5124" gradientUnits="userSpaceOnUse">
<stop stop-color="#9ADB2A"/>
<stop offset="0.1455" stop-color="#91D62B"/>
<stop offset="0.3873" stop-color="#77C82C"/>
<stop offset="0.6936" stop-color="#4EB12F"/>
<stop offset="0.9944" stop-color="#1F9732"/>
</linearGradient>
<linearGradient id="paint27_linear_482_1646" x1="181.522" y1="10.0453" x2="152.983" y2="28.9408" gradientUnits="userSpaceOnUse">
<stop stop-color="#8F32E0"/>
<stop offset="0.0999" stop-color="#943BE1"/>
<stop offset="0.2661" stop-color="#A255E5"/>
<stop offset="0.4782" stop-color="#B97EEC"/>
<stop offset="0.7278" stop-color="#D8B8F4"/>
<stop offset="1" stop-color="white"/>
</linearGradient>
<linearGradient id="paint28_linear_482_1646" x1="175.089" y1="69.0176" x2="155.295" y2="69.0176" gradientUnits="userSpaceOnUse">
<stop stop-color="#9ADB2A"/>
<stop offset="0.1455" stop-color="#91D62B"/>
<stop offset="0.3873" stop-color="#77C82C"/>
<stop offset="0.6936" stop-color="#4EB12F"/>
<stop offset="0.9944" stop-color="#1F9732"/>
</linearGradient>
<linearGradient id="paint29_linear_482_1646" x1="168.484" y1="79.6218" x2="165.552" y2="64.8092" gradientUnits="userSpaceOnUse">
<stop stop-color="#9ADB2A"/>
<stop offset="0.1455" stop-color="#91D62B"/>
<stop offset="0.3873" stop-color="#77C82C"/>
<stop offset="0.6936" stop-color="#4EB12F"/>
<stop offset="0.9944" stop-color="#1F9732"/>
</linearGradient>
<linearGradient id="paint30_linear_482_1646" x1="175.698" y1="60.6284" x2="158.039" y2="76.8006" gradientUnits="userSpaceOnUse">
<stop stop-color="#8F32E0"/>
<stop offset="0.0999" stop-color="#943BE1"/>
<stop offset="0.2661" stop-color="#A255E5"/>
<stop offset="0.4782" stop-color="#B97EEC"/>
<stop offset="0.7278" stop-color="#D8B8F4"/>
<stop offset="1" stop-color="white"/>
</linearGradient>
<linearGradient id="paint31_linear_482_1646" x1="136.202" y1="38.6314" x2="101.13" y2="38.6314" gradientUnits="userSpaceOnUse">
<stop stop-color="#9ADB2A"/>
<stop offset="0.1455" stop-color="#91D62B"/>
<stop offset="0.3873" stop-color="#77C82C"/>
<stop offset="0.6936" stop-color="#4EB12F"/>
<stop offset="0.9944" stop-color="#1F9732"/>
</linearGradient>
<linearGradient id="paint32_linear_482_1646" x1="112.43" y1="32.673" x2="109.093" y2="77.819" gradientUnits="userSpaceOnUse">
<stop stop-color="#8F32E0"/>
<stop offset="0.0999" stop-color="#943BE1"/>
<stop offset="0.2661" stop-color="#A255E5"/>
<stop offset="0.4782" stop-color="#B97EEC"/>
<stop offset="0.7278" stop-color="#D8B8F4"/>
<stop offset="1" stop-color="white"/>
</linearGradient>
<linearGradient id="paint33_linear_482_1646" x1="123.7" y1="57.8399" x2="122.018" y2="80.6005" gradientUnits="userSpaceOnUse">
<stop stop-color="#8F32E0"/>
<stop offset="0.0999" stop-color="#943BE1"/>
<stop offset="0.2661" stop-color="#A255E5"/>
<stop offset="0.4782" stop-color="#B97EEC"/>
<stop offset="0.7278" stop-color="#D8B8F4"/>
<stop offset="1" stop-color="white"/>
</linearGradient>
<linearGradient id="paint34_linear_482_1646" x1="127.516" y1="33.3005" x2="126.796" y2="43.0413" gradientUnits="userSpaceOnUse">
<stop stop-color="#8F32E0"/>
<stop offset="0.0999" stop-color="#943BE1"/>
<stop offset="0.2661" stop-color="#A255E5"/>
<stop offset="0.4782" stop-color="#B97EEC"/>
<stop offset="0.7278" stop-color="#D8B8F4"/>
<stop offset="1" stop-color="white"/>
</linearGradient>
<linearGradient id="paint35_linear_482_1646" x1="118.317" y1="55.4868" x2="99.9294" y2="55.4868" gradientUnits="userSpaceOnUse">
<stop stop-color="#9ADB2A"/>
<stop offset="0.1455" stop-color="#91D62B"/>
<stop offset="0.3873" stop-color="#77C82C"/>
<stop offset="0.6936" stop-color="#4EB12F"/>
<stop offset="0.9944" stop-color="#1F9732"/>
</linearGradient>
<linearGradient id="paint36_linear_482_1646" x1="112.698" y1="67.4287" x2="109.468" y2="51.1106" gradientUnits="userSpaceOnUse">
<stop stop-color="#9ADB2A"/>
<stop offset="0.1455" stop-color="#91D62B"/>
<stop offset="0.3873" stop-color="#77C82C"/>
<stop offset="0.6936" stop-color="#4EB12F"/>
<stop offset="0.9944" stop-color="#1F9732"/>
</linearGradient>
<linearGradient id="paint37_linear_482_1646" x1="126.534" y1="45.2701" x2="99.2643" y2="63.3249" gradientUnits="userSpaceOnUse">
<stop stop-color="#8F32E0"/>
<stop offset="0.0999" stop-color="#943BE1"/>
<stop offset="0.2661" stop-color="#A255E5"/>
<stop offset="0.4782" stop-color="#B97EEC"/>
<stop offset="0.7278" stop-color="#D8B8F4"/>
<stop offset="1" stop-color="white"/>
</linearGradient>
<linearGradient id="paint38_linear_482_1646" x1="144.871" y1="30.7344" x2="129.116" y2="30.7344" gradientUnits="userSpaceOnUse">
<stop stop-color="#9ADB2A"/>
<stop offset="0.1455" stop-color="#91D62B"/>
<stop offset="0.3873" stop-color="#77C82C"/>
<stop offset="0.6936" stop-color="#4EB12F"/>
<stop offset="0.9944" stop-color="#1F9732"/>
</linearGradient>
<linearGradient id="paint39_linear_482_1646" x1="138.349" y1="46.9854" x2="134.362" y2="26.84" gradientUnits="userSpaceOnUse">
<stop stop-color="#9ADB2A"/>
<stop offset="0.1455" stop-color="#91D62B"/>
<stop offset="0.3873" stop-color="#77C82C"/>
<stop offset="0.6936" stop-color="#4EB12F"/>
<stop offset="0.9944" stop-color="#1F9732"/>
</linearGradient>
<linearGradient id="paint40_linear_482_1646" x1="140.667" y1="30.5174" x2="122.422" y2="32.7745" gradientUnits="userSpaceOnUse">
<stop stop-color="#8F32E0"/>
<stop offset="0.0999" stop-color="#943BE1"/>
<stop offset="0.2661" stop-color="#A255E5"/>
<stop offset="0.4782" stop-color="#B97EEC"/>
<stop offset="0.7278" stop-color="#D8B8F4"/>
<stop offset="1" stop-color="white"/>
</linearGradient>
<linearGradient id="paint41_linear_482_1646" x1="126.025" y1="9.37731" x2="106.367" y2="9.37731" gradientUnits="userSpaceOnUse">
<stop stop-color="#9ADB2A"/>
<stop offset="0.1455" stop-color="#91D62B"/>
<stop offset="0.3873" stop-color="#77C82C"/>
<stop offset="0.6936" stop-color="#4EB12F"/>
<stop offset="0.9944" stop-color="#1F9732"/>
</linearGradient>
<linearGradient id="paint42_linear_482_1646" x1="117.591" y1="23.0257" x2="114.462" y2="7.21586" gradientUnits="userSpaceOnUse">
<stop stop-color="#9ADB2A"/>
<stop offset="0.1455" stop-color="#91D62B"/>
<stop offset="0.3873" stop-color="#77C82C"/>
<stop offset="0.6936" stop-color="#4EB12F"/>
<stop offset="0.9944" stop-color="#1F9732"/>
</linearGradient>
<linearGradient id="paint43_linear_482_1646" x1="125.046" y1="1.28699" x2="103.996" y2="15.2241" gradientUnits="userSpaceOnUse">
<stop stop-color="#8F32E0"/>
<stop offset="0.0999" stop-color="#943BE1"/>
<stop offset="0.2661" stop-color="#A255E5"/>
<stop offset="0.4782" stop-color="#B97EEC"/>
<stop offset="0.7278" stop-color="#D8B8F4"/>
<stop offset="1" stop-color="white"/>
</linearGradient>
<linearGradient id="paint44_linear_482_1646" x1="100.357" y1="36.7823" x2="55.2401" y2="36.7823" gradientUnits="userSpaceOnUse">
<stop stop-color="#9ADB2A"/>
<stop offset="0.1455" stop-color="#91D62B"/>
<stop offset="0.3873" stop-color="#77C82C"/>
<stop offset="0.6936" stop-color="#4EB12F"/>
<stop offset="0.9944" stop-color="#1F9732"/>
</linearGradient>
<linearGradient id="paint45_linear_482_1646" x1="77.5366" y1="40.3635" x2="75.2316" y2="71.5488" gradientUnits="userSpaceOnUse">
<stop stop-color="#8F32E0"/>
<stop offset="0.0999" stop-color="#943BE1"/>
<stop offset="0.2661" stop-color="#A255E5"/>
<stop offset="0.4782" stop-color="#B97EEC"/>
<stop offset="0.7278" stop-color="#D8B8F4"/>
<stop offset="1" stop-color="white"/>
</linearGradient>
<linearGradient id="paint46_linear_482_1646" x1="91.4814" y1="54.3851" x2="71.3783" y2="54.3851" gradientUnits="userSpaceOnUse">
<stop stop-color="#9ADB2A"/>
<stop offset="0.1455" stop-color="#91D62B"/>
<stop offset="0.3873" stop-color="#77C82C"/>
<stop offset="0.6936" stop-color="#4EB12F"/>
<stop offset="0.9944" stop-color="#1F9732"/>
</linearGradient>
<linearGradient id="paint47_linear_482_1646" x1="84.344" y1="66.9979" x2="81.0817" y2="50.5162" gradientUnits="userSpaceOnUse">
<stop stop-color="#9ADB2A"/>
<stop offset="0.1455" stop-color="#91D62B"/>
<stop offset="0.3873" stop-color="#77C82C"/>
<stop offset="0.6936" stop-color="#4EB12F"/>
<stop offset="0.9944" stop-color="#1F9732"/>
</linearGradient>
<linearGradient id="paint48_linear_482_1646" x1="96.8361" y1="45.3806" x2="72.0179" y2="64.631" gradientUnits="userSpaceOnUse">
<stop stop-color="#8F32E0"/>
<stop offset="0.0999" stop-color="#943BE1"/>
<stop offset="0.2661" stop-color="#A255E5"/>
<stop offset="0.4782" stop-color="#B97EEC"/>
<stop offset="0.7278" stop-color="#D8B8F4"/>
<stop offset="1" stop-color="white"/>
</linearGradient>
<linearGradient id="paint49_linear_482_1646" x1="64.1983" y1="23.9091" x2="42.9119" y2="23.9091" gradientUnits="userSpaceOnUse">
<stop stop-color="#9ADB2A"/>
<stop offset="0.1455" stop-color="#91D62B"/>
<stop offset="0.3873" stop-color="#77C82C"/>
<stop offset="0.6936" stop-color="#4EB12F"/>
<stop offset="0.9944" stop-color="#1F9732"/>
</linearGradient>
<linearGradient id="paint50_linear_482_1646" x1="57.8486" y1="37.3751" x2="54.4858" y2="20.3862" gradientUnits="userSpaceOnUse">
<stop stop-color="#9ADB2A"/>
<stop offset="0.1455" stop-color="#91D62B"/>
<stop offset="0.3873" stop-color="#77C82C"/>
<stop offset="0.6936" stop-color="#4EB12F"/>
<stop offset="0.9944" stop-color="#1F9732"/>
</linearGradient>
<linearGradient id="paint51_linear_482_1646" x1="54.0353" y1="21.7877" x2="50.9124" y2="41.1261" gradientUnits="userSpaceOnUse">
<stop stop-color="#8F32E0"/>
<stop offset="0.0999" stop-color="#943BE1"/>
<stop offset="0.2661" stop-color="#A255E5"/>
<stop offset="0.4782" stop-color="#B97EEC"/>
<stop offset="0.7278" stop-color="#D8B8F4"/>
<stop offset="1" stop-color="white"/>
</linearGradient>
<linearGradient id="paint52_linear_482_1646" x1="66.8142" y1="57.2863" x2="34.5218" y2="57.2863" gradientUnits="userSpaceOnUse">
<stop stop-color="#9ADB2A"/>
<stop offset="0.1455" stop-color="#91D62B"/>
<stop offset="0.3873" stop-color="#77C82C"/>
<stop offset="0.6936" stop-color="#4EB12F"/>
<stop offset="0.9944" stop-color="#1F9732"/>
</linearGradient>
<linearGradient id="paint53_linear_482_1646" x1="50.4616" y1="59.7963" x2="47.5702" y2="98.9163" gradientUnits="userSpaceOnUse">
<stop stop-color="#8F32E0"/>
<stop offset="0.0999" stop-color="#943BE1"/>
<stop offset="0.2661" stop-color="#A255E5"/>
<stop offset="0.4782" stop-color="#B97EEC"/>
<stop offset="0.7278" stop-color="#D8B8F4"/>
<stop offset="1" stop-color="white"/>
</linearGradient>
<linearGradient id="paint54_linear_482_1646" x1="70.1869" y1="75.4346" x2="54.2766" y2="75.4346" gradientUnits="userSpaceOnUse">
<stop stop-color="#9ADB2A"/>
<stop offset="0.1455" stop-color="#91D62B"/>
<stop offset="0.3873" stop-color="#77C82C"/>
<stop offset="0.6936" stop-color="#4EB12F"/>
<stop offset="0.9944" stop-color="#1F9732"/>
</linearGradient>
<linearGradient id="paint55_linear_482_1646" x1="72.5023" y1="69.06" x2="54.0003" y2="83.4113" gradientUnits="userSpaceOnUse">
<stop stop-color="#8F32E0"/>
<stop offset="0.0999" stop-color="#943BE1"/>
<stop offset="0.2661" stop-color="#A255E5"/>
<stop offset="0.4782" stop-color="#B97EEC"/>
<stop offset="0.7278" stop-color="#D8B8F4"/>
<stop offset="1" stop-color="white"/>
</linearGradient>
<linearGradient id="paint56_linear_482_1646" x1="33.2036" y1="45.9532" x2="11.4974" y2="45.9532" gradientUnits="userSpaceOnUse">
<stop stop-color="#9ADB2A"/>
<stop offset="0.1455" stop-color="#91D62B"/>
<stop offset="0.3873" stop-color="#77C82C"/>
<stop offset="0.6936" stop-color="#4EB12F"/>
<stop offset="0.9944" stop-color="#1F9732"/>
</linearGradient>
<linearGradient id="paint57_linear_482_1646" x1="22.0383" y1="49.3791" x2="19.5352" y2="83.244" gradientUnits="userSpaceOnUse">
<stop stop-color="#8F32E0"/>
<stop offset="0.0999" stop-color="#943BE1"/>
<stop offset="0.2661" stop-color="#A255E5"/>
<stop offset="0.4782" stop-color="#B97EEC"/>
<stop offset="0.7278" stop-color="#D8B8F4"/>
<stop offset="1" stop-color="white"/>
</linearGradient>
<linearGradient id="paint58_linear_482_1646" x1="19.1192" y1="33.0415" x2="18.8801" y2="36.278" gradientUnits="userSpaceOnUse">
<stop stop-color="#8F32E0"/>
<stop offset="0.0999" stop-color="#943BE1"/>
<stop offset="0.2661" stop-color="#A255E5"/>
<stop offset="0.4782" stop-color="#B97EEC"/>
<stop offset="0.7278" stop-color="#D8B8F4"/>
<stop offset="1" stop-color="white"/>
</linearGradient>
<linearGradient id="paint59_linear_482_1646" x1="19.8201" y1="60.6167" x2="0.433482" y2="60.6167" gradientUnits="userSpaceOnUse">
<stop stop-color="#9ADB2A"/>
<stop offset="0.1455" stop-color="#91D62B"/>
<stop offset="0.3873" stop-color="#77C82C"/>
<stop offset="0.6936" stop-color="#4EB12F"/>
<stop offset="0.9944" stop-color="#1F9732"/>
</linearGradient>
<linearGradient id="paint60_linear_482_1646" x1="32.2038" y1="40.5942" x2="-7.24491" y2="76.3302" gradientUnits="userSpaceOnUse">
<stop stop-color="#8F32E0"/>
<stop offset="0.0999" stop-color="#943BE1"/>
<stop offset="0.2661" stop-color="#A255E5"/>
<stop offset="0.4782" stop-color="#B97EEC"/>
<stop offset="0.7278" stop-color="#D8B8F4"/>
<stop offset="1" stop-color="white"/>
</linearGradient>
<linearGradient id="paint61_linear_482_1646" x1="27.1942" y1="21.9476" x2="17.2321" y2="21.9476" gradientUnits="userSpaceOnUse">
<stop stop-color="#9ADB2A"/>
<stop offset="0.1455" stop-color="#91D62B"/>
<stop offset="0.3873" stop-color="#77C82C"/>
<stop offset="0.6936" stop-color="#4EB12F"/>
<stop offset="0.9944" stop-color="#1F9732"/>
</linearGradient>
<linearGradient id="paint62_linear_482_1646" x1="22.2334" y1="23.5881" x2="20.7243" y2="44.0053" gradientUnits="userSpaceOnUse">
<stop stop-color="#8F32E0"/>
<stop offset="0.0999" stop-color="#943BE1"/>
<stop offset="0.2661" stop-color="#A255E5"/>
<stop offset="0.4782" stop-color="#B97EEC"/>
<stop offset="0.7278" stop-color="#D8B8F4"/>
<stop offset="1" stop-color="white"/>
</linearGradient>
<linearGradient id="paint63_linear_482_1646" x1="27.1958" y1="11.7517" x2="4.00407" y2="11.7517" gradientUnits="userSpaceOnUse">
<stop stop-color="#9ADB2A"/>
<stop offset="0.1455" stop-color="#91D62B"/>
<stop offset="0.3873" stop-color="#77C82C"/>
<stop offset="0.6936" stop-color="#4EB12F"/>
<stop offset="0.9944" stop-color="#1F9732"/>
</linearGradient>
<linearGradient id="paint64_linear_482_1646" x1="20.7285" y1="28.9556" x2="16.7815" y2="9.01482" gradientUnits="userSpaceOnUse">
<stop stop-color="#9ADB2A"/>
<stop offset="0.1455" stop-color="#91D62B"/>
<stop offset="0.3873" stop-color="#77C82C"/>
<stop offset="0.6936" stop-color="#4EB12F"/>
<stop offset="0.9944" stop-color="#1F9732"/>
</linearGradient>
<linearGradient id="paint65_linear_482_1646" x1="15.7842" y1="11.8626" x2="12.6822" y2="31.0719" gradientUnits="userSpaceOnUse">
<stop stop-color="#8F32E0"/>
<stop offset="0.0999" stop-color="#943BE1"/>
<stop offset="0.2661" stop-color="#A255E5"/>
<stop offset="0.4782" stop-color="#B97EEC"/>
<stop offset="0.7278" stop-color="#D8B8F4"/>
<stop offset="1" stop-color="white"/>
</linearGradient>
</defs>
</svg>
